<?xml version="1.0" standalone="no"?>
<!DOCTYPE svg PUBLIC "-//W3C//DTD SVG 1.1//EN" "http://www.w3.org/Graphics/SVG/1.1/DTD/svg11.dtd" >
<svg xmlns="http://www.w3.org/2000/svg" xmlns:xlink="http://www.w3.org/1999/xlink" version="1.1">
<metadata>
Created by FontForge 20170731 at Wed Apr 12 12:05:17 2023
 By Aleksey,,,
Copyright 2022 The Instrument Sans Project Authors (https://github.com/Instrument/instrument-sans)
</metadata>
<defs>
<font id="InstrumentSans-Bold" horiz-adv-x="628" >
  <font-face 
    font-family="Instrument Sans"
    font-weight="700"
    font-stretch="normal"
    units-per-em="1000"
    panose-1="0 0 0 0 0 0 0 0 0 0"
    ascent="800"
    descent="-200"
    x-height="510"
    cap-height="720"
    bbox="-77 -350 2138 986"
    underline-thickness="38"
    underline-position="-237"
    unicode-range="U+0020-2212"
  />
<missing-glyph horiz-adv-x="660" 
d="M50 0v720h560v-720h-560zM204 118h252v484h-252v-484z" />
    <glyph glyph-name="f_f_i" unicode="ffi" horiz-adv-x="964" 
d="M99 0v544q0 92 50 139t148 47q21 0 36.5 -2t30.5 -7v-125q-7 3 -17 4.5t-24 1.5q-38 0 -56 -18t-18 -52v-532h-150zM429 0v544q0 92 50 139t148 47q21 0 36.5 -2t30.5 -7v-125q-7 3 -17 4.5t-24 1.5q-38 0 -56 -18t-18 -52v-532h-150zM759 0v510h150v-510h-150zM14 396
v114h781v-114h-781zM759 567v153h150v-153h-150z" />
    <glyph glyph-name="f_f_l" unicode="ffl" horiz-adv-x="969" 
d="M429 0v534q0 92 50 139t148 47h212v-128h-186q-38 0 -56 -18t-18 -52v-522h-150zM99 0v534q0 92 50 139t148 47q21 0 36.5 -2t30.5 -7v-125q-7 3 -17 4.5t-24 1.5q-38 0 -56 -18t-18 -52v-522h-150zM14 386v124h660v-124h-660zM759 0v720h150v-720h-150z" />
    <glyph glyph-name="f_i" unicode="fi" horiz-adv-x="619" 
d="M99 0v544q0 92 50 139t148 47q21 0 36.5 -2t30.5 -7v-125q-7 3 -17 4.5t-24 1.5q-38 0 -56 -18t-18 -52v-532h-150zM429 0v510h150v-510h-150zM14 386v124h451v-124h-451zM429 567v153h150v-153h-150z" />
    <glyph glyph-name="f_l" unicode="fl" horiz-adv-x="639" 
d="M99 0v534q0 92 50 139t148 47h212v-128h-186q-38 0 -56 -18t-18 -52v-522h-150zM14 386v124h330v-124h-330zM429 0v720h150v-720h-150z" />
    <glyph glyph-name="w_w_w.liga" unicode="www" horiz-adv-x="2148" 
d="M166 0l-156 510h158l78 -356h-4l98 356h140l99 -356h-4l98 356h140l99 -356h-4l98 356h140l99 -356h-4l98 356h140l99 -356h-4l98 356h140l99 -356h-4l77 356h154l-156 -510h-144l-100 355h4l-100 -355h-137l-100 355h4l-100 -355h-137l-100 355h4l-100 -355h-137
l-100 355h4l-100 -355h-137l-100 355h4l-100 -355h-144z" />
    <glyph glyph-name="hyphen_greater.liga" unicode="&#x2d;&#x3e;" horiz-adv-x="850" 
d="M60 430h644l-91 -62l-343 342h191l349 -350l-349 -350h-191l343 342l91 -62h-644v140z" />
    <glyph glyph-name="less_hyphen.liga" unicode="&#x3c;&#x2d;" horiz-adv-x="850" 
d="M810 290h-644l91 62l343 -342h-191l-349 350l349 350h191l-343 -342l-91 62h644v-140z" />
    <glyph glyph-name=".notdef" horiz-adv-x="660" 
d="M50 0v720h560v-720h-560zM204 118h252v484h-252v-484z" />
    <glyph glyph-name=".null" horiz-adv-x="0" 
 />
    <glyph glyph-name="nonmarkingreturn" horiz-adv-x="333" 
 />
    <glyph glyph-name="space" unicode=" " horiz-adv-x="190" 
 />
    <glyph glyph-name="exclam" unicode="!" horiz-adv-x="306" 
d="M92 274l-22 466h166l-22 -466h-122zM71 0v165h165v-165h-165z" />
    <glyph glyph-name="quotedbl" unicode="&#x22;" horiz-adv-x="482" 
d="M111 420l-38 129q-12 40 -17.5 65.5t-5.5 50.5q0 18 8.5 38t27 33.5t48.5 13.5t48.5 -13.5t27 -33.5t8.5 -38q0 -25 -5.5 -50.5t-17.5 -65.5l-38 -129h-46zM325 420l-38 129q-12 40 -17.5 65.5t-5.5 50.5q0 18 8.5 38t27 33.5t48.5 13.5t48.5 -13.5t27 -33.5t8.5 -38
q0 -25 -5.5 -50.5t-17.5 -65.5l-38 -129h-46z" />
    <glyph glyph-name="numbersign" unicode="#" horiz-adv-x="732" 
d="M122 0l100 720h130l-100 -720h-130zM380 0l100 720h130l-100 -720h-130zM57 547h643v-122h-643v122zM32 305h643v-122h-643v122z" />
    <glyph glyph-name="dollar" unicode="$" horiz-adv-x="652" 
d="M275 696v134h122v-134h-122zM397 20v-129h-122v129h122zM346 -9q-140 0 -224 62.5t-98 176.5h148q7 -58 56 -91.5t125 -33.5q62 0 95.5 22t33.5 59q0 35 -20 56.5t-69 34.5l-134 37q-103 29 -150.5 79.5t-47.5 126.5q0 65 33.5 112.5t94.5 73t143 25.5q126 0 201 -59.5
t85 -157.5h-148q-10 53 -48.5 78t-98.5 25q-52 0 -83 -20t-31 -54q0 -26 17 -47.5t71 -36.5l134 -37q106 -29 152.5 -79.5t46.5 -127.5q0 -108 -75 -166t-209 -58z" />
    <glyph glyph-name="percent" unicode="%" horiz-adv-x="786" 
d="M75 0l526 720h115l-525 -720h-116zM587 -10q-42 0 -79 20t-60 61t-23 104t22.5 103.5t59.5 60.5t80 20q45 0 82.5 -20t59.5 -60.5t22 -103.5t-23 -104t-60.5 -61t-80.5 -20zM587 76q31 0 52 25.5t21 74.5q0 47 -20.5 72t-52.5 25t-51.5 -25t-19.5 -72q0 -49 19.5 -74.5
t51.5 -25.5zM197 361q-43 0 -80 20t-59.5 61t-22.5 104t22.5 103.5t59.5 60.5t80 20q45 0 82 -20t59 -60.5t22 -103.5t-23 -104t-60 -61t-80 -20zM197 447q31 0 52 25.5t21 74.5q0 47 -20.5 72t-52.5 25t-51.5 -24.5t-19.5 -72.5q0 -49 19.5 -74.5t51.5 -25.5z" />
    <glyph glyph-name="ampersand" unicode="&#x26;" horiz-adv-x="774" 
d="M576 0l-372 396q-32 35 -50 62t-25 51.5t-7 52.5q0 46 26 84t73 61t109 23q60 0 107.5 -21.5t75 -61t27.5 -94.5q0 -62 -45.5 -114.5t-131.5 -81.5l-71 85q63 22 90.5 52t27.5 64q0 29 -19 49.5t-57 20.5q-37 0 -54.5 -21t-17.5 -44q0 -16 6.5 -34t29.5 -46.5t70 -77.5
l400 -405h-192zM305 -10q-86 0 -150.5 27t-100.5 74t-36 108q0 86 57.5 142.5t171.5 92.5l69 -87q-58 -20 -90.5 -41t-45 -43.5t-12.5 -48.5q0 -48 39.5 -75t111.5 -27q47 0 92 14t82 46t59 85t22 131h141q0 -70 -20.5 -131t-57.5 -110.5t-88 -84.5t-113 -53.5t-131 -18.5z
" />
    <glyph glyph-name="quotesingle" unicode="'" horiz-adv-x="268" 
d="M111 420l-38 129q-12 40 -17.5 65.5t-5.5 50.5q0 18 8.5 38t27 33.5t48.5 13.5t48.5 -13.5t27 -33.5t8.5 -38q0 -25 -5.5 -50.5t-17.5 -65.5l-38 -129h-46z" />
    <glyph glyph-name="parenleft" unicode="(" horiz-adv-x="456" 
d="M269 -110q-102 93 -150.5 204t-48.5 226q0 113 49 224.5t150 205.5h147q-101 -94 -151.5 -201.5t-50.5 -228.5q0 -122 52 -229.5t150 -200.5h-147z" />
    <glyph glyph-name="parenright" unicode=")" horiz-adv-x="456" 
d="M187 754q102 -93 150.5 -204t48.5 -226q0 -113 -49 -224.5t-150 -205.5h-147q101 94 151.5 201.5t50.5 228.5q0 122 -52 229.5t-150 200.5h147z" />
    <glyph glyph-name="asterisk" unicode="*" horiz-adv-x="441" 
d="M157 407l28 106l-81 -77l-64 108l109 30l-109 29l64 108l81 -77l-28 106h128l-28 -106l81 77l63 -108l-108 -29l108 -30l-63 -108l-81 77l28 -106h-128z" />
    <glyph glyph-name="plus" unicode="+" horiz-adv-x="551" 
d="M220 133v477h112v-477h-112zM50 317v108h451v-108h-451z" />
    <glyph glyph-name="comma" unicode="," horiz-adv-x="285" 
d="M62 -168v73q47 14 61 41t14 70l61 -16h-138v165h165v-117q0 -79 -37 -136t-126 -80z" />
    <glyph glyph-name="hyphen" unicode="-" horiz-adv-x="486" 
d="M60 212v120h366v-120h-366z" />
    <glyph glyph-name="period" unicode="." horiz-adv-x="285" 
d="M60 0v165h165v-165h-165z" />
    <glyph glyph-name="slash" unicode="/" horiz-adv-x="445" 
d="M25 -80l265 850h130l-265 -850h-130z" />
    <glyph glyph-name="zero" unicode="0" horiz-adv-x="682" 
d="M341 -10q-90 0 -160.5 47.5t-110.5 132t-40 193.5t40 191.5t110.5 129t160.5 46.5q91 0 161 -46.5t110 -129t40 -191.5q0 -110 -40 -194t-110.5 -131.5t-160.5 -47.5zM341 118q51 0 84 34t49 90t16 122t-16 120t-49 86t-84 32t-84 -32.5t-49 -86.5t-16 -119
q0 -67 16 -123t49.5 -89.5t83.5 -33.5z" />
    <glyph glyph-name="one" unicode="1" horiz-adv-x="385" 
d="M185 0v588l17 -15q-15 -31 -43 -57.5t-65.5 -45t-83.5 -27.5v150q37 5 77 24.5t72.5 47t46.5 55.5h129v-720h-150z" />
    <glyph glyph-name="two" unicode="2" horiz-adv-x="563" 
d="M25 0v120q99 81 165.5 139.5t106 103.5t56.5 82t17 74q0 44 -23.5 68.5t-65.5 24.5q-44 0 -73 -27t-36 -74h-154q11 102 83 160.5t186 58.5q116 0 181 -59.5t65 -165.5q0 -50 -16.5 -96t-54.5 -95t-103.5 -107.5t-163.5 -133.5l-37 45h389v-118h-522z" />
    <glyph glyph-name="three" unicode="3" horiz-adv-x="582" 
d="M298 -10q-76 0 -136.5 27.5t-98 81t-43.5 130.5h153q8 -62 38 -91.5t81 -29.5q44 0 73.5 26t29.5 76q0 48 -28.5 77.5t-96.5 29.5h-64v116h61q59 0 85 26t26 66q0 38 -20 62.5t-68 24.5q-41 0 -71 -25t-37 -76h-154q9 68 43 117t91 75.5t133 26.5t130.5 -23.5t84.5 -66.5
t30 -103q0 -50 -23 -88t-57.5 -59t-69.5 -21l-1 21q53 0 91 -25.5t58 -68t20 -94.5q0 -65 -34 -113t-93 -73.5t-133 -25.5z" />
    <glyph glyph-name="four" unicode="4" horiz-adv-x="622" 
d="M374 0v190l8 20v411l61 -33l-292 -387l-71 53h522v-118h-578v118l354 466h152v-720h-156z" />
    <glyph glyph-name="five" unicode="5" horiz-adv-x="585" 
d="M294 -10q-111 0 -182 57t-88 160h153q8 -46 40 -72.5t73 -26.5q47 0 75.5 32.5t28.5 98.5q0 63 -27 96.5t-74 33.5q-27 0 -51 -12.5t-40 -40.5h-140l37 404h414v-118h-360l82 11l-18 -225l-50 7q26 41 63.5 62.5t95.5 21.5q69 0 121 -30t81 -84t29 -128q0 -78 -33 -133
t-92 -84.5t-138 -29.5z" />
    <glyph glyph-name="six" unicode="6" horiz-adv-x="623" 
d="M327 -10q-142 0 -219.5 92.5t-77.5 261.5q0 119 37.5 205.5t106.5 133.5t162 47q105 0 171.5 -55.5t81.5 -153.5h-153q-5 44 -32.5 67.5t-68.5 23.5q-73 0 -109 -63t-36 -195v-65l-31 9q11 48 39 83t70.5 54t95.5 19q70 0 123 -28.5t82.5 -80t29.5 -120.5
q0 -71 -33.5 -124t-94.5 -82t-144 -29zM316 108q51 0 85.5 29.5t34.5 86.5t-35.5 85.5t-86.5 28.5q-52 0 -88 -28.5t-36 -83.5q0 -37 17.5 -63.5t46 -40.5t62.5 -14z" />
    <glyph glyph-name="seven" unicode="7" horiz-adv-x="575" 
d="M149 0q15 171 84.5 329.5t176.5 291.5v-19h-386v118h531v-110q-68 -97 -119 -195t-82 -200.5t-40 -214.5h-165z" />
    <glyph glyph-name="eight" unicode="8" horiz-adv-x="606" 
d="M304 -10q-82 0 -144 27t-97 75t-35 112q0 54 23.5 96t66 66t98.5 24l16 -21q-59 0 -100 19.5t-62.5 56.5t-21.5 87q0 60 31.5 104.5t88.5 69t135 24.5t135 -24.5t88.5 -69t31.5 -104.5q0 -50 -21.5 -87t-62.5 -56.5t-101 -19.5l17 21q56 0 98.5 -24t66 -66t23.5 -97
q0 -64 -34.5 -112t-96 -74.5t-143.5 -26.5zM303 108q53 0 82.5 28t29.5 79q0 50 -31 78t-81 28q-51 0 -81.5 -28t-30.5 -78q0 -52 30 -79.5t82 -27.5zM303 429q41 0 67 24.5t26 67.5t-26 67t-68 24q-41 0 -66.5 -24.5t-25.5 -66.5q0 -43 26.5 -67.5t66.5 -24.5z" />
    <glyph glyph-name="nine" unicode="9" horiz-adv-x="624" 
d="M292 -10q-78 0 -132.5 28.5t-85.5 79t-39 116.5h153q5 -53 32 -79.5t77 -26.5q36 0 60.5 14.5t39 45t21 79.5t6.5 119v65l41 -1q-11 -48 -39 -83t-70.5 -54t-97.5 -19q-69 0 -121.5 28.5t-82.5 79t-30 116.5q0 70 34 122t95 81t142 29q144 0 221.5 -92.5t77.5 -267.5
q0 -118 -35.5 -203.5t-103 -131t-163.5 -45.5zM309 390q56 0 84 30t28 76q0 32 -12.5 58.5t-37.5 42t-62 15.5q-55 0 -85 -32.5t-30 -79.5t30 -78.5t85 -31.5z" />
    <glyph glyph-name="colon" unicode=":" horiz-adv-x="285" 
d="M60 0v165h165v-165h-165zM60 325v165h165v-165h-165z" />
    <glyph glyph-name="semicolon" unicode=";" horiz-adv-x="285" 
d="M62 -168v73q47 14 61 41t14 70l61 -16h-138v165h165v-117q0 -79 -37 -136t-126 -80zM60 325v165h165v-165h-165z" />
    <glyph glyph-name="less" unicode="&#x3c;" horiz-adv-x="551" 
d="M501 580v-115l-333 -105v22l333 -105v-115l-451 150v118z" />
    <glyph glyph-name="equal" unicode="=" horiz-adv-x="551" 
d="M50 417v108h451v-108h-451zM50 217v108h451v-108h-451z" />
    <glyph glyph-name="greater" unicode="&#x3e;" horiz-adv-x="551" 
d="M50 162v115l333 105v-22l-333 105v115l451 -150v-118z" />
    <glyph glyph-name="question" unicode="?" horiz-adv-x="587" 
d="M231 274q0 47 12.5 79t32.5 54t42 39t42 32t32.5 33.5t12.5 43.5q0 38 -25.5 57.5t-70.5 19.5q-55 0 -90.5 -26t-43.5 -75h-147q10 67 47 116t97 76t138 27q76 0 132 -24t87.5 -67.5t31.5 -101.5q0 -41 -13.5 -71t-34 -51.5t-44.5 -39t-44.5 -35t-34 -38t-13.5 -48.5
h-146zM222 0v165h165v-165h-165z" />
    <glyph glyph-name="at" unicode="@" horiz-adv-x="874" 
d="M431 -10q-122 0 -212 41t-139.5 116.5t-49.5 178.5q0 86 30 159.5t88.5 128.5t144 85.5t197.5 30.5q107 0 186.5 -35.5t123.5 -99.5t44 -150q0 -57 -19.5 -110t-53.5 -94.5t-78 -65.5t-92 -24q-41 0 -68 17t-37 44.5t0 60.5l-1 -21q-22 -46 -61 -73t-87 -27
q-64 0 -103.5 46.5t-39.5 123.5q0 51 16.5 96.5t45 80t66 54t80.5 19.5q65 0 95.5 -34.5t23.5 -84.5l-9 1l22 84h130l-55 -212q-11 -43 -7 -63.5t25 -20.5q22 0 41.5 15.5t34.5 42t23.5 61t8.5 72.5q0 69 -31 114.5t-88.5 68.5t-137.5 23q-92 0 -159.5 -23.5t-111.5 -65.5
t-65.5 -99t-21.5 -123q0 -77 36 -132.5t102 -85t156 -29.5q51 0 102.5 10t102.5 29l33 -85q-49 -22 -108 -33.5t-123 -11.5zM407 258q20 0 36.5 9t29 25t19.5 38t7 48q0 42 -18 65t-50 23q-20 0 -37 -9t-30 -25.5t-20 -38t-7 -47.5q0 -43 19.5 -65.5t50.5 -22.5z" />
    <glyph glyph-name="A" unicode="A" horiz-adv-x="736" 
d="M24 0l258 720h132l-237 -720h-153zM552 0l-236 720h138l258 -720h-160zM160 279h404v-120h-404v120z" />
    <glyph glyph-name="B" unicode="B" horiz-adv-x="649" 
d="M176 0v110h186q50 0 75.5 27.5t25.5 76.5q0 50 -27.5 79t-78.5 29h-181v110h173q47 0 71.5 22.5t24.5 66.5t-23.5 66.5t-69.5 22.5h-176v110h209q96 0 155 -49t59 -133q0 -53 -25 -91t-67 -58t-94 -20l5 21q56 0 101.5 -24t72.5 -67.5t27 -102.5t-27.5 -103.5t-77 -68.5
t-116.5 -24h-222zM50 0v720h154v-720h-154z" />
    <glyph glyph-name="C" unicode="C" horiz-adv-x="750" 
d="M391 -10q-78 0 -144 27.5t-114.5 77.5t-75.5 118.5t-27 149.5t26.5 148t75 116.5t114.5 76t145 26.5q89 0 160.5 -34.5t117 -97t55.5 -146.5h-150q-13 77 -63 116.5t-119 39.5q-61 0 -107.5 -29t-72.5 -83.5t-26 -131.5q0 -78 26.5 -134.5t73.5 -87t108 -30.5
q65 0 115 39t65 116h152q-13 -84 -59 -146.5t-117 -96.5t-159 -34z" />
    <glyph glyph-name="D" unicode="D" horiz-adv-x="756" 
d="M144 0v120h182q78 0 132.5 31.5t83 86.5t28.5 126q0 70 -28 123t-82.5 83t-133.5 30h-179v120h179q121 0 211 -43.5t139.5 -124t49.5 -190.5t-50 -191.5t-139.5 -126t-209.5 -44.5h-183zM50 0v720h154v-720h-154z" />
    <glyph glyph-name="E" unicode="E" horiz-adv-x="626" 
d="M50 0v720h154v-720h-154zM122 0v118h464v-118h-464zM122 310v116h429v-116h-429zM122 602v118h452v-118h-452z" />
    <glyph glyph-name="F" unicode="F" horiz-adv-x="590" 
d="M50 0v720h154v-720h-154zM122 279v118h413v-118h-413zM122 602v118h436v-118h-436z" />
    <glyph glyph-name="G" unicode="G" horiz-adv-x="763" 
d="M406 -10q-117 0 -201 46t-129.5 129t-45.5 194q0 110 46 193.5t127.5 130.5t189.5 47q89 0 159.5 -32t114 -87.5t51.5 -128.5h-154q-10 59 -55.5 92.5t-113.5 33.5q-63 0 -110 -29.5t-73 -84.5t-26 -132q0 -80 26 -136.5t76.5 -86t124.5 -29.5q60 0 102 15t64 42l146 -58
q-58 -58 -134.5 -88.5t-184.5 -30.5zM571 109v198l31 -31h-190v118h313v-285h-154z" />
    <glyph glyph-name="H" unicode="H" horiz-adv-x="720" 
d="M50 0v720h154v-720h-154zM516 0v720h154v-720h-154zM122 434h464v-118h-464v118z" />
    <glyph glyph-name="I" unicode="I" horiz-adv-x="254" 
d="M50 0v720h154v-720h-154z" />
    <glyph glyph-name="J" unicode="J" horiz-adv-x="413" 
d="M134 -10q-38 0 -73 5.5t-51 13.5v118q18 -7 43 -12t51 -5q56 0 81.5 18.5t25.5 67.5v524h154v-531q0 -100 -59 -149.5t-172 -49.5z" />
    <glyph glyph-name="K" unicode="K" horiz-adv-x="722" 
d="M50 0v720h154v-720h-154zM155 374l324 346h205l-342 -346h-187zM495 0l-342 374h189l362 -374h-209z" />
    <glyph glyph-name="L" unicode="L" horiz-adv-x="590" 
d="M50 0v720h154v-720h-154zM122 0v118h428v-118h-428z" />
    <glyph glyph-name="M" unicode="M" horiz-adv-x="894" 
d="M50 0v720h240l200 -694h-87l200 694h241v-720h-152v677h26l-195 -677h-159l-193 671h25v-671h-146z" />
    <glyph glyph-name="N" unicode="N" horiz-adv-x="720" 
d="M50 0v720h199l320 -636l-49 -12v648h150v-720h-199l-320 636l49 12v-648h-150z" />
    <glyph glyph-name="O" unicode="O" horiz-adv-x="798" 
d="M399 -10q-80 0 -147.5 27t-117 76.5t-77 118t-27.5 151.5q0 110 47 192.5t130.5 128.5t190.5 46q109 0 192 -46t130.5 -129t47.5 -193q0 -82 -27.5 -150.5t-77 -118t-117 -76.5t-147.5 -27zM398 112q63 0 111 32t75.5 88.5t27.5 131.5q0 74 -27 129t-75 85t-112 30
q-63 0 -111 -30t-74.5 -84.5t-26.5 -129.5q0 -76 27 -132.5t75 -88t110 -31.5z" />
    <glyph glyph-name="P" unicode="P" horiz-adv-x="672" 
d="M50 0v720h342q80 0 137.5 -28t89 -78t31.5 -117t-32 -118t-89.5 -79.5t-136.5 -28.5h-220v118h212q53 0 82.5 29.5t29.5 77.5t-29.5 77t-82.5 29h-180v-602h-154z" />
    <glyph glyph-name="Q" unicode="Q" horiz-adv-x="815" 
d="M399 -10q-107 0 -190.5 47t-131 131t-47.5 195q0 110 47 192.5t130.5 128.5t190.5 46q109 0 192 -46t130.5 -129t47.5 -193q0 -70 -22.5 -132t-72 -107t-130.5 -67zM398 106q63 0 111 31t75.5 89t27.5 138q0 74 -27 129t-75 85t-112 30q-63 0 -111 -30t-74.5 -84.5
t-26.5 -129.5q0 -81 27 -138.5t75 -88.5t110 -31zM399 -10v108l406 20v-118q-64 0 -114.5 -1.5t-95.5 -3.5t-92 -3.5t-104 -1.5z" />
    <glyph glyph-name="R" unicode="R" horiz-adv-x="668" 
d="M46 0v720h322q78 0 136 -26.5t90 -74.5t32 -112q0 -63 -32 -110.5t-90 -74t-136 -26.5h-200v113h196q55 0 84.5 25.5t29.5 71.5q0 47 -29 71.5t-85 24.5h-164v-602h-154zM452 0l-289 374h163l334 -374h-208z" />
    <glyph glyph-name="S" unicode="S" horiz-adv-x="652" 
d="M346 -9q-140 0 -224 62.5t-98 176.5h148q7 -58 56 -91.5t125 -33.5q62 0 95.5 22t33.5 59q0 35 -20 56.5t-69 34.5l-134 37q-103 29 -150.5 79.5t-47.5 126.5q0 65 33.5 112.5t94.5 73t143 25.5q126 0 201 -59.5t85 -157.5h-148q-10 53 -48.5 78t-98.5 25q-52 0 -83 -20
t-31 -54q0 -26 17 -47.5t71 -36.5l134 -37q106 -29 152.5 -79.5t46.5 -127.5q0 -108 -75 -166t-209 -58z" />
    <glyph glyph-name="T" unicode="T" horiz-adv-x="672" 
d="M259 0v602h-235v118h624v-118h-235v-602h-154z" />
    <glyph glyph-name="U" unicode="U" horiz-adv-x="700" 
d="M349 -10q-154 0 -230.5 84.5t-76.5 246.5v399h154v-426q0 -94 41 -138t113 -44t113 44t41 137v427h154v-401q0 -160 -77 -244.5t-232 -84.5z" />
    <glyph glyph-name="V" unicode="V" horiz-adv-x="736" 
d="M282 0l-258 720h160l197 -600h-19l198 600h152l-258 -720h-172z" />
    <glyph glyph-name="W" unicode="W" horiz-adv-x="1086" 
d="M237 0l-203 720h156l168 -659h-49l150 659h175l148 -659h-48l169 659h149l-203 -720h-172l-153 646h40l-155 -646h-172z" />
    <glyph glyph-name="X" unicode="X" horiz-adv-x="716" 
d="M516 0l-199 315l-278 405h180l187 -297l290 -423h-180zM339 424l194 296h163l-306 -425zM374 291l-191 -291h-163l303 420z" />
    <glyph glyph-name="Y" unicode="Y" horiz-adv-x="712" 
d="M279 0v291l-268 429h185l212 -381h-87l211 381h169l-268 -429v-291h-154z" />
    <glyph glyph-name="Z" unicode="Z" horiz-adv-x="635" 
d="M40 0v104l398 555l37 -57h-421v118h541v-104l-392 -548l-35 50h431v-118h-559z" />
    <glyph glyph-name="bracketleft" unicode="[" horiz-adv-x="456" 
d="M80 -108v858h326v-118h-184v-622h184v-118h-326z" />
    <glyph glyph-name="backslash" unicode="\" horiz-adv-x="445" 
d="M25 770h130l265 -850h-130z" />
    <glyph glyph-name="bracketright" unicode="]" horiz-adv-x="456" 
d="M376 750v-858h-326v118h184v622h-184v118h326z" />
    <glyph glyph-name="asciicircum" unicode="^" horiz-adv-x="551" 
d="M173 491h-112l153 249h123l153 -249h-112l-147 208h89z" />
    <glyph glyph-name="underscore" unicode="_" horiz-adv-x="486" 
d="M0 -170v110h486v-110h-486z" />
    <glyph glyph-name="grave" unicode="`" horiz-adv-x="354" 
d="M225 583l-165 157h198l99 -157h-132z" />
    <glyph glyph-name="a" unicode="a" horiz-adv-x="571" 
d="M381 0q-6 22 -8.5 47t-2.5 58h-4v241q0 31 -20.5 48.5t-60.5 17.5q-38 0 -60.5 -13t-29.5 -38h-143q10 69 71 114t167 45q110 0 168 -49t58 -141v-225q0 -25 3.5 -50.5t11.5 -54.5h-150zM203 -10q-76 0 -121 38.5t-45 102.5q0 71 53.5 114.5t149.5 56.5l149 21v-87
l-124 -19q-40 -6 -59 -22t-19 -44q0 -25 18 -38t48 -13q47 0 80 25.5t33 59.5l14 -80q-22 -57 -67 -86t-110 -29z" />
    <glyph glyph-name="b" unicode="b" 
d="M371 -10q-73 0 -118.5 34t-53.5 93l8 1v-118h-147v720h150v-323l-9 2q11 56 58.5 88.5t119.5 32.5q69 0 119.5 -32.5t78 -91.5t27.5 -139q0 -81 -29 -141t-81 -93t-123 -33zM329 110q53 0 86 38t33 108t-33.5 107t-87.5 37q-52 0 -85.5 -37.5t-33.5 -107.5t33.5 -107.5
t87.5 -37.5z" />
    <glyph glyph-name="c" unicode="c" horiz-adv-x="562" 
d="M291 -10q-80 0 -141 34t-95.5 94t-34.5 137t34.5 137t95.5 94t141 34q67 0 120.5 -24.5t88 -67.5t44.5 -101h-145q-11 37 -39.5 56t-66.5 19q-36 0 -62.5 -18t-40.5 -51t-14 -78t14 -78t40.5 -51t62.5 -18q38 0 66.5 19t39.5 56h145q-10 -58 -44.5 -101t-88 -67.5
t-120.5 -24.5z" />
    <glyph glyph-name="d" unicode="d" 
d="M421 0v113l10 -2q-10 -55 -59.5 -88t-118.5 -33q-70 0 -121.5 32.5t-79.5 91.5t-28 139q0 81 29 141t81.5 93t122.5 33q73 0 118.5 -34t53.5 -93l-11 -1v328h150v-720h-147zM301 110q53 0 86 37.5t33 107.5t-33.5 107.5t-87.5 37.5q-52 0 -85.5 -38t-33.5 -108t33.5 -107
t87.5 -37z" />
    <glyph glyph-name="e" unicode="e" horiz-adv-x="574" 
d="M300 -10q-85 0 -148 33.5t-97.5 93.5t-34.5 138q0 79 34.5 138.5t96.5 93t144 33.5q79 0 137 -32t90 -89t32 -134q0 -16 -1 -29.5t-3 -25.5h-442v99h321l-26 -18q0 62 -29.5 91.5t-80.5 29.5q-59 0 -91.5 -40t-32.5 -120q0 -78 32.5 -116t97.5 -38q36 0 62 12t39 39h141
q-25 -74 -85.5 -116.5t-155.5 -42.5z" />
    <glyph glyph-name="f" unicode="f" horiz-adv-x="378" 
d="M99 0v544q0 92 50 139t148 47q21 0 36.5 -2t30.5 -7v-115q-7 3 -17 4.5t-24 1.5q-38 0 -56 -18t-18 -52v-542h-150zM14 396v114h339v-114h-339z" />
    <glyph glyph-name="g" unicode="g" 
d="M295 -215q-106 0 -172.5 45t-78.5 122h142q8 -19 34.5 -29t67.5 -10q68 0 99 26t31 81v111l8 -2q-10 -56 -58 -88.5t-119 -32.5q-68 0 -118.5 31.5t-78.5 88.5t-28 134q0 78 29 136t81.5 90t122.5 32q72 0 117.5 -34t53.5 -93l-7 -1v118h147v-488q0 -110 -73 -173.5
t-200 -63.5zM301 123q53 0 86 36.5t33 104.5t-33.5 104.5t-87.5 36.5q-52 0 -85.5 -37t-33.5 -105t33.5 -104t87.5 -36z" />
    <glyph glyph-name="h" unicode="h" horiz-adv-x="619" 
d="M60 0v720h150v-720h-150zM415 0v316q0 42 -21.5 63t-62.5 21q-35 0 -62.5 -16t-43 -44t-15.5 -66l-13 123q25 56 73.5 89.5t119.5 33.5q85 0 130 -47.5t45 -127.5v-345h-150z" />
    <glyph glyph-name="i" unicode="i" horiz-adv-x="270" 
d="M60 0v510h150v-510h-150zM55 578v162h160v-162h-160z" />
    <glyph glyph-name="j" unicode="j" horiz-adv-x="270" 
d="M32 -215q-17 0 -32 2.5t-30 6.5v115q8 -3 17 -4.5t19 -1.5q26 0 40 12.5t14 37.5v557h150v-559q0 -77 -43.5 -121.5t-134.5 -44.5zM55 578v162h160v-162h-160z" />
    <glyph glyph-name="k" unicode="k" horiz-adv-x="569" 
d="M60 0v720h150v-720h-150zM387 0l-212 265l207 245h173l-243 -268l7 47l246 -289h-178z" />
    <glyph glyph-name="l" unicode="l" horiz-adv-x="270" 
d="M60 0v720h150v-720h-150z" />
    <glyph glyph-name="m" unicode="m" horiz-adv-x="950" 
d="M60 0v510h147v-120h3v-390h-150zM403 0v324q0 39 -20.5 57.5t-57.5 18.5q-32 0 -58.5 -14.5t-41.5 -41t-15 -62.5l-13 115q25 56 72.5 89.5t114.5 33.5q80 0 124.5 -45t44.5 -113v-362h-150zM746 0v324q0 39 -20.5 57.5t-57.5 18.5q-32 0 -58.5 -14.5t-41.5 -41
t-15 -62.5l-23 115q25 56 74.5 89.5t119.5 33.5q83 0 127.5 -46.5t44.5 -121.5v-352h-150z" />
    <glyph glyph-name="n" unicode="n" horiz-adv-x="619" 
d="M60 0v510h147v-120h3v-390h-150zM415 0v316q0 42 -21.5 63t-62.5 21q-35 0 -62.5 -16t-43 -44t-15.5 -66l-13 123q25 56 73.5 89.5t119.5 33.5q85 0 130 -47.5t45 -127.5v-345h-150z" />
    <glyph glyph-name="o" unicode="o" horiz-adv-x="604" 
d="M302 -10q-84 0 -147.5 33.5t-99 94t-35.5 139.5t35.5 138t99 92t147.5 33q85 0 148.5 -33t98.5 -92t35 -138t-35.5 -139.5t-99 -94t-147.5 -33.5zM302 108q35 0 63.5 18t45.5 51.5t17 80.5q0 69 -36.5 106.5t-89.5 37.5t-89.5 -38t-36.5 -106q0 -47 17 -80.5t45.5 -51.5
t63.5 -18z" />
    <glyph glyph-name="p" unicode="p" 
d="M371 -10q-73 0 -117 34t-52 93l8 1v-323h-150v715h147v-113l-9 2q11 56 60 88.5t121 32.5q69 0 119.5 -32.5t78 -91.5t27.5 -139q0 -81 -29 -141t-81 -93t-123 -33zM329 110q53 0 86 38t33 108t-33.5 107t-87.5 37q-52 0 -85.5 -37.5t-33.5 -107.5t33.5 -107.5
t87.5 -37.5z" />
    <glyph glyph-name="q" unicode="q" 
d="M418 -205v318l13 -2q-10 -55 -59.5 -88t-118.5 -33q-70 0 -121.5 32.5t-79.5 91.5t-28 139q0 81 29 141t81.5 93t122.5 33q73 0 118.5 -34t53.5 -93l-8 -1v118h147v-715h-150zM301 110q55 0 87 37.5t32 107.5t-32.5 107.5t-88.5 37.5q-55 0 -87 -38t-32 -108t32.5 -107
t88.5 -37z" />
    <glyph glyph-name="r" unicode="r" horiz-adv-x="398" 
d="M60 0v510h147v-120h3v-390h-150zM210 266l-13 121q18 65 59 99t102 34q19 0 28 -4v-140q-5 2 -14 2.5t-22 0.5q-72 0 -106 -25.5t-34 -87.5z" />
    <glyph glyph-name="s" unicode="s" horiz-adv-x="504" 
d="M266 -10q-112 0 -178 45t-72 124h134q5 -34 34.5 -51.5t81.5 -17.5q47 0 68.5 13.5t21.5 38.5q0 19 -12.5 29.5t-45.5 17.5l-82 17q-91 19 -134 57.5t-43 99.5q0 74 57 115.5t159 41.5q101 0 161 -40.5t66 -112.5h-134q-4 26 -28 39.5t-68 13.5q-40 0 -59.5 -11.5
t-19.5 -32.5q0 -18 16 -28.5t53 -18.5l92 -19q77 -16 116.5 -59.5t39.5 -102.5q0 -75 -58.5 -116.5t-165.5 -41.5z" />
    <glyph glyph-name="t" unicode="t" horiz-adv-x="421" 
d="M302 -11q-98 0 -145.5 47.5t-47.5 144.5v443l150 56v-504q0 -34 19 -51t59 -17q15 0 28 3t26 7v-114q-13 -7 -36.5 -11t-52.5 -4zM14 396v114h377v-114h-377z" />
    <glyph glyph-name="u" unicode="u" horiz-adv-x="611" 
d="M225 -10q-54 0 -92.5 23.5t-58.5 63t-20 88.5v345h150v-316q0 -42 21 -63t59 -21q34 0 60 16t41.5 44.5t15.5 65.5l13 -123q-25 -55 -73 -89t-116 -34zM404 0v120h-3v390h150v-510h-147z" />
    <glyph glyph-name="v" unicode="v" horiz-adv-x="543" 
d="M199 0l-201 510h161l157 -476h-84l156 476h157l-201 -510h-145z" />
    <glyph glyph-name="w" unicode="w" horiz-adv-x="816" 
d="M166 0l-156 510h158l78 -356h-4l98 356h140l99 -356h-4l77 356h154l-156 -510h-144l-100 355h4l-100 -355h-144z" />
    <glyph glyph-name="x" unicode="x" horiz-adv-x="605" 
d="M413 0l-151 224l-217 286h168l135 -201l233 -309h-168zM274 317l135 193h164l-228 -298zM332 204l-145 -204h-163l237 309z" />
    <glyph glyph-name="y" unicode="y" horiz-adv-x="543" 
d="M86 -205l141 312l26 43l132 360h160l-309 -715h-150zM194 10l-196 500h162l161 -456z" />
    <glyph glyph-name="z" unicode="z" horiz-adv-x="522" 
d="M44 0v104l284 345l30 -53h-306v114h426v-104l-278 -338l-28 46h310v-114h-438z" />
    <glyph glyph-name="braceleft" unicode="{" horiz-adv-x="456" 
d="M308 -108q-78 0 -122.5 25t-59 68.5t-2.5 99.5l16 72q12 53 -7 79t-69 26h-34v118h34q50 0 69 26.5t7 78.5l-16 72q-12 56 2.5 99.5t59 68.5t122.5 25h98v-118h-90q-33 0 -48.5 -21t-6.5 -56l20 -76q16 -59 -10 -101t-78 -57q52 -15 78 -57t10 -101l-20 -76
q-9 -35 6.5 -56t48.5 -21h90v-118h-98z" />
    <glyph glyph-name="bar" unicode="|" horiz-adv-x="230" 
d="M50 -130v920h130v-920h-130z" />
    <glyph glyph-name="braceright" unicode="}" horiz-adv-x="456" 
d="M148 750q78 0 122.5 -25t59.5 -68.5t2 -99.5l-16 -72q-12 -52 7 -78.5t69 -26.5h34v-118h-34q-50 0 -69 -26t-7 -79l16 -72q13 -56 -2 -99.5t-59.5 -68.5t-122.5 -25h-98v118h90q33 0 48.5 21t6.5 56l-20 76q-16 59 10 101t78 57q-52 15 -78 57t-10 101l20 76
q9 35 -6.5 56t-48.5 21h-90v118h98z" />
    <glyph glyph-name="asciitilde" unicode="~" horiz-adv-x="551" 
d="M394 267q44 0 80 18.5t59 56.5t27 96h-98q-7 -26 -26 -39.5t-48 -13.5q-25 0 -49 9.5t-50.5 22t-58.5 22t-73 9.5q-43 0 -79 -18.5t-59 -56t-27 -96.5h98q8 26 26 39.5t48 13.5q26 0 50 -9.5t49.5 -22t57 -22t73.5 -9.5z" />
    <glyph glyph-name="uni00A0" unicode="&#xa0;" horiz-adv-x="190" 
 />
    <glyph glyph-name="exclamdown" unicode="&#xa1;" horiz-adv-x="306" 
d="M70 -205l22 441h122l22 -441h-166zM236 510v-165h-165v165h165z" />
    <glyph glyph-name="cent" unicode="&#xa2;" horiz-adv-x="562" 
d="M233 482v134h122v-134h-122zM355 20v-129h-122v129h122zM291 -10q-80 0 -141 34t-95.5 94t-34.5 137t34.5 137t95.5 94t141 34q67 0 120.5 -24.5t88 -67.5t44.5 -101h-145q-11 37 -39.5 56t-66.5 19q-36 0 -62.5 -18t-40.5 -51t-14 -78t14 -78t40.5 -51t62.5 -18
q38 0 66.5 19t39.5 56h145q-10 -58 -44.5 -101t-88 -67.5t-120.5 -24.5z" />
    <glyph glyph-name="sterling" unicode="&#xa3;" horiz-adv-x="606" 
d="M37 0v120q43 51 59.5 89t16.5 69t-11.5 57t-26.5 52.5t-26.5 56.5t-11.5 69q0 64 31.5 112.5t90.5 76.5t139 28q82 0 142.5 -28.5t96 -79t41.5 -116.5h-146q-7 53 -37 79.5t-89 26.5q-57 0 -85 -27t-28 -71q0 -28 10.5 -54t24 -52.5t24 -55.5t10.5 -63q0 -40 -20.5 -89
t-75.5 -111l-18 39h403v-128h-514zM10 277v128h464v-128h-464z" />
    <glyph glyph-name="yen" unicode="&#xa5;" horiz-adv-x="652" 
d="M249 0v291l-238 429h185l196 -411h-115l195 411h169l-238 -429v-291h-154zM42 242v98h569v-98h-569zM287 382h-245v98h194zM445 480h166v-98h-216z" />
    <glyph glyph-name="section" unicode="&#xa7;" horiz-adv-x="530" 
d="M284 181v94q50 0 70 13.5t20 40.5q0 26 -17 40t-50 21l-73 15q-91 20 -134 59.5t-43 102.5q0 77 57 120t159 43q101 0 161 -42t66 -116h-134q-4 27 -28 40.5t-68 13.5q-40 0 -59.5 -11.5t-19.5 -33.5q0 -19 16 -30t53 -19l92 -19q77 -16 116.5 -61t39.5 -107
q0 -78 -58.5 -121t-165.5 -43zM259 -50q-101 0 -161 42t-66 116h134q4 -27 28.5 -40.5t67.5 -13.5q40 0 59.5 11.5t19.5 33.5q0 19 -15.5 30t-53.5 19l-92 19q-77 17 -116.5 62t-39.5 106q0 78 58.5 121t165.5 43v-94q-50 0 -70 -13.5t-20 -40.5q0 -26 17.5 -39t50.5 -21
l72 -16q92 -19 134.5 -59t42.5 -103q0 -77 -57 -120t-159 -43z" />
    <glyph glyph-name="dieresis" unicode="&#xa8;" horiz-adv-x="510" 
d="M290 577v163h160v-163h-160zM60 577v163h160v-163h-160z" />
    <glyph glyph-name="copyright" unicode="&#xa9;" horiz-adv-x="810" 
d="M405 -15q-78 0 -146 29t-119.5 80.5t-80.5 119.5t-29 146t29 146t80.5 119.5t119.5 80.5t146 29t146 -29t119.5 -80.5t80.5 -119.5t29 -146t-29 -146t-80.5 -119.5t-119.5 -80.5t-146 -29zM405 50q64 0 119.5 24t98 67t66.5 99t24 120t-24 120t-66.5 99t-98 67t-119.5 24
t-119.5 -24t-98 -67t-66.5 -99t-24 -120t24 -120t66.5 -99t98 -67t119.5 -24zM413 140q-62 0 -111 28.5t-76.5 79t-27.5 114.5t27.5 113t76 77t111.5 28q80 0 134 -45.5t64 -119.5h-92q-7 41 -36 64.5t-70 23.5q-54 0 -88 -38.5t-34 -102.5t34.5 -104.5t89.5 -40.5
q38 0 66.5 24t37.5 64h93q-12 -75 -66.5 -120t-132.5 -45z" />
    <glyph glyph-name="ordfeminine" unicode="&#xaa;" horiz-adv-x="377" 
d="M233 418q-4 13 -6 28.5t-2 36.5h-1v136q0 13 -10 21.5t-29 8.5q-15 0 -24.5 -4.5t-14.5 -10.5h-101q7 41 43 68.5t100 27.5q67 0 103.5 -30t36.5 -86v-131q0 -19 2.5 -34t6.5 -31h-104zM129 412q-42 0 -67 23t-25 61q0 44 29.5 73t84.5 36l83 11v-64l-65 -12
q-15 -3 -21.5 -8.5t-6.5 -16.5q0 -10 8 -16t20 -6q21 0 38 14.5t17 31.5l8 -56q-13 -36 -40.5 -53.5t-62.5 -17.5z" />
    <glyph glyph-name="guillemotleft" unicode="&#xab;" horiz-adv-x="574" 
d="M177 68l-132 183l132 183h142l-128 -183l128 -183h-142zM377 68l-132 183l132 183h142l-128 -183l128 -183h-142z" />
    <glyph glyph-name="registered" unicode="&#xae;" horiz-adv-x="810" 
d="M405 -15q-78 0 -146 29t-119.5 80.5t-80.5 119.5t-29 146t29 146t80.5 119.5t119.5 80.5t146 29t146 -29t119.5 -80.5t80.5 -119.5t29 -146t-29 -146t-80.5 -119.5t-119.5 -80.5t-146 -29zM405 50q64 0 119.5 24t98 67t66.5 99t24 120t-24 120t-66.5 99t-98 67t-119.5 24
t-119.5 -24t-98 -67t-66.5 -99t-24 -120t24 -120t66.5 -99t98 -67t119.5 -24zM240 145v430h198q70 0 109 -31.5t39 -87.5q0 -87 -114 -111v16q51 2 79 -23t28 -71v-71q0 -10 1.5 -22.5t3.5 -28.5h-93q-2 8 -3 20.5t-1 30.5v46q0 41 -17.5 60.5t-55.5 19.5h-138v73h157
q29 0 45 13.5t16 39.5q0 25 -15.5 38t-45.5 13h-101v-354h-92z" />
    <glyph glyph-name="macron" unicode="&#xaf;" horiz-adv-x="411" 
d="M60 617v108h367v-108h-367z" />
    <glyph glyph-name="degree" unicode="&#xb0;" horiz-adv-x="366" 
d="M184 449q-40 0 -73 19.5t-52 52.5t-19 72t19 71.5t52 51.5t73 19q41 0 73 -19t50.5 -51.5t18.5 -71.5t-18.5 -72t-50.5 -52.5t-73 -19.5zM184 525q28 0 46.5 20t18.5 48q0 27 -18.5 46.5t-46.5 19.5q-29 0 -48 -19.5t-19 -46.5q0 -28 19 -48t48 -20z" />
    <glyph glyph-name="acute" unicode="&#xb4;" horiz-adv-x="354" 
d="M192 583h-132l99 157h198z" />
    <glyph glyph-name="paragraph" unicode="&#xb6;" horiz-adv-x="639" 
d="M244 -130v456h-16q-57 0 -104 24.5t-74.5 68.5t-27.5 101q0 59 27.5 104t75 70.5t106.5 25.5h358v-850h-147v740h-51v-740h-147z" />
    <glyph glyph-name="periodcentered" unicode="&#xb7;" horiz-adv-x="165" 
d="M0 290v165h165v-165h-165z" />
    <glyph glyph-name="cedilla" unicode="&#xb8;" horiz-adv-x="301" 
d="M197 -215q-62 0 -98.5 25.5t-38.5 70.5h98q2 -13 11.5 -20t25.5 -7q11 0 20 5.5t9 15.5q0 14 -18 21.5t-68 10.5l27 105h83l-11 -43q43 -10 65.5 -33.5t22.5 -59.5q0 -38 -33 -64.5t-95 -26.5z" />
    <glyph glyph-name="ordmasculine" unicode="&#xba;" horiz-adv-x="410" 
d="M205 412q-52 0 -91.5 20t-61.5 56t-22 84q0 72 48 115t127 43q80 0 127.5 -43t47.5 -115t-48.5 -116t-126.5 -44zM205 501q29 0 48 20t19 52t-19 50t-48 18q-28 0 -47.5 -18.5t-19.5 -49.5q0 -33 19.5 -52.5t47.5 -19.5z" />
    <glyph glyph-name="guillemotright" unicode="&#xbb;" horiz-adv-x="574" 
d="M397 434l132 -183l-132 -183h-142l128 183l-128 183h142zM197 434l132 -183l-132 -183h-142l128 183l-128 183h142z" />
    <glyph glyph-name="questiondown" unicode="&#xbf;" horiz-adv-x="587" 
d="M277 -215q-75 0 -131.5 23.5t-88 65t-31.5 94.5q0 42 13.5 71t34 50t44.5 37t44.5 32t34 34.5t13.5 43.5h146q0 -44 -12.5 -74t-32.5 -50.5t-42 -36t-42 -30t-32.5 -32t-12.5 -43.5q0 -30 26.5 -48.5t77.5 -18.5q49 0 84 20t42 61h147q-9 -62 -46.5 -106.5t-97.5 -68.5
t-138 -24zM365 510v-165h-165v165h165z" />
    <glyph glyph-name="Agrave" unicode="&#xc0;" horiz-adv-x="736" 
d="M24 0l258 720h132l-237 -720h-153zM552 0l-236 720h138l258 -720h-160zM160 279h404v-120h-404v120zM331 793l-165 157h198l99 -157h-132z" />
    <glyph glyph-name="Aacute" unicode="&#xc1;" horiz-adv-x="736" 
d="M24 0l258 720h132l-237 -720h-153zM552 0l-236 720h138l258 -720h-160zM160 279h404v-120h-404v120zM405 793h-132l99 157h198z" />
    <glyph glyph-name="Acircumflex" unicode="&#xc2;" horiz-adv-x="736" 
d="M24 0l258 720h132l-237 -720h-153zM552 0l-236 720h138l258 -720h-160zM160 279h404v-120h-404v120zM164 793l126 157h156l126 -157h-125l-141 127h124l-141 -127h-125z" />
    <glyph glyph-name="Atilde" unicode="&#xc3;" horiz-adv-x="736" 
d="M24 0l258 720h132l-237 -720h-153zM552 0l-236 720h138l258 -720h-160zM160 279h404v-120h-404v120zM443 801q-27 0 -47.5 7.5t-38 18t-34 18t-33.5 7.5q-22 0 -33.5 -13.5t-11.5 -32.5h-90q0 38 16 71t47.5 54t76.5 21q28 0 48.5 -7.5t36.5 -18t31.5 -18t33.5 -7.5
q23 0 34.5 13.5t11.5 32.5h90q0 -38 -16.5 -71.5t-47 -54t-74.5 -20.5z" />
    <glyph glyph-name="Adieresis" unicode="&#xc4;" horiz-adv-x="736" 
d="M24 0l258 720h132l-237 -720h-153zM552 0l-236 720h138l258 -720h-160zM160 279h404v-120h-404v120zM403 787v163h160v-163h-160zM173 787v163h160v-163h-160z" />
    <glyph glyph-name="Aring" unicode="&#xc5;" horiz-adv-x="736" 
d="M24 0l258 720h132l-237 -720h-153zM552 0l-236 720h138l258 -720h-160zM160 279h404v-120h-404v120zM368 771q-46 0 -77 31.5t-31 76.5q0 44 31 75.5t77 31.5t76.5 -31.5t30.5 -75.5q0 -45 -30.5 -76.5t-76.5 -31.5zM368 845q14 0 23 10t9 24t-9 23.5t-23 9.5
q-15 0 -24 -9.5t-9 -23.5t9 -24t24 -10z" />
    <glyph glyph-name="AE" unicode="&#xc6;" horiz-adv-x="983" 
d="M24 0l258 720h134l-239 -720h-153zM487 0v720h154v-720h-154zM559 0v118h384v-118h-384zM240 310v116h668v-116h-668zM337 602v118h594v-118h-594z" />
    <glyph glyph-name="Ccedilla" unicode="&#xc7;" horiz-adv-x="750" 
d="M391 -10q-78 0 -144 27.5t-114.5 77.5t-75.5 118.5t-27 149.5t26.5 148t75 116.5t114.5 76t145 26.5q89 0 160.5 -34.5t117 -97t55.5 -146.5h-150q-13 77 -63 116.5t-119 39.5q-61 0 -107.5 -29t-72.5 -83.5t-26 -131.5q0 -78 26.5 -134.5t73.5 -87t108 -30.5
q65 0 115 39t65 116h152q-13 -84 -59 -146.5t-117 -96.5t-159 -34zM379 -215q-62 0 -98.5 25.5t-38.5 70.5h98q2 -13 11.5 -20t25.5 -7q11 0 20 5.5t9 15.5q0 14 -18 21.5t-68 10.5l27 105h83l-11 -43q43 -10 65.5 -33.5t22.5 -59.5q0 -38 -33 -64.5t-95 -26.5z" />
    <glyph glyph-name="Egrave" unicode="&#xc8;" horiz-adv-x="626" 
d="M50 0v720h154v-720h-154zM122 0v118h464v-118h-464zM122 310v116h429v-116h-429zM122 602v118h452v-118h-452zM288 793l-165 157h198l99 -157h-132z" />
    <glyph glyph-name="Eacute" unicode="&#xc9;" horiz-adv-x="626" 
d="M50 0v720h154v-720h-154zM122 0v118h464v-118h-464zM122 310v116h429v-116h-429zM122 602v118h452v-118h-452zM362 793h-132l99 157h198z" />
    <glyph glyph-name="Ecircumflex" unicode="&#xca;" horiz-adv-x="626" 
d="M50 0v720h154v-720h-154zM122 0v118h464v-118h-464zM122 310v116h429v-116h-429zM122 602v118h452v-118h-452zM121 793l126 157h156l126 -157h-125l-141 127h124l-141 -127h-125z" />
    <glyph glyph-name="Edieresis" unicode="&#xcb;" horiz-adv-x="626" 
d="M50 0v720h154v-720h-154zM122 0v118h464v-118h-464zM122 310v116h429v-116h-429zM122 602v118h452v-118h-452zM360 787v163h160v-163h-160zM130 787v163h160v-163h-160z" />
    <glyph glyph-name="Igrave" unicode="&#xcc;" horiz-adv-x="254" 
d="M50 0v720h154v-720h-154zM90 793l-165 157h198l99 -157h-132z" />
    <glyph glyph-name="Iacute" unicode="&#xcd;" horiz-adv-x="254" 
d="M50 0v720h154v-720h-154zM164 793h-132l99 157h198z" />
    <glyph glyph-name="Icircumflex" unicode="&#xce;" horiz-adv-x="254" 
d="M50 0v720h154v-720h-154zM-77 793l126 157h156l126 -157h-125l-141 127h124l-141 -127h-125z" />
    <glyph glyph-name="Idieresis" unicode="&#xcf;" horiz-adv-x="254" 
d="M50 0v720h154v-720h-154zM162 787v163h160v-163h-160zM-68 787v163h160v-163h-160z" />
    <glyph glyph-name="Eth" unicode="&#xd0;" horiz-adv-x="772" 
d="M10 302v120h387v-120h-387zM164 0v120h182q78 0 132.5 31.5t83 86.5t28.5 126q0 70 -28 123t-82.5 83t-133.5 30h-179v120h179q121 0 211 -43.5t139.5 -124t49.5 -190.5t-50 -191.5t-139.5 -126t-209.5 -44.5h-183zM70 0v720h154v-720h-154z" />
    <glyph glyph-name="Ntilde" unicode="&#xd1;" horiz-adv-x="720" 
d="M50 0v720h199l320 -636l-49 -12v648h150v-720h-199l-320 636l49 12v-648h-150zM435 801q-27 0 -47.5 7.5t-38 18t-34 18t-33.5 7.5q-22 0 -33.5 -13.5t-11.5 -32.5h-90q0 38 16 71t47.5 54t76.5 21q28 0 48.5 -7.5t36.5 -18t31.5 -18t33.5 -7.5q23 0 34.5 13.5t11.5 32.5
h90q0 -38 -16.5 -71.5t-47 -54t-74.5 -20.5z" />
    <glyph glyph-name="Ograve" unicode="&#xd2;" horiz-adv-x="798" 
d="M399 -10q-80 0 -147.5 27t-117 76.5t-77 118t-27.5 151.5q0 110 47 192.5t130.5 128.5t190.5 46q109 0 192 -46t130.5 -129t47.5 -193q0 -82 -27.5 -150.5t-77 -118t-117 -76.5t-147.5 -27zM398 112q63 0 111 32t75.5 88.5t27.5 131.5q0 74 -27 129t-75 85t-112 30
q-63 0 -111 -30t-74.5 -84.5t-26.5 -129.5q0 -76 27 -132.5t75 -88t110 -31.5zM362 793l-165 157h198l99 -157h-132z" />
    <glyph glyph-name="Oacute" unicode="&#xd3;" horiz-adv-x="798" 
d="M399 -10q-80 0 -147.5 27t-117 76.5t-77 118t-27.5 151.5q0 110 47 192.5t130.5 128.5t190.5 46q109 0 192 -46t130.5 -129t47.5 -193q0 -82 -27.5 -150.5t-77 -118t-117 -76.5t-147.5 -27zM398 112q63 0 111 32t75.5 88.5t27.5 131.5q0 74 -27 129t-75 85t-112 30
q-63 0 -111 -30t-74.5 -84.5t-26.5 -129.5q0 -76 27 -132.5t75 -88t110 -31.5zM436 793h-132l99 157h198z" />
    <glyph glyph-name="Ocircumflex" unicode="&#xd4;" horiz-adv-x="798" 
d="M399 -10q-80 0 -147.5 27t-117 76.5t-77 118t-27.5 151.5q0 110 47 192.5t130.5 128.5t190.5 46q109 0 192 -46t130.5 -129t47.5 -193q0 -82 -27.5 -150.5t-77 -118t-117 -76.5t-147.5 -27zM398 112q63 0 111 32t75.5 88.5t27.5 131.5q0 74 -27 129t-75 85t-112 30
q-63 0 -111 -30t-74.5 -84.5t-26.5 -129.5q0 -76 27 -132.5t75 -88t110 -31.5zM195 793l126 157h156l126 -157h-125l-141 127h124l-141 -127h-125z" />
    <glyph glyph-name="Otilde" unicode="&#xd5;" horiz-adv-x="798" 
d="M399 -10q-80 0 -147.5 27t-117 76.5t-77 118t-27.5 151.5q0 110 47 192.5t130.5 128.5t190.5 46q109 0 192 -46t130.5 -129t47.5 -193q0 -82 -27.5 -150.5t-77 -118t-117 -76.5t-147.5 -27zM398 112q63 0 111 32t75.5 88.5t27.5 131.5q0 74 -27 129t-75 85t-112 30
q-63 0 -111 -30t-74.5 -84.5t-26.5 -129.5q0 -76 27 -132.5t75 -88t110 -31.5zM474 801q-27 0 -47.5 7.5t-38 18t-34 18t-33.5 7.5q-22 0 -33.5 -13.5t-11.5 -32.5h-90q0 38 16 71t47.5 54t76.5 21q28 0 48.5 -7.5t36.5 -18t31.5 -18t33.5 -7.5q23 0 34.5 13.5t11.5 32.5h90
q0 -38 -16.5 -71.5t-47 -54t-74.5 -20.5z" />
    <glyph glyph-name="Odieresis" unicode="&#xd6;" horiz-adv-x="798" 
d="M399 -10q-80 0 -147.5 27t-117 76.5t-77 118t-27.5 151.5q0 110 47 192.5t130.5 128.5t190.5 46q109 0 192 -46t130.5 -129t47.5 -193q0 -82 -27.5 -150.5t-77 -118t-117 -76.5t-147.5 -27zM398 112q63 0 111 32t75.5 88.5t27.5 131.5q0 74 -27 129t-75 85t-112 30
q-63 0 -111 -30t-74.5 -84.5t-26.5 -129.5q0 -76 27 -132.5t75 -88t110 -31.5zM434 787v163h160v-163h-160zM204 787v163h160v-163h-160z" />
    <glyph glyph-name="multiply" unicode="&#xd7;" horiz-adv-x="551" 
d="M425 144l-377 377l79 79l377 -377zM127 144l-79 79l377 377l79 -79z" />
    <glyph glyph-name="Oslash" unicode="&#xd8;" horiz-adv-x="798" 
d="M122 -10l-79 73l621 667l79 -73zM399 -10q-80 0 -147.5 27t-117 76.5t-77 118t-27.5 151.5q0 110 47 192.5t130.5 128.5t190.5 46q109 0 192 -46t130.5 -129t47.5 -193q0 -82 -27.5 -150.5t-77 -118t-117 -76.5t-147.5 -27zM398 112q63 0 111 32t75.5 88.5t27.5 131.5
q0 74 -27 129t-75 85t-112 30q-63 0 -111 -30t-74.5 -84.5t-26.5 -129.5q0 -76 27 -132.5t75 -88t110 -31.5z" />
    <glyph glyph-name="Ugrave" unicode="&#xd9;" horiz-adv-x="700" 
d="M349 -10q-154 0 -230.5 84.5t-76.5 246.5v399h154v-426q0 -94 41 -138t113 -44t113 44t41 137v427h154v-401q0 -160 -77 -244.5t-232 -84.5zM313 793l-165 157h198l99 -157h-132z" />
    <glyph glyph-name="Uacute" unicode="&#xda;" horiz-adv-x="700" 
d="M349 -10q-154 0 -230.5 84.5t-76.5 246.5v399h154v-426q0 -94 41 -138t113 -44t113 44t41 137v427h154v-401q0 -160 -77 -244.5t-232 -84.5zM387 793h-132l99 157h198z" />
    <glyph glyph-name="Ucircumflex" unicode="&#xdb;" horiz-adv-x="700" 
d="M349 -10q-154 0 -230.5 84.5t-76.5 246.5v399h154v-426q0 -94 41 -138t113 -44t113 44t41 137v427h154v-401q0 -160 -77 -244.5t-232 -84.5zM146 793l126 157h156l126 -157h-125l-141 127h124l-141 -127h-125z" />
    <glyph glyph-name="Udieresis" unicode="&#xdc;" horiz-adv-x="700" 
d="M349 -10q-154 0 -230.5 84.5t-76.5 246.5v399h154v-426q0 -94 41 -138t113 -44t113 44t41 137v427h154v-401q0 -160 -77 -244.5t-232 -84.5zM385 787v163h160v-163h-160zM155 787v163h160v-163h-160z" />
    <glyph glyph-name="Yacute" unicode="&#xdd;" horiz-adv-x="712" 
d="M279 0v291l-268 429h185l212 -381h-87l211 381h169l-268 -429v-291h-154zM393 793h-132l99 157h198z" />
    <glyph glyph-name="Thorn" unicode="&#xde;" horiz-adv-x="668" 
d="M168 150v118h210q53 0 83.5 29t30.5 73t-30.5 73t-83.5 29h-210v118h220q79 0 136.5 -28t89.5 -77.5t32 -114.5q0 -64 -32 -114t-89.5 -78t-136.5 -28h-220zM46 0v720h154v-720h-154z" />
    <glyph glyph-name="germandbls" unicode="&#xdf;" horiz-adv-x="640" 
d="M365 -10q-28 0 -51 4t-37 11v113q13 -4 28.5 -7t34.5 -3q56 0 86 26.5t30 78.5q0 47 -33 75.5t-95 28.5h-46v116h34q30 0 52.5 10.5t35.5 29.5t13 45q0 44 -25.5 69t-74.5 25q-55 0 -81 -33t-26 -97v-482h-150v474q0 115 64 185.5t197 70.5q78 0 134.5 -25t87 -69.5
t30.5 -102.5q0 -52 -24 -89t-66 -56t-96 -19l8 21q71 0 119.5 -25t73 -68.5t24.5 -98.5q0 -63 -31 -110t-86.5 -72.5t-129.5 -25.5z" />
    <glyph glyph-name="agrave" unicode="&#xe0;" horiz-adv-x="571" 
d="M381 0q-6 22 -8.5 47t-2.5 58h-4v241q0 31 -20.5 48.5t-60.5 17.5q-38 0 -60.5 -13t-29.5 -38h-143q10 69 71 114t167 45q110 0 168 -49t58 -141v-225q0 -25 3.5 -50.5t11.5 -54.5h-150zM203 -10q-76 0 -121 38.5t-45 102.5q0 71 53.5 114.5t149.5 56.5l149 21v-87
l-124 -19q-40 -6 -59 -22t-19 -44q0 -25 18 -38t48 -13q47 0 80 25.5t33 59.5l14 -80q-22 -57 -67 -86t-110 -29zM257 583l-165 157h198l99 -157h-132z" />
    <glyph glyph-name="aacute" unicode="&#xe1;" horiz-adv-x="571" 
d="M381 0q-6 22 -8.5 47t-2.5 58h-4v241q0 31 -20.5 48.5t-60.5 17.5q-38 0 -60.5 -13t-29.5 -38h-143q10 69 71 114t167 45q110 0 168 -49t58 -141v-225q0 -25 3.5 -50.5t11.5 -54.5h-150zM203 -10q-76 0 -121 38.5t-45 102.5q0 71 53.5 114.5t149.5 56.5l149 21v-87
l-124 -19q-40 -6 -59 -22t-19 -44q0 -25 18 -38t48 -13q47 0 80 25.5t33 59.5l14 -80q-22 -57 -67 -86t-110 -29zM331 583h-132l99 157h198z" />
    <glyph glyph-name="acircumflex" unicode="&#xe2;" horiz-adv-x="571" 
d="M381 0q-6 22 -8.5 47t-2.5 58h-4v241q0 31 -20.5 48.5t-60.5 17.5q-38 0 -60.5 -13t-29.5 -38h-143q10 69 71 114t167 45q110 0 168 -49t58 -141v-225q0 -25 3.5 -50.5t11.5 -54.5h-150zM203 -10q-76 0 -121 38.5t-45 102.5q0 71 53.5 114.5t149.5 56.5l149 21v-87
l-124 -19q-40 -6 -59 -22t-19 -44q0 -25 18 -38t48 -13q47 0 80 25.5t33 59.5l14 -80q-22 -57 -67 -86t-110 -29zM90 583l126 157h156l126 -157h-125l-141 127h124l-141 -127h-125z" />
    <glyph glyph-name="atilde" unicode="&#xe3;" horiz-adv-x="571" 
d="M381 0q-6 22 -8.5 47t-2.5 58h-4v241q0 31 -20.5 48.5t-60.5 17.5q-38 0 -60.5 -13t-29.5 -38h-143q10 69 71 114t167 45q110 0 168 -49t58 -141v-225q0 -25 3.5 -50.5t11.5 -54.5h-150zM203 -10q-76 0 -121 38.5t-45 102.5q0 71 53.5 114.5t149.5 56.5l149 21v-87
l-124 -19q-40 -6 -59 -22t-19 -44q0 -25 18 -38t48 -13q47 0 80 25.5t33 59.5l14 -80q-22 -57 -67 -86t-110 -29zM369 591q-27 0 -47.5 7.5t-38 18t-34 18t-33.5 7.5q-22 0 -33.5 -13.5t-11.5 -32.5h-90q0 38 16 71t47.5 54t76.5 21q28 0 48.5 -7.5t36.5 -18t31.5 -18
t33.5 -7.5q23 0 34.5 13.5t11.5 32.5h90q0 -38 -16.5 -71.5t-47 -54t-74.5 -20.5z" />
    <glyph glyph-name="adieresis" unicode="&#xe4;" horiz-adv-x="571" 
d="M381 0q-6 22 -8.5 47t-2.5 58h-4v241q0 31 -20.5 48.5t-60.5 17.5q-38 0 -60.5 -13t-29.5 -38h-143q10 69 71 114t167 45q110 0 168 -49t58 -141v-225q0 -25 3.5 -50.5t11.5 -54.5h-150zM203 -10q-76 0 -121 38.5t-45 102.5q0 71 53.5 114.5t149.5 56.5l149 21v-87
l-124 -19q-40 -6 -59 -22t-19 -44q0 -25 18 -38t48 -13q47 0 80 25.5t33 59.5l14 -80q-22 -57 -67 -86t-110 -29zM329 577v163h160v-163h-160zM99 577v163h160v-163h-160z" />
    <glyph glyph-name="aring" unicode="&#xe5;" horiz-adv-x="571" 
d="M381 0q-6 22 -8.5 47t-2.5 58h-4v241q0 31 -20.5 48.5t-60.5 17.5q-38 0 -60.5 -13t-29.5 -38h-143q10 69 71 114t167 45q110 0 168 -49t58 -141v-225q0 -25 3.5 -50.5t11.5 -54.5h-150zM203 -10q-76 0 -121 38.5t-45 102.5q0 71 53.5 114.5t149.5 56.5l149 21v-87
l-124 -19q-40 -6 -59 -22t-19 -44q0 -25 18 -38t48 -13q47 0 80 25.5t33 59.5l14 -80q-22 -57 -67 -86t-110 -29zM294 561q-46 0 -77 31.5t-31 76.5q0 44 31 75.5t77 31.5t76.5 -31.5t30.5 -75.5q0 -45 -30.5 -76.5t-76.5 -31.5zM294 635q14 0 23 10t9 24t-9 23.5t-23 9.5
q-15 0 -24 -9.5t-9 -23.5t9 -24t24 -10z" />
    <glyph glyph-name="ae" unicode="&#xe6;" horiz-adv-x="887" 
d="M365 145v201q0 31 -22 48.5t-60 17.5q-33 0 -57.5 -13t-31.5 -38h-143q10 69 68.5 114t161.5 45q107 0 164 -49t57 -141v-185h-137zM213 -10q-78 0 -127 39t-49 107q0 60 45.5 103.5t150.5 58.5l137 20v-87l-101 -17q-46 -7 -64.5 -23.5t-18.5 -40.5t18 -37t53 -13
q23 0 48 12t42.5 31.5t17.5 41.5l79 -40q-36 -87 -92 -121t-139 -34zM623 -10q-80 0 -138.5 33.5t-90 93.5t-31.5 138q0 79 31.5 138.5t89 93t134.5 33.5q74 0 130 -32t87.5 -89t31.5 -134q0 -16 -1 -29.5t-3 -25.5h-422v99h311l-23 -18q0 62 -28 91.5t-77 29.5
q-38 0 -65.5 -15.5t-42 -50.5t-14.5 -94q0 -78 31 -116t89 -38q36 0 56.5 12t31.5 39h144q-25 -74 -84 -116.5t-147 -42.5z" />
    <glyph glyph-name="ccedilla" unicode="&#xe7;" horiz-adv-x="562" 
d="M291 -10q-80 0 -141 34t-95.5 94t-34.5 137t34.5 137t95.5 94t141 34q67 0 120.5 -24.5t88 -67.5t44.5 -101h-145q-11 37 -39.5 56t-66.5 19q-36 0 -62.5 -18t-40.5 -51t-14 -78t14 -78t40.5 -51t62.5 -18q38 0 66.5 19t39.5 56h145q-10 -58 -44.5 -101t-88 -67.5
t-120.5 -24.5zM277 -215q-62 0 -98.5 25.5t-38.5 70.5h98q2 -13 11.5 -20t25.5 -7q11 0 20 5.5t9 15.5q0 14 -18 21.5t-68 10.5l27 105h83l-11 -43q43 -10 65.5 -33.5t22.5 -59.5q0 -38 -33 -64.5t-95 -26.5z" />
    <glyph glyph-name="egrave" unicode="&#xe8;" horiz-adv-x="574" 
d="M300 -10q-85 0 -148 33.5t-97.5 93.5t-34.5 138q0 79 34.5 138.5t96.5 93t144 33.5q79 0 137 -32t90 -89t32 -134q0 -16 -1 -29.5t-3 -25.5h-442v99h321l-26 -18q0 62 -29.5 91.5t-80.5 29.5q-59 0 -91.5 -40t-32.5 -120q0 -78 32.5 -116t97.5 -38q36 0 62 12t39 39h141
q-25 -74 -85.5 -116.5t-155.5 -42.5zM260 583l-165 157h198l99 -157h-132z" />
    <glyph glyph-name="eacute" unicode="&#xe9;" horiz-adv-x="574" 
d="M300 -10q-85 0 -148 33.5t-97.5 93.5t-34.5 138q0 79 34.5 138.5t96.5 93t144 33.5q79 0 137 -32t90 -89t32 -134q0 -16 -1 -29.5t-3 -25.5h-442v99h321l-26 -18q0 62 -29.5 91.5t-80.5 29.5q-59 0 -91.5 -40t-32.5 -120q0 -78 32.5 -116t97.5 -38q36 0 62 12t39 39h141
q-25 -74 -85.5 -116.5t-155.5 -42.5zM334 583h-132l99 157h198z" />
    <glyph glyph-name="ecircumflex" unicode="&#xea;" horiz-adv-x="574" 
d="M300 -10q-85 0 -148 33.5t-97.5 93.5t-34.5 138q0 79 34.5 138.5t96.5 93t144 33.5q79 0 137 -32t90 -89t32 -134q0 -16 -1 -29.5t-3 -25.5h-442v99h321l-26 -18q0 62 -29.5 91.5t-80.5 29.5q-59 0 -91.5 -40t-32.5 -120q0 -78 32.5 -116t97.5 -38q36 0 62 12t39 39h141
q-25 -74 -85.5 -116.5t-155.5 -42.5zM93 583l126 157h156l126 -157h-125l-141 127h124l-141 -127h-125z" />
    <glyph glyph-name="edieresis" unicode="&#xeb;" horiz-adv-x="574" 
d="M300 -10q-85 0 -148 33.5t-97.5 93.5t-34.5 138q0 79 34.5 138.5t96.5 93t144 33.5q79 0 137 -32t90 -89t32 -134q0 -16 -1 -29.5t-3 -25.5h-442v99h321l-26 -18q0 62 -29.5 91.5t-80.5 29.5q-59 0 -91.5 -40t-32.5 -120q0 -78 32.5 -116t97.5 -38q36 0 62 12t39 39h141
q-25 -74 -85.5 -116.5t-155.5 -42.5zM332 577v163h160v-163h-160zM102 577v163h160v-163h-160z" />
    <glyph glyph-name="igrave" unicode="&#xec;" horiz-adv-x="270" 
d="M60 0v510h150v-510h-150zM98 583l-165 157h198l99 -157h-132z" />
    <glyph glyph-name="iacute" unicode="&#xed;" horiz-adv-x="270" 
d="M60 0v510h150v-510h-150zM172 583h-132l99 157h198z" />
    <glyph glyph-name="icircumflex" unicode="&#xee;" horiz-adv-x="270" 
d="M60 0v510h150v-510h-150zM-69 583l126 157h156l126 -157h-125l-141 127h124l-141 -127h-125z" />
    <glyph glyph-name="idieresis" unicode="&#xef;" horiz-adv-x="270" 
d="M60 0v510h150v-510h-150zM170 577v163h160v-163h-160zM-60 577v163h160v-163h-160z" />
    <glyph glyph-name="eth" unicode="&#xf0;" horiz-adv-x="616" 
d="M303 -10q-78 0 -140 30t-97.5 87t-35.5 138q0 79 36.5 134.5t95 85t125.5 29.5q56 0 96.5 -19t65 -54t30.5 -83l-39 -49v65q0 88 -34.5 150t-107.5 95t-188 33l24 98q110 0 195 -27.5t143.5 -80.5t89 -130.5t30.5 -177.5q0 -153 -71.5 -238.5t-217.5 -85.5zM308 108
q32 0 60.5 14.5t46.5 45.5t18 78t-17 76t-45 42.5t-61 13.5q-48 0 -83 -32.5t-35 -101.5q0 -48 16 -78t42.5 -44t57.5 -14zM211 503l-46 73l288 180l46 -73z" />
    <glyph glyph-name="ntilde" unicode="&#xf1;" horiz-adv-x="619" 
d="M60 0v510h147v-120h3v-390h-150zM415 0v316q0 42 -21.5 63t-62.5 21q-35 0 -62.5 -16t-43 -44t-15.5 -66l-13 123q25 56 73.5 89.5t119.5 33.5q85 0 130 -47.5t45 -127.5v-345h-150zM406 591q-27 0 -47.5 7.5t-38 18t-34 18t-33.5 7.5q-22 0 -33.5 -13.5t-11.5 -32.5h-90
q0 38 16 71t47.5 54t76.5 21q28 0 48.5 -7.5t36.5 -18t31.5 -18t33.5 -7.5q23 0 34.5 13.5t11.5 32.5h90q0 -38 -16.5 -71.5t-47 -54t-74.5 -20.5z" />
    <glyph glyph-name="ograve" unicode="&#xf2;" horiz-adv-x="604" 
d="M302 -10q-84 0 -147.5 33.5t-99 94t-35.5 139.5t35.5 138t99 92t147.5 33q85 0 148.5 -33t98.5 -92t35 -138t-35.5 -139.5t-99 -94t-147.5 -33.5zM302 108q35 0 63.5 18t45.5 51.5t17 80.5q0 69 -36.5 106.5t-89.5 37.5t-89.5 -38t-36.5 -106q0 -47 17 -80.5t45.5 -51.5
t63.5 -18zM265 583l-165 157h198l99 -157h-132z" />
    <glyph glyph-name="oacute" unicode="&#xf3;" horiz-adv-x="604" 
d="M302 -10q-84 0 -147.5 33.5t-99 94t-35.5 139.5t35.5 138t99 92t147.5 33q85 0 148.5 -33t98.5 -92t35 -138t-35.5 -139.5t-99 -94t-147.5 -33.5zM302 108q35 0 63.5 18t45.5 51.5t17 80.5q0 69 -36.5 106.5t-89.5 37.5t-89.5 -38t-36.5 -106q0 -47 17 -80.5t45.5 -51.5
t63.5 -18zM339 583h-132l99 157h198z" />
    <glyph glyph-name="ocircumflex" unicode="&#xf4;" horiz-adv-x="604" 
d="M302 -10q-84 0 -147.5 33.5t-99 94t-35.5 139.5t35.5 138t99 92t147.5 33q85 0 148.5 -33t98.5 -92t35 -138t-35.5 -139.5t-99 -94t-147.5 -33.5zM302 108q35 0 63.5 18t45.5 51.5t17 80.5q0 69 -36.5 106.5t-89.5 37.5t-89.5 -38t-36.5 -106q0 -47 17 -80.5t45.5 -51.5
t63.5 -18zM98 583l126 157h156l126 -157h-125l-141 127h124l-141 -127h-125z" />
    <glyph glyph-name="otilde" unicode="&#xf5;" horiz-adv-x="604" 
d="M302 -10q-84 0 -147.5 33.5t-99 94t-35.5 139.5t35.5 138t99 92t147.5 33q85 0 148.5 -33t98.5 -92t35 -138t-35.5 -139.5t-99 -94t-147.5 -33.5zM302 108q35 0 63.5 18t45.5 51.5t17 80.5q0 69 -36.5 106.5t-89.5 37.5t-89.5 -38t-36.5 -106q0 -47 17 -80.5t45.5 -51.5
t63.5 -18zM377 591q-27 0 -47.5 7.5t-38 18t-34 18t-33.5 7.5q-22 0 -33.5 -13.5t-11.5 -32.5h-90q0 38 16 71t47.5 54t76.5 21q28 0 48.5 -7.5t36.5 -18t31.5 -18t33.5 -7.5q23 0 34.5 13.5t11.5 32.5h90q0 -38 -16.5 -71.5t-47 -54t-74.5 -20.5z" />
    <glyph glyph-name="odieresis" unicode="&#xf6;" horiz-adv-x="604" 
d="M302 -10q-84 0 -147.5 33.5t-99 94t-35.5 139.5t35.5 138t99 92t147.5 33q85 0 148.5 -33t98.5 -92t35 -138t-35.5 -139.5t-99 -94t-147.5 -33.5zM302 108q35 0 63.5 18t45.5 51.5t17 80.5q0 69 -36.5 106.5t-89.5 37.5t-89.5 -38t-36.5 -106q0 -47 17 -80.5t45.5 -51.5
t63.5 -18zM337 577v163h160v-163h-160zM107 577v163h160v-163h-160z" />
    <glyph glyph-name="divide" unicode="&#xf7;" horiz-adv-x="551" 
d="M50 317v108h451v-108h-451zM276 478q-32 0 -53.5 20.5t-21.5 54.5q0 32 21.5 53t53.5 21q29 0 51.5 -21t22.5 -53q0 -34 -22.5 -54.5t-51.5 -20.5zM276 116q-32 0 -53.5 20.5t-21.5 54.5q0 32 21.5 53t53.5 21q29 0 51.5 -21t22.5 -53q0 -34 -22.5 -54.5t-51.5 -20.5z
" />
    <glyph glyph-name="oslash" unicode="&#xf8;" horiz-adv-x="604" 
d="M302 -10q-84 0 -147.5 33.5t-99 94t-35.5 139.5t35.5 138t99 92t147.5 33q85 0 148.5 -33t98.5 -92t35 -138t-35.5 -139.5t-99 -94t-147.5 -33.5zM302 103q38 0 67.5 18.5t46.5 53.5t17 83q0 71 -36.5 110t-94.5 39t-94.5 -39t-36.5 -110q0 -48 17 -83t46.5 -53.5
t67.5 -18.5zM96 -20l-69 69l481 481l69 -69z" />
    <glyph glyph-name="ugrave" unicode="&#xf9;" horiz-adv-x="611" 
d="M225 -10q-54 0 -92.5 23.5t-58.5 63t-20 88.5v345h150v-316q0 -42 21 -63t59 -21q34 0 60 16t41.5 44.5t15.5 65.5l13 -123q-25 -55 -73 -89t-116 -34zM404 0v120h-3v390h150v-510h-147zM269 583l-165 157h198l99 -157h-132z" />
    <glyph glyph-name="uacute" unicode="&#xfa;" horiz-adv-x="611" 
d="M225 -10q-54 0 -92.5 23.5t-58.5 63t-20 88.5v345h150v-316q0 -42 21 -63t59 -21q34 0 60 16t41.5 44.5t15.5 65.5l13 -123q-25 -55 -73 -89t-116 -34zM404 0v120h-3v390h150v-510h-147zM343 583h-132l99 157h198z" />
    <glyph glyph-name="ucircumflex" unicode="&#xfb;" horiz-adv-x="611" 
d="M225 -10q-54 0 -92.5 23.5t-58.5 63t-20 88.5v345h150v-316q0 -42 21 -63t59 -21q34 0 60 16t41.5 44.5t15.5 65.5l13 -123q-25 -55 -73 -89t-116 -34zM404 0v120h-3v390h150v-510h-147zM102 583l126 157h156l126 -157h-125l-141 127h124l-141 -127h-125z" />
    <glyph glyph-name="udieresis" unicode="&#xfc;" horiz-adv-x="611" 
d="M225 -10q-54 0 -92.5 23.5t-58.5 63t-20 88.5v345h150v-316q0 -42 21 -63t59 -21q34 0 60 16t41.5 44.5t15.5 65.5l13 -123q-25 -55 -73 -89t-116 -34zM404 0v120h-3v390h150v-510h-147zM341 577v163h160v-163h-160zM111 577v163h160v-163h-160z" />
    <glyph glyph-name="yacute" unicode="&#xfd;" horiz-adv-x="543" 
d="M86 -205l141 312l26 43l132 360h160l-309 -715h-150zM194 10l-196 500h162l161 -456zM309 583h-132l99 157h198z" />
    <glyph glyph-name="thorn" unicode="&#xfe;" 
d="M371 -10q-73 0 -117 34t-52 93l8 1v-323h-150v925h150v-323l-12 2q11 56 60 88.5t121 32.5q69 0 119.5 -32.5t78 -91.5t27.5 -139q0 -81 -29 -141t-81 -93t-123 -33zM329 110q55 0 87 38t32 108t-32.5 107t-88.5 37q-55 0 -87 -37.5t-32 -107.5t32.5 -107.5t88.5 -37.5z
" />
    <glyph glyph-name="ydieresis" unicode="&#xff;" horiz-adv-x="543" 
d="M86 -205l141 312l26 43l132 360h160l-309 -715h-150zM194 10l-196 500h162l161 -456zM307 577v163h160v-163h-160zM77 577v163h160v-163h-160z" />
    <glyph glyph-name="Amacron" unicode="&#x100;" horiz-adv-x="736" 
d="M24 0l258 720h132l-237 -720h-153zM552 0l-236 720h138l258 -720h-160zM160 279h404v-120h-404v120zM184 827v108h367v-108h-367z" />
    <glyph glyph-name="amacron" unicode="&#x101;" horiz-adv-x="571" 
d="M381 0q-6 22 -8.5 47t-2.5 58h-4v241q0 31 -20.5 48.5t-60.5 17.5q-38 0 -60.5 -13t-29.5 -38h-143q10 69 71 114t167 45q110 0 168 -49t58 -141v-225q0 -25 3.5 -50.5t11.5 -54.5h-150zM203 -10q-76 0 -121 38.5t-45 102.5q0 71 53.5 114.5t149.5 56.5l149 21v-87
l-124 -19q-40 -6 -59 -22t-19 -44q0 -25 18 -38t48 -13q47 0 80 25.5t33 59.5l14 -80q-22 -57 -67 -86t-110 -29zM110 617v108h367v-108h-367z" />
    <glyph glyph-name="Abreve" unicode="&#x102;" horiz-adv-x="736" 
d="M24 0l258 720h132l-237 -720h-153zM552 0l-236 720h138l258 -720h-160zM160 279h404v-120h-404v120zM368 784q-51 0 -90 21.5t-61.5 59.5t-22.5 85h100q0 -29 20 -45.5t54 -16.5q35 0 54.5 16.5t19.5 45.5h100q0 -47 -22.5 -84.5t-61.5 -59.5t-90 -22z" />
    <glyph glyph-name="abreve" unicode="&#x103;" horiz-adv-x="571" 
d="M381 0q-6 22 -8.5 47t-2.5 58h-4v241q0 31 -20.5 48.5t-60.5 17.5q-38 0 -60.5 -13t-29.5 -38h-143q10 69 71 114t167 45q110 0 168 -49t58 -141v-225q0 -25 3.5 -50.5t11.5 -54.5h-150zM203 -10q-76 0 -121 38.5t-45 102.5q0 71 53.5 114.5t149.5 56.5l149 21v-87
l-124 -19q-40 -6 -59 -22t-19 -44q0 -25 18 -38t48 -13q47 0 80 25.5t33 59.5l14 -80q-22 -57 -67 -86t-110 -29zM294 574q-51 0 -90 21.5t-61.5 59.5t-22.5 85h100q0 -29 20 -45.5t54 -16.5q35 0 54.5 16.5t19.5 45.5h100q0 -47 -22.5 -84.5t-61.5 -59.5t-90 -22z" />
    <glyph glyph-name="Aogonek" unicode="&#x104;" horiz-adv-x="736" 
d="M24 0l258 720h132l-237 -720h-153zM552 0l-236 720h138l258 -720h-160zM160 279h404v-120h-404v120zM641 -216q-55 0 -85.5 24.5t-30.5 64.5q0 44 34.5 79t92.5 65l60 -17q-49 -38 -67.5 -62.5t-18.5 -44.5q0 -16 9 -24.5t22 -8.5q22 0 40 14l27 -70q-14 -9 -34 -14.5
t-49 -5.5z" />
    <glyph glyph-name="aogonek" unicode="&#x105;" horiz-adv-x="571" 
d="M381 0q-6 22 -8.5 47t-2.5 58h-4v241q0 31 -20.5 48.5t-60.5 17.5q-38 0 -60.5 -13t-29.5 -38h-143q10 69 71 114t167 45q110 0 168 -49t58 -141v-225q0 -25 3.5 -50.5t11.5 -54.5h-150zM203 -10q-76 0 -121 38.5t-45 102.5q0 71 53.5 114.5t149.5 56.5l149 21v-87
l-124 -19q-40 -6 -59 -22t-19 -44q0 -25 18 -38t48 -13q47 0 80 25.5t33 59.5l14 -80q-22 -57 -67 -86t-110 -29zM462 -216q-55 0 -85.5 24.5t-30.5 64.5q0 44 34.5 79t92.5 65l60 -17q-49 -38 -67.5 -62.5t-18.5 -44.5q0 -16 9 -24.5t22 -8.5q22 0 40 14l27 -70
q-14 -9 -34 -14.5t-49 -5.5z" />
    <glyph glyph-name="Cacute" unicode="&#x106;" horiz-adv-x="750" 
d="M391 -10q-78 0 -144 27.5t-114.5 77.5t-75.5 118.5t-27 149.5t26.5 148t75 116.5t114.5 76t145 26.5q89 0 160.5 -34.5t117 -97t55.5 -146.5h-150q-13 77 -63 116.5t-119 39.5q-61 0 -107.5 -29t-72.5 -83.5t-26 -131.5q0 -78 26.5 -134.5t73.5 -87t108 -30.5
q65 0 115 39t65 116h152q-13 -84 -59 -146.5t-117 -96.5t-159 -34zM422 793h-132l99 157h198z" />
    <glyph glyph-name="cacute" unicode="&#x107;" horiz-adv-x="562" 
d="M291 -10q-80 0 -141 34t-95.5 94t-34.5 137t34.5 137t95.5 94t141 34q67 0 120.5 -24.5t88 -67.5t44.5 -101h-145q-11 37 -39.5 56t-66.5 19q-36 0 -62.5 -18t-40.5 -51t-14 -78t14 -78t40.5 -51t62.5 -18q38 0 66.5 19t39.5 56h145q-10 -58 -44.5 -101t-88 -67.5
t-120.5 -24.5zM332 583h-132l99 157h198z" />
    <glyph glyph-name="Cdotaccent" unicode="&#x10a;" horiz-adv-x="750" 
d="M391 -10q-78 0 -144 27.5t-114.5 77.5t-75.5 118.5t-27 149.5t26.5 148t75 116.5t114.5 76t145 26.5q89 0 160.5 -34.5t117 -97t55.5 -146.5h-150q-13 77 -63 116.5t-119 39.5q-61 0 -107.5 -29t-72.5 -83.5t-26 -131.5q0 -78 26.5 -134.5t73.5 -87t108 -30.5
q65 0 115 39t65 116h152q-13 -84 -59 -146.5t-117 -96.5t-159 -34zM305 788v162h160v-162h-160z" />
    <glyph glyph-name="cdotaccent" unicode="&#x10b;" horiz-adv-x="562" 
d="M291 -10q-80 0 -141 34t-95.5 94t-34.5 137t34.5 137t95.5 94t141 34q67 0 120.5 -24.5t88 -67.5t44.5 -101h-145q-11 37 -39.5 56t-66.5 19q-36 0 -62.5 -18t-40.5 -51t-14 -78t14 -78t40.5 -51t62.5 -18q38 0 66.5 19t39.5 56h145q-10 -58 -44.5 -101t-88 -67.5
t-120.5 -24.5zM215 578v162h160v-162h-160z" />
    <glyph glyph-name="Ccaron" unicode="&#x10c;" horiz-adv-x="750" 
d="M391 -10q-78 0 -144 27.5t-114.5 77.5t-75.5 118.5t-27 149.5t26.5 148t75 116.5t114.5 76t145 26.5q89 0 160.5 -34.5t117 -97t55.5 -146.5h-150q-13 77 -63 116.5t-119 39.5q-61 0 -107.5 -29t-72.5 -83.5t-26 -131.5q0 -78 26.5 -134.5t73.5 -87t108 -30.5
q65 0 115 39t65 116h152q-13 -84 -59 -146.5t-117 -96.5t-159 -34zM307 793l-126 157h125l141 -127h-124l141 127h125l-126 -157h-156z" />
    <glyph glyph-name="ccaron" unicode="&#x10d;" horiz-adv-x="562" 
d="M291 -10q-80 0 -141 34t-95.5 94t-34.5 137t34.5 137t95.5 94t141 34q67 0 120.5 -24.5t88 -67.5t44.5 -101h-145q-11 37 -39.5 56t-66.5 19q-36 0 -62.5 -18t-40.5 -51t-14 -78t14 -78t40.5 -51t62.5 -18q38 0 66.5 19t39.5 56h145q-10 -58 -44.5 -101t-88 -67.5
t-120.5 -24.5zM217 583l-126 157h125l141 -127h-124l141 127h125l-126 -157h-156z" />
    <glyph glyph-name="Dcaron" unicode="&#x10e;" horiz-adv-x="756" 
d="M144 0v120h182q78 0 132.5 31.5t83 86.5t28.5 126q0 70 -28 123t-82.5 83t-133.5 30h-179v120h179q121 0 211 -43.5t139.5 -124t49.5 -190.5t-50 -191.5t-139.5 -126t-209.5 -44.5h-183zM50 0v720h154v-720h-154zM302 793l-126 157h125l141 -127h-124l141 127h125
l-126 -157h-156z" />
    <glyph glyph-name="dcaron" unicode="&#x10f;" horiz-adv-x="726" 
d="M421 0v113l10 -2q-10 -55 -59.5 -88t-118.5 -33q-70 0 -121.5 32.5t-79.5 91.5t-28 139q0 81 29 141t81.5 93t122.5 33q73 0 118.5 -34t53.5 -93l-11 -1v328h150v-720h-147zM301 110q53 0 86 37.5t33 107.5t-33.5 107.5t-87.5 37.5q-52 0 -85.5 -38t-33.5 -108t33.5 -107
t87.5 -37zM718 483h-100v237h126z" />
    <glyph glyph-name="Dcroat" unicode="&#x110;" horiz-adv-x="772" 
d="M10 302v120h387v-120h-387zM164 0v120h182q78 0 132.5 31.5t83 86.5t28.5 126q0 70 -28 123t-82.5 83t-133.5 30h-179v120h179q121 0 211 -43.5t139.5 -124t49.5 -190.5t-50 -191.5t-139.5 -126t-209.5 -44.5h-183zM70 0v720h154v-720h-154z" />
    <glyph glyph-name="dcroat" unicode="&#x111;" 
d="M242 578v98h386v-98h-386zM421 0v113l10 -2q-10 -55 -59.5 -88t-118.5 -33q-70 0 -121.5 32.5t-79.5 91.5t-28 139q0 81 29 141t81.5 93t122.5 33q73 0 118.5 -34t53.5 -93l-11 -1v328h150v-720h-147zM301 110q53 0 86 37.5t33 107.5t-33.5 107.5t-87.5 37.5
q-52 0 -85.5 -38t-33.5 -108t33.5 -107t87.5 -37z" />
    <glyph glyph-name="Emacron" unicode="&#x112;" horiz-adv-x="626" 
d="M50 0v720h154v-720h-154zM122 0v118h464v-118h-464zM122 310v116h429v-116h-429zM122 602v118h452v-118h-452zM141 827v108h367v-108h-367z" />
    <glyph glyph-name="emacron" unicode="&#x113;" horiz-adv-x="574" 
d="M300 -10q-85 0 -148 33.5t-97.5 93.5t-34.5 138q0 79 34.5 138.5t96.5 93t144 33.5q79 0 137 -32t90 -89t32 -134q0 -16 -1 -29.5t-3 -25.5h-442v99h321l-26 -18q0 62 -29.5 91.5t-80.5 29.5q-59 0 -91.5 -40t-32.5 -120q0 -78 32.5 -116t97.5 -38q36 0 62 12t39 39h141
q-25 -74 -85.5 -116.5t-155.5 -42.5zM113 617v108h367v-108h-367z" />
    <glyph glyph-name="Edotaccent" unicode="&#x116;" horiz-adv-x="626" 
d="M50 0v720h154v-720h-154zM122 0v118h464v-118h-464zM122 310v116h429v-116h-429zM122 602v118h452v-118h-452zM245 788v162h160v-162h-160z" />
    <glyph glyph-name="edotaccent" unicode="&#x117;" horiz-adv-x="574" 
d="M300 -10q-85 0 -148 33.5t-97.5 93.5t-34.5 138q0 79 34.5 138.5t96.5 93t144 33.5q79 0 137 -32t90 -89t32 -134q0 -16 -1 -29.5t-3 -25.5h-442v99h321l-26 -18q0 62 -29.5 91.5t-80.5 29.5q-59 0 -91.5 -40t-32.5 -120q0 -78 32.5 -116t97.5 -38q36 0 62 12t39 39h141
q-25 -74 -85.5 -116.5t-155.5 -42.5zM217 578v162h160v-162h-160z" />
    <glyph glyph-name="Eogonek" unicode="&#x118;" horiz-adv-x="626" 
d="M50 0v720h154v-720h-154zM122 0v118h464v-118h-464zM122 310v116h429v-116h-429zM122 602v118h452v-118h-452zM475 -216q-55 0 -85.5 24.5t-30.5 64.5q0 44 34.5 79t92.5 65l60 -17q-49 -38 -67.5 -62.5t-18.5 -44.5q0 -16 9 -24.5t22 -8.5q22 0 40 14l27 -70
q-14 -9 -34 -14.5t-49 -5.5z" />
    <glyph glyph-name="eogonek" unicode="&#x119;" horiz-adv-x="574" 
d="M300 -10q-85 0 -148 33.5t-97.5 93.5t-34.5 138q0 79 34.5 138.5t96.5 93t144 33.5q79 0 137 -32t90 -89t32 -134q0 -16 -1 -29.5t-3 -25.5h-442v99h321l-26 -18q0 62 -29.5 91.5t-80.5 29.5q-59 0 -91.5 -40t-32.5 -120q0 -78 32.5 -116t97.5 -38q36 0 62 12t39 39h141
q-25 -74 -85.5 -116.5t-155.5 -42.5zM364 -196q-55 0 -85.5 24.5t-30.5 64.5q0 44 34.5 79t92.5 65l60 -17q-49 -38 -67.5 -62.5t-18.5 -44.5q0 -16 9 -24.5t22 -8.5q22 0 40 14l27 -70q-14 -9 -34 -14.5t-49 -5.5z" />
    <glyph glyph-name="Ecaron" unicode="&#x11a;" horiz-adv-x="626" 
d="M50 0v720h154v-720h-154zM122 0v118h464v-118h-464zM122 310v116h429v-116h-429zM122 602v118h452v-118h-452zM247 793l-126 157h125l141 -127h-124l141 127h125l-126 -157h-156z" />
    <glyph glyph-name="ecaron" unicode="&#x11b;" horiz-adv-x="574" 
d="M300 -10q-85 0 -148 33.5t-97.5 93.5t-34.5 138q0 79 34.5 138.5t96.5 93t144 33.5q79 0 137 -32t90 -89t32 -134q0 -16 -1 -29.5t-3 -25.5h-442v99h321l-26 -18q0 62 -29.5 91.5t-80.5 29.5q-59 0 -91.5 -40t-32.5 -120q0 -78 32.5 -116t97.5 -38q36 0 62 12t39 39h141
q-25 -74 -85.5 -116.5t-155.5 -42.5zM219 583l-126 157h125l141 -127h-124l141 127h125l-126 -157h-156z" />
    <glyph glyph-name="Gbreve" unicode="&#x11e;" horiz-adv-x="763" 
d="M406 -10q-117 0 -201 46t-129.5 129t-45.5 194q0 110 46 193.5t127.5 130.5t189.5 47q89 0 159.5 -32t114 -87.5t51.5 -128.5h-154q-10 59 -55.5 92.5t-113.5 33.5q-63 0 -110 -29.5t-73 -84.5t-26 -132q0 -80 26 -136.5t76.5 -86t124.5 -29.5q60 0 102 15t64 42l146 -58
q-58 -58 -134.5 -88.5t-184.5 -30.5zM571 109v198l31 -31h-190v118h313v-285h-154zM392 784q-51 0 -90 21.5t-61.5 59.5t-22.5 85h100q0 -29 20 -45.5t54 -16.5q35 0 54.5 16.5t19.5 45.5h100q0 -47 -22.5 -84.5t-61.5 -59.5t-90 -22z" />
    <glyph glyph-name="gbreve" unicode="&#x11f;" 
d="M295 -215q-106 0 -172.5 45t-78.5 122h142q8 -19 34.5 -29t67.5 -10q68 0 99 26t31 81v111l8 -2q-10 -56 -58 -88.5t-119 -32.5q-68 0 -118.5 31.5t-78.5 88.5t-28 134q0 78 29 136t81.5 90t122.5 32q72 0 117.5 -34t53.5 -93l-7 -1v118h147v-488q0 -110 -73 -173.5
t-200 -63.5zM301 123q53 0 86 36.5t33 104.5t-33.5 104.5t-87.5 36.5q-52 0 -85.5 -37t-33.5 -105t33.5 -104t87.5 -36zM299 574q-51 0 -90 21.5t-61.5 59.5t-22.5 85h100q0 -29 20 -45.5t54 -16.5q35 0 54.5 16.5t19.5 45.5h100q0 -47 -22.5 -84.5t-61.5 -59.5t-90 -22z
" />
    <glyph glyph-name="Gdotaccent" unicode="&#x120;" horiz-adv-x="763" 
d="M406 -10q-117 0 -201 46t-129.5 129t-45.5 194q0 110 46 193.5t127.5 130.5t189.5 47q89 0 159.5 -32t114 -87.5t51.5 -128.5h-154q-10 59 -55.5 92.5t-113.5 33.5q-63 0 -110 -29.5t-73 -84.5t-26 -132q0 -80 26 -136.5t76.5 -86t124.5 -29.5q60 0 102 15t64 42l146 -58
q-58 -58 -134.5 -88.5t-184.5 -30.5zM571 109v198l31 -31h-190v118h313v-285h-154zM312 788v162h160v-162h-160z" />
    <glyph glyph-name="gdotaccent" unicode="&#x121;" 
d="M295 -215q-106 0 -172.5 45t-78.5 122h142q8 -19 34.5 -29t67.5 -10q68 0 99 26t31 81v111l8 -2q-10 -56 -58 -88.5t-119 -32.5q-68 0 -118.5 31.5t-78.5 88.5t-28 134q0 78 29 136t81.5 90t122.5 32q72 0 117.5 -34t53.5 -93l-7 -1v118h147v-488q0 -110 -73 -173.5
t-200 -63.5zM301 123q53 0 86 36.5t33 104.5t-33.5 104.5t-87.5 36.5q-52 0 -85.5 -37t-33.5 -105t33.5 -104t87.5 -36zM219 578v162h160v-162h-160z" />
    <glyph glyph-name="uni0122" unicode="&#x122;" horiz-adv-x="763" 
d="M406 -10q-117 0 -201 46t-129.5 129t-45.5 194q0 110 46 193.5t127.5 130.5t189.5 47q89 0 159.5 -32t114 -87.5t51.5 -128.5h-154q-10 59 -55.5 92.5t-113.5 33.5q-63 0 -110 -29.5t-73 -84.5t-26 -132q0 -80 26 -136.5t76.5 -86t124.5 -29.5q60 0 102 15t64 42l146 -58
q-58 -58 -134.5 -88.5t-184.5 -30.5zM571 109v198l31 -31h-190v118h313v-285h-154zM315 -350v67q38 0 56 21t18 60l53 -12h-127v139h153v-116q0 -72 -41.5 -115.5t-111.5 -43.5z" />
    <glyph glyph-name="uni0123" unicode="&#x123;" 
d="M295 -215q-106 0 -172.5 45t-78.5 122h142q8 -19 34.5 -29t67.5 -10q68 0 99 26t31 81v111l8 -2q-10 -56 -58 -88.5t-119 -32.5q-68 0 -118.5 31.5t-78.5 88.5t-28 134q0 78 29 136t81.5 90t122.5 32q72 0 117.5 -34t53.5 -93l-7 -1v118h147v-488q0 -110 -73 -173.5
t-200 -63.5zM301 123q53 0 86 36.5t33 104.5t-33.5 104.5t-87.5 36.5q-52 0 -85.5 -37t-33.5 -105t33.5 -104t87.5 -36zM222 584v116q0 72 41.5 115.5t111.5 43.5v-67q-37 0 -55.5 -21t-18.5 -60l-53 12h127v-139h-153z" />
    <glyph glyph-name="Hbar" unicode="&#x126;" horiz-adv-x="752" 
d="M10 522v120h732v-120h-732zM66 0v720h154v-720h-154zM532 0v720h154v-720h-154zM138 434h464v-118h-464v118z" />
    <glyph glyph-name="hbar" unicode="&#x127;" horiz-adv-x="619" 
d="M0 578v98h386v-98h-386zM60 0v720h150v-720h-150zM415 0v316q0 42 -21.5 63t-62.5 21q-35 0 -62.5 -16t-43 -44t-15.5 -66l-13 123q25 56 73.5 89.5t119.5 33.5q85 0 130 -47.5t45 -127.5v-345h-150z" />
    <glyph glyph-name="Imacron" unicode="&#x12a;" horiz-adv-x="254" 
d="M50 0v720h154v-720h-154zM-57 827v108h367v-108h-367z" />
    <glyph glyph-name="imacron" unicode="&#x12b;" horiz-adv-x="270" 
d="M60 0v510h150v-510h-150zM-49 617v108h367v-108h-367z" />
    <glyph glyph-name="Iogonek" unicode="&#x12e;" horiz-adv-x="254" 
d="M50 0v720h154v-720h-154zM113 -216q-55 0 -85.5 24.5t-30.5 64.5q0 44 34.5 79t92.5 65l60 -17q-49 -38 -67.5 -62.5t-18.5 -44.5q0 -16 9 -24.5t22 -8.5q22 0 40 14l27 -70q-14 -9 -34 -14.5t-49 -5.5z" />
    <glyph glyph-name="iogonek" unicode="&#x12f;" horiz-adv-x="270" 
d="M60 0v510h150v-510h-150zM55 578v162h160v-162h-160zM139 -216q-55 0 -85.5 24.5t-30.5 64.5q0 44 34.5 79t92.5 65l60 -17q-49 -38 -67.5 -62.5t-18.5 -44.5q0 -16 9 -24.5t22 -8.5q22 0 40 14l27 -70q-14 -9 -34 -14.5t-49 -5.5z" />
    <glyph glyph-name="Idotaccent" unicode="&#x130;" horiz-adv-x="254" 
d="M50 0v720h154v-720h-154zM47 788v162h160v-162h-160z" />
    <glyph glyph-name="dotlessi" unicode="&#x131;" horiz-adv-x="270" 
d="M60 0v510h150v-510h-150z" />
    <glyph glyph-name="IJ" unicode="&#x132;" horiz-adv-x="667" 
d="M50 0v720h154v-720h-154zM388 -10q-38 0 -73 5.5t-51 13.5v118q18 -7 43 -12t51 -5q56 0 81.5 18.5t25.5 67.5v524h154v-531q0 -100 -59 -149.5t-172 -49.5z" />
    <glyph glyph-name="ij" unicode="&#x133;" horiz-adv-x="528" 
d="M60 0v510h150v-510h-150zM55 578v162h160v-162h-160zM290 -215q-17 0 -32 2.5t-30 6.5v115q8 -3 17 -4.5t19 -1.5q26 0 40 12.5t14 37.5v557h150v-559q0 -77 -43.5 -121.5t-134.5 -44.5zM313 578v162h160v-162h-160z" />
    <glyph glyph-name="uni0136" unicode="&#x136;" horiz-adv-x="722" 
d="M50 0v720h154v-720h-154zM155 374l324 346h205l-342 -346h-187zM495 0l-342 374h189l362 -374h-209zM286 -350v67q38 0 56 21t18 60l53 -12h-127v139h153v-116q0 -72 -41.5 -115.5t-111.5 -43.5z" />
    <glyph glyph-name="uni0137" unicode="&#x137;" horiz-adv-x="569" 
d="M60 0v720h150v-720h-150zM387 0l-212 265l207 245h173l-243 -268l7 47l246 -289h-178zM208 -350v67q38 0 56 21t18 60l53 -12h-127v139h153v-116q0 -72 -41.5 -115.5t-111.5 -43.5z" />
    <glyph glyph-name="Lacute" unicode="&#x139;" horiz-adv-x="590" 
d="M50 0v720h154v-720h-154zM122 0v118h428v-118h-428zM164 793h-132l99 157h198z" />
    <glyph glyph-name="lacute" unicode="&#x13a;" horiz-adv-x="270" 
d="M60 0v720h150v-720h-150zM172 793h-132l99 157h198z" />
    <glyph glyph-name="uni013B" unicode="&#x13b;" horiz-adv-x="590" 
d="M50 0v720h154v-720h-154zM122 0v118h428v-118h-428zM237 -350v67q38 0 56 21t18 60l53 -12h-127v139h153v-116q0 -72 -41.5 -115.5t-111.5 -43.5z" />
    <glyph glyph-name="uni013C" unicode="&#x13c;" horiz-adv-x="270" 
d="M60 0v720h150v-720h-150zM58 -350v67q38 0 56 21t18 60l53 -12h-127v139h153v-116q0 -72 -41.5 -115.5t-111.5 -43.5z" />
    <glyph glyph-name="Lcaron" unicode="&#x13d;" horiz-adv-x="590" 
d="M50 0v720h154v-720h-154zM122 0v118h428v-118h-428zM460 483h-100v237h126z" />
    <glyph glyph-name="lcaron" unicode="&#x13e;" horiz-adv-x="368" 
d="M60 0v720h150v-720h-150zM360 483h-100v237h126z" />
    <glyph glyph-name="Lslash" unicode="&#x141;" horiz-adv-x="596" 
d="M161 325l-161 -66v108l161 66v-108zM161 443l205 86v-108l-205 -86v108zM60 0v720h154v-720h-154zM132 0v118h428v-118h-428z" />
    <glyph glyph-name="lslash" unicode="&#x142;" horiz-adv-x="310" 
d="M161 330l-151 -62v98l151 62v-98zM161 438l139 58v-98l-139 -58v98zM80 0v720h150v-720h-150z" />
    <glyph glyph-name="Nacute" unicode="&#x143;" horiz-adv-x="720" 
d="M50 0v720h199l320 -636l-49 -12v648h150v-720h-199l-320 636l49 12v-648h-150zM397 793h-132l99 157h198z" />
    <glyph glyph-name="nacute" unicode="&#x144;" horiz-adv-x="619" 
d="M60 0v510h147v-120h3v-390h-150zM415 0v316q0 42 -21.5 63t-62.5 21q-35 0 -62.5 -16t-43 -44t-15.5 -66l-13 123q25 56 73.5 89.5t119.5 33.5q85 0 130 -47.5t45 -127.5v-345h-150zM368 583h-132l99 157h198z" />
    <glyph glyph-name="uni0145" unicode="&#x145;" horiz-adv-x="720" 
d="M50 0v720h199l320 -636l-49 -12v648h150v-720h-199l-320 636l49 12v-648h-150zM283 -350v67q38 0 56 21t18 60l53 -12h-127v139h153v-116q0 -72 -41.5 -115.5t-111.5 -43.5z" />
    <glyph glyph-name="uni0146" unicode="&#x146;" horiz-adv-x="619" 
d="M60 0v510h147v-120h3v-390h-150zM415 0v316q0 42 -21.5 63t-62.5 21q-35 0 -62.5 -16t-43 -44t-15.5 -66l-13 123q25 56 73.5 89.5t119.5 33.5q85 0 130 -47.5t45 -127.5v-345h-150zM241 -350v67q38 0 56 21t18 60l53 -12h-127v139h153v-116q0 -72 -41.5 -115.5
t-111.5 -43.5z" />
    <glyph glyph-name="Ncaron" unicode="&#x147;" horiz-adv-x="720" 
d="M50 0v720h199l320 -636l-49 -12v648h150v-720h-199l-320 636l49 12v-648h-150zM282 793l-126 157h125l141 -127h-124l141 127h125l-126 -157h-156z" />
    <glyph glyph-name="ncaron" unicode="&#x148;" horiz-adv-x="619" 
d="M60 0v510h147v-120h3v-390h-150zM415 0v316q0 42 -21.5 63t-62.5 21q-35 0 -62.5 -16t-43 -44t-15.5 -66l-13 123q25 56 73.5 89.5t119.5 33.5q85 0 130 -47.5t45 -127.5v-345h-150zM253 583l-126 157h125l141 -127h-124l141 127h125l-126 -157h-156z" />
    <glyph glyph-name="Eng" unicode="&#x14a;" horiz-adv-x="712" 
d="M46 0v720h199l370 -626l-99 18v608h150v-720h-149l-370 626l49 12v-638h-150zM476 -215q-25 0 -46 3t-36 7v119q11 -4 25.5 -6.5t30.5 -2.5q33 0 48.5 14t15.5 46v85h152v-89q0 -85 -45 -130.5t-145 -45.5z" />
    <glyph glyph-name="eng" unicode="&#x14b;" horiz-adv-x="619" 
d="M387 -215q-17 0 -32 2.5t-30 6.5v115q8 -3 17 -4.5t19 -1.5q26 0 40 12.5t14 37.5v363q0 42 -21.5 63t-62.5 21q-35 0 -62.5 -16t-43 -44t-15.5 -66l-13 123q25 56 73.5 89.5t119.5 33.5q85 0 130 -47.5t45 -127.5v-394q0 -77 -43.5 -121.5t-134.5 -44.5zM60 0v510h147
v-120h3v-390h-150z" />
    <glyph glyph-name="Omacron" unicode="&#x14c;" horiz-adv-x="798" 
d="M399 -10q-80 0 -147.5 27t-117 76.5t-77 118t-27.5 151.5q0 110 47 192.5t130.5 128.5t190.5 46q109 0 192 -46t130.5 -129t47.5 -193q0 -82 -27.5 -150.5t-77 -118t-117 -76.5t-147.5 -27zM398 112q63 0 111 32t75.5 88.5t27.5 131.5q0 74 -27 129t-75 85t-112 30
q-63 0 -111 -30t-74.5 -84.5t-26.5 -129.5q0 -76 27 -132.5t75 -88t110 -31.5zM215 827v108h367v-108h-367z" />
    <glyph glyph-name="omacron" unicode="&#x14d;" horiz-adv-x="604" 
d="M302 -10q-84 0 -147.5 33.5t-99 94t-35.5 139.5t35.5 138t99 92t147.5 33q85 0 148.5 -33t98.5 -92t35 -138t-35.5 -139.5t-99 -94t-147.5 -33.5zM302 108q35 0 63.5 18t45.5 51.5t17 80.5q0 69 -36.5 106.5t-89.5 37.5t-89.5 -38t-36.5 -106q0 -47 17 -80.5t45.5 -51.5
t63.5 -18zM118 617v108h367v-108h-367z" />
    <glyph glyph-name="Ohungarumlaut" unicode="&#x150;" horiz-adv-x="798" 
d="M399 -10q-80 0 -147.5 27t-117 76.5t-77 118t-27.5 151.5q0 110 47 192.5t130.5 128.5t190.5 46q109 0 192 -46t130.5 -129t47.5 -193q0 -82 -27.5 -150.5t-77 -118t-117 -76.5t-147.5 -27zM398 112q63 0 111 32t75.5 88.5t27.5 131.5q0 74 -27 129t-75 85t-112 30
q-63 0 -111 -30t-74.5 -84.5t-26.5 -129.5q0 -76 27 -132.5t75 -88t110 -31.5zM328 793h-112l59 157h168zM548 793h-112l59 157h168z" />
    <glyph glyph-name="ohungarumlaut" unicode="&#x151;" horiz-adv-x="604" 
d="M302 -10q-84 0 -147.5 33.5t-99 94t-35.5 139.5t35.5 138t99 92t147.5 33q85 0 148.5 -33t98.5 -92t35 -138t-35.5 -139.5t-99 -94t-147.5 -33.5zM302 108q35 0 63.5 18t45.5 51.5t17 80.5q0 69 -36.5 106.5t-89.5 37.5t-89.5 -38t-36.5 -106q0 -47 17 -80.5t45.5 -51.5
t63.5 -18zM231 583h-112l59 157h168zM451 583h-112l59 157h168z" />
    <glyph glyph-name="OE" unicode="&#x152;" horiz-adv-x="1090" 
d="M430 -10q-118 0 -208.5 46.5t-141 130t-50.5 194.5t50.5 194t141 129t208.5 46q44 0 79.5 -3t66.5 -8v-132q-31 11 -65 16t-81 5q-80 0 -134.5 -30t-82 -85.5t-27.5 -131.5q0 -77 27.5 -133t82 -86t134.5 -30q47 0 81 5.5t65 15.5v-132q-31 -5 -66.5 -8t-79.5 -3zM554 0
v720h484v-118h-330v-176h307v-116h-307v-192h342v-118h-496z" />
    <glyph glyph-name="oe" unicode="&#x153;" horiz-adv-x="949" 
d="M292 -10q-79 0 -140.5 33.5t-96.5 94t-35 139.5t35 138t96.5 92t140.5 33q80 0 139 -33t91 -92t32 -138t-32.5 -139.5t-91.5 -94t-138 -33.5zM292 108q34 0 60 18t41 51.5t15 80.5q0 46 -15 78t-41 49t-60 17t-60 -17t-41 -49t-15 -78q0 -47 15 -80.5t41.5 -51.5
t59.5 -18zM685 -10q-80 0 -141 33.5t-95 93.5t-34 138q0 79 34 138.5t94 93t137 33.5q74 0 130 -32t87.5 -89t31.5 -134q0 -16 -1 -29.5t-3 -25.5h-422v99h301l-22 -18q0 62 -28 91.5t-73 29.5q-36 0 -62.5 -17.5t-40.5 -53t-14 -89.5q0 -52 14 -86t41 -51t65 -17
q29 0 53 12t35 39h144q-25 -74 -84 -116.5t-147 -42.5z" />
    <glyph glyph-name="Racute" unicode="&#x154;" horiz-adv-x="668" 
d="M46 0v720h322q78 0 136 -26.5t90 -74.5t32 -112q0 -63 -32 -110.5t-90 -74t-136 -26.5h-200v113h196q55 0 84.5 25.5t29.5 71.5q0 47 -29 71.5t-85 24.5h-164v-602h-154zM452 0l-289 374h163l334 -374h-208zM371 793h-132l99 157h198z" />
    <glyph glyph-name="racute" unicode="&#x155;" horiz-adv-x="398" 
d="M60 0v510h147v-120h3v-390h-150zM210 266l-13 121q18 65 59 99t102 34q19 0 28 -4v-140q-5 2 -14 2.5t-22 0.5q-72 0 -106 -25.5t-34 -87.5zM254 583h-132l99 157h198z" />
    <glyph glyph-name="uni0156" unicode="&#x156;" horiz-adv-x="668" 
d="M46 0v720h322q78 0 136 -26.5t90 -74.5t32 -112q0 -63 -32 -110.5t-90 -74t-136 -26.5h-200v113h196q55 0 84.5 25.5t29.5 71.5q0 47 -29 71.5t-85 24.5h-164v-602h-154zM452 0l-289 374h163l334 -374h-208zM257 -350v67q38 0 56 21t18 60l53 -12h-127v139h153v-116
q0 -72 -41.5 -115.5t-111.5 -43.5z" />
    <glyph glyph-name="uni0157" unicode="&#x157;" horiz-adv-x="398" 
d="M60 0v510h147v-120h3v-390h-150zM210 266l-13 121q18 65 59 99t102 34q19 0 28 -4v-140q-5 2 -14 2.5t-22 0.5q-72 0 -106 -25.5t-34 -87.5zM55 -350v67q38 0 56 21t18 60l53 -12h-127v139h153v-116q0 -72 -41.5 -115.5t-111.5 -43.5z" />
    <glyph glyph-name="Rcaron" unicode="&#x158;" horiz-adv-x="668" 
d="M46 0v720h322q78 0 136 -26.5t90 -74.5t32 -112q0 -63 -32 -110.5t-90 -74t-136 -26.5h-200v113h196q55 0 84.5 25.5t29.5 71.5q0 47 -29 71.5t-85 24.5h-164v-602h-154zM452 0l-289 374h163l334 -374h-208zM256 793l-126 157h125l141 -127h-124l141 127h125l-126 -157
h-156z" />
    <glyph glyph-name="rcaron" unicode="&#x159;" horiz-adv-x="398" 
d="M60 0v510h147v-120h3v-390h-150zM210 266l-13 121q18 65 59 99t102 34q19 0 28 -4v-140q-5 2 -14 2.5t-22 0.5q-72 0 -106 -25.5t-34 -87.5zM139 583l-126 157h125l141 -127h-124l141 127h125l-126 -157h-156z" />
    <glyph glyph-name="Sacute" unicode="&#x15a;" horiz-adv-x="652" 
d="M346 -9q-140 0 -224 62.5t-98 176.5h148q7 -58 56 -91.5t125 -33.5q62 0 95.5 22t33.5 59q0 35 -20 56.5t-69 34.5l-134 37q-103 29 -150.5 79.5t-47.5 126.5q0 65 33.5 112.5t94.5 73t143 25.5q126 0 201 -59.5t85 -157.5h-148q-10 53 -48.5 78t-98.5 25q-52 0 -83 -20
t-31 -54q0 -26 17 -47.5t71 -36.5l134 -37q106 -29 152.5 -79.5t46.5 -127.5q0 -108 -75 -166t-209 -58zM373 793h-132l99 157h198z" />
    <glyph glyph-name="sacute" unicode="&#x15b;" horiz-adv-x="504" 
d="M266 -10q-112 0 -178 45t-72 124h134q5 -34 34.5 -51.5t81.5 -17.5q47 0 68.5 13.5t21.5 38.5q0 19 -12.5 29.5t-45.5 17.5l-82 17q-91 19 -134 57.5t-43 99.5q0 74 57 115.5t159 41.5q101 0 161 -40.5t66 -112.5h-134q-4 26 -28 39.5t-68 13.5q-40 0 -59.5 -11.5
t-19.5 -32.5q0 -18 16 -28.5t53 -18.5l92 -19q77 -16 116.5 -59.5t39.5 -102.5q0 -75 -58.5 -116.5t-165.5 -41.5zM289 583h-132l99 157h198z" />
    <glyph glyph-name="Scedilla" unicode="&#x15e;" horiz-adv-x="652" 
d="M346 -9q-140 0 -224 62.5t-98 176.5h148q7 -58 56 -91.5t125 -33.5q62 0 95.5 22t33.5 59q0 35 -20 56.5t-69 34.5l-134 37q-103 29 -150.5 79.5t-47.5 126.5q0 65 33.5 112.5t94.5 73t143 25.5q126 0 201 -59.5t85 -157.5h-148q-10 53 -48.5 78t-98.5 25q-52 0 -83 -20
t-31 -54q0 -26 17 -47.5t71 -36.5l134 -37q106 -29 152.5 -79.5t46.5 -127.5q0 -108 -75 -166t-209 -58zM340 -215q-62 0 -98.5 25.5t-38.5 70.5h98q2 -13 11.5 -20t25.5 -7q11 0 20 5.5t9 15.5q0 14 -18 21.5t-68 10.5l27 105h83l-11 -43q43 -10 65.5 -33.5t22.5 -59.5
q0 -38 -33 -64.5t-95 -26.5z" />
    <glyph glyph-name="scedilla" unicode="&#x15f;" horiz-adv-x="504" 
d="M266 -10q-112 0 -178 45t-72 124h134q5 -34 34.5 -51.5t81.5 -17.5q47 0 68.5 13.5t21.5 38.5q0 19 -12.5 29.5t-45.5 17.5l-82 17q-91 19 -134 57.5t-43 99.5q0 74 57 115.5t159 41.5q101 0 161 -40.5t66 -112.5h-134q-4 26 -28 39.5t-68 13.5q-40 0 -59.5 -11.5
t-19.5 -32.5q0 -18 16 -28.5t53 -18.5l92 -19q77 -16 116.5 -59.5t39.5 -102.5q0 -75 -58.5 -116.5t-165.5 -41.5zM257 -215q-62 0 -98.5 25.5t-38.5 70.5h98q2 -13 11.5 -20t25.5 -7q11 0 20 5.5t9 15.5q0 14 -18 21.5t-68 10.5l27 105h83l-11 -43q43 -10 65.5 -33.5
t22.5 -59.5q0 -38 -33 -64.5t-95 -26.5z" />
    <glyph glyph-name="Scaron" unicode="&#x160;" horiz-adv-x="652" 
d="M346 -9q-140 0 -224 62.5t-98 176.5h148q7 -58 56 -91.5t125 -33.5q62 0 95.5 22t33.5 59q0 35 -20 56.5t-69 34.5l-134 37q-103 29 -150.5 79.5t-47.5 126.5q0 65 33.5 112.5t94.5 73t143 25.5q126 0 201 -59.5t85 -157.5h-148q-10 53 -48.5 78t-98.5 25q-52 0 -83 -20
t-31 -54q0 -26 17 -47.5t71 -36.5l134 -37q106 -29 152.5 -79.5t46.5 -127.5q0 -108 -75 -166t-209 -58zM258 793l-126 157h125l141 -127h-124l141 127h125l-126 -157h-156z" />
    <glyph glyph-name="scaron" unicode="&#x161;" horiz-adv-x="504" 
d="M266 -10q-112 0 -178 45t-72 124h134q5 -34 34.5 -51.5t81.5 -17.5q47 0 68.5 13.5t21.5 38.5q0 19 -12.5 29.5t-45.5 17.5l-82 17q-91 19 -134 57.5t-43 99.5q0 74 57 115.5t159 41.5q101 0 161 -40.5t66 -112.5h-134q-4 26 -28 39.5t-68 13.5q-40 0 -59.5 -11.5
t-19.5 -32.5q0 -18 16 -28.5t53 -18.5l92 -19q77 -16 116.5 -59.5t39.5 -102.5q0 -75 -58.5 -116.5t-165.5 -41.5zM174 583l-126 157h125l141 -127h-124l141 127h125l-126 -157h-156z" />
    <glyph glyph-name="Tcaron" unicode="&#x164;" horiz-adv-x="672" 
d="M259 0v602h-235v118h624v-118h-235v-602h-154zM258 793l-126 157h125l141 -127h-124l141 127h125l-126 -157h-156z" />
    <glyph glyph-name="tcaron" unicode="&#x165;" horiz-adv-x="421" 
d="M302 -11q-98 0 -145.5 47.5t-47.5 144.5v443l150 56v-504q0 -34 19 -51t59 -17q15 0 28 3t26 7v-114q-13 -7 -36.5 -11t-52.5 -4zM14 396v114h377v-114h-377zM428 553h-100v237h126z" />
    <glyph glyph-name="Umacron" unicode="&#x16a;" horiz-adv-x="700" 
d="M349 -10q-154 0 -230.5 84.5t-76.5 246.5v399h154v-426q0 -94 41 -138t113 -44t113 44t41 137v427h154v-401q0 -160 -77 -244.5t-232 -84.5zM166 827v108h367v-108h-367z" />
    <glyph glyph-name="umacron" unicode="&#x16b;" horiz-adv-x="611" 
d="M225 -10q-54 0 -92.5 23.5t-58.5 63t-20 88.5v345h150v-316q0 -42 21 -63t59 -21q34 0 60 16t41.5 44.5t15.5 65.5l13 -123q-25 -55 -73 -89t-116 -34zM404 0v120h-3v390h150v-510h-147zM122 617v108h367v-108h-367z" />
    <glyph glyph-name="Ubreve" unicode="&#x16c;" horiz-adv-x="700" 
d="M349 -10q-154 0 -230.5 84.5t-76.5 246.5v399h154v-426q0 -94 41 -138t113 -44t113 44t41 137v427h154v-401q0 -160 -77 -244.5t-232 -84.5zM350 784q-51 0 -90 21.5t-61.5 59.5t-22.5 85h100q0 -29 20 -45.5t54 -16.5q35 0 54.5 16.5t19.5 45.5h100q0 -47 -22.5 -84.5
t-61.5 -59.5t-90 -22z" />
    <glyph glyph-name="ubreve" unicode="&#x16d;" horiz-adv-x="611" 
d="M225 -10q-54 0 -92.5 23.5t-58.5 63t-20 88.5v345h150v-316q0 -42 21 -63t59 -21q34 0 60 16t41.5 44.5t15.5 65.5l13 -123q-25 -55 -73 -89t-116 -34zM404 0v120h-3v390h150v-510h-147zM306 574q-51 0 -90 21.5t-61.5 59.5t-22.5 85h100q0 -29 20 -45.5t54 -16.5
q35 0 54.5 16.5t19.5 45.5h100q0 -47 -22.5 -84.5t-61.5 -59.5t-90 -22z" />
    <glyph glyph-name="Uring" unicode="&#x16e;" horiz-adv-x="700" 
d="M349 -10q-154 0 -230.5 84.5t-76.5 246.5v399h154v-426q0 -94 41 -138t113 -44t113 44t41 137v427h154v-401q0 -160 -77 -244.5t-232 -84.5zM350 771q-46 0 -77 31.5t-31 76.5q0 44 31 75.5t77 31.5t76.5 -31.5t30.5 -75.5q0 -45 -30.5 -76.5t-76.5 -31.5zM350 845
q14 0 23 10t9 24t-9 23.5t-23 9.5q-15 0 -24 -9.5t-9 -23.5t9 -24t24 -10z" />
    <glyph glyph-name="uring" unicode="&#x16f;" horiz-adv-x="611" 
d="M225 -10q-54 0 -92.5 23.5t-58.5 63t-20 88.5v345h150v-316q0 -42 21 -63t59 -21q34 0 60 16t41.5 44.5t15.5 65.5l13 -123q-25 -55 -73 -89t-116 -34zM404 0v120h-3v390h150v-510h-147zM306 561q-46 0 -77 31.5t-31 76.5q0 44 31 75.5t77 31.5t76.5 -31.5t30.5 -75.5
q0 -45 -30.5 -76.5t-76.5 -31.5zM306 635q14 0 23 10t9 24t-9 23.5t-23 9.5q-15 0 -24 -9.5t-9 -23.5t9 -24t24 -10z" />
    <glyph glyph-name="Uhungarumlaut" unicode="&#x170;" horiz-adv-x="700" 
d="M349 -10q-154 0 -230.5 84.5t-76.5 246.5v399h154v-426q0 -94 41 -138t113 -44t113 44t41 137v427h154v-401q0 -160 -77 -244.5t-232 -84.5zM279 793h-112l59 157h168zM499 793h-112l59 157h168z" />
    <glyph glyph-name="uhungarumlaut" unicode="&#x171;" horiz-adv-x="611" 
d="M225 -10q-54 0 -92.5 23.5t-58.5 63t-20 88.5v345h150v-316q0 -42 21 -63t59 -21q34 0 60 16t41.5 44.5t15.5 65.5l13 -123q-25 -55 -73 -89t-116 -34zM404 0v120h-3v390h150v-510h-147zM235 583h-112l59 157h168zM455 583h-112l59 157h168z" />
    <glyph glyph-name="Uogonek" unicode="&#x172;" horiz-adv-x="700" 
d="M349 -10q-154 0 -230.5 84.5t-76.5 246.5v399h154v-426q0 -94 41 -138t113 -44t113 44t41 137v427h154v-401q0 -160 -77 -244.5t-232 -84.5zM434 -196q-55 0 -85.5 24.5t-30.5 64.5q0 44 34.5 79t92.5 65l60 -17q-49 -38 -67.5 -62.5t-18.5 -44.5q0 -16 9 -24.5t22 -8.5
q22 0 40 14l27 -70q-14 -9 -34 -14.5t-49 -5.5z" />
    <glyph glyph-name="uogonek" unicode="&#x173;" horiz-adv-x="611" 
d="M225 -10q-54 0 -92.5 23.5t-58.5 63t-20 88.5v345h150v-316q0 -42 21 -63t59 -21q34 0 60 16t41.5 44.5t15.5 65.5l13 -123q-25 -55 -73 -89t-116 -34zM404 0v120h-3v390h150v-510h-147zM480 -216q-55 0 -85.5 24.5t-30.5 64.5q0 44 34.5 79t92.5 65l60 -17
q-49 -38 -67.5 -62.5t-18.5 -44.5q0 -16 9 -24.5t22 -8.5q22 0 40 14l27 -70q-14 -9 -34 -14.5t-49 -5.5z" />
    <glyph glyph-name="Wcircumflex" unicode="&#x174;" horiz-adv-x="1086" 
d="M237 0l-203 720h156l168 -659h-49l150 659h175l148 -659h-48l169 659h149l-203 -720h-172l-153 646h40l-155 -646h-172zM339 793l126 157h156l126 -157h-125l-141 127h124l-141 -127h-125z" />
    <glyph glyph-name="wcircumflex" unicode="&#x175;" horiz-adv-x="816" 
d="M166 0l-156 510h158l78 -356h-4l98 356h140l99 -356h-4l77 356h154l-156 -510h-144l-100 355h4l-100 -355h-144zM204 583l126 157h156l126 -157h-125l-141 127h124l-141 -127h-125z" />
    <glyph glyph-name="Ycircumflex" unicode="&#x176;" horiz-adv-x="712" 
d="M279 0v291l-268 429h185l212 -381h-87l211 381h169l-268 -429v-291h-154zM152 793l126 157h156l126 -157h-125l-141 127h124l-141 -127h-125z" />
    <glyph glyph-name="ycircumflex" unicode="&#x177;" horiz-adv-x="543" 
d="M86 -205l141 312l26 43l132 360h160l-309 -715h-150zM194 10l-196 500h162l161 -456zM68 583l126 157h156l126 -157h-125l-141 127h124l-141 -127h-125z" />
    <glyph glyph-name="Ydieresis" unicode="&#x178;" horiz-adv-x="712" 
d="M279 0v291l-268 429h185l212 -381h-87l211 381h169l-268 -429v-291h-154zM391 787v163h160v-163h-160zM161 787v163h160v-163h-160z" />
    <glyph glyph-name="Zacute" unicode="&#x179;" horiz-adv-x="635" 
d="M40 0v104l398 555l37 -57h-421v118h541v-104l-392 -548l-35 50h431v-118h-559zM355 793h-132l99 157h198z" />
    <glyph glyph-name="zacute" unicode="&#x17a;" horiz-adv-x="522" 
d="M44 0v104l284 345l30 -53h-306v114h426v-104l-278 -338l-28 46h310v-114h-438zM298 583h-132l99 157h198z" />
    <glyph glyph-name="Zdotaccent" unicode="&#x17b;" horiz-adv-x="635" 
d="M40 0v104l398 555l37 -57h-421v118h541v-104l-392 -548l-35 50h431v-118h-559zM238 788v162h160v-162h-160z" />
    <glyph glyph-name="zdotaccent" unicode="&#x17c;" horiz-adv-x="522" 
d="M44 0v104l284 345l30 -53h-306v114h426v-104l-278 -338l-28 46h310v-114h-438zM181 578v162h160v-162h-160z" />
    <glyph glyph-name="Zcaron" unicode="&#x17d;" horiz-adv-x="635" 
d="M40 0v104l398 555l37 -57h-421v118h541v-104l-392 -548l-35 50h431v-118h-559zM240 793l-126 157h125l141 -127h-124l141 127h125l-126 -157h-156z" />
    <glyph glyph-name="zcaron" unicode="&#x17e;" horiz-adv-x="522" 
d="M44 0v104l284 345l30 -53h-306v114h426v-104l-278 -338l-28 46h310v-114h-438zM183 583l-126 157h125l141 -127h-124l141 127h125l-126 -157h-156z" />
    <glyph glyph-name="uni01CD" unicode="&#x1cd;" horiz-adv-x="736" 
d="M24 0l258 720h132l-237 -720h-153zM552 0l-236 720h138l258 -720h-160zM160 279h404v-120h-404v120zM290 793l-126 157h125l141 -127h-124l141 127h125l-126 -157h-156z" />
    <glyph glyph-name="uni01CE" unicode="&#x1ce;" horiz-adv-x="571" 
d="M381 0q-6 22 -8.5 47t-2.5 58h-4v241q0 31 -20.5 48.5t-60.5 17.5q-38 0 -60.5 -13t-29.5 -38h-143q10 69 71 114t167 45q110 0 168 -49t58 -141v-225q0 -25 3.5 -50.5t11.5 -54.5h-150zM203 -10q-76 0 -121 38.5t-45 102.5q0 71 53.5 114.5t149.5 56.5l149 21v-87
l-124 -19q-40 -6 -59 -22t-19 -44q0 -25 18 -38t48 -13q47 0 80 25.5t33 59.5l14 -80q-22 -57 -67 -86t-110 -29zM216 583l-126 157h125l141 -127h-124l141 127h125l-126 -157h-156z" />
    <glyph glyph-name="uni0218" unicode="&#x218;" horiz-adv-x="652" 
d="M346 -9q-140 0 -224 62.5t-98 176.5h148q7 -58 56 -91.5t125 -33.5q62 0 95.5 22t33.5 59q0 35 -20 56.5t-69 34.5l-134 37q-103 29 -150.5 79.5t-47.5 126.5q0 65 33.5 112.5t94.5 73t143 25.5q126 0 201 -59.5t85 -157.5h-148q-10 53 -48.5 78t-98.5 25q-52 0 -83 -20
t-31 -54q0 -26 17 -47.5t71 -36.5l134 -37q106 -29 152.5 -79.5t46.5 -127.5q0 -108 -75 -166t-209 -58zM269 -350v67q38 0 56 21t18 60l53 -12h-127v139h153v-116q0 -72 -41.5 -115.5t-111.5 -43.5z" />
    <glyph glyph-name="uni0219" unicode="&#x219;" horiz-adv-x="504" 
d="M266 -10q-112 0 -178 45t-72 124h134q5 -34 34.5 -51.5t81.5 -17.5q47 0 68.5 13.5t21.5 38.5q0 19 -12.5 29.5t-45.5 17.5l-82 17q-91 19 -134 57.5t-43 99.5q0 74 57 115.5t159 41.5q101 0 161 -40.5t66 -112.5h-134q-4 26 -28 39.5t-68 13.5q-40 0 -59.5 -11.5
t-19.5 -32.5q0 -18 16 -28.5t53 -18.5l92 -19q77 -16 116.5 -59.5t39.5 -102.5q0 -75 -58.5 -116.5t-165.5 -41.5zM186 -350v67q38 0 56 21t18 60l53 -12h-127v139h153v-116q0 -72 -41.5 -115.5t-111.5 -43.5z" />
    <glyph glyph-name="uni021A" unicode="&#x21a;" horiz-adv-x="672" 
d="M259 0v602h-235v118h624v-118h-235v-602h-154zM259 -350v67q38 0 56 21t18 60l53 -12h-127v139h153v-116q0 -72 -41.5 -115.5t-111.5 -43.5z" />
    <glyph glyph-name="uni021B" unicode="&#x21b;" horiz-adv-x="421" 
d="M302 -11q-98 0 -145.5 47.5t-47.5 144.5v443l150 56v-504q0 -34 19 -51t59 -17q15 0 28 3t26 7v-114q-13 -7 -36.5 -11t-52.5 -4zM14 396v114h377v-114h-377zM195 -350v67q38 0 56 21t18 60l53 -12h-127v139h153v-116q0 -72 -41.5 -115.5t-111.5 -43.5z" />
    <glyph glyph-name="uni0237" unicode="&#x237;" horiz-adv-x="270" 
d="M32 -215q-17 0 -32 2.5t-30 6.5v115q8 -3 17 -4.5t19 -1.5q26 0 40 12.5t14 37.5v557h150v-559q0 -77 -43.5 -121.5t-134.5 -44.5z" />
    <glyph glyph-name="circumflex" unicode="&#x2c6;" horiz-adv-x="433" 
d="M60 583l126 157h156l126 -157h-125l-141 127h124l-141 -127h-125z" />
    <glyph glyph-name="caron" unicode="&#x2c7;" horiz-adv-x="433" 
d="M186 583l-126 157h125l141 -127h-124l141 127h125l-126 -157h-156z" />
    <glyph glyph-name="breve" unicode="&#x2d8;" horiz-adv-x="408" 
d="M234 574q-51 0 -90 21.5t-61.5 59.5t-22.5 85h100q0 -29 20 -45.5t54 -16.5q35 0 54.5 16.5t19.5 45.5h100q0 -47 -22.5 -84.5t-61.5 -59.5t-90 -22z" />
    <glyph glyph-name="dotaccent" unicode="&#x2d9;" horiz-adv-x="280" 
d="M60 578v162h160v-162h-160z" />
    <glyph glyph-name="ring" unicode="&#x2da;" horiz-adv-x="335" 
d="M168 561q-46 0 -77 31.5t-31 76.5q0 44 31 75.5t77 31.5t76.5 -31.5t30.5 -75.5q0 -45 -30.5 -76.5t-76.5 -31.5zM168 635q14 0 23 10t9 24t-9 23.5t-23 9.5q-15 0 -24 -9.5t-9 -23.5t9 -24t24 -10z" />
    <glyph glyph-name="ogonek" unicode="&#x2db;" horiz-adv-x="269" 
d="M176 -216q-55 0 -85.5 24.5t-30.5 64.5q0 44 34.5 79t92.5 65l60 -17q-49 -38 -67.5 -62.5t-18.5 -44.5q0 -16 9 -24.5t22 -8.5q22 0 40 14l27 -70q-14 -9 -34 -14.5t-49 -5.5z" />
    <glyph glyph-name="tilde" unicode="&#x2dc;" horiz-adv-x="452" 
d="M348 591q-27 0 -47.5 7.5t-38 18t-34 18t-33.5 7.5q-22 0 -33.5 -13.5t-11.5 -32.5h-90q0 38 16 71t47.5 54t76.5 21q28 0 48.5 -7.5t36.5 -18t31.5 -18t33.5 -7.5q23 0 34.5 13.5t11.5 32.5h90q0 -38 -16.5 -71.5t-47 -54t-74.5 -20.5z" />
    <glyph glyph-name="hungarumlaut" unicode="&#x2dd;" horiz-adv-x="414" 
d="M172 583h-112l59 157h168zM392 583h-112l59 157h168z" />
    <glyph glyph-name="gravecomb" unicode="&#x300;" horiz-adv-x="0" 
d="M225 583l-165 157h198l99 -157h-132z" />
    <glyph glyph-name="acutecomb" unicode="&#x301;" horiz-adv-x="0" 
d="M192 583h-132l99 157h198z" />
    <glyph glyph-name="uni0302" unicode="&#x302;" horiz-adv-x="0" 
d="M60 583l126 157h156l126 -157h-125l-141 127h124l-141 -127h-125z" />
    <glyph glyph-name="tildecomb" unicode="&#x303;" horiz-adv-x="0" 
d="M348 591q-27 0 -47.5 7.5t-38 18t-34 18t-33.5 7.5q-22 0 -33.5 -13.5t-11.5 -32.5h-90q0 38 16 71t47.5 54t76.5 21q28 0 48.5 -7.5t36.5 -18t31.5 -18t33.5 -7.5q23 0 34.5 13.5t11.5 32.5h90q0 -38 -16.5 -71.5t-47 -54t-74.5 -20.5z" />
    <glyph glyph-name="uni0304" unicode="&#x304;" horiz-adv-x="0" 
d="M60 617v108h367v-108h-367z" />
    <glyph glyph-name="uni0306" unicode="&#x306;" horiz-adv-x="0" 
d="M234 574q-51 0 -90 21.5t-61.5 59.5t-22.5 85h100q0 -29 20 -45.5t54 -16.5q35 0 54.5 16.5t19.5 45.5h100q0 -47 -22.5 -84.5t-61.5 -59.5t-90 -22z" />
    <glyph glyph-name="uni0307" unicode="&#x307;" horiz-adv-x="0" 
d="M60 578v162h160v-162h-160z" />
    <glyph glyph-name="uni0308" unicode="&#x308;" horiz-adv-x="0" 
d="M290 577v163h160v-163h-160zM60 577v163h160v-163h-160z" />
    <glyph glyph-name="uni030A" unicode="&#x30a;" horiz-adv-x="0" 
d="M168 561q-46 0 -77 31.5t-31 76.5q0 44 31 75.5t77 31.5t76.5 -31.5t30.5 -75.5q0 -45 -30.5 -76.5t-76.5 -31.5zM168 635q14 0 23 10t9 24t-9 23.5t-23 9.5q-15 0 -24 -9.5t-9 -23.5t9 -24t24 -10z" />
    <glyph glyph-name="uni030B" unicode="&#x30b;" horiz-adv-x="0" 
d="M172 583h-112l59 157h168zM392 583h-112l59 157h168z" />
    <glyph glyph-name="uni030C" unicode="&#x30c;" horiz-adv-x="0" 
d="M186 583l-126 157h125l141 -127h-124l141 127h125l-126 -157h-156z" />
    <glyph glyph-name="uni0312" unicode="&#x312;" horiz-adv-x="0" 
d="M68 584v116q0 72 41.5 115.5t111.5 43.5v-67q-37 0 -55.5 -21t-18.5 -60l-53 12h127v-139h-153z" />
    <glyph glyph-name="uni0326" unicode="&#x326;" horiz-adv-x="0" 
d="M68 -350v67q38 0 56 21t18 60l53 -12h-127v139h153v-116q0 -72 -41.5 -115.5t-111.5 -43.5z" />
    <glyph glyph-name="uni0327" unicode="&#x327;" horiz-adv-x="0" 
d="M197 -215q-62 0 -98.5 25.5t-38.5 70.5h98q2 -13 11.5 -20t25.5 -7q11 0 20 5.5t9 15.5q0 14 -18 21.5t-68 10.5l27 105h83l-11 -43q43 -10 65.5 -33.5t22.5 -59.5q0 -38 -33 -64.5t-95 -26.5z" />
    <glyph glyph-name="uni0328" unicode="&#x328;" horiz-adv-x="0" 
d="M176 -216q-55 0 -85.5 24.5t-30.5 64.5q0 44 34.5 79t92.5 65l60 -17q-49 -38 -67.5 -62.5t-18.5 -44.5q0 -16 9 -24.5t22 -8.5q22 0 40 14l27 -70q-14 -9 -34 -14.5t-49 -5.5z" />
    <glyph glyph-name="Wgrave" unicode="&#x1e80;" horiz-adv-x="1086" 
d="M237 0l-203 720h156l168 -659h-49l150 659h175l148 -659h-48l169 659h149l-203 -720h-172l-153 646h40l-155 -646h-172zM506 793l-165 157h198l99 -157h-132z" />
    <glyph glyph-name="wgrave" unicode="&#x1e81;" horiz-adv-x="816" 
d="M166 0l-156 510h158l78 -356h-4l98 356h140l99 -356h-4l77 356h154l-156 -510h-144l-100 355h4l-100 -355h-144zM371 583l-165 157h198l99 -157h-132z" />
    <glyph glyph-name="Wacute" unicode="&#x1e82;" horiz-adv-x="1086" 
d="M237 0l-203 720h156l168 -659h-49l150 659h175l148 -659h-48l169 659h149l-203 -720h-172l-153 646h40l-155 -646h-172zM580 793h-132l99 157h198z" />
    <glyph glyph-name="wacute" unicode="&#x1e83;" horiz-adv-x="816" 
d="M166 0l-156 510h158l78 -356h-4l98 356h140l99 -356h-4l77 356h154l-156 -510h-144l-100 355h4l-100 -355h-144zM445 583h-132l99 157h198z" />
    <glyph glyph-name="Wdieresis" unicode="&#x1e84;" horiz-adv-x="1086" 
d="M237 0l-203 720h156l168 -659h-49l150 659h175l148 -659h-48l169 659h149l-203 -720h-172l-153 646h40l-155 -646h-172zM578 787v163h160v-163h-160zM348 787v163h160v-163h-160z" />
    <glyph glyph-name="wdieresis" unicode="&#x1e85;" horiz-adv-x="816" 
d="M166 0l-156 510h158l78 -356h-4l98 356h140l99 -356h-4l77 356h154l-156 -510h-144l-100 355h4l-100 -355h-144zM443 577v163h160v-163h-160zM213 577v163h160v-163h-160z" />
    <glyph glyph-name="uni1E9E" unicode="&#x1e9e;" horiz-adv-x="717" 
d="M414 -9q-34 0 -67.5 4.5t-65.5 13.5v124q29 -12 56 -17t60 -5q73 0 107.5 24.5t34.5 77.5q0 50 -38 82.5t-124 57.5l-46 13l199 264l-20 -73q-25 27 -60.5 40.5t-80.5 13.5q-80 0 -122.5 -45t-42.5 -130v-436h-154v420q0 152 84.5 231.5t244.5 79.5q93 0 170 -27.5
t138 -83.5l-187 -239l-60 68q135 -43 195 -101t60 -146q0 -65 -34 -112.5t-97 -73t-150 -25.5z" />
    <glyph glyph-name="Ygrave" unicode="&#x1ef2;" horiz-adv-x="712" 
d="M279 0v291l-268 429h185l212 -381h-87l211 381h169l-268 -429v-291h-154zM319 793l-165 157h198l99 -157h-132z" />
    <glyph glyph-name="ygrave" unicode="&#x1ef3;" horiz-adv-x="543" 
d="M86 -205l141 312l26 43l132 360h160l-309 -715h-150zM194 10l-196 500h162l161 -456zM235 583l-165 157h198l99 -157h-132z" />
    <glyph glyph-name="endash" unicode="&#x2013;" horiz-adv-x="606" 
d="M60 217v110h486v-110h-486z" />
    <glyph glyph-name="emdash" unicode="&#x2014;" horiz-adv-x="906" 
d="M60 217v110h786v-110h-786z" />
    <glyph glyph-name="quoteleft" unicode="&#x2018;" horiz-adv-x="285" 
d="M60 427v112q0 75 41 131.5t126 69.5v-73q-49 -6 -65 -32t-16 -69l-59 12h138v-151h-165z" />
    <glyph glyph-name="quoteright" unicode="&#x2019;" horiz-adv-x="285" 
d="M58 427v73q50 6 65.5 32t15.5 69l59 -12h-138v151h165v-112q0 -75 -40.5 -131t-126.5 -70z" />
    <glyph glyph-name="quotesinglbase" unicode="&#x201a;" horiz-adv-x="283" 
d="M60 -216v73q47 14 61 41t14 70l61 -16h-138v165h165v-117q0 -79 -37 -136t-126 -80z" />
    <glyph glyph-name="quotedblleft" unicode="&#x201c;" horiz-adv-x="502" 
d="M277 427v112q0 75 41 131.5t126 69.5v-73q-49 -6 -65 -32t-16 -69l-59 12h138v-151h-165zM60 427v112q0 75 41 131.5t126 69.5v-73q-49 -6 -65 -32t-16 -69l-59 12h138v-151h-165z" />
    <glyph glyph-name="quotedblright" unicode="&#x201d;" horiz-adv-x="502" 
d="M275 427v73q50 6 65.5 32t15.5 69l59 -12h-138v151h165v-112q0 -75 -40.5 -131t-126.5 -70zM58 427v73q50 6 65.5 32t15.5 69l59 -12h-138v151h165v-112q0 -75 -40.5 -131t-126.5 -70z" />
    <glyph glyph-name="quotedblbase" unicode="&#x201e;" horiz-adv-x="497" 
d="M274 -217v73q47 14 61 41t14 70l61 -16h-138v165h165v-117q0 -79 -37 -136t-126 -80zM60 -217v73q47 14 61 41t14 70l61 -16h-138v165h165v-117q0 -79 -37 -136t-126 -80z" />
    <glyph glyph-name="bullet" unicode="&#x2022;" horiz-adv-x="351" 
d="M60 245v231h231v-231h-231z" />
    <glyph glyph-name="ellipsis" unicode="&#x2026;" horiz-adv-x="765" 
d="M60 0v165h165v-165h-165zM300 0v165h165v-165h-165zM540 0v165h165v-165h-165z" />
    <glyph glyph-name="perthousand" unicode="&#x2030;" horiz-adv-x="824" 
d="M171 361q-37 0 -69.5 20t-52 61t-19.5 104t19.5 103.5t51.5 60.5t70 20q59 0 100.5 -45t41.5 -139q0 -63 -20 -104t-52 -61t-70 -20zM171 439q26 0 44 27.5t18 80.5q0 51 -17.5 78t-44.5 27q-28 0 -44.5 -26.5t-16.5 -78.5q0 -53 16.5 -80.5t44.5 -27.5zM67 0l443 720
h102l-442 -720h-103zM496 -10q-32 0 -62.5 21t-49.5 62t-19 102t19 101.5t49 61.5t63 21q51 0 81.5 -43t30.5 -141q0 -99 -31.5 -142t-80.5 -43zM496 68q22 0 37 27.5t15 80.5q0 51 -14.5 78t-37.5 27t-37 -26.5t-14 -78.5q0 -53 14 -80.5t37 -27.5zM662 68q22 0 37 27.5
t15 80.5q0 51 -14.5 78t-37.5 27t-37 -26.5t-14 -78.5q0 -53 14 -80.5t37 -27.5zM662 -10q-49 0 -80 43t-31 142q0 98 31 141t80 43q34 0 64 -21t49 -61.5t19 -101.5t-19.5 -102t-49.5 -62t-63 -21z" />
    <glyph glyph-name="guilsinglleft" unicode="&#x2039;" horiz-adv-x="374" 
d="M177 68l-132 183l132 183h142l-128 -183l128 -183h-142z" />
    <glyph glyph-name="guilsinglright" unicode="&#x203a;" horiz-adv-x="374" 
d="M197 68h-142l128 183l-128 183h142l132 -183z" />
    <glyph glyph-name="Euro" unicode="&#x20ac;" horiz-adv-x="722" 
d="M405 -10q-74 0 -135.5 27.5t-106 77.5t-69 118.5t-24.5 149.5t24 148t68.5 116.5t106 76t136.5 26.5q76 0 136 -25.5t100.5 -72t56.5 -110.5h-158q-14 44 -48 66t-89 22q-53 0 -93 -30t-62 -85t-22 -131q0 -77 22.5 -134.5t63 -88.5t93.5 -31t85.5 21.5t47.5 65.5h160
q-17 -64 -58 -110.5t-100.5 -71.5t-134.5 -25zM0 382l16 98h481l-16 -98h-481zM0 242l16 98h457l-16 -98h-457z" />
    <glyph glyph-name="trademark" unicode="&#x2122;" horiz-adv-x="858" 
d="M163 360v342h103v-342h-103zM50 636v84h329v-84h-329zM390 360v360h152l87 -347h-61l86 347h154v-360h-101v338h18l-78 -338h-101l-76 336h17v-336h-97z" />
    <glyph glyph-name="arrowleft" unicode="&#x2190;" horiz-adv-x="870" 
d="M810 290h-644l91 62l343 -342h-191l-349 350l349 350h191l-343 -342l-91 62h644v-140z" />
    <glyph glyph-name="arrowup" unicode="&#x2191;" horiz-adv-x="820" 
d="M340 0v644l62 -91l-342 -343v191l350 349l350 -349v-191l-342 343l62 91v-644h-140z" />
    <glyph glyph-name="arrowright" unicode="&#x2192;" horiz-adv-x="870" 
d="M60 430h644l-91 -62l-343 342h191l349 -350l-349 -350h-191l343 342l91 -62h-644v140z" />
    <glyph glyph-name="arrowdown" unicode="&#x2193;" horiz-adv-x="820" 
d="M340 720h140v-644l-62 91l342 343v-191l-350 -349l-350 349v191l342 -343l-62 -91v644z" />
    <glyph glyph-name="arrowboth" unicode="&#x2194;" horiz-adv-x="1220" 
d="M409 10l-349 350l349 350h191l-281 -280h582l-281 280h191l349 -350l-349 -350h-191l281 280h-582l281 -280h-191z" />
    <glyph glyph-name="arrowupdn" unicode="&#x2195;" horiz-adv-x="820" 
d="M410 -190l-350 349v191l280 -281v582l-280 -281v191l350 349l350 -349v-191l-280 281v-582l280 281v-191z" />
    <glyph glyph-name="uni2196" unicode="&#x2196;" horiz-adv-x="750" 
d="M541 94l-455 456l108 -21l1 -484l-135 135l1 494l494 1l135 -135l-484 1l-21 108l455 -456z" />
    <glyph glyph-name="uni2197" unicode="&#x2197;" horiz-adv-x="750" 
d="M109 190l456 455l-21 -108l-484 -1l135 135l494 -1l1 -494l-135 -135l1 484l108 21l-456 -455z" />
    <glyph glyph-name="uni2198" unicode="&#x2198;" horiz-adv-x="750" 
d="M209 626l455 -456l-108 21l-1 484l135 -135l-1 -494l-494 -1l-135 135l484 -1l21 -108l-455 456z" />
    <glyph glyph-name="uni2199" unicode="&#x2199;" horiz-adv-x="750" 
d="M641 526l-456 -455l21 108l484 1l-135 -135l-494 1l-1 494l135 135l-1 -484l-108 -21l456 455z" />
    <glyph glyph-name="minus" unicode="&#x2212;" horiz-adv-x="551" 
d="M50 317v108h451v-108h-451z" />
    <glyph glyph-name="Adieresis.ss01" horiz-adv-x="736" 
d="M24 0l258 720h132l-237 -720h-153zM552 0l-236 720h138l258 -720h-160zM160 279h404v-120h-404v120zM253 791q-36 0 -60.5 25.5t-24.5 62.5t24.5 61t60.5 24t60.5 -24t24.5 -61t-24.5 -62.5t-60.5 -25.5zM483 791q-36 0 -60.5 25.5t-24.5 62.5t24.5 61t60.5 24t60.5 -24
t24.5 -61t-24.5 -62.5t-60.5 -25.5z" />
    <glyph glyph-name="Cdotaccent.ss01" horiz-adv-x="750" 
d="M391 -10q-78 0 -144 27.5t-114.5 77.5t-75.5 118.5t-27 149.5t26.5 148t75 116.5t114.5 76t145 26.5q89 0 160.5 -34.5t117 -97t55.5 -146.5h-150q-13 77 -63 116.5t-119 39.5q-61 0 -107.5 -29t-72.5 -83.5t-26 -131.5q0 -78 26.5 -134.5t73.5 -87t108 -30.5
q65 0 115 39t65 116h152q-13 -84 -59 -146.5t-117 -96.5t-159 -34zM387 772q-40 0 -68.5 28t-28.5 68q0 44 28.5 70.5t68.5 26.5q38 0 65.5 -26.5t27.5 -70.5q0 -40 -27.5 -68t-65.5 -28z" />
    <glyph glyph-name="Edieresis.ss01" horiz-adv-x="626" 
d="M50 0v720h154v-720h-154zM122 0v118h464v-118h-464zM122 310v116h429v-116h-429zM122 602v118h452v-118h-452zM210 791q-36 0 -60.5 25.5t-24.5 62.5t24.5 61t60.5 24t60.5 -24t24.5 -61t-24.5 -62.5t-60.5 -25.5zM440 791q-36 0 -60.5 25.5t-24.5 62.5t24.5 61t60.5 24
t60.5 -24t24.5 -61t-24.5 -62.5t-60.5 -25.5z" />
    <glyph glyph-name="Edotaccent.ss01" horiz-adv-x="626" 
d="M50 0v720h154v-720h-154zM122 0v118h464v-118h-464zM122 310v116h429v-116h-429zM122 602v118h452v-118h-452zM327 772q-40 0 -68.5 28t-28.5 68q0 44 28.5 70.5t68.5 26.5q38 0 65.5 -26.5t27.5 -70.5q0 -40 -27.5 -68t-65.5 -28z" />
    <glyph glyph-name="uni0122.ss01" horiz-adv-x="763" 
d="M406 -10q-117 0 -201 46t-129.5 129t-45.5 194q0 110 46 193.5t127.5 130.5t189.5 47q89 0 159.5 -32t114 -87.5t51.5 -128.5h-154q-10 59 -55.5 92.5t-113.5 33.5q-63 0 -110 -29.5t-73 -84.5t-26 -132q0 -80 26 -136.5t76.5 -86t124.5 -29.5q60 0 102 15t64 42l146 -58
q-58 -58 -134.5 -88.5t-184.5 -30.5zM571 109v198l31 -31h-190v118h313v-285h-154zM334 -350v67q38 0 55.5 21t17.5 60l45 -1q-10 -8 -24.5 -13.5t-26.5 -5.5q-35 0 -59.5 22.5t-24.5 55.5t23.5 55t57.5 22q38 0 63 -26.5t25 -79.5q0 -48 -18.5 -88t-52.5 -64.5t-81 -24.5z
" />
    <glyph glyph-name="Gdotaccent.ss01" horiz-adv-x="763" 
d="M406 -10q-117 0 -201 46t-129.5 129t-45.5 194q0 110 46 193.5t127.5 130.5t189.5 47q89 0 159.5 -32t114 -87.5t51.5 -128.5h-154q-10 59 -55.5 92.5t-113.5 33.5q-63 0 -110 -29.5t-73 -84.5t-26 -132q0 -80 26 -136.5t76.5 -86t124.5 -29.5q60 0 102 15t64 42l146 -58
q-58 -58 -134.5 -88.5t-184.5 -30.5zM571 109v198l31 -31h-190v118h313v-285h-154zM394 772q-40 0 -68.5 28t-28.5 68q0 44 28.5 70.5t68.5 26.5q38 0 65.5 -26.5t27.5 -70.5q0 -40 -27.5 -68t-65.5 -28z" />
    <glyph glyph-name="Idieresis.ss01" horiz-adv-x="254" 
d="M50 0v720h154v-720h-154zM12 791q-36 0 -60.5 25.5t-24.5 62.5t24.5 61t60.5 24t60.5 -24t24.5 -61t-24.5 -62.5t-60.5 -25.5zM242 791q-36 0 -60.5 25.5t-24.5 62.5t24.5 61t60.5 24t60.5 -24t24.5 -61t-24.5 -62.5t-60.5 -25.5z" />
    <glyph glyph-name="Idotaccent.ss01" horiz-adv-x="254" 
d="M50 0v720h154v-720h-154zM129 772q-40 0 -68.5 28t-28.5 68q0 44 28.5 70.5t68.5 26.5q38 0 65.5 -26.5t27.5 -70.5q0 -40 -27.5 -68t-65.5 -28z" />
    <glyph glyph-name="uni0136.ss01" horiz-adv-x="722" 
d="M50 0v720h154v-720h-154zM155 374l324 346h205l-342 -346h-187zM495 0l-342 374h189l362 -374h-209zM295 -350v67q38 0 55.5 21t17.5 60l45 -1q-10 -8 -24.5 -13.5t-26.5 -5.5q-35 0 -59.5 22.5t-24.5 55.5t23.5 55t57.5 22q38 0 63 -26.5t25 -79.5q0 -48 -18.5 -88
t-52.5 -64.5t-81 -24.5z" />
    <glyph glyph-name="uni013B.ss01" horiz-adv-x="590" 
d="M50 0v720h154v-720h-154zM122 0v118h428v-118h-428zM246 -350v67q38 0 55.5 21t17.5 60l45 -1q-10 -8 -24.5 -13.5t-26.5 -5.5q-35 0 -59.5 22.5t-24.5 55.5t23.5 55t57.5 22q38 0 63 -26.5t25 -79.5q0 -48 -18.5 -88t-52.5 -64.5t-81 -24.5z" />
    <glyph glyph-name="uni0145.ss01" horiz-adv-x="720" 
d="M50 0v720h199l320 -636l-49 -12v648h150v-720h-199l-320 636l49 12v-648h-150zM292 -350v67q38 0 55.5 21t17.5 60l45 -1q-10 -8 -24.5 -13.5t-26.5 -5.5q-35 0 -59.5 22.5t-24.5 55.5t23.5 55t57.5 22q38 0 63 -26.5t25 -79.5q0 -48 -18.5 -88t-52.5 -64.5t-81 -24.5z
" />
    <glyph glyph-name="Odieresis.ss01" horiz-adv-x="798" 
d="M399 -10q-80 0 -147.5 27t-117 76.5t-77 118t-27.5 151.5q0 110 47 192.5t130.5 128.5t190.5 46q109 0 192 -46t130.5 -129t47.5 -193q0 -82 -27.5 -150.5t-77 -118t-117 -76.5t-147.5 -27zM398 112q63 0 111 32t75.5 88.5t27.5 131.5q0 74 -27 129t-75 85t-112 30
q-63 0 -111 -30t-74.5 -84.5t-26.5 -129.5q0 -76 27 -132.5t75 -88t110 -31.5zM284 791q-36 0 -60.5 25.5t-24.5 62.5t24.5 61t60.5 24t60.5 -24t24.5 -61t-24.5 -62.5t-60.5 -25.5zM514 791q-36 0 -60.5 25.5t-24.5 62.5t24.5 61t60.5 24t60.5 -24t24.5 -61t-24.5 -62.5
t-60.5 -25.5z" />
    <glyph glyph-name="uni0156.ss01" horiz-adv-x="668" 
d="M46 0v720h322q78 0 136 -26.5t90 -74.5t32 -112q0 -63 -32 -110.5t-90 -74t-136 -26.5h-200v113h196q55 0 84.5 25.5t29.5 71.5q0 47 -29 71.5t-85 24.5h-164v-602h-154zM452 0l-289 374h163l334 -374h-208zM266 -350v67q38 0 55.5 21t17.5 60l45 -1q-10 -8 -24.5 -13.5
t-26.5 -5.5q-35 0 -59.5 22.5t-24.5 55.5t23.5 55t57.5 22q38 0 63 -26.5t25 -79.5q0 -48 -18.5 -88t-52.5 -64.5t-81 -24.5z" />
    <glyph glyph-name="uni0218.ss01" horiz-adv-x="652" 
d="M346 -9q-140 0 -224 62.5t-98 176.5h148q7 -58 56 -91.5t125 -33.5q62 0 95.5 22t33.5 59q0 35 -20 56.5t-69 34.5l-134 37q-103 29 -150.5 79.5t-47.5 126.5q0 65 33.5 112.5t94.5 73t143 25.5q126 0 201 -59.5t85 -157.5h-148q-10 53 -48.5 78t-98.5 25q-52 0 -83 -20
t-31 -54q0 -26 17 -47.5t71 -36.5l134 -37q106 -29 152.5 -79.5t46.5 -127.5q0 -108 -75 -166t-209 -58zM278 -350v67q38 0 55.5 21t17.5 60l45 -1q-10 -8 -24.5 -13.5t-26.5 -5.5q-35 0 -59.5 22.5t-24.5 55.5t23.5 55t57.5 22q38 0 63 -26.5t25 -79.5q0 -48 -18.5 -88
t-52.5 -64.5t-81 -24.5z" />
    <glyph glyph-name="uni021A.ss01" horiz-adv-x="672" 
d="M259 0v602h-235v118h624v-118h-235v-602h-154zM268 -350v67q38 0 55.5 21t17.5 60l45 -1q-10 -8 -24.5 -13.5t-26.5 -5.5q-35 0 -59.5 22.5t-24.5 55.5t23.5 55t57.5 22q38 0 63 -26.5t25 -79.5q0 -48 -18.5 -88t-52.5 -64.5t-81 -24.5z" />
    <glyph glyph-name="Udieresis.ss01" horiz-adv-x="700" 
d="M349 -10q-154 0 -230.5 84.5t-76.5 246.5v399h154v-426q0 -94 41 -138t113 -44t113 44t41 137v427h154v-401q0 -160 -77 -244.5t-232 -84.5zM235 791q-36 0 -60.5 25.5t-24.5 62.5t24.5 61t60.5 24t60.5 -24t24.5 -61t-24.5 -62.5t-60.5 -25.5zM465 791q-36 0 -60.5 25.5
t-24.5 62.5t24.5 61t60.5 24t60.5 -24t24.5 -61t-24.5 -62.5t-60.5 -25.5z" />
    <glyph glyph-name="Ydieresis.ss01" horiz-adv-x="712" 
d="M279 0v291l-268 429h185l212 -381h-87l211 381h169l-268 -429v-291h-154zM241 791q-36 0 -60.5 25.5t-24.5 62.5t24.5 61t60.5 24t60.5 -24t24.5 -61t-24.5 -62.5t-60.5 -25.5zM471 791q-36 0 -60.5 25.5t-24.5 62.5t24.5 61t60.5 24t60.5 -24t24.5 -61t-24.5 -62.5
t-60.5 -25.5z" />
    <glyph glyph-name="Zdotaccent.ss01" horiz-adv-x="635" 
d="M40 0v104l398 555l37 -57h-421v118h541v-104l-392 -548l-35 50h431v-118h-559zM320 772q-40 0 -68.5 28t-28.5 68q0 44 28.5 70.5t68.5 26.5q38 0 65.5 -26.5t27.5 -70.5q0 -40 -27.5 -68t-65.5 -28z" />
    <glyph glyph-name="K.ss04" horiz-adv-x="722" 
d="M50 0v720h154v-720h-154zM155 324l335 396h194l-333 -386l-24 -7l-169 -195zM515 0l-264 396l135 60l318 -456h-189z" />
    <glyph glyph-name="uni0136.ss04" horiz-adv-x="722" 
d="M50 0v720h154v-720h-154zM155 324l335 396h194l-333 -386l-24 -7l-169 -195zM515 0l-264 396l135 60l318 -456h-189zM286 -350v67q38 0 56 21t18 60l53 -12h-127v139h153v-116q0 -72 -41.5 -115.5t-111.5 -43.5z" />
    <glyph glyph-name="R.ss05" horiz-adv-x="662" 
d="M50 0v720h332q78 0 133.5 -24t85 -68.5t29.5 -107.5q0 -75 -47 -120t-145 -65v27q86 2 133 -39.5t47 -118.5v-204h-154v163q0 68 -30 100.5t-93 32.5h-231v113h252q55 0 84.5 25.5t29.5 71.5q0 47 -29 71.5t-85 24.5h-158v-602h-154z" />
    <glyph glyph-name="Racute.ss05" horiz-adv-x="662" 
d="M50 0v720h332q78 0 133.5 -24t85 -68.5t29.5 -107.5q0 -75 -47 -120t-145 -65v27q86 2 133 -39.5t47 -118.5v-204h-154v163q0 68 -30 100.5t-93 32.5h-231v113h252q55 0 84.5 25.5t29.5 71.5q0 47 -29 71.5t-85 24.5h-158v-602h-154zM368 793h-132l99 157h198z" />
    <glyph glyph-name="Rcaron.ss05" horiz-adv-x="662" 
d="M50 0v720h332q78 0 133.5 -24t85 -68.5t29.5 -107.5q0 -75 -47 -120t-145 -65v27q86 2 133 -39.5t47 -118.5v-204h-154v163q0 68 -30 100.5t-93 32.5h-231v113h252q55 0 84.5 25.5t29.5 71.5q0 47 -29 71.5t-85 24.5h-158v-602h-154zM253 793l-126 157h125l141 -127h-124
l141 127h125l-126 -157h-156z" />
    <glyph glyph-name="uni0156.ss05" horiz-adv-x="662" 
d="M50 0v720h332q78 0 133.5 -24t85 -68.5t29.5 -107.5q0 -75 -47 -120t-145 -65v27q86 2 133 -39.5t47 -118.5v-204h-154v163q0 68 -30 100.5t-93 32.5h-231v113h252q55 0 84.5 25.5t29.5 71.5q0 47 -29 71.5t-85 24.5h-158v-602h-154zM259 -350v67q38 0 56 21t18 60
l53 -12h-127v139h153v-116q0 -72 -41.5 -115.5t-111.5 -43.5z" />
    <glyph glyph-name="M.ss06" horiz-adv-x="874" 
d="M30 0l77 720h194l177 -714h-83l176 714h195l78 -720h-152l-72 697h56l-163 -697h-159l-161 691h54l-71 -691h-146z" />
    <glyph glyph-name="G.ss07" horiz-adv-x="776" 
d="M400 -10q-108 0 -191.5 47.5t-131 131.5t-47.5 192t47.5 191t131 130.5t192.5 47.5q87 0 158 -32t117.5 -87.5t57.5 -128.5h-150q-9 39 -34.5 67t-63 43.5t-84.5 15.5q-66 0 -114.5 -30t-75 -85t-26.5 -131t26.5 -132.5t75.5 -87t115 -30.5q63 0 108 27t69 77t24 119h142
q0 -105 -43 -182.5t-120.5 -120t-182.5 -42.5zM632 274h-220v118h334v-57z" />
    <glyph glyph-name="Gbreve.ss07" horiz-adv-x="776" 
d="M400 -10q-108 0 -191.5 47.5t-131 131.5t-47.5 192t47.5 191t131 130.5t192.5 47.5q87 0 158 -32t117.5 -87.5t57.5 -128.5h-150q-9 39 -34.5 67t-63 43.5t-84.5 15.5q-66 0 -114.5 -30t-75 -85t-26.5 -131t26.5 -132.5t75.5 -87t115 -30.5q63 0 108 27t69 77t24 119h142
q0 -105 -43 -182.5t-120.5 -120t-182.5 -42.5zM632 274h-220v118h334v-57zM392 784q-51 0 -90 21.5t-61.5 59.5t-22.5 85h100q0 -29 20 -45.5t54 -16.5q35 0 54.5 16.5t19.5 45.5h100q0 -47 -22.5 -84.5t-61.5 -59.5t-90 -22z" />
    <glyph glyph-name="uni0122.ss07" horiz-adv-x="776" 
d="M400 -10q-108 0 -191.5 47.5t-131 131.5t-47.5 192t47.5 191t131 130.5t192.5 47.5q87 0 158 -32t117.5 -87.5t57.5 -128.5h-150q-9 39 -34.5 67t-63 43.5t-84.5 15.5q-66 0 -114.5 -30t-75 -85t-26.5 -131t26.5 -132.5t75.5 -87t115 -30.5q63 0 108 27t69 77t24 119h142
q0 -105 -43 -182.5t-120.5 -120t-182.5 -42.5zM632 274h-220v118h334v-57zM315 -350v67q38 0 56 21t18 60l53 -12h-127v139h153v-116q0 -72 -41.5 -115.5t-111.5 -43.5z" />
    <glyph glyph-name="Gdotaccent.ss07" horiz-adv-x="776" 
d="M400 -10q-108 0 -191.5 47.5t-131 131.5t-47.5 192t47.5 191t131 130.5t192.5 47.5q87 0 158 -32t117.5 -87.5t57.5 -128.5h-150q-9 39 -34.5 67t-63 43.5t-84.5 15.5q-66 0 -114.5 -30t-75 -85t-26.5 -131t26.5 -132.5t75.5 -87t115 -30.5q63 0 108 27t69 77t24 119h142
q0 -105 -43 -182.5t-120.5 -120t-182.5 -42.5zM632 274h-220v118h334v-57zM312 788v162h160v-162h-160z" />
    <glyph glyph-name="J.ss08" horiz-adv-x="640" 
d="M312 -10q-92 0 -154.5 37.5t-94 99.5t-31.5 136h150q0 -70 37.5 -110.5t93.5 -40.5q37 0 66.5 14.5t47 50t17.5 96.5v447h154v-421q0 -102 -31.5 -170.5t-95 -103.5t-159.5 -35z" />
    <glyph glyph-name="Q.ss09" horiz-adv-x="798" 
d="M399 -10q-80 0 -147.5 27t-117 76.5t-77 118t-27.5 151.5q0 110 47 192.5t130.5 128.5t190.5 46q109 0 192 -46t130.5 -129t47.5 -193q0 -82 -27.5 -150.5t-77 -118t-117 -76.5t-147.5 -27zM398 112q47 0 86 18t68 51.5t44.5 80t15.5 102.5q0 74 -27 129t-75 85t-112 30
q-63 0 -111 -30t-74.5 -84.5t-26.5 -129.5q0 -76 27 -132.5t75 -88t110 -31.5zM361 255l102 59l237 -411l-102 -59z" />
    <glyph glyph-name="uni0136.ss01.ss04" horiz-adv-x="722" 
d="M50 0v720h154v-720h-154zM155 324l335 396h194l-333 -386l-24 -7l-169 -195zM515 0l-264 396l135 60l318 -456h-189zM295 -350v67q38 0 55.5 21t17.5 60l45 -1q-10 -8 -24.5 -13.5t-26.5 -5.5q-35 0 -59.5 22.5t-24.5 55.5t23.5 55t57.5 22q38 0 63 -26.5t25 -79.5
q0 -48 -18.5 -88t-52.5 -64.5t-81 -24.5z" />
    <glyph glyph-name="uni0156.ss01.ss05" horiz-adv-x="662" 
d="M50 0v720h332q78 0 133.5 -24t85 -68.5t29.5 -107.5q0 -75 -47 -120t-145 -65v27q86 2 133 -39.5t47 -118.5v-204h-154v163q0 68 -30 100.5t-93 32.5h-231v113h252q55 0 84.5 25.5t29.5 71.5q0 47 -29 71.5t-85 24.5h-158v-602h-154zM268 -350v67q38 0 55.5 21t17.5 60
l45 -1q-10 -8 -24.5 -13.5t-26.5 -5.5q-35 0 -59.5 22.5t-24.5 55.5t23.5 55t57.5 22q38 0 63 -26.5t25 -79.5q0 -48 -18.5 -88t-52.5 -64.5t-81 -24.5z" />
    <glyph glyph-name="uni0122.ss01.ss07" horiz-adv-x="776" 
d="M400 -10q-108 0 -191.5 47.5t-131 131.5t-47.5 192t47.5 191t131 130.5t192.5 47.5q87 0 158 -32t117.5 -87.5t57.5 -128.5h-150q-9 39 -34.5 67t-63 43.5t-84.5 15.5q-66 0 -114.5 -30t-75 -85t-26.5 -131t26.5 -132.5t75.5 -87t115 -30.5q63 0 108 27t69 77t24 119h142
q0 -105 -43 -182.5t-120.5 -120t-182.5 -42.5zM632 274h-220v118h334v-57zM324 -350v67q38 0 55.5 21t17.5 60l45 -1q-10 -8 -24.5 -13.5t-26.5 -5.5q-35 0 -59.5 22.5t-24.5 55.5t23.5 55t57.5 22q38 0 63 -26.5t25 -79.5q0 -48 -18.5 -88t-52.5 -64.5t-81 -24.5z" />
    <glyph glyph-name="Gdotaccent.ss01.ss07" horiz-adv-x="776" 
d="M400 -10q-108 0 -191.5 47.5t-131 131.5t-47.5 192t47.5 191t131 130.5t192.5 47.5q87 0 158 -32t117.5 -87.5t57.5 -128.5h-150q-9 39 -34.5 67t-63 43.5t-84.5 15.5q-66 0 -114.5 -30t-75 -85t-26.5 -131t26.5 -132.5t75.5 -87t115 -30.5q63 0 108 27t69 77t24 119h142
q0 -105 -43 -182.5t-120.5 -120t-182.5 -42.5zM632 274h-220v118h334v-57zM394 772q-40 0 -68.5 28t-28.5 68q0 44 28.5 70.5t68.5 26.5q38 0 65.5 -26.5t27.5 -70.5q0 -40 -27.5 -68t-65.5 -28z" />
    <glyph glyph-name="i.loclTRK" horiz-adv-x="270" 
d="M60 0v510h150v-510h-150zM55 578v162h160v-162h-160z" />
    <glyph glyph-name="adieresis.ss01" horiz-adv-x="571" 
d="M381 0q-6 22 -8.5 47t-2.5 58h-4v241q0 31 -20.5 48.5t-60.5 17.5q-38 0 -60.5 -13t-29.5 -38h-143q10 69 71 114t167 45q110 0 168 -49t58 -141v-225q0 -25 3.5 -50.5t11.5 -54.5h-150zM203 -10q-76 0 -121 38.5t-45 102.5q0 71 53.5 114.5t149.5 56.5l149 21v-87
l-124 -19q-40 -6 -59 -22t-19 -44q0 -25 18 -38t48 -13q47 0 80 25.5t33 59.5l14 -80q-22 -57 -67 -86t-110 -29zM179 581q-36 0 -60.5 25.5t-24.5 62.5t24.5 61t60.5 24t60.5 -24t24.5 -61t-24.5 -62.5t-60.5 -25.5zM409 581q-36 0 -60.5 25.5t-24.5 62.5t24.5 61t60.5 24
t60.5 -24t24.5 -61t-24.5 -62.5t-60.5 -25.5z" />
    <glyph glyph-name="cdotaccent.ss01" horiz-adv-x="562" 
d="M291 -10q-80 0 -141 34t-95.5 94t-34.5 137t34.5 137t95.5 94t141 34q67 0 120.5 -24.5t88 -67.5t44.5 -101h-145q-11 37 -39.5 56t-66.5 19q-36 0 -62.5 -18t-40.5 -51t-14 -78t14 -78t40.5 -51t62.5 -18q38 0 66.5 19t39.5 56h145q-10 -58 -44.5 -101t-88 -67.5
t-120.5 -24.5zM297 562q-40 0 -68.5 28t-28.5 68q0 44 28.5 70.5t68.5 26.5q38 0 65.5 -26.5t27.5 -70.5q0 -40 -27.5 -68t-65.5 -28z" />
    <glyph glyph-name="edieresis.ss01" horiz-adv-x="574" 
d="M300 -10q-85 0 -148 33.5t-97.5 93.5t-34.5 138q0 79 34.5 138.5t96.5 93t144 33.5q79 0 137 -32t90 -89t32 -134q0 -16 -1 -29.5t-3 -25.5h-442v99h321l-26 -18q0 62 -29.5 91.5t-80.5 29.5q-59 0 -91.5 -40t-32.5 -120q0 -78 32.5 -116t97.5 -38q36 0 62 12t39 39h141
q-25 -74 -85.5 -116.5t-155.5 -42.5zM182 581q-36 0 -60.5 25.5t-24.5 62.5t24.5 61t60.5 24t60.5 -24t24.5 -61t-24.5 -62.5t-60.5 -25.5zM412 581q-36 0 -60.5 25.5t-24.5 62.5t24.5 61t60.5 24t60.5 -24t24.5 -61t-24.5 -62.5t-60.5 -25.5z" />
    <glyph glyph-name="edotaccent.ss01" horiz-adv-x="574" 
d="M300 -10q-85 0 -148 33.5t-97.5 93.5t-34.5 138q0 79 34.5 138.5t96.5 93t144 33.5q79 0 137 -32t90 -89t32 -134q0 -16 -1 -29.5t-3 -25.5h-442v99h321l-26 -18q0 62 -29.5 91.5t-80.5 29.5q-59 0 -91.5 -40t-32.5 -120q0 -78 32.5 -116t97.5 -38q36 0 62 12t39 39h141
q-25 -74 -85.5 -116.5t-155.5 -42.5zM299 562q-40 0 -68.5 28t-28.5 68q0 44 28.5 70.5t68.5 26.5q38 0 65.5 -26.5t27.5 -70.5q0 -40 -27.5 -68t-65.5 -28z" />
    <glyph glyph-name="uni0123.ss01" 
d="M295 -215q-106 0 -172.5 45t-78.5 122h142q8 -19 34.5 -29t67.5 -10q68 0 99 26t31 81v111l8 -2q-10 -56 -58 -88.5t-119 -32.5q-68 0 -118.5 31.5t-78.5 88.5t-28 134q0 78 29 136t81.5 90t122.5 32q72 0 117.5 -34t53.5 -93l-7 -1v118h147v-488q0 -110 -73 -173.5
t-200 -63.5zM301 123q53 0 86 36.5t33 104.5t-33.5 104.5t-87.5 36.5q-52 0 -85.5 -37t-33.5 -105t33.5 -104t87.5 -36zM302 576q-37 0 -62.5 26.5t-25.5 79.5q0 48 18.5 88.5t52.5 64.5t81 24v-67q-38 0 -55.5 -21t-17.5 -60l-45 1q11 8 25 13.5t26 5.5q35 0 59.5 -22.5
t24.5 -55.5t-23.5 -55t-57.5 -22z" />
    <glyph glyph-name="gdotaccent.ss01" 
d="M295 -215q-106 0 -172.5 45t-78.5 122h142q8 -19 34.5 -29t67.5 -10q68 0 99 26t31 81v111l8 -2q-10 -56 -58 -88.5t-119 -32.5q-68 0 -118.5 31.5t-78.5 88.5t-28 134q0 78 29 136t81.5 90t122.5 32q72 0 117.5 -34t53.5 -93l-7 -1v118h147v-488q0 -110 -73 -173.5
t-200 -63.5zM301 123q53 0 86 36.5t33 104.5t-33.5 104.5t-87.5 36.5q-52 0 -85.5 -37t-33.5 -105t33.5 -104t87.5 -36zM301 562q-40 0 -68.5 28t-28.5 68q0 44 28.5 70.5t68.5 26.5q38 0 65.5 -26.5t27.5 -70.5q0 -40 -27.5 -68t-65.5 -28z" />
    <glyph glyph-name="i.ss01" horiz-adv-x="270" 
d="M60 0v510h150v-510h-150zM137 562q-40 0 -68.5 28t-28.5 68q0 44 28.5 70.5t68.5 26.5q38 0 65.5 -26.5t27.5 -70.5q0 -40 -27.5 -68t-65.5 -28z" />
    <glyph glyph-name="idieresis.ss01" horiz-adv-x="270" 
d="M60 0v510h150v-510h-150zM20 581q-36 0 -60.5 25.5t-24.5 62.5t24.5 61t60.5 24t60.5 -24t24.5 -61t-24.5 -62.5t-60.5 -25.5zM250 581q-36 0 -60.5 25.5t-24.5 62.5t24.5 61t60.5 24t60.5 -24t24.5 -61t-24.5 -62.5t-60.5 -25.5z" />
    <glyph glyph-name="i.loclTRK.ss01" horiz-adv-x="270" 
d="M60 0v510h150v-510h-150zM137 562q-40 0 -68.5 28t-28.5 68q0 44 28.5 70.5t68.5 26.5q38 0 65.5 -26.5t27.5 -70.5q0 -40 -27.5 -68t-65.5 -28z" />
    <glyph glyph-name="ij.ss01" horiz-adv-x="526" 
d="M60 0v510h150v-510h-150zM137 562q-40 0 -68.5 28t-28.5 68q0 44 28.5 70.5t68.5 26.5q38 0 65.5 -26.5t27.5 -70.5q0 -40 -27.5 -68t-65.5 -28zM288 -215q-17 0 -32 2.5t-30 6.5v115q8 -3 17 -4.5t19 -1.5q26 0 40 12.5t14 37.5v557h150v-559q0 -77 -43.5 -121.5
t-134.5 -44.5zM393 562q-40 0 -68.5 28t-28.5 68q0 44 28.5 70.5t68.5 26.5q38 0 65.5 -26.5t27.5 -70.5q0 -40 -27.5 -68t-65.5 -28z" />
    <glyph glyph-name="iogonek.ss01" horiz-adv-x="270" 
d="M60 0v510h150v-510h-150zM137 562q-40 0 -68.5 28t-28.5 68q0 44 28.5 70.5t68.5 26.5q38 0 65.5 -26.5t27.5 -70.5q0 -40 -27.5 -68t-65.5 -28zM139 -216q-55 0 -85.5 24.5t-30.5 64.5q0 44 34.5 79t92.5 65l60 -17q-49 -38 -67.5 -62.5t-18.5 -44.5q0 -16 9 -24.5
t22 -8.5q22 0 40 14l27 -70q-14 -9 -34 -14.5t-49 -5.5z" />
    <glyph glyph-name="j.ss01" horiz-adv-x="270" 
d="M32 -215q-17 0 -32 2.5t-30 6.5v115q8 -3 17 -4.5t19 -1.5q26 0 40 12.5t14 37.5v557h150v-559q0 -77 -43.5 -121.5t-134.5 -44.5zM137 562q-40 0 -68.5 28t-28.5 68q0 44 28.5 70.5t68.5 26.5q38 0 65.5 -26.5t27.5 -70.5q0 -40 -27.5 -68t-65.5 -28z" />
    <glyph glyph-name="uni0137.ss01" horiz-adv-x="569" 
d="M60 0v720h150v-720h-150zM387 0l-212 265l207 245h173l-243 -268l7 47l246 -289h-178zM217 -350v67q38 0 55.5 21t17.5 60l45 -1q-10 -8 -24.5 -13.5t-26.5 -5.5q-35 0 -59.5 22.5t-24.5 55.5t23.5 55t57.5 22q38 0 63 -26.5t25 -79.5q0 -48 -18.5 -88t-52.5 -64.5
t-81 -24.5z" />
    <glyph glyph-name="uni013C.ss01" horiz-adv-x="270" 
d="M60 0v720h150v-720h-150zM67 -350v67q38 0 55.5 21t17.5 60l45 -1q-10 -8 -24.5 -13.5t-26.5 -5.5q-35 0 -59.5 22.5t-24.5 55.5t23.5 55t57.5 22q38 0 63 -26.5t25 -79.5q0 -48 -18.5 -88t-52.5 -64.5t-81 -24.5z" />
    <glyph glyph-name="uni0146.ss01" horiz-adv-x="619" 
d="M60 0v510h147v-120h3v-390h-150zM415 0v316q0 42 -21.5 63t-62.5 21q-35 0 -62.5 -16t-43 -44t-15.5 -66l-13 123q25 56 73.5 89.5t119.5 33.5q85 0 130 -47.5t45 -127.5v-345h-150zM250 -350v67q38 0 55.5 21t17.5 60l45 -1q-10 -8 -24.5 -13.5t-26.5 -5.5
q-35 0 -59.5 22.5t-24.5 55.5t23.5 55t57.5 22q38 0 63 -26.5t25 -79.5q0 -48 -18.5 -88t-52.5 -64.5t-81 -24.5z" />
    <glyph glyph-name="odieresis.ss01" horiz-adv-x="604" 
d="M302 -10q-84 0 -147.5 33.5t-99 94t-35.5 139.5t35.5 138t99 92t147.5 33q85 0 148.5 -33t98.5 -92t35 -138t-35.5 -139.5t-99 -94t-147.5 -33.5zM302 108q35 0 63.5 18t45.5 51.5t17 80.5q0 69 -36.5 106.5t-89.5 37.5t-89.5 -38t-36.5 -106q0 -47 17 -80.5t45.5 -51.5
t63.5 -18zM187 581q-36 0 -60.5 25.5t-24.5 62.5t24.5 61t60.5 24t60.5 -24t24.5 -61t-24.5 -62.5t-60.5 -25.5zM417 581q-36 0 -60.5 25.5t-24.5 62.5t24.5 61t60.5 24t60.5 -24t24.5 -61t-24.5 -62.5t-60.5 -25.5z" />
    <glyph glyph-name="uni0157.ss01" horiz-adv-x="398" 
d="M60 0v510h147v-120h3v-390h-150zM210 266l-13 121q18 65 59 99t102 34q19 0 28 -4v-140q-5 2 -14 2.5t-22 0.5q-72 0 -106 -25.5t-34 -87.5zM64 -350v67q38 0 55.5 21t17.5 60l45 -1q-10 -8 -24.5 -13.5t-26.5 -5.5q-35 0 -59.5 22.5t-24.5 55.5t23.5 55t57.5 22
q38 0 63 -26.5t25 -79.5q0 -48 -18.5 -88t-52.5 -64.5t-81 -24.5z" />
    <glyph glyph-name="uni0219.ss01" horiz-adv-x="504" 
d="M266 -10q-112 0 -178 45t-72 124h134q5 -34 34.5 -51.5t81.5 -17.5q47 0 68.5 13.5t21.5 38.5q0 19 -12.5 29.5t-45.5 17.5l-82 17q-91 19 -134 57.5t-43 99.5q0 74 57 115.5t159 41.5q101 0 161 -40.5t66 -112.5h-134q-4 26 -28 39.5t-68 13.5q-40 0 -59.5 -11.5
t-19.5 -32.5q0 -18 16 -28.5t53 -18.5l92 -19q77 -16 116.5 -59.5t39.5 -102.5q0 -75 -58.5 -116.5t-165.5 -41.5zM195 -350v67q38 0 55.5 21t17.5 60l45 -1q-10 -8 -24.5 -13.5t-26.5 -5.5q-35 0 -59.5 22.5t-24.5 55.5t23.5 55t57.5 22q38 0 63 -26.5t25 -79.5
q0 -48 -18.5 -88t-52.5 -64.5t-81 -24.5z" />
    <glyph glyph-name="uni021B.ss01" horiz-adv-x="421" 
d="M302 -11q-98 0 -145.5 47.5t-47.5 144.5v443l150 56v-504q0 -34 19 -51t59 -17q15 0 28 3t26 7v-114q-13 -7 -36.5 -11t-52.5 -4zM14 396v114h377v-114h-377zM204 -350v67q38 0 55.5 21t17.5 60l45 -1q-10 -8 -24.5 -13.5t-26.5 -5.5q-35 0 -59.5 22.5t-24.5 55.5
t23.5 55t57.5 22q38 0 63 -26.5t25 -79.5q0 -48 -18.5 -88t-52.5 -64.5t-81 -24.5z" />
    <glyph glyph-name="udieresis.ss01" horiz-adv-x="611" 
d="M225 -10q-54 0 -92.5 23.5t-58.5 63t-20 88.5v345h150v-316q0 -42 21 -63t59 -21q34 0 60 16t41.5 44.5t15.5 65.5l13 -123q-25 -55 -73 -89t-116 -34zM404 0v120h-3v390h150v-510h-147zM191 581q-36 0 -60.5 25.5t-24.5 62.5t24.5 61t60.5 24t60.5 -24t24.5 -61
t-24.5 -62.5t-60.5 -25.5zM421 581q-36 0 -60.5 25.5t-24.5 62.5t24.5 61t60.5 24t60.5 -24t24.5 -61t-24.5 -62.5t-60.5 -25.5z" />
    <glyph glyph-name="wdieresis.ss01" horiz-adv-x="816" 
d="M166 0l-156 510h158l78 -356h-4l98 356h140l99 -356h-4l77 356h154l-156 -510h-144l-100 355h4l-100 -355h-144zM293 581q-36 0 -60.5 25.5t-24.5 62.5t24.5 61t60.5 24t60.5 -24t24.5 -61t-24.5 -62.5t-60.5 -25.5zM523 581q-36 0 -60.5 25.5t-24.5 62.5t24.5 61
t60.5 24t60.5 -24t24.5 -61t-24.5 -62.5t-60.5 -25.5z" />
    <glyph glyph-name="ydieresis.ss01" horiz-adv-x="543" 
d="M86 -205l141 312l26 43l132 360h160l-309 -715h-150zM194 10l-196 500h162l161 -456zM157 581q-36 0 -60.5 25.5t-24.5 62.5t24.5 61t60.5 24t60.5 -24t24.5 -61t-24.5 -62.5t-60.5 -25.5zM387 581q-36 0 -60.5 25.5t-24.5 62.5t24.5 61t60.5 24t60.5 -24t24.5 -61
t-24.5 -62.5t-60.5 -25.5z" />
    <glyph glyph-name="zdotaccent.ss01" horiz-adv-x="522" 
d="M44 0v104l284 345l30 -53h-306v114h426v-104l-278 -338l-28 46h310v-114h-438zM263 562q-40 0 -68.5 28t-28.5 68q0 44 28.5 70.5t68.5 26.5q38 0 65.5 -26.5t27.5 -70.5q0 -40 -27.5 -68t-65.5 -28z" />
    <glyph glyph-name="a.ss02" 
d="M253 -10q-70 0 -121.5 32.5t-79.5 91.5t-28 139q0 81 29 141t81.5 93t122.5 33q73 0 118.5 -34t53.5 -93l-8 -1v118h147v-510h-147v113l10 -2q-10 -55 -59.5 -88t-118.5 -33zM301 110q55 0 87 37.5t32 107.5t-32.5 107.5t-88.5 37.5q-55 0 -87 -38t-32 -108t32.5 -107
t88.5 -37z" />
    <glyph glyph-name="aacute.ss02" 
d="M253 -10q-70 0 -121.5 32.5t-79.5 91.5t-28 139q0 81 29 141t81.5 93t122.5 33q73 0 118.5 -34t53.5 -93l-8 -1v118h147v-510h-147v113l10 -2q-10 -55 -59.5 -88t-118.5 -33zM301 110q55 0 87 37.5t32 107.5t-32.5 107.5t-88.5 37.5q-55 0 -87 -38t-32 -108t32.5 -107
t88.5 -37zM351 583h-132l99 157h198z" />
    <glyph glyph-name="abreve.ss02" 
d="M253 -10q-70 0 -121.5 32.5t-79.5 91.5t-28 139q0 81 29 141t81.5 93t122.5 33q73 0 118.5 -34t53.5 -93l-8 -1v118h147v-510h-147v113l10 -2q-10 -55 -59.5 -88t-118.5 -33zM301 110q55 0 87 37.5t32 107.5t-32.5 107.5t-88.5 37.5q-55 0 -87 -38t-32 -108t32.5 -107
t88.5 -37zM314 574q-51 0 -90 21.5t-61.5 59.5t-22.5 85h100q0 -29 20 -45.5t54 -16.5q35 0 54.5 16.5t19.5 45.5h100q0 -47 -22.5 -84.5t-61.5 -59.5t-90 -22z" />
    <glyph glyph-name="uni01CE.ss02" 
d="M253 -10q-70 0 -121.5 32.5t-79.5 91.5t-28 139q0 81 29 141t81.5 93t122.5 33q73 0 118.5 -34t53.5 -93l-8 -1v118h147v-510h-147v113l10 -2q-10 -55 -59.5 -88t-118.5 -33zM301 110q55 0 87 37.5t32 107.5t-32.5 107.5t-88.5 37.5q-55 0 -87 -38t-32 -108t32.5 -107
t88.5 -37zM236 583l-126 157h125l141 -127h-124l141 127h125l-126 -157h-156z" />
    <glyph glyph-name="acircumflex.ss02" 
d="M253 -10q-70 0 -121.5 32.5t-79.5 91.5t-28 139q0 81 29 141t81.5 93t122.5 33q73 0 118.5 -34t53.5 -93l-8 -1v118h147v-510h-147v113l10 -2q-10 -55 -59.5 -88t-118.5 -33zM301 110q55 0 87 37.5t32 107.5t-32.5 107.5t-88.5 37.5q-55 0 -87 -38t-32 -108t32.5 -107
t88.5 -37zM110 583l126 157h156l126 -157h-125l-141 127h124l-141 -127h-125z" />
    <glyph glyph-name="adieresis.ss02" 
d="M253 -10q-70 0 -121.5 32.5t-79.5 91.5t-28 139q0 81 29 141t81.5 93t122.5 33q73 0 118.5 -34t53.5 -93l-8 -1v118h147v-510h-147v113l10 -2q-10 -55 -59.5 -88t-118.5 -33zM301 110q55 0 87 37.5t32 107.5t-32.5 107.5t-88.5 37.5q-55 0 -87 -38t-32 -108t32.5 -107
t88.5 -37zM349 577v163h160v-163h-160zM119 577v163h160v-163h-160z" />
    <glyph glyph-name="agrave.ss02" 
d="M253 -10q-70 0 -121.5 32.5t-79.5 91.5t-28 139q0 81 29 141t81.5 93t122.5 33q73 0 118.5 -34t53.5 -93l-8 -1v118h147v-510h-147v113l10 -2q-10 -55 -59.5 -88t-118.5 -33zM301 110q55 0 87 37.5t32 107.5t-32.5 107.5t-88.5 37.5q-55 0 -87 -38t-32 -108t32.5 -107
t88.5 -37zM277 583l-165 157h198l99 -157h-132z" />
    <glyph glyph-name="amacron.ss02" 
d="M253 -10q-70 0 -121.5 32.5t-79.5 91.5t-28 139q0 81 29 141t81.5 93t122.5 33q73 0 118.5 -34t53.5 -93l-8 -1v118h147v-510h-147v113l10 -2q-10 -55 -59.5 -88t-118.5 -33zM301 110q55 0 87 37.5t32 107.5t-32.5 107.5t-88.5 37.5q-55 0 -87 -38t-32 -108t32.5 -107
t88.5 -37zM130 617v108h367v-108h-367z" />
    <glyph glyph-name="aogonek.ss02" 
d="M253 -10q-70 0 -121.5 32.5t-79.5 91.5t-28 139q0 81 29 141t81.5 93t122.5 33q73 0 118.5 -34t53.5 -93l-8 -1v118h147v-510h-147v113l10 -2q-10 -55 -59.5 -88t-118.5 -33zM301 110q55 0 87 37.5t32 107.5t-32.5 107.5t-88.5 37.5q-55 0 -87 -38t-32 -108t32.5 -107
t88.5 -37zM497 -216q-55 0 -85.5 24.5t-30.5 64.5q0 44 34.5 79t92.5 65l60 -17q-49 -38 -67.5 -62.5t-18.5 -44.5q0 -16 9 -24.5t22 -8.5q22 0 40 14l27 -70q-14 -9 -34 -14.5t-49 -5.5z" />
    <glyph glyph-name="aring.ss02" 
d="M253 -10q-70 0 -121.5 32.5t-79.5 91.5t-28 139q0 81 29 141t81.5 93t122.5 33q73 0 118.5 -34t53.5 -93l-8 -1v118h147v-510h-147v113l10 -2q-10 -55 -59.5 -88t-118.5 -33zM301 110q55 0 87 37.5t32 107.5t-32.5 107.5t-88.5 37.5q-55 0 -87 -38t-32 -108t32.5 -107
t88.5 -37zM314 561q-46 0 -77 31.5t-31 76.5q0 44 31 75.5t77 31.5t76.5 -31.5t30.5 -75.5q0 -45 -30.5 -76.5t-76.5 -31.5zM314 635q14 0 23 10t9 24t-9 23.5t-23 9.5q-15 0 -24 -9.5t-9 -23.5t9 -24t24 -10z" />
    <glyph glyph-name="atilde.ss02" 
d="M253 -10q-70 0 -121.5 32.5t-79.5 91.5t-28 139q0 81 29 141t81.5 93t122.5 33q73 0 118.5 -34t53.5 -93l-8 -1v118h147v-510h-147v113l10 -2q-10 -55 -59.5 -88t-118.5 -33zM301 110q55 0 87 37.5t32 107.5t-32.5 107.5t-88.5 37.5q-55 0 -87 -38t-32 -108t32.5 -107
t88.5 -37zM389 591q-27 0 -47.5 7.5t-38 18t-34 18t-33.5 7.5q-22 0 -33.5 -13.5t-11.5 -32.5h-90q0 38 16 71t47.5 54t76.5 21q28 0 48.5 -7.5t36.5 -18t31.5 -18t33.5 -7.5q23 0 34.5 13.5t11.5 32.5h90q0 -38 -16.5 -71.5t-47 -54t-74.5 -20.5z" />
    <glyph glyph-name="y.ss03" horiz-adv-x="553" 
d="M127 -215q-16 0 -31.5 2.5t-32.5 6.5v125q8 -3 18 -4.5t23 -1.5q29 0 47.5 14.5t30.5 45.5l54 140l37 35l132 362h150l-254 -603q-17 -41 -41.5 -68.5t-57 -40.5t-75.5 -13zM204 10l-197 500h161l159 -446z" />
    <glyph glyph-name="yacute.ss03" horiz-adv-x="553" 
d="M127 -215q-16 0 -31.5 2.5t-32.5 6.5v125q8 -3 18 -4.5t23 -1.5q29 0 47.5 14.5t30.5 45.5l54 140l37 35l132 362h150l-254 -603q-17 -41 -41.5 -68.5t-57 -40.5t-75.5 -13zM204 10l-197 500h161l159 -446zM311 583h-132l99 157h198z" />
    <glyph glyph-name="ycircumflex.ss03" horiz-adv-x="553" 
d="M127 -215q-16 0 -31.5 2.5t-32.5 6.5v125q8 -3 18 -4.5t23 -1.5q29 0 47.5 14.5t30.5 45.5l54 140l37 35l132 362h150l-254 -603q-17 -41 -41.5 -68.5t-57 -40.5t-75.5 -13zM204 10l-197 500h161l159 -446zM70 583l126 157h156l126 -157h-125l-141 127h124l-141 -127
h-125z" />
    <glyph glyph-name="ydieresis.ss03" horiz-adv-x="553" 
d="M127 -215q-16 0 -31.5 2.5t-32.5 6.5v125q8 -3 18 -4.5t23 -1.5q29 0 47.5 14.5t30.5 45.5l54 140l37 35l132 362h150l-254 -603q-17 -41 -41.5 -68.5t-57 -40.5t-75.5 -13zM204 10l-197 500h161l159 -446zM309 577v163h160v-163h-160zM79 577v163h160v-163h-160z" />
    <glyph glyph-name="ygrave.ss03" horiz-adv-x="553" 
d="M127 -215q-16 0 -31.5 2.5t-32.5 6.5v125q8 -3 18 -4.5t23 -1.5q29 0 47.5 14.5t30.5 45.5l54 140l37 35l132 362h150l-254 -603q-17 -41 -41.5 -68.5t-57 -40.5t-75.5 -13zM204 10l-197 500h161l159 -446zM237 583l-165 157h198l99 -157h-132z" />
    <glyph glyph-name="k.ss04" horiz-adv-x="569" 
d="M60 0v720h150v-720h-150zM130 235l246 275h174l-216 -233l-9 -1l-137 -142zM351 322l214 -322h-166l-169 265z" />
    <glyph glyph-name="uni0137.ss04" horiz-adv-x="569" 
d="M60 0v720h150v-720h-150zM130 235l246 275h174l-216 -233l-9 -1l-137 -142zM351 322l214 -322h-166l-169 265zM208 -350v67q38 0 56 21t18 60l53 -12h-127v139h153v-116q0 -72 -41.5 -115.5t-111.5 -43.5z" />
    <glyph glyph-name="adieresis.ss01.ss02" 
d="M253 -10q-70 0 -121.5 32.5t-79.5 91.5t-28 139q0 81 29 141t81.5 93t122.5 33q73 0 118.5 -34t53.5 -93l-8 -1v118h147v-510h-147v113l10 -2q-10 -55 -59.5 -88t-118.5 -33zM301 110q55 0 87 37.5t32 107.5t-32.5 107.5t-88.5 37.5q-55 0 -87 -38t-32 -108t32.5 -107
t88.5 -37zM199 581q-36 0 -60.5 25.5t-24.5 62.5t24.5 61t60.5 24t60.5 -24t24.5 -61t-24.5 -62.5t-60.5 -25.5zM429 581q-36 0 -60.5 25.5t-24.5 62.5t24.5 61t60.5 24t60.5 -24t24.5 -61t-24.5 -62.5t-60.5 -25.5z" />
    <glyph glyph-name="ydieresis.ss01.ss03" horiz-adv-x="553" 
d="M127 -215q-16 0 -31.5 2.5t-32.5 6.5v125q8 -3 18 -4.5t23 -1.5q29 0 47.5 14.5t30.5 45.5l54 140l37 35l132 362h150l-254 -603q-17 -41 -41.5 -68.5t-57 -40.5t-75.5 -13zM204 10l-197 500h161l159 -446zM159 581q-36 0 -60.5 25.5t-24.5 62.5t24.5 61t60.5 24
t60.5 -24t24.5 -61t-24.5 -62.5t-60.5 -25.5zM389 581q-36 0 -60.5 25.5t-24.5 62.5t24.5 61t60.5 24t60.5 -24t24.5 -61t-24.5 -62.5t-60.5 -25.5z" />
    <glyph glyph-name="uni0137.ss01.ss04" horiz-adv-x="569" 
d="M60 0v720h150v-720h-150zM130 235l246 275h174l-216 -233l-9 -1l-137 -142zM351 322l214 -322h-166l-169 265zM217 -350v67q38 0 55.5 21t17.5 60l45 -1q-10 -8 -24.5 -13.5t-26.5 -5.5q-35 0 -59.5 22.5t-24.5 55.5t23.5 55t57.5 22q38 0 63 -26.5t25 -79.5
q0 -48 -18.5 -88t-52.5 -64.5t-81 -24.5z" />
    <glyph glyph-name="f_f_i.ss01" horiz-adv-x="959" 
d="M429 0v544q0 92 50 139t148 47q21 0 36.5 -2t30.5 -7v-125q-7 3 -17 4.5t-24 1.5q-38 0 -56 -18t-18 -52v-532h-150zM99 0v544q0 92 50 139t148 47q21 0 36.5 -2t30.5 -7v-125q-7 3 -17 4.5t-24 1.5q-38 0 -56 -18t-18 -52v-532h-150zM14 386v124h781v-124h-781zM759 0
v510h150v-510h-150zM836 562q-36 0 -61.5 25.5t-25.5 60.5q0 39 25.5 63t61.5 24q34 0 58.5 -24t24.5 -63q0 -35 -24.5 -60.5t-58.5 -25.5z" />
    <glyph glyph-name="f_i.ss01" horiz-adv-x="644" 
d="M99 0v544q0 92 50 139t148 47q21 0 36.5 -2t30.5 -7v-125q-7 3 -17 4.5t-24 1.5q-38 0 -56 -18t-18 -52v-532h-150zM429 0v510h150v-510h-150zM506 562q-36 0 -61.5 25.5t-25.5 60.5q0 39 25.5 63t61.5 24q34 0 58.5 -24t24.5 -63q0 -35 -24.5 -60.5t-58.5 -25.5zM14 386
v124h451v-124h-451z" />
    <glyph glyph-name="two.ss10" horiz-adv-x="563" 
d="M25 0v90q0 64 25 109.5t64 78.5t83.5 59.5t83.5 52.5t64 56.5t25 72.5q0 47 -25 70t-64 23q-43 0 -72.5 -26.5t-36.5 -74.5h-154q11 101 82 160t185 59t181 -58t67 -163q0 -55 -21 -96t-55 -72.5t-74 -57t-79.5 -48t-70.5 -46.5t-47 -52t-9 -64l-19 45h389v-118h-522z
" />
    <glyph glyph-name="zero.tf" horiz-adv-x="600" 
d="M300 -10q-83 0 -148 48t-102.5 132t-37.5 193t37.5 191.5t103 129t147.5 46.5q83 0 148 -46.5t102.5 -129t37.5 -191.5q0 -110 -38 -194t-103 -131.5t-147 -47.5zM300 118q42 0 68.5 34t39 90t12.5 122q0 65 -12.5 119t-38.5 86.5t-69 32.5t-69.5 -32.5t-39 -86.5
t-12.5 -119q0 -67 12.5 -123t39.5 -89.5t69 -33.5z" />
    <glyph glyph-name="one.tf" horiz-adv-x="600" 
d="M271 40v548l15 -15q-16 -34 -40.5 -60.5t-55.5 -44t-70 -25.5v150q31 5 65.5 24.5t63.5 47t41 55.5h137v-680h-156zM115 0v118h440v-118h-440z" />
    <glyph glyph-name="two.tf" horiz-adv-x="600" 
d="M60 0v120q92 81 151 141t92 107t46 85.5t13 75.5q0 41 -16 62t-48 21q-37 0 -58 -27t-27 -74h-159q10 102 76.5 160.5t172.5 58.5q107 0 167.5 -59.5t60.5 -165.5q0 -50 -15.5 -96t-51 -95t-96 -107.5t-151.5 -133.5l-34 45h361v-118h-484z" />
    <glyph glyph-name="three.tf" horiz-adv-x="600" 
d="M307 -10q-70 0 -126.5 27.5t-91 81t-39.5 130.5h158q6 -59 28 -90t63 -31q32 0 56 26t24 76q0 48 -23 77.5t-85 29.5h-50v116h47q53 0 74.5 26t21.5 66q0 37 -13 62t-53 25q-30 0 -53.5 -25t-29.5 -76h-158q9 68 40 117t83.5 75.5t123.5 26.5t122 -23.5t78.5 -66.5
t27.5 -103q0 -50 -21 -88t-50.5 -59t-56.5 -21l1 21q46 0 77.5 -25.5t48.5 -68t17 -94.5q0 -65 -32 -113t-86.5 -73.5t-122.5 -25.5z" />
    <glyph glyph-name="four.tf" horiz-adv-x="600" 
d="M347 0v190l9 20v411l65 -33l-259 -387l-78 53h483v-118h-533v118l316 466h158v-720h-161z" />
    <glyph glyph-name="five.tf" horiz-adv-x="600" 
d="M300 -10q-100 0 -166.5 57t-82.5 160h157q5 -46 31 -72.5t57 -26.5q37 0 58 32.5t21 98.5q0 63 -19.5 96.5t-54.5 33.5q-17 0 -35.5 -12.5t-33.5 -40.5h-146l34 404h383v-118h-333l90 11l-14 -225l-55 7q26 41 59 62.5t85 21.5q62 0 109 -30t73.5 -84t26.5 -128
q0 -78 -31 -133t-85.5 -84.5t-127.5 -29.5z" />
    <glyph glyph-name="six.tf" horiz-adv-x="600" 
d="M314 -10q-133 0 -205 92.5t-72 261.5q0 118 35.5 204.5t99.5 134t151 47.5q98 0 160 -55.5t76 -153.5h-157q-4 44 -26 67.5t-54 23.5q-61 0 -90.5 -63.5t-29.5 -194.5v-65l-30 9q11 48 35 83t61 54t85 19q64 0 112 -28.5t75 -80t27 -120.5q0 -71 -30.5 -124t-87.5 -82
t-135 -29zM300 108q41 0 69.5 29.5t28.5 86.5t-30.5 85.5t-69.5 28.5q-41 0 -70.5 -28.5t-29.5 -83.5q0 -37 14.5 -63.5t38 -40.5t49.5 -14z" />
    <glyph glyph-name="seven.tf" horiz-adv-x="600" 
d="M162 0q14 171 77 328.5t153 292.5l-1 -19h-337v118h491v-110q-85 -145 -143 -294t-70 -316h-170z" />
    <glyph glyph-name="eight.tf" horiz-adv-x="600" 
d="M301 -10q-75 0 -133 27t-91 75t-33 112q0 54 21.5 96t60 66t90.5 24l19 -21q-57 0 -95.5 19.5t-57.5 56.5t-19 87q0 60 29 104.5t82 69t126 24.5t126 -24.5t82 -69t29 -104.5q0 -50 -19.5 -87t-57.5 -56.5t-96 -19.5l20 21q52 0 90.5 -24t60 -66t21.5 -97
q0 -64 -32.5 -112t-90 -74.5t-132.5 -26.5zM300 108q41 0 64 28.5t23 78.5t-24.5 78t-62.5 28q-39 0 -63 -28t-24 -78q0 -52 23 -79.5t64 -27.5zM300 429q29 0 49 24.5t20 67.5q0 42 -19 66.5t-51 24.5q-31 0 -49.5 -25t-18.5 -66q0 -42 20 -67t49 -25z" />
    <glyph glyph-name="nine.tf" horiz-adv-x="600" 
d="M280 -10q-74 0 -124.5 28.5t-78.5 79t-35 116.5h157q4 -55 25 -80.5t62 -25.5q30 0 49.5 14.5t31 45t16 80t4.5 118.5v65l43 -1q-11 -49 -36 -84t-62 -53.5t-86 -18.5q-63 0 -111 28.5t-75.5 79t-27.5 116.5q0 70 31.5 122t88 81t132.5 29q134 0 207 -92.5t73 -267.5
q0 -118 -33.5 -203.5t-97 -131t-153.5 -45.5zM301 390q46 0 66 30t20 76q0 48 -19.5 82t-65.5 34t-69.5 -32.5t-23.5 -79.5t24.5 -78.5t67.5 -31.5z" />
    <glyph glyph-name="two.tf.ss10" horiz-adv-x="600" 
d="M61 0v90q0 64 21.5 109.5t56 79t73 60.5t73 54t56 59.5t21.5 76.5q0 39 -16 61t-50 22q-33 0 -55.5 -22.5t-27.5 -78.5h-159q11 101 75.5 160t169.5 59q107 0 169.5 -56.5t62.5 -154.5q0 -57 -18.5 -99.5t-49 -75.5t-66 -59t-70 -49t-62 -47t-41 -52t-6.5 -64l-18 45h344
v-118h-483z" />
    <glyph glyph-name="colon.case" horiz-adv-x="285" 
d="M60 130v165h165v-165h-165zM60 455v165h165v-165h-165z" />
    <glyph glyph-name="semicolon.case" horiz-adv-x="285" 
d="M62 -38v73q47 14 61 41t14 70l61 -16h-138v165h165v-117q0 -79 -37 -136t-126 -80zM60 455v165h165v-165h-165z" />
    <glyph glyph-name="exclam.case" horiz-adv-x="305" 
d="M91 274l-22 446h166l-22 -446h-122zM70 0v165h165v-165h-165z" />
    <glyph glyph-name="exclamdown.case" horiz-adv-x="306" 
d="M70 0l22 446h122l22 -446h-166zM236 720v-165h-165v165h165z" />
    <glyph glyph-name="question.case" horiz-adv-x="587" 
d="M231 274q0 44 12.5 74.5t32.5 51.5t42 37t42 31t32.5 33.5t12.5 43.5q0 30 -25.5 48.5t-70.5 18.5q-55 0 -90.5 -26t-43.5 -75h-147q10 67 47 116t97 76t138 27q76 0 132 -23.5t87.5 -65t31.5 -94.5q0 -41 -13.5 -71t-34 -51t-44.5 -38.5t-44.5 -33.5t-34 -34.5
t-13.5 -44.5h-146zM222 0v165h165v-165h-165z" />
    <glyph glyph-name="questiondown.case" horiz-adv-x="587" 
d="M277 -10q-75 0 -131.5 23.5t-88 65t-31.5 94.5q0 43 13.5 73t34 51.5t44.5 38t44.5 32t34 34.5t13.5 44h146q0 -44 -12.5 -74t-32.5 -50.5t-42 -36t-42 -30t-32.5 -32t-12.5 -43.5q0 -34 26.5 -53t77.5 -19q49 0 84 20t42 61h147q-9 -62 -46.5 -106.5t-97.5 -68.5
t-138 -24zM365 720v-165h-165v165h165z" />
    <glyph glyph-name="bullet.case" horiz-adv-x="714" 
d="M60 74v594h594v-594h-594z" />
    <glyph glyph-name="periodcentered.loclCAT" horiz-adv-x="185" 
d="M93 280q-39 0 -66 25.5t-27 67.5q0 40 27 66t66 26q36 0 64 -26t28 -66q0 -42 -28 -67.5t-64 -25.5z" />
    <glyph glyph-name="period.ss01" horiz-adv-x="285" 
d="M143 -10q-39 0 -66 25.5t-27 67.5q0 40 27 66t66 26q36 0 64 -26t28 -66q0 -42 -28 -67.5t-64 -25.5z" />
    <glyph glyph-name="comma.ss01" horiz-adv-x="285" 
d="M68 -168v73q42 14 61.5 41t19.5 70l49 -1q-11 -9 -26.5 -15t-29.5 -6q-39 0 -65.5 25.5t-26.5 65.5q0 41 27 65.5t62 24.5q40 0 68 -30t28 -97q0 -79 -44.5 -137t-122.5 -79z" />
    <glyph glyph-name="colon.ss01" horiz-adv-x="285" 
d="M143 -10q-39 0 -66 25.5t-27 67.5q0 40 27 66t66 26q36 0 64 -26t28 -66q0 -42 -28 -67.5t-64 -25.5zM143 315q-39 0 -66 25.5t-27 67.5q0 40 27 66t66 26q36 0 64 -26t28 -66q0 -42 -28 -67.5t-64 -25.5z" />
    <glyph glyph-name="semicolon.ss01" horiz-adv-x="287" 
d="M68 -168v73q42 14 61.5 41t19.5 70l49 -1q-11 -9 -26.5 -15t-29.5 -6q-39 0 -65.5 25.5t-26.5 65.5q0 41 27 65.5t62 24.5q40 0 68 -30t28 -97q0 -79 -44.5 -137t-122.5 -79zM145 315q-39 0 -66 25.5t-27 67.5q0 40 27 66t66 26q36 0 64 -26t28 -66q0 -42 -28 -67.5
t-64 -25.5z" />
    <glyph glyph-name="ellipsis.ss01" horiz-adv-x="765" 
d="M143 -10q-39 0 -66 25.5t-27 67.5q0 40 27 66t66 26q36 0 64 -26t28 -66q0 -42 -28 -67.5t-64 -25.5zM383 -10q-39 0 -66 25.5t-27 67.5q0 40 27 66t66 26q36 0 64 -26t28 -66q0 -42 -28 -67.5t-64 -25.5zM623 -10q-39 0 -66 25.5t-27 67.5q0 40 27 66t66 26q36 0 64 -26
t28 -66q0 -42 -28 -67.5t-64 -25.5z" />
    <glyph glyph-name="exclam.ss01" horiz-adv-x="305" 
d="M91 274l-22 466h166l-22 -466h-122zM153 -10q-39 0 -66 25.5t-27 67.5q0 40 27 66t66 26q36 0 64 -26t28 -66q0 -42 -28 -67.5t-64 -25.5z" />
    <glyph glyph-name="exclamdown.ss01" horiz-adv-x="325" 
d="M79 -205l22 441h122l22 -441h-166zM162 520q39 0 66 -25.5t27 -67.5q0 -40 -27 -66t-66 -26q-36 0 -64 26t-28 66q0 42 28 67.5t64 25.5z" />
    <glyph glyph-name="question.ss01" horiz-adv-x="587" 
d="M231 274q0 47 12.5 79t32.5 54t42 39t42 32t32.5 33.5t12.5 43.5q0 38 -25.5 57.5t-70.5 19.5q-55 0 -90.5 -26t-43.5 -75h-147q10 67 47 116t97 76t138 27q76 0 132 -24t87.5 -67.5t31.5 -101.5q0 -41 -13.5 -71t-34 -51.5t-44.5 -39t-44.5 -35t-34 -38t-13.5 -48.5
h-146zM305 -10q-39 0 -66 25.5t-27 67.5q0 40 27 66t66 26q36 0 64 -26t28 -66q0 -42 -28 -67.5t-64 -25.5z" />
    <glyph glyph-name="questiondown.ss01" horiz-adv-x="587" 
d="M277 -215q-75 0 -131.5 23.5t-88 65t-31.5 94.5q0 42 13.5 71t34 50t44.5 37t44.5 32t34 34.5t13.5 43.5h146q0 -44 -12.5 -74t-32.5 -50.5t-42 -36t-42 -30t-32.5 -32t-12.5 -43.5q0 -30 26.5 -48.5t77.5 -18.5q49 0 84 20t42 61h147q-9 -62 -46.5 -106.5t-97.5 -68.5
t-138 -24zM282 520q39 0 66 -25.5t27 -67.5q0 -40 -27 -66t-66 -26q-36 0 -64 26t-28 66q0 42 28 67.5t64 25.5z" />
    <glyph glyph-name="periodcentered.ss01" horiz-adv-x="185" 
d="M93 280q-39 0 -66 25.5t-27 67.5q0 40 27 66t66 26q36 0 64 -26t28 -66q0 -42 -28 -67.5t-64 -25.5z" />
    <glyph glyph-name="bullet.ss01" horiz-adv-x="379" 
d="M190 231q-54 0 -92 35.5t-38 94.5q0 56 38 92.5t92 36.5q51 0 90 -36.5t39 -92.5q0 -59 -39 -94.5t-90 -35.5z" />
    <glyph glyph-name="periodcentered.loclCAT.case" horiz-adv-x="165" 
d="M0 358v165h165v-165h-165z" />
    <glyph glyph-name="bullet.case.ss01" horiz-adv-x="786" 
d="M395 38q-141 0 -238 92t-97 243q0 143 97 237t238 94q129 0 230 -94t101 -237q0 -151 -101 -243t-230 -92z" />
    <glyph glyph-name="periodcentered.loclCAT.case.ss01" horiz-adv-x="185" 
d="M93 348q-39 0 -66 25.5t-27 67.5q0 40 27 66t66 26q36 0 64 -26t28 -66q0 -42 -28 -67.5t-64 -25.5z" />
    <glyph glyph-name="hyphen.case" horiz-adv-x="486" 
d="M60 300v120h366v-120h-366z" />
    <glyph glyph-name="endash.case" horiz-adv-x="606" 
d="M60 305v110h486v-110h-486z" />
    <glyph glyph-name="emdash.case" horiz-adv-x="906" 
d="M60 305v110h786v-110h-786z" />
    <glyph glyph-name="parenleft.case" horiz-adv-x="456" 
d="M269 -40q-68 55 -112 122t-65.5 138.5t-21.5 138.5q0 68 21.5 139.5t66 139t111.5 122.5h147q-101 -82 -151.5 -188t-50.5 -213q0 -108 52 -212.5t150 -186.5h-147z" />
    <glyph glyph-name="parenright.case" horiz-adv-x="456" 
d="M187 760q68 -54 112 -121.5t65.5 -138.5t21.5 -139q0 -67 -21.5 -139t-65.5 -139.5t-112 -122.5h-147q101 83 151.5 188.5t50.5 212.5q0 108 -52 212.5t-150 186.5h147z" />
    <glyph glyph-name="braceleft.case" horiz-adv-x="456" 
d="M308 -40q-78 0 -126 26t-63 69.5t5 97.5l16 43q19 50 -3.5 77.5t-72.5 27.5h-34v118h34q50 0 72.5 27.5t3.5 77.5l-16 43q-20 54 -5 98t63 69.5t126 25.5h98v-118h-90q-33 0 -51 -22t-4 -55l20 -47q16 -37 7 -69.5t-34.5 -55.5t-60.5 -33q35 -10 60.5 -33t34.5 -55
t-7 -70l-20 -47q-14 -33 4 -55t51 -22h90v-118h-98z" />
    <glyph glyph-name="braceright.case" horiz-adv-x="456" 
d="M148 760q78 0 126 -25.5t63 -69.5t-5 -98l-16 -43q-19 -50 3.5 -77.5t72.5 -27.5h34v-118h-34q-50 0 -72.5 -27.5t-3.5 -77.5l16 -43q20 -54 5 -97.5t-63 -69.5t-126 -26h-98v118h90q33 0 51 22t4 55l-20 47q-16 38 -7 70t35 55t60 33q-34 10 -60 33t-35 55.5t7 69.5
l20 47q14 33 -4 55t-51 22h-90v118h98z" />
    <glyph glyph-name="bracketleft.case" horiz-adv-x="456" 
d="M80 -40v800h326v-118h-184v-564h184v-118h-326z" />
    <glyph glyph-name="bracketright.case" horiz-adv-x="456" 
d="M376 760v-800h-326v118h184v564h-184v118h326z" />
    <glyph glyph-name="quotesinglbase.ss01" horiz-adv-x="303" 
d="M66 -207v73q50 6 70.5 32t20.5 69l49 -1q-11 -9 -26.5 -15t-29.5 -6q-40 0 -66 24.5t-26 61.5t26 61t63 24q41 0 68.5 -29.5t27.5 -92.5q0 -75 -45.5 -131t-131.5 -70z" />
    <glyph glyph-name="quotedblbase.ss01" horiz-adv-x="518" 
d="M66 -207v73q50 6 70.5 32t20.5 69l49 -1q-11 -9 -26.5 -15t-29.5 -6q-40 0 -66 24.5t-26 61.5t26 61t63 24q41 0 68.5 -29.5t27.5 -92.5q0 -75 -45.5 -131t-131.5 -70zM281 -207v73q50 6 70.5 32t20.5 69l49 -1q-11 -9 -26.5 -15t-29.5 -6q-40 0 -66 24.5t-26 61.5t26 61
t63 24q41 0 68.5 -29.5t27.5 -92.5q0 -75 -45.5 -131t-131.5 -70z" />
    <glyph glyph-name="quotedblleft.ss01" horiz-adv-x="519" 
d="M156 417q-41 0 -68.5 29.5t-27.5 92.5q0 75 46 131.5t131 69.5v-73q-49 -6 -70 -32t-21 -69l-49 1q11 9 27 15t29 6q41 0 66.5 -24.5t25.5 -61.5t-26 -61t-63 -24zM372 417q-41 0 -68.5 29.5t-27.5 92.5q0 75 46 131.5t131 69.5v-73q-49 -6 -70 -32t-21 -69l-49 1
q11 9 27 15t29 6q41 0 66.5 -24.5t25.5 -61.5t-26 -61t-63 -24z" />
    <glyph glyph-name="quotedblright.ss01" horiz-adv-x="519" 
d="M66 427v73q50 6 70.5 32t20.5 69l49 -1q-11 -9 -26.5 -15t-29.5 -6q-40 0 -66 24.5t-26 61.5t26 61t63 24q41 0 68.5 -29.5t27.5 -92.5q0 -75 -45.5 -131t-131.5 -70zM282 427v73q50 6 70.5 32t20.5 69l49 -1q-11 -9 -26.5 -15t-29.5 -6q-40 0 -66 24.5t-26 61.5t26 61
t63 24q41 0 68.5 -29.5t27.5 -92.5q0 -75 -45.5 -131t-131.5 -70z" />
    <glyph glyph-name="quoteleft.ss01" horiz-adv-x="303" 
d="M156 417q-41 0 -68.5 29.5t-27.5 92.5q0 75 46 131.5t131 69.5v-73q-49 -6 -70 -32t-21 -69l-49 1q11 9 27 15t29 6q41 0 66.5 -24.5t25.5 -61.5t-26 -61t-63 -24z" />
    <glyph glyph-name="quoteright.ss01" horiz-adv-x="285" 
d="M58 427v73q50 6 70.5 32t20.5 69l49 -1q-11 -9 -26.5 -15t-29.5 -6q-40 0 -66 24.5t-26 61.5t26 61t63 24q41 0 68.5 -29.5t27.5 -92.5q0 -75 -45.5 -131t-131.5 -70z" />
    <glyph glyph-name="ampersand.ss11" horiz-adv-x="790" 
d="M251 0q-67 0 -116.5 24t-77 68.5t-27.5 103.5q0 57 26 100.5t71.5 68.5t103.5 25l15 -21q-53 0 -95 23t-66.5 63.5t-24.5 91.5q0 87 71.5 135t199.5 48q35 0 63 -4.5t67 -15.5v-118q-30 10 -58 14.5t-57 4.5q-66 0 -99 -22.5t-33 -66.5q0 -43 30 -66.5t86 -23.5h430v-110
h-468q-50 0 -78 -28.5t-28 -79.5q0 -49 26 -76.5t75 -27.5h276v-110h-312zM478 0v542h154v-542h-154z" />
    <glyph glyph-name="cent.ss12" horiz-adv-x="562" 
d="M291 -10q-80 0 -141 34t-95.5 94t-34.5 137t34.5 137t95.5 94t141 34q67 0 120.5 -24.5t88 -67.5t44.5 -101h-135q-11 44 -41 64.5t-75 20.5q-62 0 -94.5 -41t-32.5 -116t32.5 -116t94.5 -41q45 0 75 20.5t41 64.5h135q-10 -58 -44.5 -101t-88 -67.5t-120.5 -24.5z
M233 -109v151l5 30v373l-5 34v137h122v-141l-5 -26v-374l5 -28v-156h-122z" />
    <glyph glyph-name="dollar.ss12" horiz-adv-x="652" 
d="M346 -9q-140 0 -224 62.5t-98 176.5h148q7 -58 56 -91.5t125 -33.5q62 0 95.5 22t33.5 59q0 35 -20 56.5t-69 34.5l-134 37q-103 29 -150.5 79.5t-47.5 126.5q0 65 33.5 112.5t94.5 73t143 25.5q126 0 201 -59.5t85 -157.5h-148q-10 53 -48.5 78t-98.5 25q-52 0 -83 -20
t-31 -54q0 -26 17 -47.5t71 -36.5l134 -37q106 -29 152.5 -79.5t46.5 -127.5q0 -108 -75 -166t-209 -58zM275 -109v151l5 30v587l-5 34v137h122v-141l-5 -26v-588l5 -28v-156h-122z" />
    <glyph glyph-name="plus.tf" horiz-adv-x="600" 
d="M243 133v477h115v-477h-115zM62 317v108h476v-108h-476z" />
    <glyph glyph-name="minus.tf" horiz-adv-x="600" 
d="M62 317v108h476v-108h-476z" />
    <glyph glyph-name="multiply.tf" horiz-adv-x="600" 
d="M459 144l-398 377l80 79l398 -377zM141 144l-80 79l398 377l80 -79z" />
    <glyph glyph-name="divide.tf" horiz-adv-x="600" 
d="M62 317v108h476v-108h-476zM301 478q-34 0 -56 20.5t-22 54.5q0 32 22 53t56 21q30 0 53 -21t23 -53q0 -34 -23 -54.5t-53 -20.5zM301 116q-34 0 -56 20.5t-22 54.5q0 32 22 53t56 21q30 0 53 -21t23 -53q0 -34 -23 -54.5t-53 -20.5z" />
    <glyph glyph-name="equal.tf" horiz-adv-x="600" 
d="M62 417v108h476v-108h-476zM62 217v108h476v-108h-476z" />
    <glyph glyph-name="greater.tf" horiz-adv-x="600" 
d="M58 162v115l374 105v-22l-374 105v115l476 -150v-118z" />
    <glyph glyph-name="less.tf" horiz-adv-x="600" 
d="M501 580v-115l-333 -105v22l333 -105v-115l-451 150v118z" />
    <glyph glyph-name="percent.tf" horiz-adv-x="600" 
d="M20 0l465 720h97l-465 -720h-97zM445 -10q-36 0 -68.5 20t-53 61.5t-20.5 103.5q0 63 20.5 103.5t53 60.5t68.5 20q38 0 70.5 -20t52.5 -60.5t20 -103.5q0 -62 -20.5 -103.5t-53 -61.5t-69.5 -20zM445 65q18 0 33.5 23.5t15.5 87.5q0 62 -14.5 85t-33.5 23
q-20 0 -34.5 -22.5t-14.5 -85.5q0 -64 14.5 -87.5t33.5 -23.5zM154 361q-37 0 -69 20t-52.5 61.5t-20.5 103.5q0 63 20.5 103.5t52.5 60.5t69 20q38 0 70.5 -20t52.5 -60.5t20 -103.5q0 -62 -20.5 -103.5t-53 -61.5t-69.5 -20zM154 436q18 0 33.5 23.5t15.5 87.5
q0 62 -14.5 85t-33.5 23q-20 0 -34.5 -22.5t-14.5 -85.5q0 -64 14.5 -87.5t33.5 -23.5z" />
    <glyph glyph-name="perthousand.tf" horiz-adv-x="600" 
d="M58 277l-22 71l494 150l22 -71zM260 -10q-53 0 -86.5 41.5t-33.5 110.5q0 68 33 109.5t87 41.5t87.5 -41t33.5 -110t-34 -110.5t-87 -41.5zM260 55q19 0 30.5 22.5t11.5 65.5q0 41 -11 63t-31 22t-30.5 -22t-10.5 -63q0 -42 10.5 -65t30.5 -23zM449 -10q-53 0 -86.5 41.5
t-33.5 110.5q0 68 33 109.5t87 41.5t87.5 -41t33.5 -110t-34 -110.5t-87 -41.5zM449 55q19 0 30.5 22.5t11.5 65.5q0 41 -11 63t-31 22t-30.5 -22t-10.5 -63q0 -42 10.5 -65t30.5 -23zM150 427q-53 0 -86.5 41.5t-33.5 110.5q0 68 33 109.5t87 41.5t87.5 -41t33.5 -110
t-34 -110.5t-87 -41.5zM150 492q19 0 30.5 22.5t11.5 65.5q0 41 -11 63t-31 22t-30.5 -22t-10.5 -63q0 -42 10.5 -65t30.5 -23z" />
    <glyph glyph-name="uni030C.alt" horiz-adv-x="0" 
d="M160 483h-100v237h126z" />
    <glyph glyph-name="uni0308.ss01" horiz-adv-x="0" 
d="M145 581q-36 0 -60.5 25.5t-24.5 62.5t24.5 61t60.5 24t60.5 -24t24.5 -61t-24.5 -62.5t-60.5 -25.5zM375 581q-36 0 -60.5 25.5t-24.5 62.5t24.5 61t60.5 24t60.5 -24t24.5 -61t-24.5 -62.5t-60.5 -25.5z" />
    <glyph glyph-name="uni0307.ss01" horiz-adv-x="0" 
d="M157 562q-40 0 -68.5 28t-28.5 68q0 44 28.5 70.5t68.5 26.5q38 0 65.5 -26.5t27.5 -70.5q0 -40 -27.5 -68t-65.5 -28z" />
    <glyph glyph-name="uni0312.ss01" horiz-adv-x="0" 
d="M148 576q-37 0 -62.5 26.5t-25.5 79.5q0 48 18.5 88.5t52.5 64.5t81 24v-67q-38 0 -55.5 -21t-17.5 -60l-45 1q11 8 25 13.5t26 5.5q35 0 59.5 -22.5t24.5 -55.5t-23.5 -55t-57.5 -22z" />
    <glyph glyph-name="uni0326.ss01" horiz-adv-x="0" 
d="M77 -350v67q38 0 55.5 21t17.5 60l45 -1q-10 -8 -24.5 -13.5t-26.5 -5.5q-35 0 -59.5 22.5t-24.5 55.5t23.5 55t57.5 22q38 0 63 -26.5t25 -79.5q0 -48 -18.5 -88t-52.5 -64.5t-81 -24.5z" />
    <glyph glyph-name="dieresis.ss01" horiz-adv-x="520" 
d="M145 581q-36 0 -60.5 25.5t-24.5 62.5t24.5 61t60.5 24t60.5 -24t24.5 -61t-24.5 -62.5t-60.5 -25.5zM375 581q-36 0 -60.5 25.5t-24.5 62.5t24.5 61t60.5 24t60.5 -24t24.5 -61t-24.5 -62.5t-60.5 -25.5z" />
    <glyph glyph-name="dotaccent.ss01" horiz-adv-x="310" 
d="M157 562q-40 0 -68.5 28t-28.5 68q0 44 28.5 70.5t68.5 26.5q38 0 65.5 -26.5t27.5 -70.5q0 -40 -27.5 -68t-65.5 -28z" />
    </font>
</defs>
</svg>
