<svg width="204" height="97" viewBox="0 0 204 97" fill="none" xmlns="http://www.w3.org/2000/svg">
<g clip-path="url(#clip0_329_20382)">
<path d="M57.1131 45.5809C48.8101 40.6568 35.1146 40.204 27.1884 42.6064C25.9155 42.9919 24.5696 42.2743 24.1839 41.0033C23.7982 39.7316 24.516 38.3883 25.7897 38.0019C34.8885 35.2436 50.0137 35.7765 59.5722 41.4428C60.7174 42.1214 61.0929 43.5979 60.4141 44.7396C59.7349 45.8827 58.2551 46.2596 57.1131 45.5809ZM56.8412 52.8743C56.2589 53.8183 55.023 54.1141 54.0791 53.5348C47.1568 49.2856 36.6013 48.0546 28.4119 50.537C27.3499 50.8575 26.2281 50.2596 25.9057 49.201C25.5855 48.1404 26.1846 47.0222 27.2447 46.6997C36.6001 43.8648 48.23 45.2379 56.1805 50.1172C57.1245 50.6977 57.4216 51.9326 56.8412 52.8743ZM53.6893 59.8786C53.2267 60.6365 52.2382 60.8742 51.4821 60.4122C45.4332 56.7205 37.8199 55.8865 28.8538 57.9319C27.9896 58.1297 27.1286 57.5888 26.9315 56.7262C26.7336 55.8634 27.273 55.0037 28.139 54.8068C37.9509 52.5667 46.3676 53.5308 53.1569 57.6739C53.9139 58.1355 54.1523 59.1231 53.6893 59.8786ZM41.8764 22.7769C27.6508 22.7769 16.1182 34.2932 16.1182 48.4995C16.1182 62.7071 27.6508 74.2231 41.8764 74.2231C56.1027 74.2231 67.6347 62.7071 67.6347 48.4995C67.6347 34.2932 56.1027 22.7769 41.8764 22.7769Z" fill="#071F0A"/>
<path d="M86.1978 46.5238C81.7504 45.4647 80.9584 44.7212 80.9584 43.1597C80.9584 41.6837 82.3499 40.691 84.4187 40.691C86.4242 40.691 88.4124 41.4451 90.4975 42.9975C90.5606 43.0445 90.6396 43.0632 90.7174 43.0509C90.7953 43.0393 90.8638 42.9969 90.9097 42.9324L93.0812 39.8754C93.1704 39.7498 93.1461 39.576 93.0259 39.4798C90.5446 37.4915 87.7505 36.5249 84.4845 36.5249C79.6825 36.5249 76.3283 39.4024 76.3283 43.5203C76.3283 47.9359 79.2217 49.4992 84.2218 50.7061C88.4776 51.6851 89.1958 52.5051 89.1958 53.9714C89.1958 55.5959 87.7434 56.606 85.406 56.606C82.8103 56.606 80.6926 55.7327 78.3239 53.6842C78.2651 53.6338 78.1845 53.6105 78.1101 53.6147C78.032 53.6212 77.9603 53.6574 77.9105 53.7173L75.4756 56.6111C75.3735 56.7313 75.3864 56.9106 75.5042 57.0144C78.2605 59.4715 81.6498 60.7695 85.3076 60.7695C90.4821 60.7695 93.8259 57.9458 93.8259 53.5757C93.8259 49.8824 91.6162 47.8398 86.1978 46.5238Z" fill="#071F0A"/>
<path d="M109.289 51.4736C109.289 54.5924 107.365 56.7685 104.611 56.7685C101.888 56.7685 99.8336 54.4935 99.8336 51.4736C99.8336 48.4543 101.888 46.1788 104.611 46.1788C107.321 46.1788 109.289 48.4051 109.289 51.4736ZM105.533 42.1434C103.29 42.1434 101.45 43.0256 99.9329 44.8333V42.7986C99.9329 42.638 99.8025 42.5071 99.6416 42.5071H95.6596C95.4988 42.5071 95.3687 42.638 95.3687 42.7986V65.4068C95.3687 65.5675 95.4988 65.6982 95.6596 65.6982H99.6416C99.8025 65.6982 99.9329 65.5675 99.9329 65.4068V58.2707C101.45 59.9711 103.29 60.8017 105.533 60.8017C109.7 60.8017 113.919 57.5979 113.919 51.4736C113.919 45.348 109.7 42.1434 105.533 42.1434Z" fill="#071F0A"/>
<path d="M124.733 56.8011C121.878 56.8011 119.726 54.5106 119.726 51.4736C119.726 48.4238 121.804 46.2107 124.667 46.2107C127.54 46.2107 129.707 48.5011 129.707 51.5402C129.707 54.5895 127.615 56.8011 124.733 56.8011ZM124.733 42.1434C119.366 42.1434 115.161 46.2706 115.161 51.5402C115.161 56.7525 119.337 60.8364 124.667 60.8364C130.053 60.8364 134.271 56.7231 134.271 51.4736C134.271 46.2416 130.082 42.1434 124.733 42.1434Z" fill="#071F0A"/>
<path d="M145.732 42.5072H141.35V38.033C141.35 37.8723 141.22 37.7418 141.059 37.7418H137.078C136.916 37.7418 136.785 37.8723 136.785 38.033V42.5072H134.871C134.71 42.5072 134.581 42.638 134.581 42.7987V46.2164C134.581 46.377 134.71 46.5078 134.871 46.5078H136.785V55.3517C136.785 58.9256 138.567 60.7375 142.08 60.7375C143.508 60.7375 144.693 60.443 145.81 59.8105C145.901 59.7599 145.957 59.6622 145.957 59.5583V56.3037C145.957 56.2031 145.905 56.1086 145.819 56.0558C145.732 56.0014 145.624 55.9987 145.535 56.0426C144.768 56.428 144.027 56.6059 143.198 56.6059C141.92 56.6059 141.35 56.0269 141.35 54.7285V46.5078H145.732C145.893 46.5078 146.022 46.377 146.022 46.2164V42.7987C146.022 42.638 145.893 42.5072 145.732 42.5072Z" fill="#071F0A"/>
<path d="M161 42.5248V41.9752C161 40.3586 161.62 39.6377 163.013 39.6377C163.843 39.6377 164.51 39.8023 165.256 40.0511C165.348 40.08 165.444 40.0656 165.519 40.0106C165.596 39.9556 165.639 39.8674 165.639 39.7741V36.4229C165.639 36.2948 165.557 36.1814 165.434 36.144C164.645 35.9096 163.635 35.6688 162.124 35.6688C158.445 35.6688 156.501 37.7372 156.501 41.6484V42.49H154.588C154.428 42.49 154.296 42.6206 154.296 42.7812V46.2165C154.296 46.3771 154.428 46.5078 154.588 46.5078H156.501V60.1491C156.501 60.3098 156.631 60.4403 156.792 60.4403H160.774C160.935 60.4403 161.066 60.3098 161.066 60.1491V46.5078H164.784L170.479 60.1455C169.833 61.5784 169.197 61.8635 168.329 61.8635C167.627 61.8635 166.888 61.6542 166.133 61.2415C166.062 61.2023 165.978 61.196 165.901 61.2196C165.825 61.2466 165.761 61.3029 165.729 61.3769L164.379 64.334C164.315 64.4737 164.37 64.6378 164.504 64.7103C165.913 65.4723 167.186 65.7976 168.757 65.7976C171.698 65.7976 173.323 64.4295 174.756 60.7496L181.665 42.9216C181.699 42.8319 181.689 42.7309 181.634 42.651C181.579 42.5724 181.491 42.5248 181.395 42.5248H177.249C177.125 42.5248 177.014 42.6034 176.973 42.7198L172.726 54.8339L168.075 42.7118C168.032 42.5991 167.923 42.5248 167.803 42.5248H161Z" fill="#071F0A"/>
<path d="M152.148 42.5071H148.166C148.005 42.5071 147.875 42.638 147.875 42.7986V60.149C147.875 60.3096 148.005 60.4402 148.166 60.4402H152.148C152.309 60.4402 152.44 60.3096 152.44 60.149V42.7986C152.44 42.638 152.309 42.5071 152.148 42.5071Z" fill="#071F0A"/>
<path d="M150.178 34.6072C148.6 34.6072 147.32 35.8828 147.32 37.458C147.32 39.0344 148.6 40.3113 150.178 40.3113C151.755 40.3113 153.034 39.0344 153.034 37.458C153.034 35.8828 151.755 34.6072 150.178 34.6072Z" fill="#071F0A"/>
<path d="M185.228 44.2331H184.498V45.1623H185.228C185.592 45.1623 185.809 44.9844 185.809 44.6975C185.809 44.3952 185.592 44.2331 185.228 44.2331ZM185.701 45.5586L186.493 46.6671H185.825L185.111 45.6504H184.498V46.6671H183.939V43.7292H185.25C185.934 43.7292 186.383 44.0785 186.383 44.6663C186.383 45.1478 186.105 45.4421 185.701 45.5586ZM185.079 42.7518C183.644 42.7518 182.557 43.891 182.557 45.2867C182.557 46.6815 183.636 47.8057 185.065 47.8057C186.5 47.8057 187.587 46.6671 187.587 45.2708C187.587 43.876 186.508 42.7518 185.079 42.7518ZM185.065 48.0857C183.489 48.0857 182.262 46.8216 182.262 45.2867C182.262 43.7516 183.505 42.4732 185.079 42.4732C186.655 42.4732 187.882 43.7372 187.882 45.2708C187.882 46.8059 186.64 48.0857 185.065 48.0857Z" fill="#071F0A"/>
</g>
<defs>
<clipPath id="clip0_329_20382">
<rect width="174.38" height="52.2308" fill="white" transform="translate(14.8101 22.3845)"/>
</clipPath>
</defs>
</svg>
