<svg width="204" height="97" viewBox="0 0 204 97" fill="none" xmlns="http://www.w3.org/2000/svg">
<path fill-rule="evenodd" clip-rule="evenodd" d="M166.27 49.3462C166.27 40.2043 161.843 32.9907 153.38 32.9907C144.882 32.9907 139.741 40.2043 139.741 49.2747C139.741 60.0236 145.811 65.4516 154.523 65.4516C158.772 65.4516 161.985 64.4874 164.413 63.1304V55.9883C161.985 57.2025 159.2 57.9524 155.666 57.9524C152.202 57.9524 149.131 56.7382 148.739 52.5244H166.199C166.199 52.0602 166.27 50.2032 166.27 49.3462ZM148.631 45.9537C148.631 41.9184 151.095 40.24 153.345 40.24C155.523 40.24 157.844 41.9184 157.844 45.9537H148.631Z" fill="#071F0A"/>
<path fill-rule="evenodd" clip-rule="evenodd" d="M125.958 32.9907C122.459 32.9907 120.21 34.6334 118.96 35.7761L118.496 33.5621H110.641V75.2006L119.567 73.308L119.603 63.2019C120.888 64.1303 122.781 65.4516 125.923 65.4516C132.314 65.4516 138.134 60.3093 138.134 48.9891C138.098 38.633 132.207 32.9907 125.958 32.9907ZM123.816 57.5953C121.709 57.5953 120.46 56.8454 119.603 55.9169L119.567 42.6683C120.495 41.6327 121.781 40.9185 123.816 40.9185C127.065 40.9185 129.315 44.5609 129.315 49.239C129.315 54.0242 127.101 57.5953 123.816 57.5953Z" fill="#071F0A"/>
<path fill-rule="evenodd" clip-rule="evenodd" d="M98.3579 30.8839L107.32 28.9555V21.7063L98.3579 23.599V30.8839Z" fill="#071F0A"/>
<path d="M107.32 33.5979H98.3579V64.8446H107.32V33.5979Z" fill="#071F0A"/>
<path fill-rule="evenodd" clip-rule="evenodd" d="M88.753 36.2405L88.1817 33.5979H80.4692V64.8446H89.3957V43.6683C91.5023 40.9186 95.0729 41.4185 96.1798 41.8113V33.5979C95.0372 33.1694 90.8596 32.3837 88.753 36.2405Z" fill="#071F0A"/>
<path fill-rule="evenodd" clip-rule="evenodd" d="M70.8998 25.8486L62.1876 27.7056L62.1519 56.3097C62.1519 61.5949 66.1152 65.4874 71.3997 65.4874C74.3276 65.4874 76.4699 64.9517 77.6482 64.3089V57.0597C76.5056 57.5239 70.8641 59.1666 70.8641 53.8814V41.2042H77.6482V33.5978H70.8641L70.8998 25.8486Z" fill="#071F0A"/>
<path fill-rule="evenodd" clip-rule="evenodd" d="M46.7631 42.6683C46.7631 41.2756 47.9057 40.7399 49.7981 40.7399C52.5117 40.7399 55.9395 41.5613 58.6531 43.0254V34.6334C55.6895 33.455 52.7617 32.9907 49.7981 32.9907C42.5498 32.9907 37.7295 36.776 37.7295 43.0968C37.7295 52.9529 51.2977 51.3817 51.2977 55.6312C51.2977 57.2739 49.8695 57.8096 47.87 57.8096C44.9064 57.8096 41.1215 56.5954 38.1223 54.9527V63.4518C41.4429 64.8803 44.7993 65.4873 47.87 65.4873C55.2968 65.4873 60.4027 61.8091 60.4027 55.417C60.367 44.7752 46.7631 46.6679 46.7631 42.6683Z" fill="#071F0A"/>
</svg>
