<svg width="204" height="97" viewBox="0 0 204 97" fill="none" xmlns="http://www.w3.org/2000/svg">
<g clip-path="url(#clip0_329_20383)">
<path d="M36.7901 26.4705H18.3604V70.5295L36.7901 26.4705Z" fill="#071F0A"/>
<path d="M49.7568 26.4705H68.1625V70.5295L49.7568 26.4705Z" fill="#071F0A"/>
<path d="M43.273 42.709L55.0032 70.5295H47.3072L43.8013 61.672H35.2168L43.273 42.709Z" fill="#071F0A"/>
<path d="M98.2298 54.4892L100.403 60.7182C100.475 60.8742 100.583 60.9463 100.775 60.9463H104.953C105.181 60.9463 105.217 60.8382 105.181 60.6102L96.5489 36.6423C96.5129 36.4503 96.4768 36.4143 96.2847 36.4143H91.098C90.9539 36.4143 90.8699 36.5223 90.8699 36.6783C90.7978 37.9386 90.6898 38.3226 90.5337 38.6947L82.8377 60.5742C82.8016 60.8382 82.8857 60.9463 83.1018 60.9463H86.8358C87.0639 60.9463 87.1719 60.8742 87.256 60.6462L89.3091 54.4892H98.2298ZM90.4977 50.4206C91.6263 47.012 93.1151 42.6433 93.7154 40.1469H93.7514C94.4958 42.7633 96.2487 47.9482 97.0411 50.4206H90.4977Z" fill="#071F0A"/>
<path d="M116.28 61.3184C118.525 61.3184 120.914 60.9103 123.339 59.8662C123.532 59.7941 123.568 59.7101 123.568 59.5301C123.495 58.858 123.411 57.8858 123.411 57.1417V34.5781C123.411 34.4341 123.411 34.3621 123.231 34.3621H119.161C119.005 34.3621 118.933 34.4341 118.933 34.6261V42.2713C118.297 42.1993 117.853 42.1633 117.324 42.1633C110.757 42.1633 106.723 46.496 106.723 51.9089C106.723 58.1859 110.865 61.3184 116.28 61.3184ZM118.933 57.1417C118.261 57.3578 117.516 57.4418 116.76 57.4418C113.782 57.4418 111.345 55.7615 111.345 51.6808C111.345 48.0683 113.854 45.9319 117.18 45.9319C117.853 45.9319 118.441 46.0039 118.933 46.196V57.1417Z" fill="#071F0A"/>
<path d="M136.551 42.1633C130.944 42.1633 127.475 46.46 127.475 51.7649C127.475 56.5056 130.236 61.3184 136.467 61.3184C141.738 61.3184 145.436 57.4418 145.436 51.6449C145.436 46.532 142.302 42.1633 136.551 42.1633ZM136.323 45.9319C139.493 45.9319 140.838 48.6564 140.838 51.7649C140.838 55.6055 138.857 57.5138 136.551 57.5138C133.706 57.5138 132.025 55.1254 132.025 51.6809C132.025 48.1403 133.814 45.9319 136.323 45.9319Z" fill="#071F0A"/>
<path d="M149.645 34.3621C149.488 34.3621 149.38 34.4341 149.38 34.6261V60.1662C149.38 60.2742 149.488 60.4663 149.645 60.5023C151.433 61.0544 153.306 61.3184 155.239 61.3184C160.774 61.3184 166.153 57.8858 166.153 50.9727C166.153 45.9679 162.719 42.1633 157.341 42.1633C156.104 42.1633 154.951 42.3553 153.943 42.6914L153.895 34.6621C153.895 34.3981 153.823 34.3621 153.559 34.3621H149.645ZM161.555 51.4288C161.555 55.5695 158.721 57.5138 155.66 57.5138C155.023 57.5138 154.459 57.4778 153.943 57.3218V46.424C154.531 46.196 155.239 46.0039 156.548 46.0039C159.502 46.0039 161.555 47.8762 161.555 51.4288Z" fill="#071F0A"/>
<path d="M181.343 52.773C183.168 52.773 184.669 52.737 185.185 52.617C185.377 52.581 185.449 52.509 185.485 52.353C185.593 51.9449 185.641 51.0928 185.641 50.0486C185.641 46.496 183.504 42.1633 177.981 42.1633C172.338 42.1633 169.205 46.7601 169.205 51.9449C169.205 56.5416 171.63 61.3184 178.425 61.3184C180.971 61.3184 182.616 60.9103 184.032 60.2382C184.176 60.1662 184.248 60.0462 184.248 59.8302V56.7217C184.248 56.5416 184.14 56.5056 184.032 56.5776C182.616 57.1777 181.079 57.4778 179.398 57.4778C175.592 57.4778 173.863 55.3775 173.755 52.773H181.343ZM173.755 49.5565C174.055 47.7322 175.208 45.7519 177.789 45.7519C180.635 45.7519 181.379 48.1403 181.379 49.2205C181.379 49.2565 181.379 49.4125 181.379 49.5205C181.223 49.5565 180.743 49.5565 179.326 49.5565H173.755Z" fill="#071F0A"/>
</g>
<defs>
<clipPath id="clip0_329_20383">
<rect width="167.28" height="44.0909" fill="white" transform="translate(18.3599 26.4546)"/>
</clipPath>
</defs>
</svg>
