<svg width="204" height="97" viewBox="0 0 204 97" fill="none" xmlns="http://www.w3.org/2000/svg">
<g clip-path="url(#clip0_329_20381)">
<path d="M14.0459 41.82C13.9059 41.2604 13.9409 40.7009 14.0109 40.3861C14.1859 39.5118 14.7809 38.5675 16.4961 38.5675C18.1062 38.5675 19.0163 39.5467 19.0163 41.0506C19.0163 41.5402 19.0163 42.7293 19.0163 42.7293H25.8069V40.8058C25.8419 34.8603 20.4864 33.916 16.6361 33.916C11.8057 33.916 7.85038 35.5248 7.11532 39.9664C6.9053 41.1905 6.8703 42.2747 7.18532 43.6386C8.37542 49.1994 18.0712 50.8082 19.4713 54.3405C19.7514 55.005 19.6463 55.8443 19.5413 56.3689C19.3313 57.2783 18.7013 58.2225 16.8811 58.2225C15.166 58.2225 14.1509 57.2433 14.1509 55.7394V53.1164H6.80029V55.2148C6.80029 61.3002 11.5957 63.1188 16.7061 63.1188C21.6415 63.1188 25.6668 61.4401 26.3319 56.8935C26.6469 54.5503 26.4019 53.0115 26.2969 52.4519C25.1768 46.6813 14.816 45.0026 14.0459 41.82ZM102.708 41.855C102.603 41.3304 102.638 40.7358 102.673 40.456C102.883 39.5817 103.443 38.6374 105.158 38.6374C106.733 38.6374 107.644 39.6167 107.644 41.0856C107.644 41.5752 107.644 42.7643 107.644 42.7643H114.364V40.8757C114.364 35.0002 109.114 34.0909 105.298 34.0909C100.503 34.0909 96.5827 35.6647 95.8476 40.0713C95.6726 41.2604 95.6026 42.3446 95.9176 43.7086C97.0727 49.1994 106.663 50.8082 108.064 54.3055C108.309 54.97 108.239 55.8094 108.099 56.299C107.889 57.2083 107.294 58.1176 105.473 58.1176C103.793 58.1176 102.743 57.1384 102.743 55.6695V53.0465H95.4976V55.1099C95.4976 61.1253 100.223 62.944 105.298 62.944C110.164 62.944 114.189 61.2652 114.819 56.7886C115.134 54.4454 114.889 52.9416 114.784 52.382C113.699 46.7163 103.478 45.0376 102.708 41.855ZM164.593 56.7187L158.188 34.7904H148.072V61.7549H154.757L154.372 39.1271L161.268 61.7549H170.964V34.7904H164.243L164.593 56.7187ZM35.9927 34.7904L30.9173 62.0346H38.2679L42.0832 36.8188L45.7935 62.0346H53.1091L48.1037 34.7904H35.9927ZM77.1561 34.7904L73.7258 56.0892L70.2955 34.7904H59.1646L58.5695 62.0346H65.3951L65.5701 36.8188L70.2605 62.0346H77.1561L81.8465 36.8188L82.0215 62.0346H88.847L88.252 34.7904H77.1561ZM140.511 34.7904H133.616V54.935C133.616 55.2848 133.616 55.6695 133.546 55.9842C133.406 56.6487 132.846 57.9777 130.92 57.9777C129.03 57.9777 128.47 56.6837 128.33 55.9842C128.26 55.7045 128.26 55.2848 128.26 54.935V34.7904H121.365V54.3055C121.365 54.7951 121.4 55.8443 121.435 56.0892C121.925 61.1603 125.915 62.839 130.92 62.839C135.926 62.839 139.951 61.1953 140.441 56.0892C140.476 55.8094 140.546 54.7951 140.511 54.3055V34.7904ZM187.835 46.7163V50.7033H190.635V54.6553C190.635 55.005 190.635 55.3897 190.565 55.7045C190.46 56.4389 189.76 57.6979 187.765 57.6979C185.805 57.6979 185.105 56.4389 185 55.7045C184.965 55.3897 184.93 55.005 184.93 54.6553V42.2047C184.93 41.7501 184.965 41.2954 185.07 40.9107C185.21 40.2462 185.805 38.9522 187.765 38.9522C189.865 38.9522 190.355 40.3162 190.495 40.9107C190.565 41.2954 190.565 41.9599 190.565 41.9599V43.4638H197.426V42.5545C197.426 42.5545 197.461 41.6102 197.391 40.7358C196.866 35.6647 192.631 34.0559 187.8 34.0559C182.97 34.0559 178.839 35.6997 178.244 40.7708C178.174 41.2255 178.104 42.0648 178.104 42.5894V54.0257C178.104 54.5154 178.104 54.9001 178.209 55.8094C178.664 60.7756 182.97 62.5243 187.8 62.5243C192.666 62.5243 196.936 60.7756 197.391 55.8094C197.461 54.9001 197.496 54.5154 197.496 54.0257V46.7163H187.835Z" fill="#071F0A"/>
</g>
<defs>
<clipPath id="clip0_329_20381">
<rect width="190.4" height="29.1678" fill="white" transform="translate(6.7998 33.916)"/>
</clipPath>
</defs>
</svg>
