<svg width="286" height="337" viewBox="0 0 286 337" fill="none" xmlns="http://www.w3.org/2000/svg">
<g clip-path="url(#clip0_329_20427)">
<rect width="286" height="337" rx="16" fill="#A8FF73"/>
<path d="M42.3335 31.5H54.5002C56.367 31.5 57.3004 31.5 58.0135 31.8633C58.6407 32.1829 59.1506 32.6928 59.4702 33.32C59.8335 34.0331 59.8335 34.9665 59.8335 36.8333V39C59.8335 40.5531 59.8335 41.3297 59.5798 41.9423C59.2415 42.759 58.5925 43.4079 57.7758 43.7462C57.1632 44 56.3866 44 54.8335 44M45.6668 56.5H33.5002C31.6333 56.5 30.6999 56.5 29.9869 56.1367C29.3597 55.8171 28.8497 55.3072 28.5301 54.68C28.1668 53.9669 28.1668 53.0335 28.1668 51.1666V49C28.1668 47.4468 28.1668 46.6703 28.4206 46.0577C28.7589 45.2409 29.4078 44.592 30.2246 44.2537C30.8371 44 31.6137 44 33.1668 44M41.1668 48.1666H46.8335C47.3002 48.1666 47.5336 48.1666 47.7118 48.0758C47.8686 47.9959 47.9961 47.8684 48.076 47.7116C48.1668 47.5334 48.1668 47.3 48.1668 46.8333V41.1666C48.1668 40.6999 48.1668 40.4666 48.076 40.2883C47.9961 40.1315 47.8686 40.004 47.7118 39.9241C47.5336 39.8333 47.3002 39.8333 46.8335 39.8333H41.1668C40.7001 39.8333 40.4668 39.8333 40.2885 39.9241C40.1317 40.004 40.0042 40.1315 39.9243 40.2883C39.8335 40.4666 39.8335 40.6999 39.8335 41.1666V46.8333C39.8335 47.3 39.8335 47.5334 39.9243 47.7116C40.0042 47.8684 40.1317 47.9959 40.2885 48.0758C40.4668 48.1666 40.7001 48.1666 41.1668 48.1666ZM53.6668 60.6666H59.3335C59.8002 60.6666 60.0336 60.6666 60.2118 60.5758C60.3686 60.4959 60.4961 60.3684 60.576 60.2116C60.6668 60.0334 60.6668 59.8 60.6668 59.3333V53.6666C60.6668 53.1999 60.6668 52.9666 60.576 52.7883C60.4961 52.6315 60.3686 52.504 60.2118 52.4241C60.0336 52.3333 59.8002 52.3333 59.3335 52.3333H53.6668C53.2001 52.3333 52.9668 52.3333 52.7885 52.4241C52.6317 52.504 52.5042 52.6315 52.4243 52.7883C52.3335 52.9666 52.3335 53.1999 52.3335 53.6666V59.3333C52.3335 59.8 52.3335 60.0334 52.4243 60.2116C52.5042 60.3684 52.6317 60.4959 52.7885 60.5758C52.9668 60.6666 53.2001 60.6666 53.6668 60.6666ZM28.6668 35.6666H34.3335C34.8002 35.6666 35.0336 35.6666 35.2118 35.5758C35.3686 35.4959 35.4961 35.3684 35.576 35.2116C35.6668 35.0334 35.6668 34.8 35.6668 34.3333V28.6666C35.6668 28.1999 35.6668 27.9666 35.576 27.7883C35.4961 27.6315 35.3686 27.504 35.2118 27.4241C35.0336 27.3333 34.8002 27.3333 34.3335 27.3333H28.6668C28.2001 27.3333 27.9668 27.3333 27.7885 27.4241C27.6317 27.504 27.5042 27.6315 27.4243 27.7883C27.3335 27.9666 27.3335 28.1999 27.3335 28.6666V34.3333C27.3335 34.8 27.3335 35.0334 27.4243 35.2116C27.5042 35.3684 27.6317 35.4959 27.7885 35.5758C27.9668 35.6666 28.2001 35.6666 28.6668 35.6666Z" stroke="#0B0E18" stroke-width="2" stroke-linecap="round" stroke-linejoin="round"/>
<g filter="url(#filter0_d_329_20427)">
<rect x="206" y="24" width="56" height="40" rx="20" fill="white" shape-rendering="crispEdges"/>
<path fill-rule="evenodd" clip-rule="evenodd" d="M231 38C231 37.4477 231.448 37 232 37H240C240.552 37 241 37.4477 241 38V46C241 46.5523 240.552 47 240 47C239.448 47 239 46.5523 239 46V40.4142L228.707 50.7071C228.317 51.0976 227.683 51.0976 227.293 50.7071C226.902 50.3166 226.902 49.6834 227.293 49.2929L237.586 39H232C231.448 39 231 38.5523 231 38Z" fill="#0B0E18"/>
</g>
<path d="M25.776 102V84.72H29.712L34.824 99.48L39.888 84.72H43.872V102H41.352V86.88L36.168 102H33.336L28.152 86.976V102H25.776ZM50.7683 102.24C48.2723 102.24 46.6883 100.92 46.6883 98.808C46.6883 96.624 48.2723 95.4 51.2003 94.944L54.6803 94.392V93.816C54.6803 92.256 53.9123 91.464 52.2323 91.464C50.6003 91.464 49.5683 92.136 49.4243 93.312H47.0483C47.2643 91.008 49.2323 89.52 52.3283 89.52C55.5203 89.52 57.1283 91.008 57.1283 93.912V99.648C57.1283 100.392 57.2243 101.136 57.4163 102H54.9923C54.8723 101.496 54.8003 100.92 54.8003 100.104C54.1043 101.472 52.6643 102.24 50.7683 102.24ZM49.1363 98.592C49.1363 99.696 49.9283 100.272 51.3443 100.272C53.2643 100.272 54.6803 99.24 54.6803 97.824V96.144L51.5843 96.624C49.9523 96.864 49.1363 97.464 49.1363 98.592ZM68.4874 102L65.2234 97.368L61.8154 102H59.0554L63.9994 95.64L59.6074 89.76H62.4394L65.3914 93.984L68.3914 89.76H71.1274L66.6394 95.712L71.3194 102H68.4874ZM73.3039 87.36V84.552H76.0399V87.36H73.3039ZM73.4239 102V89.76H75.9199V102H73.4239ZM79.4239 102V89.76H81.7999V92.064C82.6879 90.48 84.2959 89.52 86.1439 89.52C88.0399 89.52 89.4079 90.456 89.9359 91.944C90.8239 90.432 92.4799 89.52 94.3519 89.52C96.7999 89.52 98.4079 91.056 98.4079 93.432V102H95.9359V94.008C95.9359 92.352 95.1199 91.608 93.6799 91.608C91.6879 91.608 90.1519 93.12 90.1519 95.328V102H87.6799V94.008C87.6799 92.352 86.8639 91.608 85.4479 91.608C83.4319 91.608 81.9199 93.12 81.9199 95.328V102H79.4239ZM101.593 87.36V84.552H104.329V87.36H101.593ZM101.713 102V89.76H104.209V102H101.713ZM106.833 102V100.248L113.289 91.752H107.049V89.76H116.481V91.512L110.025 100.008H116.673V102H106.833ZM124.22 102.24C120.524 102.24 117.979 99.6 117.979 95.856C117.979 92.088 120.5 89.52 124.196 89.52C127.748 89.52 130.004 91.896 130.004 95.568C130.004 95.952 129.98 96.264 129.932 96.624H120.524C120.764 98.928 122.132 100.296 124.268 100.296C125.684 100.296 126.812 99.696 127.316 98.544H129.668C128.852 100.848 126.884 102.24 124.22 102.24ZM124.196 91.464C122.252 91.464 120.908 92.688 120.572 94.752H127.508C127.292 92.616 126.116 91.464 124.196 91.464ZM142.811 102L136.307 84.72H138.995L144.371 99.6L149.771 84.72H152.315L145.787 102H142.811ZM156.354 102.24C153.858 102.24 152.274 100.92 152.274 98.808C152.274 96.624 153.858 95.4 156.786 94.944L160.266 94.392V93.816C160.266 92.256 159.498 91.464 157.818 91.464C156.186 91.464 155.154 92.136 155.01 93.312H152.634C152.85 91.008 154.818 89.52 157.914 89.52C161.106 89.52 162.714 91.008 162.714 93.912V99.648C162.714 100.392 162.81 101.136 163.002 102H160.578C160.458 101.496 160.386 100.92 160.386 100.104C159.69 101.472 158.25 102.24 156.354 102.24ZM154.722 98.592C154.722 99.696 155.514 100.272 156.93 100.272C158.85 100.272 160.266 99.24 160.266 97.824V96.144L157.17 96.624C155.538 96.864 154.722 97.464 154.722 98.592ZM166.096 102V84.72H168.592V102H166.096ZM176.08 102.24C173.584 102.24 171.952 100.56 171.952 98.208V89.76H174.448V97.632C174.448 99.312 175.288 100.152 176.848 100.152C178.888 100.152 180.424 98.616 180.424 96.36V89.76H182.896V102H180.52V99.696C179.656 101.28 178.024 102.24 176.08 102.24ZM191.626 102.24C187.93 102.24 185.386 99.6 185.386 95.856C185.386 92.088 187.906 89.52 191.602 89.52C195.154 89.52 197.41 91.896 197.41 95.568C197.41 95.952 197.386 96.264 197.338 96.624H187.93C188.17 98.928 189.538 100.296 191.674 100.296C193.09 100.296 194.218 99.696 194.722 98.544H197.074C196.258 100.848 194.29 102.24 191.626 102.24ZM191.602 91.464C189.658 91.464 188.314 92.688 187.978 94.752H194.914C194.698 92.616 193.522 91.464 191.602 91.464Z" fill="#0B0E18"/>
<path d="M28.752 131.192C27.9307 131.192 27.216 131.043 26.608 130.744C26 130.445 25.5307 130.029 25.2 129.496C24.8693 128.963 24.704 128.344 24.704 127.64H26.112C26.112 128.077 26.2133 128.483 26.416 128.856C26.6187 129.219 26.912 129.512 27.296 129.736C27.6907 129.949 28.176 130.056 28.752 130.056C29.5093 130.056 30.096 129.875 30.512 129.512C30.928 129.149 31.136 128.696 31.136 128.152C31.136 127.704 31.04 127.347 30.848 127.08C30.656 126.803 30.3947 126.579 30.064 126.408C29.744 126.237 29.3707 126.088 28.944 125.96C28.528 125.832 28.0907 125.688 27.632 125.528C26.768 125.229 26.128 124.861 25.712 124.424C25.296 123.976 25.088 123.395 25.088 122.68C25.0773 122.083 25.216 121.555 25.504 121.096C25.792 120.627 26.1973 120.264 26.72 120.008C27.2533 119.741 27.8827 119.608 28.608 119.608C29.3227 119.608 29.9413 119.741 30.464 120.008C30.9973 120.275 31.408 120.643 31.696 121.112C31.9947 121.581 32.1493 122.115 32.16 122.712H30.752C30.752 122.403 30.672 122.099 30.512 121.8C30.352 121.491 30.1067 121.24 29.776 121.048C29.456 120.856 29.0507 120.76 28.56 120.76C27.952 120.749 27.4507 120.904 27.056 121.224C26.672 121.544 26.48 121.987 26.48 122.552C26.48 123.032 26.6133 123.4 26.88 123.656C27.1573 123.912 27.5413 124.125 28.032 124.296C28.5227 124.456 29.088 124.643 29.728 124.856C30.2613 125.048 30.7413 125.272 31.168 125.528C31.5947 125.784 31.9253 126.115 32.16 126.52C32.4053 126.925 32.528 127.443 32.528 128.072C32.528 128.605 32.3893 129.112 32.112 129.592C31.8347 130.061 31.4133 130.445 30.848 130.744C30.2933 131.043 29.5947 131.192 28.752 131.192ZM36.994 131.192C36.3327 131.192 35.7833 131.08 35.346 130.856C34.9087 130.632 34.5833 130.333 34.37 129.96C34.1567 129.587 34.05 129.181 34.05 128.744C34.05 127.933 34.3593 127.309 34.978 126.872C35.5967 126.435 36.4393 126.216 37.506 126.216H39.65V126.12C39.65 125.427 39.4687 124.904 39.106 124.552C38.7433 124.189 38.258 124.008 37.65 124.008C37.1273 124.008 36.674 124.141 36.29 124.408C35.9167 124.664 35.682 125.043 35.586 125.544H34.21C34.2633 124.968 34.4553 124.483 34.786 124.088C35.1273 123.693 35.5487 123.395 36.05 123.192C36.5513 122.979 37.0847 122.872 37.65 122.872C38.7593 122.872 39.5913 123.171 40.146 123.768C40.7113 124.355 40.994 125.139 40.994 126.12V131H39.794L39.714 129.576C39.49 130.024 39.1593 130.408 38.722 130.728C38.2953 131.037 37.7193 131.192 36.994 131.192ZM37.202 130.056C37.714 130.056 38.1513 129.923 38.514 129.656C38.8873 129.389 39.17 129.043 39.362 128.616C39.554 128.189 39.65 127.741 39.65 127.272V127.256H37.618C36.8287 127.256 36.2687 127.395 35.938 127.672C35.618 127.939 35.458 128.275 35.458 128.68C35.458 129.096 35.6073 129.432 35.906 129.688C36.2153 129.933 36.6473 130.056 37.202 130.056ZM45.0014 131L41.9934 123.064H43.4014L45.7854 129.704L48.1854 123.064H49.5614L46.5534 131H45.0014ZM51.8731 121.304C51.6065 121.304 51.3825 121.219 51.2011 121.048C51.0305 120.867 50.9451 120.643 50.9451 120.376C50.9451 120.12 51.0305 119.907 51.2011 119.736C51.3825 119.565 51.6065 119.48 51.8731 119.48C52.1291 119.48 52.3478 119.565 52.5291 119.736C52.7105 119.907 52.8011 120.12 52.8011 120.376C52.8011 120.643 52.7105 120.867 52.5291 121.048C52.3478 121.219 52.1291 121.304 51.8731 121.304ZM51.2011 131V123.064H52.5451V131H51.2011ZM54.8853 131V123.064H56.1013L56.1813 124.488C56.4373 123.987 56.8053 123.592 57.2853 123.304C57.7653 123.016 58.3093 122.872 58.9173 122.872C59.8559 122.872 60.6026 123.16 61.1573 123.736C61.7226 124.301 62.0052 125.176 62.0052 126.36V131H60.6613V126.504C60.6613 124.851 59.9786 124.024 58.6133 124.024C57.9306 124.024 57.3599 124.275 56.9013 124.776C56.4533 125.267 56.2293 125.971 56.2293 126.888V131H54.8853ZM67.1775 128.504C66.7295 128.504 66.3188 128.445 65.9455 128.328L65.1455 129.08C65.2628 129.165 65.4068 129.24 65.5775 129.304C65.7588 129.357 66.0148 129.411 66.3455 129.464C66.6762 129.507 67.1402 129.555 67.7375 129.608C68.8042 129.683 69.5668 129.928 70.0255 130.344C70.4842 130.76 70.7135 131.304 70.7135 131.976C70.7135 132.435 70.5855 132.872 70.3295 133.288C70.0842 133.704 69.7002 134.045 69.1775 134.312C68.6655 134.579 68.0042 134.712 67.1935 134.712C66.4788 134.712 65.8442 134.616 65.2895 134.424C64.7348 134.243 64.3028 133.96 63.9935 133.576C63.6842 133.203 63.5295 132.728 63.5295 132.152C63.5295 131.853 63.6095 131.528 63.7695 131.176C63.9295 130.835 64.2282 130.509 64.6655 130.2C64.4308 130.104 64.2282 130.003 64.0575 129.896C63.8975 129.779 63.7482 129.651 63.6095 129.512V129.144L64.9695 127.8C64.3402 127.267 64.0255 126.563 64.0255 125.688C64.0255 125.165 64.1482 124.691 64.3935 124.264C64.6388 123.837 64.9962 123.501 65.4655 123.256C65.9348 123 66.5055 122.872 67.1775 122.872C67.6362 122.872 68.0522 122.936 68.4255 123.064H71.3535V124.072L69.8655 124.136C70.1748 124.584 70.3295 125.101 70.3295 125.688C70.3295 126.211 70.2015 126.685 69.9455 127.112C69.7002 127.539 69.3428 127.88 68.8735 128.136C68.4148 128.381 67.8495 128.504 67.1775 128.504ZM67.1775 127.4C67.7428 127.4 68.1908 127.256 68.5215 126.968C68.8628 126.669 69.0335 126.243 69.0335 125.688C69.0335 125.144 68.8628 124.728 68.5215 124.44C68.1908 124.141 67.7428 123.992 67.1775 123.992C66.6015 123.992 66.1428 124.141 65.8015 124.44C65.4708 124.728 65.3055 125.144 65.3055 125.688C65.3055 126.243 65.4708 126.669 65.8015 126.968C66.1428 127.256 66.6015 127.4 67.1775 127.4ZM64.8415 132.024C64.8415 132.557 65.0655 132.952 65.5135 133.208C65.9615 133.475 66.5215 133.608 67.1935 133.608C67.8548 133.608 68.3828 133.464 68.7775 133.176C69.1828 132.888 69.3855 132.504 69.3855 132.024C69.3855 131.683 69.2468 131.384 68.9695 131.128C68.6922 130.883 68.1802 130.739 67.4335 130.696C66.8468 130.653 66.3402 130.6 65.9135 130.536C65.4762 130.771 65.1882 131.021 65.0495 131.288C64.9108 131.565 64.8415 131.811 64.8415 132.024ZM75.9096 131.192C74.9603 131.192 74.171 130.952 73.5416 130.472C72.9123 129.992 72.5443 129.341 72.4376 128.52H73.8136C73.899 128.936 74.1176 129.299 74.4696 129.608C74.8323 129.907 75.3176 130.056 75.9256 130.056C76.491 130.056 76.907 129.939 77.1736 129.704C77.4403 129.459 77.5736 129.171 77.5736 128.84C77.5736 128.36 77.3976 128.04 77.0456 127.88C76.7043 127.72 76.219 127.576 75.5896 127.448C75.163 127.363 74.7363 127.24 74.3096 127.08C73.883 126.92 73.5256 126.696 73.2376 126.408C72.9496 126.109 72.8056 125.72 72.8056 125.24C72.8056 124.547 73.0616 123.981 73.5736 123.544C74.0963 123.096 74.8003 122.872 75.6856 122.872C76.5283 122.872 77.2163 123.085 77.7496 123.512C78.2936 123.928 78.6083 124.525 78.6936 125.304H77.3656C77.3123 124.899 77.1363 124.584 76.8376 124.36C76.5496 124.125 76.1603 124.008 75.6696 124.008C75.1896 124.008 74.8163 124.109 74.5496 124.312C74.2936 124.515 74.1656 124.781 74.1656 125.112C74.1656 125.432 74.331 125.683 74.6616 125.864C75.003 126.045 75.4616 126.2 76.0376 126.328C76.5283 126.435 76.9923 126.568 77.4296 126.728C77.8776 126.877 78.2403 127.107 78.5176 127.416C78.8056 127.715 78.9496 128.152 78.9496 128.728C78.9603 129.443 78.6883 130.035 78.1336 130.504C77.5896 130.963 76.8483 131.192 75.9096 131.192ZM85.92 121.304C85.6533 121.304 85.4293 121.219 85.248 121.048C85.0773 120.867 84.992 120.643 84.992 120.376C84.992 120.12 85.0773 119.907 85.248 119.736C85.4293 119.565 85.6533 119.48 85.92 119.48C86.176 119.48 86.3947 119.565 86.576 119.736C86.7573 119.907 86.848 120.12 86.848 120.376C86.848 120.643 86.7573 120.867 86.576 121.048C86.3947 121.219 86.176 121.304 85.92 121.304ZM85.248 131V123.064H86.592V131H85.248ZM88.9321 131V123.064H90.1481L90.2281 124.488C90.4841 123.987 90.8521 123.592 91.3321 123.304C91.8121 123.016 92.3561 122.872 92.9641 122.872C93.9028 122.872 94.6495 123.16 95.2041 123.736C95.7695 124.301 96.0521 125.176 96.0521 126.36V131H94.7081V126.504C94.7081 124.851 94.0255 124.024 92.6601 124.024C91.9775 124.024 91.4068 124.275 90.9481 124.776C90.5001 125.267 90.2761 125.971 90.2761 126.888V131H88.9321ZM102.403 131V119.8H105.843C107.816 119.8 109.267 120.301 110.195 121.304C111.133 122.307 111.603 123.683 111.603 125.432C111.603 127.149 111.133 128.509 110.195 129.512C109.267 130.504 107.816 131 105.843 131H102.403ZM103.747 129.88H105.811C106.899 129.88 107.763 129.704 108.403 129.352C109.053 128.989 109.517 128.477 109.795 127.816C110.072 127.144 110.211 126.349 110.211 125.432C110.211 124.493 110.072 123.688 109.795 123.016C109.517 122.344 109.053 121.827 108.403 121.464C107.763 121.101 106.899 120.92 105.811 120.92H103.747V129.88ZM116.103 131.192C115.442 131.192 114.893 131.08 114.455 130.856C114.018 130.632 113.693 130.333 113.479 129.96C113.266 129.587 113.159 129.181 113.159 128.744C113.159 127.933 113.469 127.309 114.087 126.872C114.706 126.435 115.549 126.216 116.615 126.216H118.759V126.12C118.759 125.427 118.578 124.904 118.215 124.552C117.853 124.189 117.367 124.008 116.759 124.008C116.237 124.008 115.783 124.141 115.399 124.408C115.026 124.664 114.791 125.043 114.695 125.544H113.319C113.373 124.968 113.565 124.483 113.895 124.088C114.237 123.693 114.658 123.395 115.159 123.192C115.661 122.979 116.194 122.872 116.759 122.872C117.869 122.872 118.701 123.171 119.255 123.768C119.821 124.355 120.103 125.139 120.103 126.12V131H118.903L118.823 129.576C118.599 130.024 118.269 130.408 117.831 130.728C117.405 131.037 116.829 131.192 116.103 131.192ZM116.311 130.056C116.823 130.056 117.261 129.923 117.623 129.656C117.997 129.389 118.279 129.043 118.471 128.616C118.663 128.189 118.759 127.741 118.759 127.272V127.256H116.727C115.938 127.256 115.378 127.395 115.047 127.672C114.727 127.939 114.567 128.275 114.567 128.68C114.567 129.096 114.717 129.432 115.015 129.688C115.325 129.933 115.757 130.056 116.311 130.056ZM125.037 131C124.312 131 123.741 130.824 123.325 130.472C122.909 130.12 122.701 129.485 122.701 128.568V124.2H121.325V123.064H122.701L122.877 121.16H124.045V123.064H126.381V124.2H124.045V128.568C124.045 129.069 124.146 129.411 124.349 129.592C124.552 129.763 124.909 129.848 125.421 129.848H126.253V131H125.037ZM130.728 131.192C130.067 131.192 129.518 131.08 129.08 130.856C128.643 130.632 128.318 130.333 128.104 129.96C127.891 129.587 127.784 129.181 127.784 128.744C127.784 127.933 128.094 127.309 128.712 126.872C129.331 126.435 130.174 126.216 131.24 126.216H133.384V126.12C133.384 125.427 133.203 124.904 132.84 124.552C132.478 124.189 131.992 124.008 131.384 124.008C130.862 124.008 130.408 124.141 130.024 124.408C129.651 124.664 129.416 125.043 129.32 125.544H127.944C127.998 124.968 128.19 124.483 128.52 124.088C128.862 123.693 129.283 123.395 129.784 123.192C130.286 122.979 130.819 122.872 131.384 122.872C132.494 122.872 133.326 123.171 133.88 123.768C134.446 124.355 134.728 125.139 134.728 126.12V131H133.528L133.448 129.576C133.224 130.024 132.894 130.408 132.456 130.728C132.03 131.037 131.454 131.192 130.728 131.192ZM130.936 130.056C131.448 130.056 131.886 129.923 132.248 129.656C132.622 129.389 132.904 129.043 133.096 128.616C133.288 128.189 133.384 127.741 133.384 127.272V127.256H131.352C130.563 127.256 130.003 127.395 129.672 127.672C129.352 127.939 129.192 128.275 129.192 128.68C129.192 129.096 129.342 129.432 129.64 129.688C129.95 129.933 130.382 130.056 130.936 130.056ZM141.059 131V119.8H144.675C145.55 119.8 146.264 119.944 146.819 120.232C147.374 120.52 147.784 120.915 148.051 121.416C148.318 121.917 148.451 122.472 148.451 123.08C148.451 123.784 148.259 124.419 147.875 124.984C147.502 125.549 146.915 125.949 146.115 126.184L148.563 131H146.979L144.707 126.376H144.611H142.403V131H141.059ZM142.403 125.32H144.579C145.443 125.32 146.072 125.112 146.467 124.696C146.862 124.28 147.059 123.747 147.059 123.096C147.059 122.435 146.862 121.912 146.467 121.528C146.083 121.133 145.448 120.936 144.563 120.936H142.403V125.32ZM153.547 131.192C152.79 131.192 152.118 131.021 151.531 130.68C150.944 130.328 150.48 129.843 150.139 129.224C149.808 128.605 149.643 127.875 149.643 127.032C149.643 126.2 149.808 125.475 150.139 124.856C150.47 124.227 150.928 123.741 151.515 123.4C152.112 123.048 152.8 122.872 153.579 122.872C154.347 122.872 155.008 123.048 155.563 123.4C156.128 123.741 156.56 124.195 156.859 124.76C157.158 125.325 157.307 125.933 157.307 126.584C157.307 126.701 157.302 126.819 157.291 126.936C157.291 127.053 157.291 127.187 157.291 127.336H150.971C151.003 127.944 151.142 128.451 151.387 128.856C151.643 129.251 151.958 129.549 152.331 129.752C152.715 129.955 153.12 130.056 153.547 130.056C154.102 130.056 154.566 129.928 154.939 129.672C155.312 129.416 155.584 129.069 155.755 128.632H157.083C156.87 129.368 156.459 129.981 155.851 130.472C155.254 130.952 154.486 131.192 153.547 131.192ZM153.547 124.008C152.907 124.008 152.336 124.205 151.835 124.6C151.344 124.984 151.062 125.549 150.987 126.296H155.979C155.947 125.581 155.702 125.021 155.243 124.616C154.784 124.211 154.219 124.008 153.547 124.008ZM161.959 131C161.233 131 160.663 130.824 160.247 130.472C159.831 130.12 159.623 129.485 159.623 128.568V124.2H158.247V123.064H159.623L159.799 121.16H160.967V123.064H163.303V124.2H160.967V128.568C160.967 129.069 161.068 129.411 161.271 129.592C161.473 129.763 161.831 129.848 162.343 129.848H163.175V131H161.959ZM168.36 131.192C167.602 131.192 166.93 131.021 166.344 130.68C165.757 130.328 165.293 129.843 164.952 129.224C164.621 128.605 164.456 127.875 164.456 127.032C164.456 126.2 164.621 125.475 164.952 124.856C165.282 124.227 165.741 123.741 166.328 123.4C166.925 123.048 167.613 122.872 168.391 122.872C169.16 122.872 169.821 123.048 170.376 123.4C170.941 123.741 171.373 124.195 171.672 124.76C171.97 125.325 172.12 125.933 172.12 126.584C172.12 126.701 172.114 126.819 172.104 126.936C172.104 127.053 172.104 127.187 172.104 127.336H165.784C165.816 127.944 165.954 128.451 166.2 128.856C166.456 129.251 166.77 129.549 167.144 129.752C167.528 129.955 167.933 130.056 168.36 130.056C168.914 130.056 169.378 129.928 169.752 129.672C170.125 129.416 170.397 129.069 170.568 128.632H171.896C171.682 129.368 171.272 129.981 170.664 130.472C170.066 130.952 169.298 131.192 168.36 131.192ZM168.36 124.008C167.72 124.008 167.149 124.205 166.648 124.6C166.157 124.984 165.874 125.549 165.799 126.296H170.792C170.76 125.581 170.514 125.021 170.056 124.616C169.597 124.211 169.032 124.008 168.36 124.008ZM173.901 131V123.064H175.117L175.197 124.488C175.453 123.987 175.821 123.592 176.301 123.304C176.781 123.016 177.325 122.872 177.933 122.872C178.872 122.872 179.618 123.16 180.173 123.736C180.738 124.301 181.021 125.176 181.021 126.36V131H179.677V126.504C179.677 124.851 178.994 124.024 177.629 124.024C176.946 124.024 176.376 124.275 175.917 124.776C175.469 125.267 175.245 125.971 175.245 126.888V131H173.901ZM186.193 131C185.468 131 184.897 130.824 184.481 130.472C184.065 130.12 183.857 129.485 183.857 128.568V124.2H182.481V123.064H183.857L184.033 121.16H185.201V123.064H187.537V124.2H185.201V128.568C185.201 129.069 185.302 129.411 185.505 129.592C185.708 129.763 186.065 129.848 186.577 129.848H187.409V131H186.193ZM190.061 121.304C189.794 121.304 189.57 121.219 189.389 121.048C189.218 120.867 189.133 120.643 189.133 120.376C189.133 120.12 189.218 119.907 189.389 119.736C189.57 119.565 189.794 119.48 190.061 119.48C190.317 119.48 190.535 119.565 190.717 119.736C190.898 119.907 190.989 120.12 190.989 120.376C190.989 120.643 190.898 120.867 190.717 121.048C190.535 121.219 190.317 121.304 190.061 121.304ZM189.389 131V123.064H190.733V131H189.389ZM196.689 131.192C195.942 131.192 195.27 131.021 194.673 130.68C194.075 130.339 193.601 129.859 193.249 129.24C192.907 128.611 192.737 127.875 192.737 127.032C192.737 126.189 192.913 125.459 193.265 124.84C193.617 124.211 194.091 123.725 194.689 123.384C195.297 123.043 195.974 122.872 196.721 122.872C197.467 122.872 198.139 123.043 198.737 123.384C199.334 123.725 199.803 124.211 200.145 124.84C200.497 125.459 200.673 126.189 200.673 127.032C200.673 127.875 200.497 128.611 200.145 129.24C199.793 129.859 199.313 130.339 198.705 130.68C198.107 131.021 197.435 131.192 196.689 131.192ZM196.689 130.04C197.147 130.04 197.574 129.928 197.969 129.704C198.363 129.48 198.683 129.144 198.929 128.696C199.174 128.248 199.297 127.693 199.297 127.032C199.297 126.371 199.174 125.816 198.929 125.368C198.694 124.92 198.379 124.584 197.985 124.36C197.59 124.136 197.169 124.024 196.721 124.024C196.262 124.024 195.835 124.136 195.441 124.36C195.046 124.584 194.726 124.92 194.481 125.368C194.235 125.816 194.113 126.371 194.113 127.032C194.113 127.693 194.235 128.248 194.481 128.696C194.726 129.144 195.041 129.48 195.425 129.704C195.819 129.928 196.241 130.04 196.689 130.04ZM202.542 131V123.064H203.758L203.838 124.488C204.094 123.987 204.462 123.592 204.942 123.304C205.422 123.016 205.966 122.872 206.574 122.872C207.512 122.872 208.259 123.16 208.814 123.736C209.379 124.301 209.661 125.176 209.661 126.36V131H208.318V126.504C208.318 124.851 207.635 124.024 206.27 124.024C205.587 124.024 205.016 124.275 204.558 124.776C204.11 125.267 203.886 125.971 203.886 126.888V131H202.542ZM220.924 131.192C219.825 131.192 218.876 130.952 218.076 130.472C217.287 129.981 216.673 129.304 216.236 128.44C215.799 127.565 215.58 126.552 215.58 125.4C215.58 124.259 215.799 123.256 216.236 122.392C216.673 121.517 217.287 120.835 218.076 120.344C218.876 119.853 219.825 119.608 220.924 119.608C222.204 119.608 223.244 119.917 224.044 120.536C224.855 121.144 225.372 121.997 225.596 123.096H224.108C223.937 122.403 223.585 121.848 223.052 121.432C222.529 121.005 221.82 120.792 220.924 120.792C220.124 120.792 219.425 120.979 218.828 121.352C218.231 121.715 217.767 122.243 217.436 122.936C217.116 123.619 216.956 124.44 216.956 125.4C216.956 126.36 217.116 127.187 217.436 127.88C217.767 128.563 218.231 129.091 218.828 129.464C219.425 129.827 220.124 130.008 220.924 130.008C221.82 130.008 222.529 129.805 223.052 129.4C223.585 128.984 223.937 128.435 224.108 127.752H225.596C225.372 128.829 224.855 129.672 224.044 130.28C223.244 130.888 222.204 131.192 220.924 131.192ZM231.064 131.192C230.317 131.192 229.645 131.021 229.048 130.68C228.45 130.339 227.976 129.859 227.624 129.24C227.282 128.611 227.112 127.875 227.112 127.032C227.112 126.189 227.288 125.459 227.64 124.84C227.992 124.211 228.466 123.725 229.064 123.384C229.672 123.043 230.349 122.872 231.096 122.872C231.842 122.872 232.514 123.043 233.112 123.384C233.709 123.725 234.178 124.211 234.52 124.84C234.872 125.459 235.048 126.189 235.048 127.032C235.048 127.875 234.872 128.611 234.52 129.24C234.168 129.859 233.688 130.339 233.08 130.68C232.482 131.021 231.81 131.192 231.064 131.192ZM231.064 130.04C231.522 130.04 231.949 129.928 232.344 129.704C232.738 129.48 233.058 129.144 233.304 128.696C233.549 128.248 233.672 127.693 233.672 127.032C233.672 126.371 233.549 125.816 233.304 125.368C233.069 124.92 232.754 124.584 232.36 124.36C231.965 124.136 231.544 124.024 231.096 124.024C230.637 124.024 230.21 124.136 229.816 124.36C229.421 124.584 229.101 124.92 228.856 125.368C228.61 125.816 228.488 126.371 228.488 127.032C228.488 127.693 228.61 128.248 228.856 128.696C229.101 129.144 229.416 129.48 229.8 129.704C230.194 129.928 230.616 130.04 231.064 130.04ZM239.957 131.192C239.007 131.192 238.218 130.952 237.589 130.472C236.959 129.992 236.591 129.341 236.485 128.52H237.861C237.946 128.936 238.165 129.299 238.517 129.608C238.879 129.907 239.365 130.056 239.973 130.056C240.538 130.056 240.954 129.939 241.221 129.704C241.487 129.459 241.621 129.171 241.621 128.84C241.621 128.36 241.445 128.04 241.093 127.88C240.751 127.72 240.266 127.576 239.637 127.448C239.21 127.363 238.783 127.24 238.357 127.08C237.93 126.92 237.573 126.696 237.285 126.408C236.997 126.109 236.853 125.72 236.853 125.24C236.853 124.547 237.109 123.981 237.621 123.544C238.143 123.096 238.847 122.872 239.733 122.872C240.575 122.872 241.263 123.085 241.797 123.512C242.341 123.928 242.655 124.525 242.741 125.304H241.413C241.359 124.899 241.183 124.584 240.885 124.36C240.597 124.125 240.207 124.008 239.717 124.008C239.237 124.008 238.863 124.109 238.597 124.312C238.341 124.515 238.213 124.781 238.213 125.112C238.213 125.432 238.378 125.683 238.709 125.864C239.05 126.045 239.509 126.2 240.085 126.328C240.575 126.435 241.039 126.568 241.477 126.728C241.925 126.877 242.287 127.107 242.565 127.416C242.853 127.715 242.997 128.152 242.997 128.728C243.007 129.443 242.735 130.035 242.181 130.504C241.637 130.963 240.895 131.192 239.957 131.192ZM247.693 131C246.968 131 246.397 130.824 245.981 130.472C245.565 130.12 245.357 129.485 245.357 128.568V124.2H243.981V123.064H245.357L245.533 121.16H246.701V123.064H249.037V124.2H246.701V128.568C246.701 129.069 246.802 129.411 247.005 129.592C247.208 129.763 247.565 129.848 248.077 129.848H248.909V131H247.693ZM253.785 131.192C252.835 131.192 252.046 130.952 251.417 130.472C250.787 129.992 250.419 129.341 250.313 128.52H251.689C251.774 128.936 251.993 129.299 252.345 129.608C252.707 129.907 253.193 130.056 253.801 130.056C254.366 130.056 254.782 129.939 255.049 129.704C255.315 129.459 255.449 129.171 255.449 128.84C255.449 128.36 255.273 128.04 254.921 127.88C254.579 127.72 254.094 127.576 253.465 127.448C253.038 127.363 252.611 127.24 252.185 127.08C251.758 126.92 251.401 126.696 251.113 126.408C250.825 126.109 250.681 125.72 250.681 125.24C250.681 124.547 250.937 123.981 251.449 123.544C251.971 123.096 252.675 122.872 253.561 122.872C254.403 122.872 255.091 123.085 255.625 123.512C256.169 123.928 256.483 124.525 256.569 125.304H255.241C255.187 124.899 255.011 124.584 254.713 124.36C254.425 124.125 254.035 124.008 253.545 124.008C253.065 124.008 252.691 124.109 252.425 124.312C252.169 124.515 252.041 124.781 252.041 125.112C252.041 125.432 252.206 125.683 252.537 125.864C252.878 126.045 253.337 126.2 253.913 126.328C254.403 126.435 254.867 126.568 255.305 126.728C255.753 126.877 256.115 127.107 256.393 127.416C256.681 127.715 256.825 128.152 256.825 128.728C256.835 129.443 256.563 130.035 256.009 130.504C255.465 130.963 254.723 131.192 253.785 131.192Z" fill="#474E60"/>
<g clip-path="url(#clip1_329_20427)">
<path d="M392.25 186.055L392.189 184.056L390.19 184.117L56.3471 194.365C46.4107 194.67 38.6029 202.973 38.9079 212.909L43.2852 355.504L43.3465 357.503L45.3456 357.442L395.181 346.703L397.18 346.642L397.118 344.643L392.25 186.055Z" fill="white"/>
<path d="M392.25 186.055L392.189 184.056L390.19 184.117L56.3471 194.365C46.4107 194.67 38.6029 202.973 38.9079 212.909L43.2852 355.504L43.3465 357.503L45.3456 357.442L395.181 346.703L397.18 346.642L397.118 344.643L392.25 186.055Z" stroke="#0B0E18" stroke-width="4"/>
<path d="M69.9148 254.377C64.1176 254.555 60.3786 251.388 59.4219 246.295L63.7799 246.162C64.4753 249.262 66.7695 250.992 69.6881 250.903C72.7667 250.808 75.1054 248.775 74.9753 244.537C74.8452 240.299 72.5 238.21 69.2216 238.311C66.9826 238.38 65.2154 239.474 64.5411 240.976L60.7029 241.094L61.6224 225.418L77.255 224.938L77.3618 228.416L65.4874 228.781L65.1331 236.796C66.2631 235.8 67.9239 235.149 70.0429 235.084C75.4404 234.918 79.3103 238.441 79.4932 244.399C79.6797 250.476 75.912 254.193 69.9148 254.377ZM94.7481 253.615C87.7914 253.828 82.8447 247.817 82.5759 239.061C82.3096 230.386 86.8432 224.244 93.8399 224.029C100.757 223.816 105.697 229.628 105.965 238.344C106.235 247.139 101.625 253.404 94.7481 253.615ZM94.6365 249.977C99.2343 249.835 101.614 245.24 101.406 238.443C101.2 231.727 98.5894 227.525 93.9516 227.667C89.2738 227.811 86.9275 232.205 87.1325 238.882C87.3424 245.718 90.0386 250.118 94.6365 249.977ZM115.168 238.141C111.73 238.247 108.619 235.981 108.464 230.943C108.311 225.946 111.237 223.495 114.715 223.388C118.274 223.279 121.305 225.547 121.458 230.544C121.613 235.582 118.607 238.035 115.168 238.141ZM111.014 252.715L131.48 223.274L135.198 223.159L114.772 252.6L111.014 252.715ZM115.089 235.542C117.048 235.482 118.475 233.758 118.378 230.599C118.285 227.56 116.794 225.925 114.795 225.987C112.756 226.049 111.447 227.73 111.542 230.809C111.639 233.967 113.049 235.605 115.089 235.542ZM131.216 252.495C127.818 252.6 124.667 250.335 124.512 245.298C124.359 240.3 127.285 237.849 130.763 237.742C134.362 237.632 137.393 239.9 137.546 244.898C137.701 249.935 134.655 252.39 131.216 252.495ZM131.137 249.897C133.136 249.835 134.562 248.071 134.466 244.952C134.373 241.914 132.882 240.279 130.843 240.341C128.804 240.404 127.535 242.083 127.63 245.162C127.727 248.321 129.097 249.959 131.137 249.897Z" fill="#0B0E18"/>
<path d="M60.3227 285.286L59.9791 274.091L61.5463 274.043L65.816 281.724L69.5746 273.797L71.1578 273.748L71.5015 284.943L70.1581 284.984L69.8881 276.188L66.3668 283.5L65.3592 283.531L61.3966 276.465L61.6661 285.245L60.3227 285.286ZM76.4279 284.984C75.7669 285.004 75.2144 284.909 74.7704 284.698C74.3264 284.488 73.992 284.199 73.7673 283.833C73.5427 283.466 73.4236 283.064 73.4102 282.627C73.3853 281.817 73.6754 281.184 74.2803 280.728C74.8853 280.272 75.7208 280.027 76.787 279.994L78.93 279.929L78.927 279.833C78.9058 279.14 78.7085 278.623 78.3352 278.282C77.9616 277.931 77.4709 277.764 76.8632 277.783C76.3408 277.799 75.8917 277.946 75.5161 278.225C75.1508 278.492 74.9278 278.878 74.8473 279.382L73.4719 279.424C73.5076 278.846 73.6846 278.355 74.003 277.951C74.332 277.546 74.744 277.234 75.2389 277.016C75.7334 276.788 76.2633 276.665 76.8283 276.648C77.9371 276.614 78.7779 276.887 79.3506 277.467C79.9337 278.036 80.2403 278.811 80.2704 279.791L80.4201 284.669L79.2207 284.706L79.097 283.285C78.8869 283.74 78.5682 284.134 78.1409 284.467C77.7239 284.789 77.1529 284.962 76.4279 284.984ZM76.601 283.842C77.1127 283.826 77.5457 283.68 77.9001 283.402C78.265 283.124 78.5369 282.769 78.7158 282.336C78.8946 281.904 78.9768 281.453 78.9624 280.984L78.9619 280.968L76.9308 281.03C76.1419 281.055 75.5864 281.21 75.2644 281.498C74.9527 281.774 74.8031 282.115 74.8156 282.52C74.8283 282.936 74.9879 283.267 75.2943 283.514C75.611 283.75 76.0465 283.859 76.601 283.842ZM81.6358 284.632L84.2648 280.581L81.3923 276.7L82.8476 276.655L85.1712 279.865L87.3095 276.518L88.7488 276.474L86.1199 280.524L88.9923 284.406L87.553 284.45L85.2134 281.24L83.0911 284.587L81.6358 284.632ZM90.9185 274.646C90.652 274.654 90.4255 274.576 90.239 274.411C90.0629 274.235 89.9707 274.014 89.9625 273.747C89.9547 273.491 90.0334 273.275 90.1988 273.1C90.3748 272.923 90.596 272.831 90.8626 272.823C91.1185 272.815 91.3396 272.894 91.5261 273.059C91.7126 273.224 91.8098 273.434 91.8176 273.69C91.8258 273.957 91.7421 274.183 91.5664 274.37C91.3904 274.546 91.1744 274.638 90.9185 274.646ZM90.5444 284.358L90.3009 276.426L91.6442 276.385L91.8877 284.317L90.5444 284.358ZM94.2268 284.245L93.9833 276.313L95.1987 276.276L95.33 277.424C95.5728 276.99 95.9038 276.649 96.3231 276.401C96.7423 276.154 97.2185 276.022 97.7516 276.005C98.3806 275.986 98.923 276.097 99.3786 276.339C99.8449 276.581 100.209 276.96 100.47 277.475C100.732 276.986 101.099 276.596 101.571 276.304C102.052 276.012 102.576 275.857 103.141 275.84C104.09 275.811 104.856 276.075 105.438 276.634C106.021 277.181 106.33 278.047 106.367 279.23L106.509 283.868L105.182 283.909L105.044 279.415C105.018 278.594 104.834 277.981 104.491 277.575C104.148 277.17 103.667 276.976 103.048 276.995C102.409 277.015 101.883 277.282 101.472 277.796C101.072 278.299 100.885 279.009 100.913 279.926L101.04 284.036L99.6962 284.077L99.5582 279.584C99.533 278.763 99.3488 278.149 99.0055 277.744C98.6622 277.338 98.1814 277.145 97.563 277.164C96.934 277.183 96.4139 277.45 96.0029 277.964C95.6021 278.467 95.4158 279.177 95.444 280.094L95.5701 284.204L94.2268 284.245ZM109.051 274.09C108.784 274.098 108.558 274.019 108.371 273.854C108.195 273.678 108.103 273.457 108.095 273.191C108.087 272.935 108.165 272.719 108.331 272.543C108.507 272.367 108.728 272.275 108.995 272.267C109.251 272.259 109.472 272.337 109.658 272.502C109.845 272.667 109.942 272.878 109.95 273.134C109.958 273.4 109.874 273.627 109.698 273.814C109.522 273.99 109.307 274.082 109.051 274.09ZM108.676 283.802L108.433 275.869L109.776 275.828L110.02 283.76L108.676 283.802ZM111.815 283.705L111.781 282.602L116.02 276.757L111.686 276.89L111.652 275.771L117.489 275.591L117.523 276.695L113.284 282.54L117.778 282.402L117.812 283.521L111.815 283.705ZM123.162 283.549C122.405 283.572 121.728 283.422 121.131 283.099C120.534 282.765 120.055 282.295 119.695 281.687C119.346 281.078 119.158 280.353 119.132 279.511C119.107 278.679 119.25 277.949 119.561 277.321C119.872 276.682 120.316 276.182 120.892 275.823C121.478 275.453 122.16 275.256 122.939 275.232C123.706 275.209 124.373 275.364 124.938 275.699C125.514 276.023 125.959 276.463 126.275 277.019C126.591 277.574 126.759 278.178 126.779 278.828C126.782 278.945 126.781 279.063 126.774 279.18C126.777 279.298 126.781 279.431 126.786 279.58L120.469 279.774C120.52 280.381 120.674 280.883 120.931 281.281C121.199 281.667 121.523 281.956 121.902 282.147C122.292 282.338 122.701 282.427 123.127 282.414C123.682 282.397 124.141 282.254 124.507 281.987C124.872 281.72 125.133 281.365 125.29 280.923L126.618 280.882C126.427 281.624 126.036 282.25 125.443 282.759C124.861 283.257 124.1 283.52 123.162 283.549ZM122.942 276.369C122.302 276.388 121.738 276.603 121.249 277.013C120.77 277.412 120.505 277.985 120.453 278.734L125.443 278.581C125.389 277.867 125.126 277.315 124.655 276.924C124.185 276.533 123.613 276.348 122.942 276.369ZM135.214 282.987L131.964 275.147L133.371 275.104L135.958 281.668L138.153 274.957L139.529 274.915L136.765 282.939L135.214 282.987ZM143.506 282.925C142.845 282.945 142.292 282.85 141.848 282.639C141.404 282.429 141.07 282.14 140.845 281.774C140.62 281.407 140.501 281.005 140.488 280.568C140.463 279.758 140.753 279.125 141.358 278.669C141.963 278.212 142.799 277.968 143.865 277.935L146.008 277.87L146.005 277.774C145.984 277.081 145.786 276.564 145.413 276.223C145.039 275.872 144.549 275.705 143.941 275.724C143.419 275.74 142.97 275.887 142.594 276.165C142.229 276.433 142.006 276.818 141.925 277.323L140.55 277.365C140.585 276.787 140.762 276.296 141.081 275.892C141.41 275.487 141.822 275.175 142.317 274.957C142.811 274.729 143.341 274.606 143.906 274.588C145.015 274.554 145.856 274.827 146.428 275.407C147.011 275.976 147.318 276.751 147.348 277.732L147.498 282.61L146.298 282.647L146.175 281.226C145.965 281.681 145.646 282.075 145.219 282.408C144.802 282.73 144.231 282.902 143.506 282.925ZM143.679 281.783C144.19 281.767 144.624 281.62 144.978 281.343C145.343 281.065 145.615 280.71 145.794 280.277C145.972 279.845 146.055 279.394 146.04 278.925L146.04 278.909L144.009 278.971C143.22 278.996 142.664 279.151 142.342 279.439C142.031 279.715 141.881 280.056 141.893 280.461C141.906 280.877 142.066 281.208 142.372 281.455C142.689 281.69 143.124 281.8 143.679 281.783ZM149.513 282.548L149.16 271.034L150.503 270.992L150.857 282.507L149.513 282.548ZM155.959 282.542C155.021 282.571 154.266 282.312 153.694 281.764C153.122 281.205 152.818 280.334 152.781 279.15L152.639 274.512L153.982 274.471L154.12 278.965C154.171 280.618 154.873 281.423 156.227 281.382C156.92 281.36 157.483 281.098 157.916 280.593C158.359 280.078 158.567 279.362 158.538 278.445L158.412 274.335L159.756 274.294L159.999 282.226L158.784 282.264L158.644 280.843C158.414 281.352 158.059 281.758 157.577 282.061C157.106 282.363 156.567 282.524 155.959 282.542ZM165.783 282.241C165.026 282.264 164.349 282.114 163.752 281.791C163.155 281.457 162.676 280.986 162.316 280.378C161.966 279.77 161.779 279.045 161.753 278.203C161.727 277.371 161.87 276.641 162.182 276.012C162.493 275.373 162.937 274.874 163.512 274.515C164.099 274.145 164.781 273.948 165.559 273.924C166.327 273.9 166.993 274.056 167.559 274.391C168.134 274.714 168.58 275.154 168.896 275.71C169.212 276.266 169.379 276.869 169.399 277.52C169.403 277.637 169.401 277.754 169.394 277.872C169.398 277.989 169.402 278.122 169.406 278.272L163.089 278.466C163.14 279.072 163.294 279.575 163.552 279.972C163.82 280.359 164.144 280.648 164.523 280.839C164.913 281.03 165.321 281.118 165.748 281.105C166.302 281.088 166.762 280.946 167.127 280.679C167.493 280.411 167.754 280.057 167.911 279.614L169.238 279.574C169.048 280.316 168.656 280.941 168.063 281.45C167.481 281.949 166.721 282.212 165.783 282.241ZM165.562 275.06C164.922 275.08 164.358 275.295 163.869 275.704C163.39 276.103 163.125 276.677 163.074 277.426L168.063 277.273C168.009 276.559 167.747 276.007 167.276 275.616C166.805 275.225 166.234 275.04 165.562 275.06ZM179.68 281.814C178.912 281.838 178.209 281.71 177.571 281.431C176.943 281.141 176.433 280.681 176.04 280.053C175.647 279.425 175.436 278.615 175.405 277.623L175.188 270.555L176.532 270.513L176.749 277.598C176.782 278.686 177.068 279.467 177.605 279.941C178.143 280.415 178.833 280.64 179.675 280.614C180.517 280.588 181.187 280.322 181.683 279.816C182.18 279.31 182.412 278.513 182.378 277.425L182.161 270.341L183.504 270.299L183.721 277.368C183.752 278.36 183.59 279.181 183.237 279.832C182.883 280.483 182.397 280.973 181.777 281.302C181.157 281.619 180.458 281.79 179.68 281.814ZM186.151 284.945L185.799 273.495L187.015 273.457L187.183 274.765C187.427 274.373 187.779 274.015 188.239 273.692C188.709 273.368 189.312 273.195 190.047 273.172C190.836 273.148 191.53 273.308 192.127 273.652C192.725 273.997 193.193 274.479 193.532 275.098C193.882 275.717 194.069 276.426 194.094 277.226C194.118 278.025 193.975 278.745 193.664 279.384C193.363 280.012 192.92 280.517 192.334 280.898C191.758 281.267 191.076 281.464 190.287 281.489C189.636 281.509 189.051 281.393 188.531 281.142C188.022 280.891 187.627 280.53 187.346 280.058L187.494 284.904L186.151 284.945ZM190.107 280.326C190.64 280.309 191.105 280.172 191.503 279.915C191.9 279.646 192.209 279.285 192.43 278.83C192.651 278.375 192.752 277.849 192.734 277.252C192.716 276.654 192.582 276.136 192.334 275.695C192.086 275.254 191.755 274.918 191.343 274.685C190.93 274.442 190.456 274.328 189.923 274.344C189.39 274.361 188.925 274.503 188.528 274.771C188.13 275.029 187.821 275.385 187.6 275.84C187.379 276.295 187.278 276.821 187.296 277.418C187.315 278.015 187.448 278.534 187.696 278.975C187.945 279.415 188.275 279.758 188.688 280.001C189.101 280.234 189.574 280.342 190.107 280.326ZM203.452 280.892C202.727 280.915 202.151 280.756 201.725 280.417C201.298 280.078 201.071 279.45 201.042 278.533L200.908 274.167L199.533 274.209L199.498 273.074L200.874 273.032L200.991 271.123L202.158 271.087L202.217 272.991L204.552 272.919L204.587 274.054L202.252 274.126L202.386 278.492C202.401 278.993 202.513 279.331 202.721 279.506C202.929 279.671 203.289 279.745 203.8 279.729L204.632 279.704L204.667 280.855L203.452 280.892ZM209.904 280.886C209.157 280.909 208.48 280.759 207.873 280.437C207.265 280.114 206.776 279.648 206.405 279.041C206.045 278.422 205.852 277.692 205.826 276.85C205.8 276.007 205.953 275.272 206.286 274.642C206.619 274.003 207.078 273.503 207.665 273.143C208.262 272.784 208.934 272.592 209.68 272.569C210.427 272.546 211.103 272.696 211.711 273.019C212.319 273.342 212.803 273.813 213.163 274.431C213.534 275.039 213.732 275.764 213.758 276.606C213.784 277.448 213.631 278.189 213.298 278.829C212.965 279.458 212.5 279.953 211.903 280.313C211.316 280.672 210.65 280.864 209.904 280.886ZM209.868 279.735C210.327 279.721 210.75 279.596 211.137 279.36C211.525 279.124 211.834 278.778 212.066 278.323C212.297 277.868 212.403 277.309 212.383 276.648C212.362 275.987 212.223 275.437 211.964 274.996C211.715 274.556 211.391 274.23 210.989 274.018C210.588 273.806 210.163 273.707 209.716 273.721C209.257 273.735 208.834 273.86 208.446 274.096C208.059 274.332 207.749 274.678 207.518 275.133C207.286 275.588 207.181 276.146 207.201 276.807C207.221 277.468 207.361 278.019 207.62 278.459C207.879 278.9 208.204 279.226 208.594 279.438C208.996 279.65 209.42 279.749 209.868 279.735Z" fill="#474E60"/>
<g clip-path="url(#clip2_329_20427)">
<rect x="59.5381" y="298.316" width="214" height="20" rx="10" transform="rotate(-1.75827 59.5381 298.316)" fill="url(#paint0_linear_329_20427)"/>
<rect x="112.307" y="264.681" width="160.224" height="84" transform="rotate(-1.75827 112.307 264.681)" fill="white"/>
<rect x="112.307" y="264.681" width="160.224" height="84" transform="rotate(-1.75827 112.307 264.681)" fill="url(#paint1_linear_329_20427)"/>
</g>
</g>
</g>
<defs>
<filter id="filter0_d_329_20427" x="176" y="3" width="116" height="100" filterUnits="userSpaceOnUse" color-interpolation-filters="sRGB">
<feFlood flood-opacity="0" result="BackgroundImageFix"/>
<feColorMatrix in="SourceAlpha" type="matrix" values="0 0 0 0 0 0 0 0 0 0 0 0 0 0 0 0 0 0 127 0" result="hardAlpha"/>
<feOffset dy="9"/>
<feGaussianBlur stdDeviation="15"/>
<feComposite in2="hardAlpha" operator="out"/>
<feColorMatrix type="matrix" values="0 0 0 0 0.25893 0 0 0 0 0.545833 0 0 0 0 0.0841493 0 0 0 0.35 0"/>
<feBlend mode="normal" in2="BackgroundImageFix" result="effect1_dropShadow_329_20427"/>
<feBlend mode="normal" in="SourceGraphic" in2="effect1_dropShadow_329_20427" result="shape"/>
</filter>
<linearGradient id="paint0_linear_329_20427" x1="280.861" y1="290.34" x2="200.33" y2="426.376" gradientUnits="userSpaceOnUse">
<stop stop-color="#C2FF9D"/>
<stop offset="1" stop-color="#ACFF79" stop-opacity="0"/>
</linearGradient>
<linearGradient id="paint1_linear_329_20427" x1="192.419" y1="264.681" x2="192.419" y2="357.857" gradientUnits="userSpaceOnUse">
<stop stop-color="#EBFAF8"/>
<stop offset="1" stop-color="#EBFAF8" stop-opacity="0"/>
</linearGradient>
<clipPath id="clip0_329_20427">
<rect width="286" height="337" rx="16" fill="white"/>
</clipPath>
<clipPath id="clip1_329_20427">
<rect width="262" height="151" fill="white" transform="translate(24 186)"/>
</clipPath>
<clipPath id="clip2_329_20427">
<rect x="59.5381" y="298.316" width="214" height="20" rx="10" transform="rotate(-1.75827 59.5381 298.316)" fill="white"/>
</clipPath>
</defs>
</svg>
