<svg width="286" height="337" viewBox="0 0 286 337" fill="none" xmlns="http://www.w3.org/2000/svg">
<g clip-path="url(#clip0_329_20426)">
<rect width="286" height="337" rx="16" fill="#A8FF73"/>
<path d="M43.9998 30.6667V57.3334M53.9998 34L33.9998 54M57.3332 44H30.6665M53.9998 54L33.9998 34" stroke="#0B0E18" stroke-width="2" stroke-linecap="round" stroke-linejoin="round"/>
<g filter="url(#filter0_d_329_20426)">
<rect x="206" y="24" width="56" height="40" rx="20" fill="white" shape-rendering="crispEdges"/>
<path fill-rule="evenodd" clip-rule="evenodd" d="M231 38C231 37.4477 231.448 37 232 37H240C240.552 37 241 37.4477 241 38V46C241 46.5523 240.552 47 240 47C239.448 47 239 46.5523 239 46V40.4142L228.707 50.7071C228.317 51.0976 227.683 51.0976 227.293 50.7071C226.902 50.3166 226.902 49.6834 227.293 49.2929L237.586 39H232C231.448 39 231 38.5523 231 38Z" fill="#0B0E18"/>
</g>
<path d="M25.752 102V84.72H32.568C36.288 84.72 38.52 86.664 38.52 89.616C38.52 92.592 36.264 94.56 32.568 94.56H31.704L39.384 102H35.736L28.536 94.56H28.296V102H25.752ZM32.496 86.808H28.296V92.496H32.496C34.776 92.496 36.024 91.416 36.024 89.64C36.024 87.84 34.824 86.808 32.496 86.808ZM46.1492 102.24C42.4532 102.24 39.9092 99.6 39.9092 95.856C39.9092 92.088 42.4292 89.52 46.1252 89.52C49.6772 89.52 51.9332 91.896 51.9332 95.568C51.9332 95.952 51.9092 96.264 51.8612 96.624H42.4532C42.6932 98.928 44.0612 100.296 46.1972 100.296C47.6132 100.296 48.7412 99.696 49.2452 98.544H51.5972C50.7812 100.848 48.8132 102.24 46.1492 102.24ZM46.1252 91.464C44.1812 91.464 42.8372 92.688 42.5012 94.752H49.4372C49.2212 92.616 48.0452 91.464 46.1252 91.464ZM63.3887 102V99.888C62.6927 101.352 61.1087 102.24 59.1647 102.24C55.8047 102.24 53.6687 99.744 53.6687 95.928C53.6687 92.064 55.8767 89.544 59.2367 89.544C61.1567 89.544 62.5727 90.336 63.2927 91.728V84.72H65.7647V102H63.3887ZM59.7887 100.152C61.9727 100.152 63.3647 98.544 63.3647 95.856C63.3647 93.216 61.9727 91.608 59.7647 91.608C57.6047 91.608 56.2367 93.216 56.2367 95.928C56.2367 98.592 57.6047 100.152 59.7887 100.152ZM73.2594 102.24C70.7634 102.24 69.1314 100.56 69.1314 98.208V89.76H71.6274V97.632C71.6274 99.312 72.4674 100.152 74.0274 100.152C76.0674 100.152 77.6034 98.616 77.6034 96.36V89.76H80.0754V102H77.6994V99.696C76.8354 101.28 75.2034 102.24 73.2594 102.24ZM88.6134 102.24C85.0854 102.24 82.5654 99.552 82.5654 95.856C82.5654 92.16 85.0854 89.52 88.5894 89.52C91.4934 89.52 93.6534 91.272 94.0614 93.936H91.7094C91.3734 92.496 90.2694 91.56 88.6374 91.56C86.5014 91.56 85.1334 93.24 85.1334 95.856C85.1334 98.448 86.5014 100.2 88.6614 100.2C90.2214 100.2 91.3974 99.288 91.7334 97.848H94.0854C93.6294 100.488 91.4214 102.24 88.6134 102.24ZM101.79 102.24C98.0938 102.24 95.5498 99.6 95.5498 95.856C95.5498 92.088 98.0698 89.52 101.766 89.52C105.318 89.52 107.574 91.896 107.574 95.568C107.574 95.952 107.55 96.264 107.502 96.624H98.0938C98.3338 98.928 99.7018 100.296 101.838 100.296C103.254 100.296 104.382 99.696 104.886 98.544H107.238C106.422 100.848 104.454 102.24 101.79 102.24ZM101.766 91.464C99.8218 91.464 98.4778 92.688 98.1418 94.752H105.078C104.862 92.616 103.686 91.464 101.766 91.464ZM122.493 102.24C117.645 102.24 114.141 98.52 114.141 93.336C114.141 88.176 117.621 84.48 122.469 84.48C126.477 84.48 129.477 87.072 129.981 90.96H127.485C127.077 88.224 125.181 86.64 122.493 86.64C119.037 86.64 116.733 89.304 116.733 93.336C116.733 97.392 119.085 100.08 122.493 100.08C125.181 100.08 127.101 98.472 127.509 95.76H130.029C129.501 99.696 126.501 102.24 122.493 102.24ZM137.978 102.24C134.234 102.24 131.69 99.528 131.69 95.832C131.69 92.112 134.234 89.52 137.978 89.52C141.77 89.52 144.266 92.112 144.266 95.832C144.266 99.528 141.77 102.24 137.978 102.24ZM137.978 100.2C140.186 100.2 141.722 98.448 141.722 95.808C141.722 93.192 140.21 91.56 137.978 91.56C135.794 91.56 134.258 93.216 134.258 95.808C134.258 98.448 135.794 100.2 137.978 100.2ZM151.27 102.24C148.078 102.24 146.086 100.776 145.846 98.208H148.15C148.342 99.624 149.47 100.392 151.318 100.392C152.95 100.392 153.838 99.792 153.838 98.736C153.838 97.968 153.454 97.464 152.014 97.104L150.046 96.648C147.574 96.048 146.398 94.848 146.398 93.072C146.398 90.864 148.15 89.52 151.03 89.52C153.886 89.52 155.734 90.864 155.95 93.168H153.646C153.454 91.992 152.518 91.368 150.958 91.368C149.47 91.368 148.678 91.92 148.678 92.856C148.678 93.624 149.206 94.128 150.598 94.464L152.614 94.968C154.942 95.568 156.142 96.912 156.142 98.712C156.142 100.92 154.342 102.24 151.27 102.24ZM163.64 102.24C160.76 102.24 159.512 100.896 159.512 98.304V91.752H157.064V89.76H159.512V86.952L161.984 86.016V89.76H165.464V91.752H161.984V98.328C161.984 99.624 162.608 100.2 164.12 100.2C164.696 100.2 165.152 100.104 165.464 99.96V101.976C165.104 102.12 164.456 102.24 163.64 102.24ZM172.176 102.24C168.984 102.24 166.992 100.776 166.752 98.208H169.056C169.248 99.624 170.376 100.392 172.224 100.392C173.856 100.392 174.744 99.792 174.744 98.736C174.744 97.968 174.36 97.464 172.92 97.104L170.952 96.648C168.48 96.048 167.304 94.848 167.304 93.072C167.304 90.864 169.056 89.52 171.936 89.52C174.792 89.52 176.64 90.864 176.856 93.168H174.552C174.36 91.992 173.424 91.368 171.864 91.368C170.376 91.368 169.584 91.92 169.584 92.856C169.584 93.624 170.112 94.128 171.504 94.464L173.52 94.968C175.848 95.568 177.048 96.912 177.048 98.712C177.048 100.92 175.248 102.24 172.176 102.24Z" fill="#0B0E18"/>
<path d="M25.184 131V119.8H28.8C29.6747 119.8 30.3893 119.944 30.944 120.232C31.4987 120.52 31.9093 120.915 32.176 121.416C32.4427 121.917 32.576 122.472 32.576 123.08C32.576 123.784 32.384 124.419 32 124.984C31.6267 125.549 31.04 125.949 30.24 126.184L32.688 131H31.104L28.832 126.376H28.736H26.528V131H25.184ZM26.528 125.32H28.704C29.568 125.32 30.1973 125.112 30.592 124.696C30.9867 124.28 31.184 123.747 31.184 123.096C31.184 122.435 30.9867 121.912 30.592 121.528C30.208 121.133 29.5733 120.936 28.688 120.936H26.528V125.32ZM37.672 131.192C36.9147 131.192 36.2427 131.021 35.656 130.68C35.0693 130.328 34.6053 129.843 34.264 129.224C33.9333 128.605 33.768 127.875 33.768 127.032C33.768 126.2 33.9333 125.475 34.264 124.856C34.5947 124.227 35.0533 123.741 35.64 123.4C36.2373 123.048 36.9253 122.872 37.704 122.872C38.472 122.872 39.1333 123.048 39.688 123.4C40.2533 123.741 40.6853 124.195 40.984 124.76C41.2827 125.325 41.432 125.933 41.432 126.584C41.432 126.701 41.4267 126.819 41.416 126.936C41.416 127.053 41.416 127.187 41.416 127.336H35.096C35.128 127.944 35.2667 128.451 35.512 128.856C35.768 129.251 36.0827 129.549 36.456 129.752C36.84 129.955 37.2453 130.056 37.672 130.056C38.2267 130.056 38.6907 129.928 39.064 129.672C39.4373 129.416 39.7093 129.069 39.88 128.632H41.208C40.9947 129.368 40.584 129.981 39.976 130.472C39.3787 130.952 38.6107 131.192 37.672 131.192ZM37.672 124.008C37.032 124.008 36.4613 124.205 35.96 124.6C35.4693 124.984 35.1867 125.549 35.112 126.296H40.104C40.072 125.581 39.8267 125.021 39.368 124.616C38.9093 124.211 38.344 124.008 37.672 124.008ZM46.8134 131.192C46.024 131.192 45.3307 131.011 44.7334 130.648C44.1467 130.285 43.688 129.789 43.3574 129.16C43.0374 128.531 42.8774 127.816 42.8774 127.016C42.8774 126.216 43.0427 125.507 43.3734 124.888C43.704 124.259 44.1627 123.768 44.7494 123.416C45.336 123.053 46.0294 122.872 46.8294 122.872C47.48 122.872 48.056 123.005 48.5574 123.272C49.0587 123.539 49.448 123.912 49.7254 124.392V119.48H51.0694V131H49.8534L49.7254 129.688C49.4694 130.072 49.1014 130.419 48.6214 130.728C48.1414 131.037 47.5387 131.192 46.8134 131.192ZM46.9574 130.024C47.4907 130.024 47.96 129.901 48.3654 129.656C48.7814 129.4 49.1014 129.048 49.3254 128.6C49.56 128.152 49.6774 127.629 49.6774 127.032C49.6774 126.435 49.56 125.912 49.3254 125.464C49.1014 125.016 48.7814 124.669 48.3654 124.424C47.96 124.168 47.4907 124.04 46.9574 124.04C46.4347 124.04 45.9654 124.168 45.5494 124.424C45.144 124.669 44.824 125.016 44.5894 125.464C44.3654 125.912 44.2534 126.435 44.2534 127.032C44.2534 127.629 44.3654 128.152 44.5894 128.6C44.824 129.048 45.144 129.4 45.5494 129.656C45.9654 129.901 46.4347 130.024 46.9574 130.024ZM56.1562 131.192C55.2176 131.192 54.4709 130.909 53.9163 130.344C53.3616 129.768 53.0843 128.888 53.0843 127.704V123.064H54.4283V127.56C54.4283 129.213 55.1056 130.04 56.4603 130.04C57.1536 130.04 57.7243 129.795 58.1723 129.304C58.6309 128.803 58.8603 128.093 58.8603 127.176V123.064H60.2043V131H58.9883L58.8923 129.576C58.6469 130.077 58.2789 130.472 57.7883 130.76C57.3083 131.048 56.7643 131.192 56.1562 131.192ZM66.0645 131.192C65.3072 131.192 64.6245 131.021 64.0165 130.68C63.4192 130.328 62.9445 129.843 62.5925 129.224C62.2512 128.595 62.0805 127.864 62.0805 127.032C62.0805 126.2 62.2512 125.475 62.5925 124.856C62.9445 124.227 63.4192 123.741 64.0165 123.4C64.6245 123.048 65.3072 122.872 66.0645 122.872C67.0032 122.872 67.7925 123.117 68.4325 123.608C69.0832 124.099 69.4938 124.755 69.6645 125.576H68.2885C68.1818 125.085 67.9205 124.707 67.5045 124.44C67.0885 124.163 66.6032 124.024 66.0485 124.024C65.6005 124.024 65.1792 124.136 64.7845 124.36C64.3898 124.584 64.0698 124.92 63.8245 125.368C63.5792 125.816 63.4565 126.371 63.4565 127.032C63.4565 127.693 63.5792 128.248 63.8245 128.696C64.0698 129.144 64.3898 129.485 64.7845 129.72C65.1792 129.944 65.6005 130.056 66.0485 130.056C66.6032 130.056 67.0885 129.923 67.5045 129.656C67.9205 129.379 68.1818 128.989 68.2885 128.488H69.6645C69.5045 129.288 69.0992 129.939 68.4485 130.44C67.7978 130.941 67.0032 131.192 66.0645 131.192ZM74.4588 131C73.7334 131 73.1628 130.824 72.7468 130.472C72.3308 130.12 72.1228 129.485 72.1228 128.568V124.2H70.7467V123.064H72.1228L72.2988 121.16H73.4668V123.064H75.8028V124.2H73.4668V128.568C73.4668 129.069 73.5681 129.411 73.7708 129.592C73.9734 129.763 74.3308 129.848 74.8428 129.848H75.6748V131H74.4588ZM78.3263 121.304C78.0596 121.304 77.8356 121.219 77.6543 121.048C77.4836 120.867 77.3983 120.643 77.3983 120.376C77.3983 120.12 77.4836 119.907 77.6543 119.736C77.8356 119.565 78.0596 119.48 78.3263 119.48C78.5823 119.48 78.8009 119.565 78.9823 119.736C79.1636 119.907 79.2543 120.12 79.2543 120.376C79.2543 120.643 79.1636 120.867 78.9823 121.048C78.8009 121.219 78.5823 121.304 78.3263 121.304ZM77.6543 131V123.064H78.9983V131H77.6543ZM84.9544 131.192C84.2077 131.192 83.5357 131.021 82.9384 130.68C82.341 130.339 81.8664 129.859 81.5144 129.24C81.173 128.611 81.0024 127.875 81.0024 127.032C81.0024 126.189 81.1784 125.459 81.5304 124.84C81.8824 124.211 82.357 123.725 82.9544 123.384C83.5624 123.043 84.2397 122.872 84.9864 122.872C85.733 122.872 86.405 123.043 87.0024 123.384C87.5997 123.725 88.069 124.211 88.4104 124.84C88.7624 125.459 88.9384 126.189 88.9384 127.032C88.9384 127.875 88.7624 128.611 88.4104 129.24C88.0584 129.859 87.5784 130.339 86.9704 130.68C86.373 131.021 85.701 131.192 84.9544 131.192ZM84.9544 130.04C85.413 130.04 85.8397 129.928 86.2344 129.704C86.629 129.48 86.949 129.144 87.1944 128.696C87.4397 128.248 87.5624 127.693 87.5624 127.032C87.5624 126.371 87.4397 125.816 87.1944 125.368C86.9597 124.92 86.645 124.584 86.2504 124.36C85.8557 124.136 85.4344 124.024 84.9864 124.024C84.5277 124.024 84.101 124.136 83.7064 124.36C83.3117 124.584 82.9917 124.92 82.7464 125.368C82.501 125.816 82.3784 126.371 82.3784 127.032C82.3784 127.693 82.501 128.248 82.7464 128.696C82.9917 129.144 83.3064 129.48 83.6904 129.704C84.085 129.928 84.5064 130.04 84.9544 130.04ZM90.8071 131V123.064H92.0231L92.1031 124.488C92.3591 123.987 92.7271 123.592 93.2071 123.304C93.6871 123.016 94.2311 122.872 94.8391 122.872C95.7778 122.872 96.5245 123.16 97.0791 123.736C97.6445 124.301 97.9271 125.176 97.9271 126.36V131H96.5831V126.504C96.5831 124.851 95.9005 124.024 94.5351 124.024C93.8525 124.024 93.2818 124.275 92.8231 124.776C92.3751 125.267 92.1511 125.971 92.1511 126.888V131H90.8071ZM105.014 121.304C104.747 121.304 104.523 121.219 104.342 121.048C104.171 120.867 104.086 120.643 104.086 120.376C104.086 120.12 104.171 119.907 104.342 119.736C104.523 119.565 104.747 119.48 105.014 119.48C105.27 119.48 105.488 119.565 105.67 119.736C105.851 119.907 105.942 120.12 105.942 120.376C105.942 120.643 105.851 120.867 105.67 121.048C105.488 121.219 105.27 121.304 105.014 121.304ZM104.342 131V123.064H105.686V131H104.342ZM108.026 131V123.064H109.242L109.322 124.488C109.578 123.987 109.946 123.592 110.426 123.304C110.906 123.016 111.45 122.872 112.058 122.872C112.997 122.872 113.743 123.16 114.298 123.736C114.863 124.301 115.146 125.176 115.146 126.36V131H113.802V126.504C113.802 124.851 113.119 124.024 111.754 124.024C111.071 124.024 110.501 124.275 110.042 124.776C109.594 125.267 109.37 125.971 109.37 126.888V131H108.026ZM126.585 131.192C125.486 131.192 124.521 130.952 123.689 130.472C122.867 129.981 122.222 129.299 121.753 128.424C121.294 127.549 121.065 126.541 121.065 125.4C121.065 124.259 121.294 123.256 121.753 122.392C122.222 121.517 122.867 120.835 123.689 120.344C124.521 119.853 125.486 119.608 126.585 119.608C127.694 119.608 128.659 119.853 129.481 120.344C130.313 120.835 130.958 121.517 131.417 122.392C131.875 123.256 132.105 124.259 132.105 125.4C132.105 126.541 131.875 127.549 131.417 128.424C130.958 129.299 130.313 129.981 129.481 130.472C128.659 130.952 127.694 131.192 126.585 131.192ZM126.585 130.008C127.406 130.008 128.126 129.827 128.745 129.464C129.374 129.091 129.859 128.563 130.201 127.88C130.553 127.187 130.729 126.36 130.729 125.4C130.729 124.44 130.553 123.619 130.201 122.936C129.859 122.253 129.374 121.731 128.745 121.368C128.126 120.995 127.406 120.808 126.585 120.808C125.763 120.808 125.038 120.995 124.409 121.368C123.79 121.731 123.305 122.253 122.953 122.936C122.611 123.619 122.441 124.44 122.441 125.4C122.441 126.36 122.611 127.187 122.953 127.88C123.305 128.563 123.79 129.091 124.409 129.464C125.038 129.827 125.763 130.008 126.585 130.008ZM133.963 134.52V123.064H135.179L135.307 124.376C135.563 123.992 135.926 123.645 136.395 123.336C136.875 123.027 137.483 122.872 138.219 122.872C139.009 122.872 139.697 123.053 140.283 123.416C140.87 123.779 141.323 124.275 141.643 124.904C141.974 125.533 142.139 126.248 142.139 127.048C142.139 127.848 141.974 128.563 141.643 129.192C141.323 129.811 140.865 130.301 140.267 130.664C139.681 131.016 138.993 131.192 138.203 131.192C137.553 131.192 136.971 131.059 136.459 130.792C135.958 130.525 135.574 130.152 135.307 129.672V134.52H133.963ZM138.059 130.024C138.593 130.024 139.062 129.901 139.467 129.656C139.873 129.4 140.193 129.048 140.427 128.6C140.662 128.152 140.779 127.629 140.779 127.032C140.779 126.435 140.662 125.912 140.427 125.464C140.193 125.016 139.873 124.669 139.467 124.424C139.062 124.168 138.593 124.04 138.059 124.04C137.526 124.04 137.057 124.168 136.651 124.424C136.246 124.669 135.926 125.016 135.691 125.464C135.457 125.912 135.339 126.435 135.339 127.032C135.339 127.629 135.457 128.152 135.691 128.6C135.926 129.048 136.246 129.4 136.651 129.656C137.057 129.901 137.526 130.024 138.059 130.024ZM147.578 131.192C146.821 131.192 146.149 131.021 145.562 130.68C144.976 130.328 144.512 129.843 144.17 129.224C143.84 128.605 143.674 127.875 143.674 127.032C143.674 126.2 143.84 125.475 144.17 124.856C144.501 124.227 144.96 123.741 145.546 123.4C146.144 123.048 146.832 122.872 147.61 122.872C148.378 122.872 149.04 123.048 149.594 123.4C150.16 123.741 150.592 124.195 150.89 124.76C151.189 125.325 151.338 125.933 151.338 126.584C151.338 126.701 151.333 126.819 151.322 126.936C151.322 127.053 151.322 127.187 151.322 127.336H145.002C145.034 127.944 145.173 128.451 145.418 128.856C145.674 129.251 145.989 129.549 146.362 129.752C146.746 129.955 147.152 130.056 147.578 130.056C148.133 130.056 148.597 129.928 148.97 129.672C149.344 129.416 149.616 129.069 149.786 128.632H151.114C150.901 129.368 150.49 129.981 149.882 130.472C149.285 130.952 148.517 131.192 147.578 131.192ZM147.578 124.008C146.938 124.008 146.368 124.205 145.866 124.6C145.376 124.984 145.093 125.549 145.018 126.296H150.01C149.978 125.581 149.733 125.021 149.274 124.616C148.816 124.211 148.25 124.008 147.578 124.008ZM153.12 131V123.064H154.336L154.448 124.584C154.693 124.061 155.066 123.645 155.568 123.336C156.069 123.027 156.688 122.872 157.424 122.872V124.28H157.056C156.586 124.28 156.154 124.365 155.76 124.536C155.365 124.696 155.05 124.973 154.816 125.368C154.581 125.763 154.464 126.307 154.464 127V131H153.12ZM161.572 131.192C160.911 131.192 160.361 131.08 159.924 130.856C159.487 130.632 159.161 130.333 158.948 129.96C158.735 129.587 158.628 129.181 158.628 128.744C158.628 127.933 158.937 127.309 159.556 126.872C160.175 126.435 161.017 126.216 162.084 126.216H164.228V126.12C164.228 125.427 164.047 124.904 163.684 124.552C163.321 124.189 162.836 124.008 162.228 124.008C161.705 124.008 161.252 124.141 160.868 124.408C160.495 124.664 160.26 125.043 160.164 125.544H158.788C158.841 124.968 159.033 124.483 159.364 124.088C159.705 123.693 160.127 123.395 160.628 123.192C161.129 122.979 161.663 122.872 162.228 122.872C163.337 122.872 164.169 123.171 164.724 123.768C165.289 124.355 165.572 125.139 165.572 126.12V131H164.372L164.292 129.576C164.068 130.024 163.737 130.408 163.3 130.728C162.873 131.037 162.297 131.192 161.572 131.192ZM161.78 130.056C162.292 130.056 162.729 129.923 163.092 129.656C163.465 129.389 163.748 129.043 163.94 128.616C164.132 128.189 164.228 127.741 164.228 127.272V127.256H162.196C161.407 127.256 160.847 127.395 160.516 127.672C160.196 127.939 160.036 128.275 160.036 128.68C160.036 129.096 160.185 129.432 160.484 129.688C160.793 129.933 161.225 130.056 161.78 130.056ZM170.506 131C169.78 131 169.21 130.824 168.794 130.472C168.378 130.12 168.17 129.485 168.17 128.568V124.2H166.794V123.064H168.17L168.346 121.16H169.514V123.064H171.85V124.2H169.514V128.568C169.514 129.069 169.615 129.411 169.818 129.592C170.02 129.763 170.378 129.848 170.89 129.848H171.722V131H170.506ZM174.373 121.304C174.106 121.304 173.882 121.219 173.701 121.048C173.53 120.867 173.445 120.643 173.445 120.376C173.445 120.12 173.53 119.907 173.701 119.736C173.882 119.565 174.106 119.48 174.373 119.48C174.629 119.48 174.848 119.565 175.029 119.736C175.21 119.907 175.301 120.12 175.301 120.376C175.301 120.643 175.21 120.867 175.029 121.048C174.848 121.219 174.629 121.304 174.373 121.304ZM173.701 131V123.064H175.045V131H173.701ZM181.001 131.192C180.255 131.192 179.583 131.021 178.985 130.68C178.388 130.339 177.913 129.859 177.561 129.24C177.22 128.611 177.049 127.875 177.049 127.032C177.049 126.189 177.225 125.459 177.577 124.84C177.929 124.211 178.404 123.725 179.001 123.384C179.609 123.043 180.287 122.872 181.033 122.872C181.78 122.872 182.452 123.043 183.049 123.384C183.647 123.725 184.116 124.211 184.457 124.84C184.809 125.459 184.985 126.189 184.985 127.032C184.985 127.875 184.809 128.611 184.457 129.24C184.105 129.859 183.625 130.339 183.017 130.68C182.42 131.021 181.748 131.192 181.001 131.192ZM181.001 130.04C181.46 130.04 181.887 129.928 182.281 129.704C182.676 129.48 182.996 129.144 183.241 128.696C183.487 128.248 183.609 127.693 183.609 127.032C183.609 126.371 183.487 125.816 183.241 125.368C183.007 124.92 182.692 124.584 182.297 124.36C181.903 124.136 181.481 124.024 181.033 124.024C180.575 124.024 180.148 124.136 179.753 124.36C179.359 124.584 179.039 124.92 178.793 125.368C178.548 125.816 178.425 126.371 178.425 127.032C178.425 127.693 178.548 128.248 178.793 128.696C179.039 129.144 179.353 129.48 179.737 129.704C180.132 129.928 180.553 130.04 181.001 130.04ZM186.854 131V123.064H188.07L188.15 124.488C188.406 123.987 188.774 123.592 189.254 123.304C189.734 123.016 190.278 122.872 190.886 122.872C191.825 122.872 192.571 123.16 193.126 123.736C193.691 124.301 193.974 125.176 193.974 126.36V131H192.63V126.504C192.63 124.851 191.947 124.024 190.582 124.024C189.899 124.024 189.329 124.275 188.87 124.776C188.422 125.267 188.198 125.971 188.198 126.888V131H186.854ZM198.65 131.192C197.989 131.192 197.44 131.08 197.002 130.856C196.565 130.632 196.24 130.333 196.026 129.96C195.813 129.587 195.706 129.181 195.706 128.744C195.706 127.933 196.016 127.309 196.634 126.872C197.253 126.435 198.096 126.216 199.162 126.216H201.306V126.12C201.306 125.427 201.125 124.904 200.762 124.552C200.4 124.189 199.914 124.008 199.306 124.008C198.784 124.008 198.33 124.141 197.946 124.408C197.573 124.664 197.338 125.043 197.242 125.544H195.866C195.92 124.968 196.112 124.483 196.442 124.088C196.784 123.693 197.205 123.395 197.706 123.192C198.208 122.979 198.741 122.872 199.306 122.872C200.416 122.872 201.248 123.171 201.802 123.768C202.368 124.355 202.65 125.139 202.65 126.12V131H201.45L201.37 129.576C201.146 130.024 200.816 130.408 200.378 130.728C199.952 131.037 199.376 131.192 198.65 131.192ZM198.858 130.056C199.37 130.056 199.808 129.923 200.17 129.656C200.544 129.389 200.826 129.043 201.018 128.616C201.21 128.189 201.306 127.741 201.306 127.272V127.256H199.274C198.485 127.256 197.925 127.395 197.594 127.672C197.274 127.939 197.114 128.275 197.114 128.68C197.114 129.096 197.264 129.432 197.562 129.688C197.872 129.933 198.304 130.056 198.858 130.056ZM204.667 131V119.48H206.011V131H204.667ZM217.44 131.192C216.341 131.192 215.392 130.952 214.592 130.472C213.802 129.981 213.189 129.304 212.752 128.44C212.314 127.565 212.096 126.552 212.096 125.4C212.096 124.259 212.314 123.256 212.752 122.392C213.189 121.517 213.802 120.835 214.592 120.344C215.392 119.853 216.341 119.608 217.44 119.608C218.72 119.608 219.76 119.917 220.56 120.536C221.37 121.144 221.888 121.997 222.112 123.096H220.624C220.453 122.403 220.101 121.848 219.568 121.432C219.045 121.005 218.336 120.792 217.44 120.792C216.64 120.792 215.941 120.979 215.344 121.352C214.746 121.715 214.282 122.243 213.952 122.936C213.632 123.619 213.472 124.44 213.472 125.4C213.472 126.36 213.632 127.187 213.952 127.88C214.282 128.563 214.746 129.091 215.344 129.464C215.941 129.827 216.64 130.008 217.44 130.008C218.336 130.008 219.045 129.805 219.568 129.4C220.101 128.984 220.453 128.435 220.624 127.752H222.112C221.888 128.829 221.37 129.672 220.56 130.28C219.76 130.888 218.72 131.192 217.44 131.192ZM227.579 131.192C226.833 131.192 226.161 131.021 225.563 130.68C224.966 130.339 224.491 129.859 224.139 129.24C223.798 128.611 223.627 127.875 223.627 127.032C223.627 126.189 223.803 125.459 224.155 124.84C224.507 124.211 224.982 123.725 225.579 123.384C226.187 123.043 226.865 122.872 227.611 122.872C228.358 122.872 229.03 123.043 229.627 123.384C230.225 123.725 230.694 124.211 231.035 124.84C231.387 125.459 231.563 126.189 231.563 127.032C231.563 127.875 231.387 128.611 231.035 129.24C230.683 129.859 230.203 130.339 229.595 130.68C228.998 131.021 228.326 131.192 227.579 131.192ZM227.579 130.04C228.038 130.04 228.465 129.928 228.859 129.704C229.254 129.48 229.574 129.144 229.819 128.696C230.065 128.248 230.187 127.693 230.187 127.032C230.187 126.371 230.065 125.816 229.819 125.368C229.585 124.92 229.27 124.584 228.875 124.36C228.481 124.136 228.059 124.024 227.611 124.024C227.153 124.024 226.726 124.136 226.331 124.36C225.937 124.584 225.617 124.92 225.371 125.368C225.126 125.816 225.003 126.371 225.003 127.032C225.003 127.693 225.126 128.248 225.371 128.696C225.617 129.144 225.931 129.48 226.315 129.704C226.71 129.928 227.131 130.04 227.579 130.04ZM236.472 131.192C235.523 131.192 234.733 130.952 234.104 130.472C233.475 129.992 233.107 129.341 233 128.52H234.376C234.461 128.936 234.68 129.299 235.032 129.608C235.395 129.907 235.88 130.056 236.488 130.056C237.053 130.056 237.469 129.939 237.736 129.704C238.003 129.459 238.136 129.171 238.136 128.84C238.136 128.36 237.96 128.04 237.608 127.88C237.267 127.72 236.781 127.576 236.152 127.448C235.725 127.363 235.299 127.24 234.872 127.08C234.445 126.92 234.088 126.696 233.8 126.408C233.512 126.109 233.368 125.72 233.368 125.24C233.368 124.547 233.624 123.981 234.136 123.544C234.659 123.096 235.363 122.872 236.248 122.872C237.091 122.872 237.779 123.085 238.312 123.512C238.856 123.928 239.171 124.525 239.256 125.304H237.928C237.875 124.899 237.699 124.584 237.4 124.36C237.112 124.125 236.723 124.008 236.232 124.008C235.752 124.008 235.379 124.109 235.112 124.312C234.856 124.515 234.728 124.781 234.728 125.112C234.728 125.432 234.893 125.683 235.224 125.864C235.565 126.045 236.024 126.2 236.6 126.328C237.091 126.435 237.555 126.568 237.992 126.728C238.44 126.877 238.803 127.107 239.08 127.416C239.368 127.715 239.512 128.152 239.512 128.728C239.523 129.443 239.251 130.035 238.696 130.504C238.152 130.963 237.411 131.192 236.472 131.192ZM244.209 131C243.483 131 242.913 130.824 242.497 130.472C242.081 130.12 241.873 129.485 241.873 128.568V124.2H240.497V123.064H241.873L242.049 121.16H243.217V123.064H245.553V124.2H243.217V128.568C243.217 129.069 243.318 129.411 243.521 129.592C243.723 129.763 244.081 129.848 244.593 129.848H245.425V131H244.209ZM250.3 131.192C249.351 131.192 248.562 130.952 247.932 130.472C247.303 129.992 246.935 129.341 246.828 128.52H248.204C248.29 128.936 248.508 129.299 248.86 129.608C249.223 129.907 249.708 130.056 250.316 130.056C250.882 130.056 251.298 129.939 251.564 129.704C251.831 129.459 251.964 129.171 251.964 128.84C251.964 128.36 251.788 128.04 251.436 127.88C251.095 127.72 250.61 127.576 249.98 127.448C249.554 127.363 249.127 127.24 248.7 127.08C248.274 126.92 247.916 126.696 247.628 126.408C247.34 126.109 247.196 125.72 247.196 125.24C247.196 124.547 247.452 123.981 247.964 123.544C248.487 123.096 249.191 122.872 250.076 122.872C250.919 122.872 251.607 123.085 252.14 123.512C252.684 123.928 252.999 124.525 253.084 125.304H251.756C251.703 124.899 251.527 124.584 251.228 124.36C250.94 124.125 250.551 124.008 250.06 124.008C249.58 124.008 249.207 124.109 248.94 124.312C248.684 124.515 248.556 124.781 248.556 125.112C248.556 125.432 248.722 125.683 249.052 125.864C249.394 126.045 249.852 126.2 250.428 126.328C250.919 126.435 251.383 126.568 251.82 126.728C252.268 126.877 252.631 127.107 252.908 127.416C253.196 127.715 253.34 128.152 253.34 128.728C253.351 129.443 253.079 130.035 252.524 130.504C251.98 130.963 251.239 131.192 250.3 131.192Z" fill="#474E60"/>
<g clip-path="url(#clip1_329_20426)">
<path d="M392.25 186.055L392.189 184.056L390.19 184.117L56.3471 194.365C46.4107 194.67 38.6029 202.973 38.9079 212.909L43.2852 355.504L43.3465 357.503L45.3456 357.442L395.181 346.703L397.18 346.642L397.118 344.643L392.25 186.055Z" fill="white"/>
<path d="M392.25 186.055L392.189 184.056L390.19 184.117L56.3471 194.365C46.4107 194.67 38.6029 202.973 38.9079 212.909L43.2852 355.504L43.3465 357.503L45.3456 357.442L395.181 346.703L397.18 346.642L397.118 344.643L392.25 186.055Z" stroke="#0B0E18" stroke-width="4"/>
<path d="M70.9144 254.347C63.8777 254.563 59.7637 249.606 59.4802 240.371C59.1856 230.775 63.3293 224.965 70.326 224.751C75.4436 224.594 79.0552 227.524 79.9295 232.54L75.5716 232.673C75.041 229.728 73.1115 228.147 70.3928 228.23C65.9149 228.368 63.7938 232.275 64.0221 239.711C65.4302 237.347 68.1459 235.863 71.3444 235.765C76.8219 235.596 80.6155 239.242 80.7849 244.759C80.9567 250.356 76.9915 254.16 70.9144 254.347ZM70.7676 250.869C74.0861 250.768 76.3387 248.537 76.227 244.899C76.1129 241.181 73.8076 239.091 70.3293 239.197C66.8909 239.303 64.3959 241.46 64.5039 244.979C64.6168 248.657 67.3292 250.975 70.7676 250.869ZM95.7855 253.583C88.7488 253.799 84.6348 248.843 84.3513 239.607C84.0567 230.012 88.2004 224.202 95.1971 223.987C100.315 223.83 103.926 226.761 104.801 231.776L100.443 231.91C99.9121 228.965 97.9826 227.383 95.2639 227.467C90.786 227.604 88.6649 231.511 88.8932 238.948C90.3013 236.583 93.017 235.099 96.2155 235.001C101.693 234.833 105.487 238.478 105.656 243.996C105.828 249.593 101.863 253.396 95.7855 253.583ZM95.6387 250.106C98.9572 250.004 101.21 247.774 101.098 244.136C100.984 240.417 98.6787 238.327 95.2004 238.434C91.762 238.539 89.267 240.697 89.375 244.215C89.4879 247.894 92.2003 250.211 95.6387 250.106ZM114.466 238.163C111.027 238.268 107.916 236.003 107.761 230.965C107.608 225.967 110.534 223.516 114.013 223.41C117.571 223.3 120.602 225.568 120.755 230.566C120.91 235.604 117.904 238.057 114.466 238.163ZM110.311 252.737L130.777 223.295L134.495 223.181L114.069 252.622L110.311 252.737ZM114.386 235.564C116.345 235.504 117.773 233.779 117.676 230.621C117.582 227.582 116.091 225.947 114.092 226.008C112.053 226.071 110.744 227.752 110.839 230.83C110.936 233.989 112.347 235.626 114.386 235.564ZM130.513 252.517C127.115 252.621 123.964 250.357 123.809 245.319C123.656 240.322 126.582 237.871 130.061 237.764C133.659 237.653 136.69 239.922 136.843 244.919C136.998 249.957 133.952 252.411 130.513 252.517ZM130.434 249.918C132.433 249.857 133.859 248.092 133.764 244.974C133.67 241.935 132.179 240.3 130.14 240.363C128.101 240.425 126.832 242.105 126.927 245.184C127.024 248.342 128.395 249.981 130.434 249.918Z" fill="#0B0E18"/>
<path d="M60.3227 285.286L59.9791 274.091L63.4175 273.986C65.3899 273.925 66.8552 274.382 67.8136 275.356C68.7825 276.329 69.2939 277.69 69.3476 279.438C69.4002 281.155 68.9729 282.529 68.0654 283.56C67.1683 284.58 65.7335 285.12 63.7611 285.181L60.3227 285.286ZM61.6317 284.125L63.6948 284.062C64.7822 284.029 65.6404 283.826 66.2693 283.455C66.9086 283.072 67.3566 282.546 67.6136 281.877C67.8701 281.197 67.9844 280.398 67.9562 279.481C67.9274 278.543 67.7641 277.742 67.4663 277.079C67.1685 276.416 66.6888 275.913 66.0273 275.57C65.3765 275.228 64.5073 275.073 63.4198 275.106L61.3568 275.17L61.6317 284.125ZM74.9504 285.029C74.1934 285.052 73.5165 284.902 72.9196 284.579C72.3224 284.245 71.8437 283.775 71.4836 283.167C71.1341 282.558 70.9464 281.833 70.9206 280.991C70.895 280.159 71.038 279.429 71.3496 278.801C71.6608 278.161 72.1043 277.662 72.6802 277.303C73.2665 276.933 73.9488 276.736 74.7271 276.712C75.4947 276.688 76.1611 276.844 76.7263 277.179C77.3019 277.503 77.7476 277.943 78.0634 278.499C78.3793 279.054 78.5472 279.658 78.5672 280.308C78.5708 280.425 78.5691 280.543 78.562 280.66C78.5656 280.778 78.5697 280.911 78.5743 281.06L72.2573 281.254C72.3079 281.861 72.462 282.363 72.7197 282.76C72.9877 283.147 73.3114 283.436 73.6907 283.627C74.0808 283.818 74.489 283.907 74.9155 283.894C75.4699 283.877 75.9298 283.734 76.2951 283.467C76.6604 283.2 76.9216 282.845 77.0788 282.403L78.4061 282.362C78.2155 283.104 77.8238 283.73 77.2312 284.239C76.6489 284.737 75.8886 285 74.9504 285.029ZM74.7299 277.848C74.0902 277.868 73.5259 278.083 73.0369 278.493C72.5582 278.892 72.2931 279.465 72.2413 280.214L77.231 280.061C77.1771 279.347 76.9147 278.795 76.4438 278.404C75.9729 278.013 75.4016 277.828 74.7299 277.848ZM84.1354 284.747C83.3784 284.77 82.6908 284.621 82.0727 284.298C81.4648 283.965 80.9755 283.494 80.6047 282.887C80.2442 282.268 80.0512 281.543 80.0256 280.711C80.0001 279.88 80.1484 279.15 80.4706 278.521C80.8032 277.881 81.2627 277.381 81.8493 277.022C82.4462 276.651 83.1231 276.454 83.8801 276.431C84.8183 276.402 85.6148 276.623 86.2696 277.094C86.935 277.565 87.3656 278.208 87.5614 279.023L86.186 279.066C86.0644 278.578 85.7915 278.208 85.3676 277.954C84.9432 277.69 84.4539 277.566 83.8995 277.583C83.4517 277.597 83.034 277.722 82.6464 277.958C82.2588 278.194 81.9492 278.539 81.7178 278.995C81.4863 279.45 81.3807 280.008 81.401 280.669C81.4213 281.33 81.5609 281.881 81.8199 282.321C82.0788 282.761 82.4092 283.093 82.8108 283.315C83.2122 283.527 83.6368 283.626 84.0846 283.612C84.639 283.595 85.12 283.447 85.5276 283.168C85.9349 282.878 86.1842 282.481 86.2754 281.976L87.6507 281.934C87.5154 282.739 87.1302 283.401 86.4952 283.922C85.8602 284.443 85.0736 284.718 84.1354 284.747ZM89.6039 284.387L89.3604 276.455L90.5759 276.418L90.7344 277.933C90.9636 277.404 91.324 276.976 91.8156 276.652C92.3072 276.327 92.9209 276.154 93.6565 276.131L93.6997 277.538L93.3319 277.55C92.8628 277.564 92.4336 277.663 92.0444 277.845C91.6548 278.017 91.3488 278.304 91.1263 278.706C90.9039 279.107 90.8033 279.655 90.8246 280.348L90.9473 284.346L89.6039 284.387ZM98.6892 284.3C97.9322 284.324 97.2553 284.174 96.6584 283.85C96.0612 283.517 95.5825 283.046 95.2224 282.438C94.8729 281.83 94.6852 281.104 94.6594 280.262C94.6338 279.431 94.7768 278.7 95.0884 278.072C95.3996 277.433 95.8431 276.934 96.419 276.574C97.0053 276.204 97.6876 276.007 98.4659 275.983C99.2335 275.96 99.8999 276.115 100.465 276.45C101.041 276.774 101.486 277.214 101.802 277.77C102.118 278.326 102.286 278.929 102.306 279.579C102.31 279.696 102.308 279.814 102.301 279.932C102.304 280.049 102.309 280.182 102.313 280.331L95.9961 280.525C96.0467 281.132 96.2009 281.634 96.4585 282.032C96.7265 282.418 97.0502 282.707 97.4296 282.898C97.8196 283.089 98.2279 283.178 98.6543 283.165C99.2087 283.148 99.6686 283.006 100.034 282.738C100.399 282.471 100.66 282.116 100.818 281.674L102.145 281.633C101.954 282.375 101.563 283.001 100.97 283.51C100.388 284.008 99.6274 284.272 98.6892 284.3ZM98.4687 277.12C97.829 277.139 97.2647 277.354 96.7757 277.764C96.2971 278.163 96.0319 278.737 95.9802 279.485L100.97 279.332C100.916 278.619 100.653 278.067 100.183 277.675C99.7117 277.284 99.1404 277.099 98.4687 277.12ZM106.867 284.049C106.206 284.07 105.653 283.975 105.209 283.764C104.765 283.554 104.431 283.265 104.206 282.898C103.981 282.532 103.862 282.13 103.849 281.693C103.824 280.883 104.114 280.249 104.719 279.793C105.324 279.337 106.16 279.093 107.226 279.06L109.369 278.994L109.366 278.898C109.345 278.205 109.147 277.688 108.774 277.348C108.4 276.996 107.91 276.83 107.302 276.849C106.78 276.865 106.331 277.012 105.955 277.29C105.59 277.558 105.367 277.943 105.286 278.447L103.911 278.489C103.946 277.912 104.123 277.421 104.442 277.016C104.771 276.612 105.183 276.3 105.678 276.082C106.172 275.853 106.702 275.731 107.267 275.713C108.376 275.679 109.217 275.952 109.789 276.532C110.372 277.101 110.679 277.876 110.709 278.857L110.859 283.735L109.659 283.772L109.536 282.351C109.326 282.805 109.007 283.199 108.58 283.533C108.163 283.855 107.592 284.027 106.867 284.049ZM107.04 282.908C107.552 282.892 107.985 282.745 108.339 282.467C108.704 282.189 108.976 281.834 109.155 281.402C109.333 280.97 109.416 280.519 109.401 280.05L109.401 280.034L107.37 280.096C106.581 280.12 106.025 280.276 105.703 280.563C105.392 280.84 105.242 281.181 105.254 281.586C105.267 282.001 105.427 282.333 105.733 282.579C106.05 282.815 106.485 282.925 107.04 282.908ZM115.919 283.772C114.97 283.801 114.173 283.585 113.53 283.124C112.886 282.664 112.498 282.025 112.366 281.207L113.742 281.165C113.84 281.578 114.069 281.934 114.431 282.232C114.802 282.52 115.292 282.654 115.9 282.636C116.465 282.618 116.877 282.488 117.136 282.245C117.395 281.992 117.52 281.7 117.51 281.37C117.495 280.89 117.309 280.575 116.953 280.426C116.606 280.277 116.117 280.148 115.484 280.039C115.055 279.967 114.625 279.857 114.193 279.711C113.762 279.564 113.398 279.351 113.101 279.072C112.804 278.782 112.648 278.397 112.634 277.918C112.612 277.225 112.851 276.652 113.349 276.199C113.858 275.735 114.555 275.489 115.44 275.462C116.282 275.436 116.976 275.629 117.522 276.039C118.079 276.438 118.412 277.025 118.521 277.801L117.193 277.842C117.128 277.438 116.942 277.129 116.637 276.914C116.342 276.689 115.949 276.583 115.458 276.598C114.979 276.613 114.609 276.726 114.348 276.936C114.099 277.147 113.979 277.417 113.989 277.748C113.999 278.068 114.172 278.313 114.508 278.484C114.855 278.655 115.318 278.796 115.897 278.906C116.391 278.997 116.859 279.116 117.301 279.263C117.753 279.398 118.123 279.617 118.41 279.917C118.707 280.207 118.864 280.64 118.882 281.215C118.914 281.929 118.661 282.529 118.121 283.016C117.591 283.491 116.857 283.743 115.919 283.772ZM124.443 283.51C123.686 283.533 123.009 283.383 122.412 283.06C121.815 282.726 121.336 282.255 120.976 281.647C120.626 281.039 120.439 280.314 120.413 279.472C120.387 278.64 120.53 277.91 120.842 277.281C121.153 276.642 121.597 276.143 122.173 275.784C122.759 275.414 123.441 275.217 124.219 275.193C124.987 275.169 125.653 275.325 126.219 275.66C126.794 275.983 127.24 276.423 127.556 276.979C127.872 277.535 128.04 278.138 128.06 278.789C128.063 278.906 128.061 279.023 128.054 279.141C128.058 279.258 128.062 279.392 128.067 279.541L121.75 279.735C121.8 280.341 121.954 280.844 122.212 281.241C122.48 281.628 122.804 281.917 123.183 282.108C123.573 282.299 123.981 282.387 124.408 282.374C124.962 282.357 125.422 282.215 125.787 281.948C126.153 281.681 126.414 281.326 126.571 280.883L127.898 280.843C127.708 281.585 127.316 282.21 126.723 282.719C126.141 283.218 125.381 283.481 124.443 283.51ZM124.222 276.329C123.583 276.349 123.018 276.564 122.529 276.973C122.051 277.372 121.785 277.946 121.734 278.695L126.723 278.542C126.669 277.828 126.407 277.276 125.936 276.885C125.465 276.494 124.894 276.309 124.222 276.329ZM139.203 283.057C138.105 283.09 137.149 282.88 136.335 282.424C135.531 281.958 134.897 281.3 134.433 280.45C133.969 279.589 133.72 278.583 133.684 277.431C133.649 276.291 133.837 275.282 134.248 274.405C134.658 273.517 135.25 272.816 136.024 272.301C136.809 271.786 137.75 271.512 138.848 271.478C140.127 271.439 141.176 271.716 141.995 272.31C142.824 272.893 143.367 273.73 143.625 274.821L142.138 274.867C141.946 274.179 141.577 273.635 141.031 273.236C140.495 272.826 139.78 272.634 138.884 272.662C138.085 272.686 137.392 272.894 136.807 273.286C136.221 273.666 135.773 274.208 135.464 274.912C135.165 275.604 135.03 276.43 135.06 277.389C135.089 278.349 135.274 279.17 135.615 279.853C135.967 280.526 136.447 281.039 137.055 281.394C137.664 281.738 138.368 281.898 139.167 281.873C140.063 281.846 140.765 281.621 141.275 281.2C141.796 280.768 142.131 280.208 142.28 279.521L143.768 279.475C143.577 280.559 143.086 281.417 142.294 282.049C141.513 282.682 140.483 283.017 139.203 283.057ZM149.338 282.746C148.592 282.769 147.915 282.619 147.308 282.296C146.7 281.973 146.211 281.508 145.84 280.9C145.48 280.282 145.286 279.551 145.261 278.709C145.235 277.867 145.388 277.131 145.721 276.502C146.054 275.862 146.513 275.362 147.1 275.003C147.697 274.643 148.369 274.451 149.115 274.429C149.861 274.406 150.538 274.556 151.146 274.878C151.753 275.201 152.237 275.672 152.598 276.291C152.969 276.898 153.167 277.623 153.193 278.465C153.219 279.308 153.065 280.049 152.733 280.688C152.4 281.318 151.935 281.812 151.338 282.172C150.751 282.531 150.085 282.723 149.338 282.746ZM149.303 281.594C149.761 281.58 150.184 281.455 150.572 281.219C150.96 280.983 151.269 280.637 151.501 280.182C151.732 279.727 151.838 279.169 151.817 278.508C151.797 277.847 151.658 277.296 151.399 276.856C151.15 276.415 150.825 276.089 150.424 275.877C150.023 275.665 149.598 275.566 149.15 275.58C148.692 275.594 148.269 275.719 147.881 275.955C147.494 276.191 147.184 276.537 146.953 276.992C146.721 277.447 146.616 278.006 146.636 278.667C146.656 279.328 146.796 279.878 147.055 280.319C147.314 280.759 147.639 281.085 148.029 281.297C148.431 281.509 148.855 281.608 149.303 281.594ZM158.227 282.473C157.278 282.502 156.482 282.286 155.838 281.826C155.194 281.365 154.806 280.726 154.675 279.909L156.05 279.866C156.148 280.28 156.378 280.635 156.739 280.934C157.111 281.221 157.6 281.355 158.208 281.337C158.773 281.319 159.185 281.189 159.445 280.947C159.704 280.693 159.828 280.401 159.818 280.071C159.803 279.591 159.617 279.277 159.261 279.127C158.915 278.978 158.425 278.849 157.792 278.74C157.363 278.668 156.933 278.559 156.501 278.412C156.07 278.265 155.706 278.052 155.409 277.773C155.112 277.483 154.956 277.099 154.942 276.619C154.92 275.926 155.159 275.353 155.657 274.9C156.166 274.436 156.863 274.191 157.748 274.164C158.59 274.138 159.284 274.33 159.83 274.74C160.387 275.139 160.72 275.726 160.829 276.502L159.502 276.543C159.436 276.139 159.25 275.83 158.945 275.616C158.65 275.39 158.257 275.284 157.767 275.3C157.287 275.314 156.917 275.427 156.656 275.638C156.407 275.848 156.287 276.119 156.297 276.449C156.307 276.769 156.48 277.014 156.816 277.186C157.163 277.356 157.626 277.497 158.206 277.607C158.699 277.699 159.167 277.818 159.609 277.964C160.062 278.1 160.431 278.318 160.718 278.619C161.015 278.908 161.172 279.341 161.19 279.917C161.222 280.631 160.969 281.231 160.429 281.717C159.899 282.192 159.165 282.444 158.227 282.473ZM165.954 282.043C165.229 282.066 164.653 281.907 164.227 281.568C163.8 281.229 163.573 280.601 163.544 279.684L163.41 275.318L162.035 275.361L162 274.225L163.376 274.183L163.493 272.274L164.661 272.239L164.719 274.142L167.054 274.07L167.089 275.205L164.754 275.277L164.888 279.643C164.903 280.144 165.015 280.482 165.223 280.657C165.431 280.822 165.791 280.896 166.302 280.88L167.134 280.855L167.169 282.006L165.954 282.043ZM172.048 282.048C171.1 282.078 170.303 281.862 169.66 281.401C169.016 280.941 168.628 280.302 168.496 279.484L169.871 279.442C169.97 279.855 170.199 280.211 170.561 280.509C170.932 280.797 171.422 280.931 172.03 280.913C172.595 280.895 173.007 280.765 173.266 280.522C173.525 280.269 173.65 279.977 173.64 279.647C173.625 279.167 173.439 278.852 173.082 278.703C172.736 278.554 172.247 278.425 171.614 278.316C171.185 278.244 170.754 278.134 170.323 277.988C169.892 277.841 169.528 277.628 169.231 277.349C168.934 277.059 168.778 276.674 168.763 276.195C168.742 275.502 168.981 274.929 169.479 274.476C169.988 274.012 170.684 273.766 171.569 273.739C172.412 273.713 173.106 273.906 173.652 274.316C174.208 274.715 174.541 275.302 174.651 276.078L173.323 276.119C173.257 275.715 173.072 275.406 172.766 275.191C172.471 274.965 172.079 274.86 171.588 274.875C171.108 274.89 170.738 275.003 170.478 275.213C170.228 275.424 170.109 275.694 170.119 276.025C170.129 276.345 170.302 276.59 170.638 276.761C170.984 276.932 171.448 277.073 172.027 277.183C172.521 277.274 172.989 277.393 173.431 277.54C173.883 277.675 174.253 277.894 174.539 278.194C174.836 278.484 174.994 278.917 175.011 279.492C175.044 280.206 174.79 280.806 174.25 281.293C173.721 281.768 172.987 282.02 172.048 282.048Z" fill="#474E60"/>
<g clip-path="url(#clip2_329_20426)">
<rect x="59.5381" y="298.316" width="214" height="20" rx="10" transform="rotate(-1.75827 59.5381 298.316)" fill="url(#paint0_linear_329_20426)"/>
<rect x="138.906" y="263.865" width="133.612" height="84" transform="rotate(-1.75827 138.906 263.865)" fill="white"/>
<rect x="138.906" y="263.865" width="133.612" height="84" transform="rotate(-1.75827 138.906 263.865)" fill="url(#paint1_linear_329_20426)"/>
</g>
</g>
</g>
<defs>
<filter id="filter0_d_329_20426" x="176" y="3" width="116" height="100" filterUnits="userSpaceOnUse" color-interpolation-filters="sRGB">
<feFlood flood-opacity="0" result="BackgroundImageFix"/>
<feColorMatrix in="SourceAlpha" type="matrix" values="0 0 0 0 0 0 0 0 0 0 0 0 0 0 0 0 0 0 127 0" result="hardAlpha"/>
<feOffset dy="9"/>
<feGaussianBlur stdDeviation="15"/>
<feComposite in2="hardAlpha" operator="out"/>
<feColorMatrix type="matrix" values="0 0 0 0 0.25893 0 0 0 0 0.545833 0 0 0 0 0.0841493 0 0 0 0.35 0"/>
<feBlend mode="normal" in2="BackgroundImageFix" result="effect1_dropShadow_329_20426"/>
<feBlend mode="normal" in="SourceGraphic" in2="effect1_dropShadow_329_20426" result="shape"/>
</filter>
<linearGradient id="paint0_linear_329_20426" x1="280.861" y1="290.34" x2="200.33" y2="426.376" gradientUnits="userSpaceOnUse">
<stop stop-color="#C2FF9D"/>
<stop offset="1" stop-color="#ACFF79" stop-opacity="0"/>
</linearGradient>
<linearGradient id="paint1_linear_329_20426" x1="205.712" y1="263.865" x2="205.712" y2="357.041" gradientUnits="userSpaceOnUse">
<stop stop-color="#EBFAF8"/>
<stop offset="1" stop-color="#EBFAF8" stop-opacity="0"/>
</linearGradient>
<clipPath id="clip0_329_20426">
<rect width="286" height="337" rx="16" fill="white"/>
</clipPath>
<clipPath id="clip1_329_20426">
<rect width="262" height="151" fill="white" transform="translate(24 186)"/>
</clipPath>
<clipPath id="clip2_329_20426">
<rect x="59.5381" y="298.316" width="214" height="20" rx="10" transform="rotate(-1.75827 59.5381 298.316)" fill="white"/>
</clipPath>
</defs>
</svg>
