<svg width="286" height="337" viewBox="0 0 286 337" fill="none" xmlns="http://www.w3.org/2000/svg">
<g clip-path="url(#clip0_329_20428)">
<rect width="286" height="337" rx="16" fill="#A8FF73"/>
<path d="M60.6668 44H57.3335M55.7851 55.7851L53.4281 53.4281M30.6668 44H27.3335M34.5717 34.5719L32.2147 32.2149M44.0002 30.6666V27.3333M53.4281 34.5719L55.7851 32.2149M44.0002 60.6666V57.3333M32.2147 55.7851L34.5717 53.4281M44.0002 35.6666L46.5752 40.8833L52.3335 41.725L48.1668 45.7833L49.1502 51.5166L44.0002 48.8083L38.8502 51.5166L39.8335 45.7833L35.6668 41.725L41.4252 40.8833L44.0002 35.6666Z" stroke="#0B0E18" stroke-width="2" stroke-linecap="round" stroke-linejoin="round"/>
<g filter="url(#filter0_d_329_20428)">
<rect x="206" y="24" width="56" height="40" rx="20" fill="white" shape-rendering="crispEdges"/>
<path fill-rule="evenodd" clip-rule="evenodd" d="M231 38C231 37.4477 231.448 37 232 37H240C240.552 37 241 37.4477 241 38V46C241 46.5523 240.552 47 240 47C239.448 47 239 46.5523 239 46V40.4142L228.707 50.7071C228.317 51.0976 227.683 51.0976 227.293 50.7071C226.902 50.3166 226.902 49.6834 227.293 49.2929L237.586 39H232C231.448 39 231 38.5523 231 38Z" fill="#0B0E18"/>
</g>
<path d="M25.776 102V84.72H28.32V102H25.776ZM31.8458 102V89.76H34.2218V92.064C35.1098 90.48 36.7418 89.52 38.7818 89.52C41.3738 89.52 43.0058 91.128 43.0058 93.552V102H40.5338V94.128C40.5338 92.448 39.6698 91.608 38.0138 91.608C35.8538 91.608 34.3418 93.144 34.3418 95.4V102H31.8458ZM51.4884 102.24C47.9604 102.24 45.4404 99.552 45.4404 95.856C45.4404 92.16 47.9604 89.52 51.4644 89.52C54.3684 89.52 56.5284 91.272 56.9364 93.936H54.5844C54.2484 92.496 53.1444 91.56 51.5124 91.56C49.3764 91.56 48.0084 93.24 48.0084 95.856C48.0084 98.448 49.3764 100.2 51.5364 100.2C53.0964 100.2 54.2724 99.288 54.6084 97.848H56.9604C56.5044 100.488 54.2964 102.24 51.4884 102.24ZM59.4317 102V89.76H61.8077V92.112C62.5037 90.432 63.8957 89.52 65.6237 89.52C65.9837 89.52 66.2237 89.544 66.3917 89.616V91.968C66.2237 91.92 65.9357 91.896 65.5277 91.896C63.1277 91.896 61.9277 93.144 61.9277 95.616V102H59.4317ZM73.5476 102.24C69.8516 102.24 67.3076 99.6 67.3076 95.856C67.3076 92.088 69.8276 89.52 73.5236 89.52C77.0756 89.52 79.3316 91.896 79.3316 95.568C79.3316 95.952 79.3076 96.264 79.2596 96.624H69.8516C70.0916 98.928 71.4596 100.296 73.5956 100.296C75.0116 100.296 76.1396 99.696 76.6436 98.544H78.9956C78.1796 100.848 76.2116 102.24 73.5476 102.24ZM73.5236 91.464C71.5796 91.464 70.2356 92.688 69.8996 94.752H76.8356C76.6196 92.616 75.4436 91.464 73.5236 91.464ZM85.1042 102.24C82.6082 102.24 81.0242 100.92 81.0242 98.808C81.0242 96.624 82.6082 95.4 85.5362 94.944L89.0162 94.392V93.816C89.0162 92.256 88.2482 91.464 86.5682 91.464C84.9362 91.464 83.9042 92.136 83.7602 93.312H81.3842C81.6002 91.008 83.5682 89.52 86.6642 89.52C89.8562 89.52 91.4642 91.008 91.4642 93.912V99.648C91.4642 100.392 91.5602 101.136 91.7522 102H89.3282C89.2082 101.496 89.1362 100.92 89.1362 100.104C88.4402 101.472 87.0002 102.24 85.1042 102.24ZM83.4722 98.592C83.4722 99.696 84.2642 100.272 85.6802 100.272C87.6002 100.272 89.0162 99.24 89.0162 97.824V96.144L85.9202 96.624C84.2882 96.864 83.4722 97.464 83.4722 98.592ZM99.1211 102.24C95.9291 102.24 93.9371 100.776 93.6971 98.208H96.0011C96.1931 99.624 97.3211 100.392 99.1691 100.392C100.801 100.392 101.689 99.792 101.689 98.736C101.689 97.968 101.305 97.464 99.8651 97.104L97.8971 96.648C95.4251 96.048 94.2491 94.848 94.2491 93.072C94.2491 90.864 96.0011 89.52 98.8811 89.52C101.737 89.52 103.585 90.864 103.801 93.168H101.497C101.305 91.992 100.369 91.368 98.8091 91.368C97.3211 91.368 96.5291 91.92 96.5291 92.856C96.5291 93.624 97.0571 94.128 98.4491 94.464L100.465 94.968C102.793 95.568 103.993 96.912 103.993 98.712C103.993 100.92 102.193 102.24 99.1211 102.24ZM112.009 102.24C108.313 102.24 105.769 99.6 105.769 95.856C105.769 92.088 108.289 89.52 111.985 89.52C115.537 89.52 117.793 91.896 117.793 95.568C117.793 95.952 117.769 96.264 117.721 96.624H108.313C108.553 98.928 109.921 100.296 112.057 100.296C113.473 100.296 114.601 99.696 115.105 98.544H117.457C116.641 100.848 114.673 102.24 112.009 102.24ZM111.985 91.464C110.041 91.464 108.697 92.688 108.361 94.752H115.297C115.081 92.616 113.905 91.464 111.985 91.464ZM125.104 102V84.72H136.888V86.808H127.648V92.016H136.24V94.104H127.648V99.912H137.104V102H125.104ZM140.431 102V91.752H138.079V89.76H140.431V88.344C140.431 85.872 141.823 84.48 144.655 84.48C145.279 84.48 145.663 84.552 145.999 84.672V86.664C145.783 86.592 145.375 86.52 144.943 86.52C143.527 86.52 142.927 87.24 142.927 88.488V89.76H148.231V88.344C148.231 85.872 149.623 84.48 152.431 84.48C153.079 84.48 153.463 84.552 153.799 84.672V86.664C153.559 86.592 153.175 86.52 152.719 86.52C151.327 86.52 150.703 87.24 150.703 88.488V89.76H158.503V102H156.031V91.752H150.703V102H148.231V91.752H142.927V102H140.431ZM155.935 87.456V84.72H158.599V87.456H155.935ZM167.012 102.24C163.484 102.24 160.964 99.552 160.964 95.856C160.964 92.16 163.484 89.52 166.988 89.52C169.892 89.52 172.052 91.272 172.46 93.936H170.108C169.772 92.496 168.668 91.56 167.036 91.56C164.9 91.56 163.532 93.24 163.532 95.856C163.532 98.448 164.9 100.2 167.06 100.2C168.62 100.2 169.796 99.288 170.132 97.848H172.484C172.028 100.488 169.82 102.24 167.012 102.24ZM174.695 87.36V84.552H177.431V87.36H174.695ZM174.815 102V89.76H177.311V102H174.815ZM186.048 102.24C182.352 102.24 179.808 99.6 179.808 95.856C179.808 92.088 182.328 89.52 186.024 89.52C189.576 89.52 191.832 91.896 191.832 95.568C191.832 95.952 191.808 96.264 191.76 96.624H182.352C182.592 98.928 183.96 100.296 186.096 100.296C187.512 100.296 188.64 99.696 189.144 98.544H191.496C190.68 100.848 188.712 102.24 186.048 102.24ZM186.024 91.464C184.08 91.464 182.736 92.688 182.4 94.752H189.336C189.12 92.616 187.944 91.464 186.024 91.464ZM194.385 102V89.76H196.761V92.064C197.649 90.48 199.281 89.52 201.321 89.52C203.913 89.52 205.545 91.128 205.545 93.552V102H203.073V94.128C203.073 92.448 202.209 91.608 200.553 91.608C198.393 91.608 196.881 93.144 196.881 95.4V102H194.385ZM214.028 102.24C210.5 102.24 207.979 99.552 207.979 95.856C207.979 92.16 210.5 89.52 214.004 89.52C216.908 89.52 219.068 91.272 219.476 93.936H217.124C216.788 92.496 215.684 91.56 214.052 91.56C211.916 91.56 210.548 93.24 210.548 95.856C210.548 98.448 211.916 100.2 214.076 100.2C215.636 100.2 216.812 99.288 217.148 97.848H219.5C219.044 100.488 216.836 102.24 214.028 102.24ZM222.555 106.92L225.051 101.208L220.155 89.76H222.867L226.371 98.472L229.731 89.76H232.323L225.123 106.92H222.555Z" fill="#0B0E18"/>
<path d="M25.184 131V119.8H28.8C29.6747 119.8 30.3893 119.944 30.944 120.232C31.4987 120.52 31.9093 120.915 32.176 121.416C32.4427 121.917 32.576 122.472 32.576 123.08C32.576 123.784 32.384 124.419 32 124.984C31.6267 125.549 31.04 125.949 30.24 126.184L32.688 131H31.104L28.832 126.376H28.736H26.528V131H25.184ZM26.528 125.32H28.704C29.568 125.32 30.1973 125.112 30.592 124.696C30.9867 124.28 31.184 123.747 31.184 123.096C31.184 122.435 30.9867 121.912 30.592 121.528C30.208 121.133 29.5733 120.936 28.688 120.936H26.528V125.32ZM37.672 131.192C36.9147 131.192 36.2427 131.021 35.656 130.68C35.0693 130.328 34.6053 129.843 34.264 129.224C33.9333 128.605 33.768 127.875 33.768 127.032C33.768 126.2 33.9333 125.475 34.264 124.856C34.5947 124.227 35.0533 123.741 35.64 123.4C36.2373 123.048 36.9253 122.872 37.704 122.872C38.472 122.872 39.1333 123.048 39.688 123.4C40.2533 123.741 40.6853 124.195 40.984 124.76C41.2827 125.325 41.432 125.933 41.432 126.584C41.432 126.701 41.4267 126.819 41.416 126.936C41.416 127.053 41.416 127.187 41.416 127.336H35.096C35.128 127.944 35.2667 128.451 35.512 128.856C35.768 129.251 36.0827 129.549 36.456 129.752C36.84 129.955 37.2453 130.056 37.672 130.056C38.2267 130.056 38.6907 129.928 39.064 129.672C39.4373 129.416 39.7093 129.069 39.88 128.632H41.208C40.9947 129.368 40.584 129.981 39.976 130.472C39.3787 130.952 38.6107 131.192 37.672 131.192ZM37.672 124.008C37.032 124.008 36.4613 124.205 35.96 124.6C35.4693 124.984 35.1867 125.549 35.112 126.296H40.104C40.072 125.581 39.8267 125.021 39.368 124.616C38.9093 124.211 38.344 124.008 37.672 124.008ZM46.8134 131.192C46.024 131.192 45.3307 131.011 44.7334 130.648C44.1467 130.285 43.688 129.789 43.3574 129.16C43.0374 128.531 42.8774 127.816 42.8774 127.016C42.8774 126.216 43.0427 125.507 43.3734 124.888C43.704 124.259 44.1627 123.768 44.7494 123.416C45.336 123.053 46.0294 122.872 46.8294 122.872C47.48 122.872 48.056 123.005 48.5574 123.272C49.0587 123.539 49.448 123.912 49.7254 124.392V119.48H51.0694V131H49.8534L49.7254 129.688C49.4694 130.072 49.1014 130.419 48.6214 130.728C48.1414 131.037 47.5387 131.192 46.8134 131.192ZM46.9574 130.024C47.4907 130.024 47.96 129.901 48.3654 129.656C48.7814 129.4 49.1014 129.048 49.3254 128.6C49.56 128.152 49.6774 127.629 49.6774 127.032C49.6774 126.435 49.56 125.912 49.3254 125.464C49.1014 125.016 48.7814 124.669 48.3654 124.424C47.96 124.168 47.4907 124.04 46.9574 124.04C46.4347 124.04 45.9654 124.168 45.5494 124.424C45.144 124.669 44.824 125.016 44.5894 125.464C44.3654 125.912 44.2534 126.435 44.2534 127.032C44.2534 127.629 44.3654 128.152 44.5894 128.6C44.824 129.048 45.144 129.4 45.5494 129.656C45.9654 129.901 46.4347 130.024 46.9574 130.024ZM56.1562 131.192C55.2176 131.192 54.4709 130.909 53.9163 130.344C53.3616 129.768 53.0843 128.888 53.0843 127.704V123.064H54.4283V127.56C54.4283 129.213 55.1056 130.04 56.4603 130.04C57.1536 130.04 57.7243 129.795 58.1723 129.304C58.6309 128.803 58.8603 128.093 58.8603 127.176V123.064H60.2043V131H58.9883L58.8923 129.576C58.6469 130.077 58.2789 130.472 57.7883 130.76C57.3083 131.048 56.7643 131.192 56.1562 131.192ZM66.0645 131.192C65.3072 131.192 64.6245 131.021 64.0165 130.68C63.4192 130.328 62.9445 129.843 62.5925 129.224C62.2512 128.595 62.0805 127.864 62.0805 127.032C62.0805 126.2 62.2512 125.475 62.5925 124.856C62.9445 124.227 63.4192 123.741 64.0165 123.4C64.6245 123.048 65.3072 122.872 66.0645 122.872C67.0032 122.872 67.7925 123.117 68.4325 123.608C69.0832 124.099 69.4938 124.755 69.6645 125.576H68.2885C68.1818 125.085 67.9205 124.707 67.5045 124.44C67.0885 124.163 66.6032 124.024 66.0485 124.024C65.6005 124.024 65.1792 124.136 64.7845 124.36C64.3898 124.584 64.0698 124.92 63.8245 125.368C63.5792 125.816 63.4565 126.371 63.4565 127.032C63.4565 127.693 63.5792 128.248 63.8245 128.696C64.0698 129.144 64.3898 129.485 64.7845 129.72C65.1792 129.944 65.6005 130.056 66.0485 130.056C66.6032 130.056 67.0885 129.923 67.5045 129.656C67.9205 129.379 68.1818 128.989 68.2885 128.488H69.6645C69.5045 129.288 69.0992 129.939 68.4485 130.44C67.7978 130.941 67.0032 131.192 66.0645 131.192ZM74.4588 131C73.7334 131 73.1628 130.824 72.7468 130.472C72.3308 130.12 72.1228 129.485 72.1228 128.568V124.2H70.7467V123.064H72.1228L72.2988 121.16H73.4668V123.064H75.8028V124.2H73.4668V128.568C73.4668 129.069 73.5681 129.411 73.7708 129.592C73.9734 129.763 74.3308 129.848 74.8428 129.848H75.6748V131H74.4588ZM78.3263 121.304C78.0596 121.304 77.8356 121.219 77.6543 121.048C77.4836 120.867 77.3983 120.643 77.3983 120.376C77.3983 120.12 77.4836 119.907 77.6543 119.736C77.8356 119.565 78.0596 119.48 78.3263 119.48C78.5823 119.48 78.8009 119.565 78.9823 119.736C79.1636 119.907 79.2543 120.12 79.2543 120.376C79.2543 120.643 79.1636 120.867 78.9823 121.048C78.8009 121.219 78.5823 121.304 78.3263 121.304ZM77.6543 131V123.064H78.9983V131H77.6543ZM84.9544 131.192C84.2077 131.192 83.5357 131.021 82.9384 130.68C82.341 130.339 81.8664 129.859 81.5144 129.24C81.173 128.611 81.0024 127.875 81.0024 127.032C81.0024 126.189 81.1784 125.459 81.5304 124.84C81.8824 124.211 82.357 123.725 82.9544 123.384C83.5624 123.043 84.2397 122.872 84.9864 122.872C85.733 122.872 86.405 123.043 87.0024 123.384C87.5997 123.725 88.069 124.211 88.4104 124.84C88.7624 125.459 88.9384 126.189 88.9384 127.032C88.9384 127.875 88.7624 128.611 88.4104 129.24C88.0584 129.859 87.5784 130.339 86.9704 130.68C86.373 131.021 85.701 131.192 84.9544 131.192ZM84.9544 130.04C85.413 130.04 85.8397 129.928 86.2344 129.704C86.629 129.48 86.949 129.144 87.1944 128.696C87.4397 128.248 87.5624 127.693 87.5624 127.032C87.5624 126.371 87.4397 125.816 87.1944 125.368C86.9597 124.92 86.645 124.584 86.2504 124.36C85.8557 124.136 85.4344 124.024 84.9864 124.024C84.5277 124.024 84.101 124.136 83.7064 124.36C83.3117 124.584 82.9917 124.92 82.7464 125.368C82.501 125.816 82.3784 126.371 82.3784 127.032C82.3784 127.693 82.501 128.248 82.7464 128.696C82.9917 129.144 83.3064 129.48 83.6904 129.704C84.085 129.928 84.5064 130.04 84.9544 130.04ZM90.8071 131V123.064H92.0231L92.1031 124.488C92.3591 123.987 92.7271 123.592 93.2071 123.304C93.6871 123.016 94.2311 122.872 94.8391 122.872C95.7778 122.872 96.5245 123.16 97.0791 123.736C97.6445 124.301 97.9271 125.176 97.9271 126.36V131H96.5831V126.504C96.5831 124.851 95.9005 124.024 94.5351 124.024C93.8525 124.024 93.2818 124.275 92.8231 124.776C92.3751 125.267 92.1511 125.971 92.1511 126.888V131H90.8071ZM105.014 121.304C104.747 121.304 104.523 121.219 104.342 121.048C104.171 120.867 104.086 120.643 104.086 120.376C104.086 120.12 104.171 119.907 104.342 119.736C104.523 119.565 104.747 119.48 105.014 119.48C105.27 119.48 105.488 119.565 105.67 119.736C105.851 119.907 105.942 120.12 105.942 120.376C105.942 120.643 105.851 120.867 105.67 121.048C105.488 121.219 105.27 121.304 105.014 121.304ZM104.342 131V123.064H105.686V131H104.342ZM108.026 131V123.064H109.242L109.322 124.488C109.578 123.987 109.946 123.592 110.426 123.304C110.906 123.016 111.45 122.872 112.058 122.872C112.997 122.872 113.743 123.16 114.298 123.736C114.863 124.301 115.146 125.176 115.146 126.36V131H113.802V126.504C113.802 124.851 113.119 124.024 111.754 124.024C111.071 124.024 110.501 124.275 110.042 124.776C109.594 125.267 109.37 125.971 109.37 126.888V131H108.026ZM126.585 131.192C125.486 131.192 124.521 130.952 123.689 130.472C122.867 129.981 122.222 129.299 121.753 128.424C121.294 127.549 121.065 126.541 121.065 125.4C121.065 124.259 121.294 123.256 121.753 122.392C122.222 121.517 122.867 120.835 123.689 120.344C124.521 119.853 125.486 119.608 126.585 119.608C127.694 119.608 128.659 119.853 129.481 120.344C130.313 120.835 130.958 121.517 131.417 122.392C131.875 123.256 132.105 124.259 132.105 125.4C132.105 126.541 131.875 127.549 131.417 128.424C130.958 129.299 130.313 129.981 129.481 130.472C128.659 130.952 127.694 131.192 126.585 131.192ZM126.585 130.008C127.406 130.008 128.126 129.827 128.745 129.464C129.374 129.091 129.859 128.563 130.201 127.88C130.553 127.187 130.729 126.36 130.729 125.4C130.729 124.44 130.553 123.619 130.201 122.936C129.859 122.253 129.374 121.731 128.745 121.368C128.126 120.995 127.406 120.808 126.585 120.808C125.763 120.808 125.038 120.995 124.409 121.368C123.79 121.731 123.305 122.253 122.953 122.936C122.611 123.619 122.441 124.44 122.441 125.4C122.441 126.36 122.611 127.187 122.953 127.88C123.305 128.563 123.79 129.091 124.409 129.464C125.038 129.827 125.763 130.008 126.585 130.008ZM133.963 134.52V123.064H135.179L135.307 124.376C135.563 123.992 135.926 123.645 136.395 123.336C136.875 123.027 137.483 122.872 138.219 122.872C139.009 122.872 139.697 123.053 140.283 123.416C140.87 123.779 141.323 124.275 141.643 124.904C141.974 125.533 142.139 126.248 142.139 127.048C142.139 127.848 141.974 128.563 141.643 129.192C141.323 129.811 140.865 130.301 140.267 130.664C139.681 131.016 138.993 131.192 138.203 131.192C137.553 131.192 136.971 131.059 136.459 130.792C135.958 130.525 135.574 130.152 135.307 129.672V134.52H133.963ZM138.059 130.024C138.593 130.024 139.062 129.901 139.467 129.656C139.873 129.4 140.193 129.048 140.427 128.6C140.662 128.152 140.779 127.629 140.779 127.032C140.779 126.435 140.662 125.912 140.427 125.464C140.193 125.016 139.873 124.669 139.467 124.424C139.062 124.168 138.593 124.04 138.059 124.04C137.526 124.04 137.057 124.168 136.651 124.424C136.246 124.669 135.926 125.016 135.691 125.464C135.457 125.912 135.339 126.435 135.339 127.032C135.339 127.629 135.457 128.152 135.691 128.6C135.926 129.048 136.246 129.4 136.651 129.656C137.057 129.901 137.526 130.024 138.059 130.024ZM147.578 131.192C146.821 131.192 146.149 131.021 145.562 130.68C144.976 130.328 144.512 129.843 144.17 129.224C143.84 128.605 143.674 127.875 143.674 127.032C143.674 126.2 143.84 125.475 144.17 124.856C144.501 124.227 144.96 123.741 145.546 123.4C146.144 123.048 146.832 122.872 147.61 122.872C148.378 122.872 149.04 123.048 149.594 123.4C150.16 123.741 150.592 124.195 150.89 124.76C151.189 125.325 151.338 125.933 151.338 126.584C151.338 126.701 151.333 126.819 151.322 126.936C151.322 127.053 151.322 127.187 151.322 127.336H145.002C145.034 127.944 145.173 128.451 145.418 128.856C145.674 129.251 145.989 129.549 146.362 129.752C146.746 129.955 147.152 130.056 147.578 130.056C148.133 130.056 148.597 129.928 148.97 129.672C149.344 129.416 149.616 129.069 149.786 128.632H151.114C150.901 129.368 150.49 129.981 149.882 130.472C149.285 130.952 148.517 131.192 147.578 131.192ZM147.578 124.008C146.938 124.008 146.368 124.205 145.866 124.6C145.376 124.984 145.093 125.549 145.018 126.296H150.01C149.978 125.581 149.733 125.021 149.274 124.616C148.816 124.211 148.25 124.008 147.578 124.008ZM153.12 131V123.064H154.336L154.448 124.584C154.693 124.061 155.066 123.645 155.568 123.336C156.069 123.027 156.688 122.872 157.424 122.872V124.28H157.056C156.586 124.28 156.154 124.365 155.76 124.536C155.365 124.696 155.05 124.973 154.816 125.368C154.581 125.763 154.464 126.307 154.464 127V131H153.12ZM161.572 131.192C160.911 131.192 160.361 131.08 159.924 130.856C159.487 130.632 159.161 130.333 158.948 129.96C158.735 129.587 158.628 129.181 158.628 128.744C158.628 127.933 158.937 127.309 159.556 126.872C160.175 126.435 161.017 126.216 162.084 126.216H164.228V126.12C164.228 125.427 164.047 124.904 163.684 124.552C163.321 124.189 162.836 124.008 162.228 124.008C161.705 124.008 161.252 124.141 160.868 124.408C160.495 124.664 160.26 125.043 160.164 125.544H158.788C158.841 124.968 159.033 124.483 159.364 124.088C159.705 123.693 160.127 123.395 160.628 123.192C161.129 122.979 161.663 122.872 162.228 122.872C163.337 122.872 164.169 123.171 164.724 123.768C165.289 124.355 165.572 125.139 165.572 126.12V131H164.372L164.292 129.576C164.068 130.024 163.737 130.408 163.3 130.728C162.873 131.037 162.297 131.192 161.572 131.192ZM161.78 130.056C162.292 130.056 162.729 129.923 163.092 129.656C163.465 129.389 163.748 129.043 163.94 128.616C164.132 128.189 164.228 127.741 164.228 127.272V127.256H162.196C161.407 127.256 160.847 127.395 160.516 127.672C160.196 127.939 160.036 128.275 160.036 128.68C160.036 129.096 160.185 129.432 160.484 129.688C160.793 129.933 161.225 130.056 161.78 130.056ZM170.506 131C169.78 131 169.21 130.824 168.794 130.472C168.378 130.12 168.17 129.485 168.17 128.568V124.2H166.794V123.064H168.17L168.346 121.16H169.514V123.064H171.85V124.2H169.514V128.568C169.514 129.069 169.615 129.411 169.818 129.592C170.02 129.763 170.378 129.848 170.89 129.848H171.722V131H170.506ZM174.373 121.304C174.106 121.304 173.882 121.219 173.701 121.048C173.53 120.867 173.445 120.643 173.445 120.376C173.445 120.12 173.53 119.907 173.701 119.736C173.882 119.565 174.106 119.48 174.373 119.48C174.629 119.48 174.848 119.565 175.029 119.736C175.21 119.907 175.301 120.12 175.301 120.376C175.301 120.643 175.21 120.867 175.029 121.048C174.848 121.219 174.629 121.304 174.373 121.304ZM173.701 131V123.064H175.045V131H173.701ZM181.001 131.192C180.255 131.192 179.583 131.021 178.985 130.68C178.388 130.339 177.913 129.859 177.561 129.24C177.22 128.611 177.049 127.875 177.049 127.032C177.049 126.189 177.225 125.459 177.577 124.84C177.929 124.211 178.404 123.725 179.001 123.384C179.609 123.043 180.287 122.872 181.033 122.872C181.78 122.872 182.452 123.043 183.049 123.384C183.647 123.725 184.116 124.211 184.457 124.84C184.809 125.459 184.985 126.189 184.985 127.032C184.985 127.875 184.809 128.611 184.457 129.24C184.105 129.859 183.625 130.339 183.017 130.68C182.42 131.021 181.748 131.192 181.001 131.192ZM181.001 130.04C181.46 130.04 181.887 129.928 182.281 129.704C182.676 129.48 182.996 129.144 183.241 128.696C183.487 128.248 183.609 127.693 183.609 127.032C183.609 126.371 183.487 125.816 183.241 125.368C183.007 124.92 182.692 124.584 182.297 124.36C181.903 124.136 181.481 124.024 181.033 124.024C180.575 124.024 180.148 124.136 179.753 124.36C179.359 124.584 179.039 124.92 178.793 125.368C178.548 125.816 178.425 126.371 178.425 127.032C178.425 127.693 178.548 128.248 178.793 128.696C179.039 129.144 179.353 129.48 179.737 129.704C180.132 129.928 180.553 130.04 181.001 130.04ZM186.854 131V123.064H188.07L188.15 124.488C188.406 123.987 188.774 123.592 189.254 123.304C189.734 123.016 190.278 122.872 190.886 122.872C191.825 122.872 192.571 123.16 193.126 123.736C193.691 124.301 193.974 125.176 193.974 126.36V131H192.63V126.504C192.63 124.851 191.947 124.024 190.582 124.024C189.899 124.024 189.329 124.275 188.87 124.776C188.422 125.267 188.198 125.971 188.198 126.888V131H186.854ZM198.65 131.192C197.989 131.192 197.44 131.08 197.002 130.856C196.565 130.632 196.24 130.333 196.026 129.96C195.813 129.587 195.706 129.181 195.706 128.744C195.706 127.933 196.016 127.309 196.634 126.872C197.253 126.435 198.096 126.216 199.162 126.216H201.306V126.12C201.306 125.427 201.125 124.904 200.762 124.552C200.4 124.189 199.914 124.008 199.306 124.008C198.784 124.008 198.33 124.141 197.946 124.408C197.573 124.664 197.338 125.043 197.242 125.544H195.866C195.92 124.968 196.112 124.483 196.442 124.088C196.784 123.693 197.205 123.395 197.706 123.192C198.208 122.979 198.741 122.872 199.306 122.872C200.416 122.872 201.248 123.171 201.802 123.768C202.368 124.355 202.65 125.139 202.65 126.12V131H201.45L201.37 129.576C201.146 130.024 200.816 130.408 200.378 130.728C199.952 131.037 199.376 131.192 198.65 131.192ZM198.858 130.056C199.37 130.056 199.808 129.923 200.17 129.656C200.544 129.389 200.826 129.043 201.018 128.616C201.21 128.189 201.306 127.741 201.306 127.272V127.256H199.274C198.485 127.256 197.925 127.395 197.594 127.672C197.274 127.939 197.114 128.275 197.114 128.68C197.114 129.096 197.264 129.432 197.562 129.688C197.872 129.933 198.304 130.056 198.858 130.056ZM204.667 131V119.48H206.011V131H204.667ZM217.44 131.192C216.341 131.192 215.392 130.952 214.592 130.472C213.802 129.981 213.189 129.304 212.752 128.44C212.314 127.565 212.096 126.552 212.096 125.4C212.096 124.259 212.314 123.256 212.752 122.392C213.189 121.517 213.802 120.835 214.592 120.344C215.392 119.853 216.341 119.608 217.44 119.608C218.72 119.608 219.76 119.917 220.56 120.536C221.37 121.144 221.888 121.997 222.112 123.096H220.624C220.453 122.403 220.101 121.848 219.568 121.432C219.045 121.005 218.336 120.792 217.44 120.792C216.64 120.792 215.941 120.979 215.344 121.352C214.746 121.715 214.282 122.243 213.952 122.936C213.632 123.619 213.472 124.44 213.472 125.4C213.472 126.36 213.632 127.187 213.952 127.88C214.282 128.563 214.746 129.091 215.344 129.464C215.941 129.827 216.64 130.008 217.44 130.008C218.336 130.008 219.045 129.805 219.568 129.4C220.101 128.984 220.453 128.435 220.624 127.752H222.112C221.888 128.829 221.37 129.672 220.56 130.28C219.76 130.888 218.72 131.192 217.44 131.192ZM227.579 131.192C226.833 131.192 226.161 131.021 225.563 130.68C224.966 130.339 224.491 129.859 224.139 129.24C223.798 128.611 223.627 127.875 223.627 127.032C223.627 126.189 223.803 125.459 224.155 124.84C224.507 124.211 224.982 123.725 225.579 123.384C226.187 123.043 226.865 122.872 227.611 122.872C228.358 122.872 229.03 123.043 229.627 123.384C230.225 123.725 230.694 124.211 231.035 124.84C231.387 125.459 231.563 126.189 231.563 127.032C231.563 127.875 231.387 128.611 231.035 129.24C230.683 129.859 230.203 130.339 229.595 130.68C228.998 131.021 228.326 131.192 227.579 131.192ZM227.579 130.04C228.038 130.04 228.465 129.928 228.859 129.704C229.254 129.48 229.574 129.144 229.819 128.696C230.065 128.248 230.187 127.693 230.187 127.032C230.187 126.371 230.065 125.816 229.819 125.368C229.585 124.92 229.27 124.584 228.875 124.36C228.481 124.136 228.059 124.024 227.611 124.024C227.153 124.024 226.726 124.136 226.331 124.36C225.937 124.584 225.617 124.92 225.371 125.368C225.126 125.816 225.003 126.371 225.003 127.032C225.003 127.693 225.126 128.248 225.371 128.696C225.617 129.144 225.931 129.48 226.315 129.704C226.71 129.928 227.131 130.04 227.579 130.04ZM236.472 131.192C235.523 131.192 234.733 130.952 234.104 130.472C233.475 129.992 233.107 129.341 233 128.52H234.376C234.461 128.936 234.68 129.299 235.032 129.608C235.395 129.907 235.88 130.056 236.488 130.056C237.053 130.056 237.469 129.939 237.736 129.704C238.003 129.459 238.136 129.171 238.136 128.84C238.136 128.36 237.96 128.04 237.608 127.88C237.267 127.72 236.781 127.576 236.152 127.448C235.725 127.363 235.299 127.24 234.872 127.08C234.445 126.92 234.088 126.696 233.8 126.408C233.512 126.109 233.368 125.72 233.368 125.24C233.368 124.547 233.624 123.981 234.136 123.544C234.659 123.096 235.363 122.872 236.248 122.872C237.091 122.872 237.779 123.085 238.312 123.512C238.856 123.928 239.171 124.525 239.256 125.304H237.928C237.875 124.899 237.699 124.584 237.4 124.36C237.112 124.125 236.723 124.008 236.232 124.008C235.752 124.008 235.379 124.109 235.112 124.312C234.856 124.515 234.728 124.781 234.728 125.112C234.728 125.432 234.893 125.683 235.224 125.864C235.565 126.045 236.024 126.2 236.6 126.328C237.091 126.435 237.555 126.568 237.992 126.728C238.44 126.877 238.803 127.107 239.08 127.416C239.368 127.715 239.512 128.152 239.512 128.728C239.523 129.443 239.251 130.035 238.696 130.504C238.152 130.963 237.411 131.192 236.472 131.192ZM244.209 131C243.483 131 242.913 130.824 242.497 130.472C242.081 130.12 241.873 129.485 241.873 128.568V124.2H240.497V123.064H241.873L242.049 121.16H243.217V123.064H245.553V124.2H243.217V128.568C243.217 129.069 243.318 129.411 243.521 129.592C243.723 129.763 244.081 129.848 244.593 129.848H245.425V131H244.209ZM250.3 131.192C249.351 131.192 248.562 130.952 247.932 130.472C247.303 129.992 246.935 129.341 246.828 128.52H248.204C248.29 128.936 248.508 129.299 248.86 129.608C249.223 129.907 249.708 130.056 250.316 130.056C250.882 130.056 251.298 129.939 251.564 129.704C251.831 129.459 251.964 129.171 251.964 128.84C251.964 128.36 251.788 128.04 251.436 127.88C251.095 127.72 250.61 127.576 249.98 127.448C249.554 127.363 249.127 127.24 248.7 127.08C248.274 126.92 247.916 126.696 247.628 126.408C247.34 126.109 247.196 125.72 247.196 125.24C247.196 124.547 247.452 123.981 247.964 123.544C248.487 123.096 249.191 122.872 250.076 122.872C250.919 122.872 251.607 123.085 252.14 123.512C252.684 123.928 252.999 124.525 253.084 125.304H251.756C251.703 124.899 251.527 124.584 251.228 124.36C250.94 124.125 250.551 124.008 250.06 124.008C249.58 124.008 249.207 124.109 248.94 124.312C248.684 124.515 248.556 124.781 248.556 125.112C248.556 125.432 248.722 125.683 249.052 125.864C249.394 126.045 249.852 126.2 250.428 126.328C250.919 126.435 251.383 126.568 251.82 126.728C252.268 126.877 252.631 127.107 252.908 127.416C253.196 127.715 253.34 128.152 253.34 128.728C253.351 129.443 253.079 130.035 252.524 130.504C251.98 130.963 251.239 131.192 250.3 131.192Z" fill="#474E60"/>
<g clip-path="url(#clip1_329_20428)">
<path d="M392.25 186.055L392.189 184.056L390.19 184.117L56.3471 194.365C46.4107 194.67 38.6029 202.973 38.9079 212.909L43.2852 355.504L43.3465 357.503L45.3456 357.442L395.181 346.703L397.18 346.642L397.118 344.643L392.25 186.055Z" fill="white"/>
<path d="M392.25 186.055L392.189 184.056L390.19 184.117L56.3471 194.365C46.4107 194.67 38.6029 202.973 38.9079 212.909L43.2852 355.504L43.3465 357.503L45.3456 357.442L395.181 346.703L397.18 346.642L397.118 344.643L392.25 186.055Z" stroke="#0B0E18" stroke-width="4"/>
<path d="M69.7549 254.382C64.3175 254.549 60.6622 251.5 59.8482 245.842L64.2062 245.708C64.7601 249.413 66.7695 250.992 69.7681 250.9C74.166 250.765 75.8984 247.23 75.6566 239.354C74.2048 241.6 71.5266 243.002 68.4081 243.098C63.0506 243.263 59.217 239.618 59.0537 234.301C58.8831 228.744 62.8895 224.979 68.9267 224.794C76.0033 224.576 80.0362 229.495 80.3283 239.01C80.6228 248.606 76.7916 254.166 69.7549 254.382ZM69.5432 239.662C72.9815 239.556 75.2379 237.446 75.1335 234.047C75.0268 230.569 72.5918 228.163 69.0734 228.271C65.715 228.374 63.626 230.719 63.7328 234.197C63.8359 237.556 65.9449 239.772 69.5432 239.662ZM96.6223 253.557C89.6655 253.771 84.7188 247.76 84.45 239.004C84.1837 230.328 88.7174 224.186 95.7141 223.971C102.631 223.759 107.571 229.57 107.839 238.286C108.109 247.082 103.499 253.346 96.6223 253.557ZM96.5106 249.919C101.108 249.778 103.489 245.183 103.28 238.386C103.074 231.669 100.464 227.467 95.8257 227.61C91.1479 227.753 88.8017 232.147 89.0066 238.824C89.2165 245.661 91.9127 250.06 96.5106 249.919ZM117.042 238.084C113.604 238.189 110.493 235.923 110.338 230.886C110.185 225.888 113.111 223.437 116.59 223.33C120.148 223.221 123.179 225.489 123.332 230.487C123.487 235.525 120.481 237.978 117.042 238.084ZM112.888 252.658L133.354 223.216L137.072 223.102L116.646 252.542L112.888 252.658ZM116.963 235.485C118.922 235.425 120.349 233.7 120.253 230.541C120.159 227.503 118.668 225.868 116.669 225.929C114.63 225.992 113.321 227.673 113.416 230.751C113.513 233.91 114.924 235.547 116.963 235.485ZM133.09 252.438C129.692 252.542 126.541 250.278 126.386 245.24C126.233 240.243 129.159 237.792 132.638 237.685C136.236 237.574 139.267 239.842 139.42 244.84C139.575 249.878 136.529 252.332 133.09 252.438ZM133.011 249.839C135.01 249.778 136.436 248.013 136.34 244.895C136.247 241.856 134.756 240.221 132.717 240.284C130.678 240.346 129.409 242.026 129.504 245.104C129.601 248.263 130.972 249.902 133.011 249.839Z" fill="#0B0E18"/>
<path d="M60.3227 285.286L59.9791 274.091L61.3224 274.05L61.6661 285.245L60.3227 285.286ZM63.9598 285.174L63.7163 277.242L64.9317 277.205L65.063 278.353C65.3058 277.919 65.6368 277.578 66.0561 277.33C66.4753 277.083 66.9515 276.951 67.4846 276.934C68.1136 276.915 68.656 277.026 69.1116 277.269C69.5779 277.51 69.9417 277.889 70.203 278.404C70.4654 277.915 70.8323 277.525 71.3036 277.233C71.7855 276.941 72.309 276.786 72.8741 276.769C73.8229 276.74 74.5888 277.004 75.1715 277.563C75.7539 278.111 76.0633 278.976 76.0996 280.16L76.242 284.797L74.9146 284.838L74.7767 280.344C74.7515 279.523 74.5672 278.91 74.2239 278.504C73.8807 278.099 73.3998 277.905 72.7815 277.924C72.1418 277.944 71.6164 278.211 71.2053 278.725C70.8045 279.228 70.6182 279.938 70.6464 280.855L70.7726 284.965L69.4292 285.007L69.2912 280.513C69.266 279.692 69.0818 279.078 68.7385 278.673C68.3952 278.267 67.9144 278.074 67.296 278.093C66.667 278.112 66.1469 278.379 65.7359 278.893C65.3351 279.396 65.1488 280.106 65.177 281.023L65.3031 285.133L63.9598 285.174ZM78.3735 288.254L78.022 276.803L79.2375 276.766L79.4056 278.073C79.6497 277.681 80.0016 277.324 80.4612 277C80.9315 276.676 81.5345 276.503 82.2701 276.48C83.0591 276.456 83.7523 276.616 84.3498 276.961C84.9474 277.305 85.4157 277.787 85.7549 278.406C86.1047 279.025 86.2919 279.735 86.3164 280.534C86.341 281.334 86.1976 282.053 85.8864 282.692C85.5856 283.321 85.1422 283.825 84.5562 284.206C83.9807 284.576 83.2984 284.773 82.5094 284.797C81.8591 284.817 81.2739 284.702 80.754 284.451C80.2447 284.2 79.8494 283.838 79.5681 283.367L79.7169 288.212L78.3735 288.254ZM82.3296 283.634C82.8627 283.618 83.3281 283.481 83.7257 283.223C84.123 282.955 84.432 282.593 84.6528 282.138C84.8737 281.683 84.9749 281.157 84.9566 280.56C84.9382 279.963 84.8049 279.444 84.5566 279.004C84.3083 278.563 83.9778 278.226 83.5652 277.993C83.1522 277.75 82.6791 277.636 82.146 277.653C81.613 277.669 81.1478 277.812 80.7505 278.08C80.3529 278.338 80.0437 278.694 79.8228 279.149C79.602 279.604 79.5008 280.13 79.5191 280.727C79.5375 281.324 79.6708 281.843 79.9191 282.283C80.1674 282.724 80.498 283.066 80.911 283.309C81.3237 283.542 81.7966 283.65 82.3296 283.634ZM88.3077 284.427L88.0642 276.495L89.2796 276.457L89.4382 277.973C89.6674 277.443 90.0278 277.016 90.5194 276.691C91.011 276.367 91.6246 276.193 92.3603 276.171L92.4035 277.578L92.0356 277.589C91.5665 277.604 91.1373 277.702 90.7481 277.885C90.3585 278.057 90.0525 278.344 89.8301 278.746C89.6076 279.147 89.507 279.695 89.5283 280.388L89.651 284.386L88.3077 284.427ZM97.4409 284.339C96.6946 284.362 96.0176 284.212 95.4101 283.889C94.8026 283.566 94.3134 283.101 93.9426 282.493C93.5821 281.875 93.389 281.144 93.3631 280.302C93.3372 279.46 93.4907 278.724 93.8236 278.095C94.1561 277.455 94.6157 276.955 95.2023 276.596C95.7995 276.236 96.4713 276.045 97.2176 276.022C97.9639 275.999 98.6408 276.149 99.2483 276.472C99.8559 276.794 100.34 277.265 100.7 277.884C101.071 278.491 101.27 279.216 101.295 280.058C101.321 280.901 101.168 281.642 100.835 282.282C100.503 282.911 100.037 283.405 99.4402 283.765C98.8536 284.125 98.1872 284.316 97.4409 284.339ZM97.4055 283.187C97.864 283.173 98.287 283.048 98.6746 282.812C99.0622 282.576 99.3718 282.23 99.6032 281.775C99.8347 281.32 99.9403 280.762 99.92 280.101C99.8997 279.44 99.7601 278.889 99.5011 278.449C99.2528 278.008 98.928 277.682 98.5267 277.47C98.1253 277.258 97.7007 277.159 97.2529 277.173C96.7945 277.187 96.3715 277.312 95.9838 277.548C95.5962 277.784 95.2867 278.13 95.0552 278.585C94.8238 279.041 94.7182 279.599 94.7385 280.26C94.7587 280.921 94.8984 281.471 95.1573 281.912C95.4163 282.352 95.7411 282.678 96.1318 282.89C96.5332 283.102 96.9577 283.201 97.4055 283.187ZM105.166 283.909L101.916 276.07L103.323 276.026L105.91 282.59L108.105 275.88L109.48 275.837L106.717 283.862L105.166 283.909ZM114.385 283.819C113.628 283.842 112.951 283.692 112.354 283.369C111.757 283.035 111.278 282.564 110.918 281.956C110.569 281.348 110.381 280.623 110.355 279.78C110.33 278.949 110.473 278.219 110.784 277.59C111.095 276.951 111.539 276.452 112.115 276.093C112.701 275.722 113.383 275.525 114.162 275.502C114.929 275.478 115.596 275.634 116.161 275.968C116.736 276.292 117.182 276.732 117.498 277.288C117.814 277.844 117.982 278.447 118.002 279.097C118.005 279.215 118.004 279.332 117.997 279.45C118 279.567 118.004 279.7 118.009 279.85L111.692 280.043C111.742 280.65 111.897 281.152 112.154 281.55C112.422 281.937 112.746 282.225 113.125 282.417C113.515 282.607 113.924 282.696 114.35 282.683C114.904 282.666 115.364 282.524 115.73 282.257C116.095 281.989 116.356 281.634 116.513 281.192L117.841 281.151C117.65 281.893 117.258 282.519 116.666 283.028C116.083 283.526 115.323 283.79 114.385 283.819ZM114.164 276.638C113.525 276.658 112.96 276.872 112.471 277.282C111.993 277.681 111.728 278.255 111.676 279.003L116.666 278.85C116.612 278.137 116.349 277.585 115.878 277.194C115.407 276.803 114.836 276.617 114.164 276.638ZM119.918 283.457L119.674 275.524L120.89 275.487L121.021 276.636C121.264 276.201 121.595 275.86 122.014 275.613C122.433 275.365 122.91 275.233 123.443 275.217C124.072 275.197 124.614 275.309 125.07 275.551C125.536 275.793 125.9 276.171 126.161 276.686C126.423 276.198 126.79 275.808 127.262 275.516C127.744 275.223 128.267 275.069 128.832 275.051C129.781 275.022 130.547 275.287 131.13 275.845C131.712 276.393 132.021 277.258 132.058 278.442L132.2 283.08L130.873 283.12L130.735 278.626C130.709 277.806 130.525 277.192 130.182 276.787C129.839 276.381 129.358 276.188 128.739 276.207C128.1 276.226 127.574 276.493 127.163 277.007C126.763 277.511 126.576 278.221 126.604 279.137L126.731 283.248L125.387 283.289L125.249 278.795C125.224 277.974 125.04 277.361 124.697 276.955C124.353 276.549 123.872 276.356 123.254 276.375C122.625 276.394 122.105 276.661 121.694 277.175C121.293 277.678 121.107 278.388 121.135 279.305L121.261 283.415L119.918 283.457ZM137.796 283.1C137.039 283.123 136.362 282.973 135.765 282.65C135.168 282.316 134.689 281.845 134.329 281.237C133.979 280.629 133.792 279.904 133.766 279.062C133.74 278.23 133.883 277.5 134.195 276.871C134.506 276.232 134.95 275.733 135.526 275.374C136.112 275.004 136.794 274.807 137.572 274.783C138.34 274.759 139.007 274.915 139.572 275.25C140.147 275.574 140.593 276.013 140.909 276.569C141.225 277.125 141.393 277.728 141.413 278.379C141.416 278.496 141.414 278.613 141.407 278.731C141.411 278.848 141.415 278.982 141.42 279.131L135.103 279.325C135.153 279.932 135.307 280.434 135.565 280.831C135.833 281.218 136.157 281.507 136.536 281.698C136.926 281.889 137.334 281.978 137.761 281.964C138.315 281.947 138.775 281.805 139.14 281.538C139.506 281.271 139.767 280.916 139.924 280.473L141.252 280.433C141.061 281.175 140.669 281.8 140.077 282.31C139.494 282.808 138.734 283.071 137.796 283.1ZM137.575 275.919C136.936 275.939 136.371 276.154 135.882 276.564C135.404 276.962 135.138 277.536 135.087 278.285L140.076 278.132C140.022 277.418 139.76 276.866 139.289 276.475C138.818 276.084 138.247 275.899 137.575 275.919ZM143.329 282.738L143.085 274.806L144.301 274.768L144.424 276.189C144.665 275.68 145.02 275.275 145.491 274.972C145.962 274.669 146.502 274.509 147.109 274.49C148.048 274.461 148.803 274.726 149.375 275.285C149.957 275.833 150.267 276.698 150.303 277.882L150.445 282.52L149.102 282.561L148.964 278.067C148.913 276.414 148.206 275.609 146.841 275.651C146.158 275.672 145.596 275.94 145.153 276.455C144.72 276.959 144.518 277.67 144.546 278.587L144.672 282.697L143.329 282.738ZM155.615 282.361C154.89 282.383 154.314 282.225 153.888 281.886C153.461 281.547 153.234 280.919 153.206 280.002L153.072 275.636L151.696 275.678L151.661 274.542L153.037 274.5L153.154 272.592L154.322 272.556L154.38 274.459L156.715 274.387L156.75 275.523L154.415 275.594L154.549 279.96C154.564 280.462 154.676 280.8 154.884 280.975C155.092 281.139 155.452 281.213 155.964 281.198L156.795 281.172L156.831 282.324L155.615 282.361ZM159.183 272.551C158.917 272.559 158.69 272.481 158.504 272.315C158.328 272.139 158.235 271.918 158.227 271.652C158.219 271.396 158.298 271.18 158.463 271.004C158.639 270.828 158.861 270.736 159.127 270.728C159.383 270.72 159.604 270.798 159.791 270.963C159.977 271.128 160.075 271.339 160.082 271.595C160.091 271.861 160.007 272.088 159.831 272.275C159.655 272.451 159.439 272.543 159.183 272.551ZM158.809 282.263L158.566 274.331L159.909 274.289L160.152 282.222L158.809 282.263ZM162.491 282.15L162.248 274.217L163.463 274.18L163.587 275.601C163.828 275.092 164.183 274.686 164.654 274.384C165.125 274.081 165.664 273.921 166.272 273.902C167.21 273.873 167.966 274.138 168.538 274.697C169.12 275.244 169.429 276.11 169.466 277.293L169.608 281.931L168.265 281.973L168.127 277.479C168.076 275.826 167.368 275.021 166.004 275.063C165.321 275.084 164.759 275.352 164.316 275.867C163.883 276.371 163.681 277.082 163.709 277.998L163.835 282.109L162.491 282.15ZM175.252 281.758L179.034 270.437L180.458 270.393L184.912 281.462L183.488 281.505L182.376 278.658L177.611 278.804L176.659 281.715L175.252 281.758ZM177.977 277.705L181.943 277.583L179.79 272.11L177.977 277.705ZM189.225 281.521C188.286 281.55 187.531 281.29 186.96 280.742C186.387 280.184 186.083 279.313 186.047 278.129L185.905 273.491L187.248 273.45L187.386 277.944C187.437 279.597 188.139 280.402 189.493 280.36C190.186 280.339 190.749 280.076 191.182 279.572C191.625 279.057 191.832 278.341 191.804 277.424L191.678 273.314L193.021 273.273L193.265 281.205L192.049 281.242L191.91 279.822C191.68 280.331 191.324 280.736 190.843 281.039C190.372 281.342 189.832 281.503 189.225 281.521ZM198.61 281.041C197.885 281.063 197.31 280.905 196.883 280.566C196.456 280.227 196.229 279.599 196.201 278.682L196.067 274.316L194.692 274.358L194.657 273.223L196.032 273.18L196.15 271.272L197.317 271.236L197.375 273.139L199.71 273.068L199.745 274.203L197.41 274.275L197.544 278.641C197.56 279.142 197.671 279.48 197.88 279.655C198.087 279.819 198.447 279.893 198.959 279.878L199.791 279.852L199.826 281.004L198.61 281.041ZM205.062 281.035C204.316 281.058 203.639 280.908 203.031 280.585C202.424 280.262 201.935 279.797 201.564 279.19C201.203 278.571 201.01 277.841 200.984 276.998C200.958 276.156 201.112 275.42 201.445 274.791C201.777 274.151 202.237 273.652 202.823 273.292C203.421 272.932 204.092 272.741 204.839 272.718C205.585 272.695 206.262 272.845 206.87 273.168C207.477 273.491 207.961 273.961 208.322 274.58C208.692 275.188 208.891 275.913 208.917 276.755C208.942 277.597 208.789 278.338 208.457 278.978C208.124 279.607 207.659 280.102 207.061 280.461C206.475 280.821 205.808 281.012 205.062 281.035ZM205.027 279.884C205.485 279.87 205.908 279.744 206.296 279.508C206.683 279.272 206.993 278.927 207.224 278.471C207.456 278.016 207.561 277.458 207.541 276.797C207.521 276.136 207.381 275.585 207.122 275.145C206.874 274.704 206.549 274.378 206.148 274.167C205.746 273.955 205.322 273.856 204.874 273.869C204.416 273.884 203.993 274.009 203.605 274.245C203.217 274.481 202.908 274.826 202.676 275.282C202.445 275.737 202.339 276.295 202.36 276.956C202.38 277.617 202.52 278.168 202.779 278.608C203.037 279.048 203.362 279.374 203.753 279.587C204.154 279.798 204.579 279.897 205.027 279.884ZM210.906 280.664L210.663 272.731L211.878 272.694L212.009 273.843C212.252 273.408 212.583 273.067 213.002 272.82C213.422 272.572 213.898 272.44 214.431 272.424C215.06 272.404 215.602 272.516 216.058 272.758C216.524 273 216.888 273.378 217.149 273.893C217.412 273.405 217.779 273.014 218.25 272.722C218.732 272.43 219.255 272.275 219.82 272.258C220.769 272.229 221.535 272.494 222.118 273.052C222.7 273.6 223.01 274.465 223.046 275.649L223.188 280.287L221.861 280.327L221.723 275.833C221.698 275.012 221.514 274.399 221.17 273.993C220.827 273.588 220.346 273.394 219.728 273.413C219.088 273.433 218.563 273.7 218.152 274.214C217.751 274.717 217.565 275.427 217.593 276.344L217.719 280.454L216.376 280.496L216.238 276.002C216.212 275.181 216.028 274.568 215.685 274.162C215.342 273.756 214.861 273.563 214.242 273.582C213.613 273.601 213.093 273.868 212.682 274.382C212.282 274.885 212.095 275.595 212.123 276.512L212.25 280.622L210.906 280.664ZM227.857 280.335C227.196 280.356 226.643 280.261 226.199 280.05C225.755 279.84 225.421 279.551 225.196 279.184C224.971 278.818 224.852 278.416 224.839 277.979C224.814 277.169 225.104 276.535 225.709 276.079C226.314 275.623 227.149 275.379 228.216 275.346L230.359 275.28L230.356 275.184C230.334 274.491 230.137 273.974 229.764 273.634C229.39 273.282 228.9 273.116 228.292 273.135C227.769 273.151 227.32 273.298 226.945 273.576C226.579 273.843 226.357 274.229 226.276 274.733L224.901 274.775C224.936 274.198 225.113 273.707 225.432 273.302C225.761 272.897 226.173 272.586 226.668 272.368C227.162 272.139 227.692 272.016 228.257 271.999C229.366 271.965 230.207 272.238 230.779 272.818C231.362 273.387 231.669 274.162 231.699 275.143L231.849 280.021L230.649 280.058L230.526 278.637C230.316 279.091 229.997 279.485 229.57 279.819C229.153 280.141 228.582 280.313 227.857 280.335ZM228.03 279.193C228.541 279.178 228.974 279.031 229.329 278.753C229.694 278.475 229.966 278.12 230.144 277.688C230.323 277.256 230.405 276.805 230.391 276.336L230.391 276.32L228.36 276.382C227.571 276.406 227.015 276.562 226.693 276.849C226.381 277.126 226.232 277.466 226.244 277.872C226.257 278.287 226.417 278.619 226.723 278.865C227.04 279.101 227.475 279.21 228.03 279.193ZM236.78 279.869C236.055 279.892 235.479 279.733 235.053 279.394C234.626 279.055 234.399 278.427 234.37 277.51L234.236 273.144L232.861 273.186L232.826 272.051L234.202 272.009L234.319 270.1L235.487 270.064L235.545 271.967L237.88 271.896L237.915 273.031L235.58 273.103L235.714 277.469C235.729 277.97 235.841 278.308 236.049 278.483C236.257 278.647 236.617 278.722 237.128 278.706L237.96 278.681L237.995 279.832L236.78 279.869ZM240.348 270.059C240.082 270.067 239.855 269.989 239.669 269.824C239.492 269.648 239.4 269.427 239.392 269.16C239.384 268.904 239.463 268.688 239.628 268.513C239.804 268.336 240.026 268.244 240.292 268.236C240.548 268.228 240.769 268.307 240.956 268.472C241.142 268.637 241.239 268.847 241.247 269.103C241.255 269.37 241.172 269.596 240.996 269.783C240.82 269.959 240.604 270.051 240.348 270.059ZM239.974 279.771L239.73 271.839L241.074 271.798L241.317 279.73L239.974 279.771ZM247.277 279.739C246.53 279.762 245.853 279.612 245.246 279.289C244.638 278.966 244.149 278.501 243.778 277.894C243.418 277.275 243.225 276.545 243.199 275.702C243.173 274.86 243.326 274.124 243.659 273.495C243.992 272.855 244.451 272.356 245.038 271.996C245.635 271.636 246.307 271.445 247.053 271.422C247.8 271.399 248.476 271.549 249.084 271.872C249.692 272.195 250.176 272.666 250.536 273.284C250.907 273.892 251.105 274.617 251.131 275.459C251.157 276.301 251.004 277.042 250.671 277.682C250.338 278.311 249.873 278.806 249.276 279.166C248.689 279.525 248.023 279.716 247.277 279.739ZM247.241 278.588C247.7 278.574 248.123 278.449 248.51 278.213C248.898 277.977 249.207 277.631 249.439 277.176C249.67 276.72 249.776 276.162 249.756 275.501C249.735 274.84 249.596 274.289 249.337 273.849C249.089 273.409 248.764 273.082 248.362 272.871C247.961 272.659 247.536 272.56 247.089 272.574C246.63 272.588 246.207 272.713 245.82 272.949C245.432 273.185 245.122 273.53 244.891 273.986C244.659 274.441 244.554 274.999 244.574 275.66C244.594 276.321 244.734 276.872 244.993 277.312C245.252 277.752 245.577 278.079 245.967 278.291C246.369 278.502 246.793 278.601 247.241 278.588ZM253.121 279.368L252.877 271.435L254.093 271.398L254.216 272.819C254.457 272.31 254.812 271.904 255.283 271.602C255.754 271.299 256.294 271.138 256.901 271.12C257.84 271.091 258.595 271.356 259.167 271.915C259.749 272.462 260.059 273.328 260.095 274.511L260.237 279.149L258.894 279.19L258.756 274.697C258.705 273.044 257.998 272.239 256.633 272.281C255.951 272.302 255.388 272.57 254.945 273.085C254.512 273.589 254.31 274.299 254.338 275.216L254.464 279.326L253.121 279.368Z" fill="#474E60"/>
<g clip-path="url(#clip2_329_20428)">
<rect x="59.5381" y="298.316" width="214" height="20" rx="10" transform="rotate(-1.75827 59.5381 298.316)" fill="url(#paint0_linear_329_20428)"/>
<rect x="247.319" y="260.537" width="25.1482" height="84" transform="rotate(-1.75827 247.319 260.537)" fill="white"/>
<rect x="247.319" y="260.537" width="25.1482" height="84" transform="rotate(-1.75827 247.319 260.537)" fill="url(#paint1_linear_329_20428)"/>
</g>
</g>
</g>
<defs>
<filter id="filter0_d_329_20428" x="176" y="3" width="116" height="100" filterUnits="userSpaceOnUse" color-interpolation-filters="sRGB">
<feFlood flood-opacity="0" result="BackgroundImageFix"/>
<feColorMatrix in="SourceAlpha" type="matrix" values="0 0 0 0 0 0 0 0 0 0 0 0 0 0 0 0 0 0 127 0" result="hardAlpha"/>
<feOffset dy="9"/>
<feGaussianBlur stdDeviation="15"/>
<feComposite in2="hardAlpha" operator="out"/>
<feColorMatrix type="matrix" values="0 0 0 0 0.25893 0 0 0 0 0.545833 0 0 0 0 0.0841493 0 0 0 0.35 0"/>
<feBlend mode="normal" in2="BackgroundImageFix" result="effect1_dropShadow_329_20428"/>
<feBlend mode="normal" in="SourceGraphic" in2="effect1_dropShadow_329_20428" result="shape"/>
</filter>
<linearGradient id="paint0_linear_329_20428" x1="280.861" y1="290.34" x2="200.33" y2="426.376" gradientUnits="userSpaceOnUse">
<stop stop-color="#C2FF9D"/>
<stop offset="1" stop-color="#ACFF79" stop-opacity="0"/>
</linearGradient>
<linearGradient id="paint1_linear_329_20428" x1="259.893" y1="260.537" x2="259.893" y2="353.713" gradientUnits="userSpaceOnUse">
<stop stop-color="#EBFAF8"/>
<stop offset="1" stop-color="#EBFAF8" stop-opacity="0"/>
</linearGradient>
<clipPath id="clip0_329_20428">
<rect width="286" height="337" rx="16" fill="white"/>
</clipPath>
<clipPath id="clip1_329_20428">
<rect width="262" height="151" fill="white" transform="translate(24 186)"/>
</clipPath>
<clipPath id="clip2_329_20428">
<rect x="59.5381" y="298.316" width="214" height="20" rx="10" transform="rotate(-1.75827 59.5381 298.316)" fill="white"/>
</clipPath>
</defs>
</svg>
