<svg width="286" height="337" viewBox="0 0 286 337" fill="none" xmlns="http://www.w3.org/2000/svg">
<g clip-path="url(#clip0_329_20425)">
<rect width="286" height="337" rx="16" fill="#A8FF73"/>
<path d="M43.9998 28.1667V59.8333M57.3332 44C57.3332 52.1807 48.4099 58.1307 45.1632 60.0248C44.7942 60.24 44.6097 60.3477 44.3493 60.4035C44.1472 60.4468 43.8524 60.4468 43.6504 60.4035C43.39 60.3477 43.2055 60.24 42.8365 60.0248C39.5898 58.1307 30.6665 52.1807 30.6665 44V36.0293C30.6665 34.6968 30.6665 34.0305 30.8844 33.4578C31.077 32.9519 31.3898 32.5005 31.7959 32.1425C32.2557 31.7374 32.8795 31.5034 34.1272 31.0356L43.0635 27.6844C43.41 27.5545 43.5832 27.4895 43.7615 27.4638C43.9196 27.4409 44.0801 27.4409 44.2382 27.4638C44.4164 27.4895 44.5897 27.5545 44.9362 27.6844L53.8725 31.0356C55.1202 31.5034 55.744 31.7374 56.2037 32.1425C56.6099 32.5005 56.9227 32.9519 57.1152 33.4578C57.3332 34.0305 57.3332 34.6968 57.3332 36.0293V44Z" stroke="#0B0E18" stroke-width="2" stroke-linecap="round" stroke-linejoin="round"/>
<g filter="url(#filter0_d_329_20425)">
<rect x="206" y="24" width="56" height="40" rx="20" fill="white" shape-rendering="crispEdges"/>
<path fill-rule="evenodd" clip-rule="evenodd" d="M231 38C231 37.4477 231.448 37 232 37H240C240.552 37 241 37.4477 241 38V46C241 46.5523 240.552 47 240 47C239.448 47 239 46.5523 239 46V40.4142L228.707 50.7071C228.317 51.0976 227.683 51.0976 227.293 50.7071C226.902 50.3166 226.902 49.6834 227.293 49.2929L237.586 39H232C231.448 39 231 38.5523 231 38Z" fill="#0B0E18"/>
</g>
<path d="M25.752 102V84.72H32.568C36.288 84.72 38.52 86.664 38.52 89.616C38.52 92.592 36.264 94.56 32.568 94.56H31.704L39.384 102H35.736L28.536 94.56H28.296V102H25.752ZM32.496 86.808H28.296V92.496H32.496C34.776 92.496 36.024 91.416 36.024 89.64C36.024 87.84 34.824 86.808 32.496 86.808ZM46.1492 102.24C42.4532 102.24 39.9092 99.6 39.9092 95.856C39.9092 92.088 42.4292 89.52 46.1252 89.52C49.6772 89.52 51.9332 91.896 51.9332 95.568C51.9332 95.952 51.9092 96.264 51.8612 96.624H42.4532C42.6932 98.928 44.0612 100.296 46.1972 100.296C47.6132 100.296 48.7412 99.696 49.2452 98.544H51.5972C50.7812 100.848 48.8132 102.24 46.1492 102.24ZM46.1252 91.464C44.1812 91.464 42.8372 92.688 42.5012 94.752H49.4372C49.2212 92.616 48.0452 91.464 46.1252 91.464ZM63.3887 102V99.888C62.6927 101.352 61.1087 102.24 59.1647 102.24C55.8047 102.24 53.6687 99.744 53.6687 95.928C53.6687 92.064 55.8767 89.544 59.2367 89.544C61.1567 89.544 62.5727 90.336 63.2927 91.728V84.72H65.7647V102H63.3887ZM59.7887 100.152C61.9727 100.152 63.3647 98.544 63.3647 95.856C63.3647 93.216 61.9727 91.608 59.7647 91.608C57.6047 91.608 56.2367 93.216 56.2367 95.928C56.2367 98.592 57.6047 100.152 59.7887 100.152ZM73.2594 102.24C70.7634 102.24 69.1314 100.56 69.1314 98.208V89.76H71.6274V97.632C71.6274 99.312 72.4674 100.152 74.0274 100.152C76.0674 100.152 77.6034 98.616 77.6034 96.36V89.76H80.0754V102H77.6994V99.696C76.8354 101.28 75.2034 102.24 73.2594 102.24ZM88.6134 102.24C85.0854 102.24 82.5654 99.552 82.5654 95.856C82.5654 92.16 85.0854 89.52 88.5894 89.52C91.4934 89.52 93.6534 91.272 94.0614 93.936H91.7094C91.3734 92.496 90.2694 91.56 88.6374 91.56C86.5014 91.56 85.1334 93.24 85.1334 95.856C85.1334 98.448 86.5014 100.2 88.6614 100.2C90.2214 100.2 91.3974 99.288 91.7334 97.848H94.0854C93.6294 100.488 91.4214 102.24 88.6134 102.24ZM101.79 102.24C98.0938 102.24 95.5498 99.6 95.5498 95.856C95.5498 92.088 98.0698 89.52 101.766 89.52C105.318 89.52 107.574 91.896 107.574 95.568C107.574 95.952 107.55 96.264 107.502 96.624H98.0938C98.3338 98.928 99.7018 100.296 101.838 100.296C103.254 100.296 104.382 99.696 104.886 98.544H107.238C106.422 100.848 104.454 102.24 101.79 102.24ZM101.766 91.464C99.8218 91.464 98.4778 92.688 98.1418 94.752H105.078C104.862 92.616 103.686 91.464 101.766 91.464ZM114.861 102V84.72H121.677C125.397 84.72 127.629 86.664 127.629 89.616C127.629 92.592 125.373 94.56 121.677 94.56H120.813L128.493 102H124.845L117.645 94.56H117.405V102H114.861ZM121.605 86.808H117.405V92.496H121.605C123.885 92.496 125.133 91.416 125.133 89.64C125.133 87.84 123.933 86.808 121.605 86.808ZM130.445 87.36V84.552H133.181V87.36H130.445ZM130.565 102V89.76H133.061V102H130.565ZM140.957 102.24C137.765 102.24 135.773 100.776 135.533 98.208H137.837C138.029 99.624 139.157 100.392 141.005 100.392C142.637 100.392 143.525 99.792 143.525 98.736C143.525 97.968 143.141 97.464 141.701 97.104L139.733 96.648C137.261 96.048 136.085 94.848 136.085 93.072C136.085 90.864 137.837 89.52 140.717 89.52C143.573 89.52 145.421 90.864 145.637 93.168H143.333C143.141 91.992 142.205 91.368 140.645 91.368C139.157 91.368 138.365 91.92 138.365 92.856C138.365 93.624 138.893 94.128 140.285 94.464L142.301 94.968C144.629 95.568 145.829 96.912 145.829 98.712C145.829 100.92 144.029 102.24 140.957 102.24ZM148.143 102V84.408H150.639V95.064L155.895 89.76H159.039L153.039 95.568L159.279 102H156.087L150.639 96.24V102H148.143Z" fill="#0B0E18"/>
<path d="M25.184 131V119.8H32V120.904H26.528V124.84H31.184V125.928H26.528V131H25.184ZM35.744 131.192C35.0827 131.192 34.5333 131.08 34.096 130.856C33.6587 130.632 33.3333 130.333 33.12 129.96C32.9067 129.587 32.8 129.181 32.8 128.744C32.8 127.933 33.1093 127.309 33.728 126.872C34.3467 126.435 35.1893 126.216 36.256 126.216H38.4V126.12C38.4 125.427 38.2187 124.904 37.856 124.552C37.4933 124.189 37.008 124.008 36.4 124.008C35.8773 124.008 35.424 124.141 35.04 124.408C34.6667 124.664 34.432 125.043 34.336 125.544H32.96C33.0133 124.968 33.2053 124.483 33.536 124.088C33.8773 123.693 34.2987 123.395 34.8 123.192C35.3013 122.979 35.8347 122.872 36.4 122.872C37.5093 122.872 38.3413 123.171 38.896 123.768C39.4613 124.355 39.744 125.139 39.744 126.12V131H38.544L38.464 129.576C38.24 130.024 37.9093 130.408 37.472 130.728C37.0453 131.037 36.4693 131.192 35.744 131.192ZM35.952 130.056C36.464 130.056 36.9013 129.923 37.264 129.656C37.6373 129.389 37.92 129.043 38.112 128.616C38.304 128.189 38.4 127.741 38.4 127.272V127.256H36.368C35.5787 127.256 35.0187 127.395 34.688 127.672C34.368 127.939 34.208 128.275 34.208 128.68C34.208 129.096 34.3573 129.432 34.656 129.688C34.9653 129.933 35.3973 130.056 35.952 130.056ZM44.8003 131.192C43.8509 131.192 43.0616 130.952 42.4323 130.472C41.8029 129.992 41.4349 129.341 41.3283 128.52H42.7043C42.7896 128.936 43.0083 129.299 43.3603 129.608C43.7229 129.907 44.2083 130.056 44.8163 130.056C45.3816 130.056 45.7976 129.939 46.0643 129.704C46.3309 129.459 46.4643 129.171 46.4643 128.84C46.4643 128.36 46.2883 128.04 45.9363 127.88C45.5949 127.72 45.1096 127.576 44.4803 127.448C44.0536 127.363 43.6269 127.24 43.2003 127.08C42.7736 126.92 42.4163 126.696 42.1283 126.408C41.8403 126.109 41.6963 125.72 41.6963 125.24C41.6963 124.547 41.9523 123.981 42.4643 123.544C42.9869 123.096 43.6909 122.872 44.5763 122.872C45.4189 122.872 46.1069 123.085 46.6403 123.512C47.1843 123.928 47.4989 124.525 47.5843 125.304H46.2563C46.2029 124.899 46.0269 124.584 45.7283 124.36C45.4403 124.125 45.0509 124.008 44.5603 124.008C44.0803 124.008 43.7069 124.109 43.4403 124.312C43.1843 124.515 43.0563 124.781 43.0563 125.112C43.0563 125.432 43.2216 125.683 43.5523 125.864C43.8936 126.045 44.3523 126.2 44.9283 126.328C45.4189 126.435 45.8829 126.568 46.3203 126.728C46.7683 126.877 47.1309 127.107 47.4083 127.416C47.6963 127.715 47.8403 128.152 47.8403 128.728C47.8509 129.443 47.5789 130.035 47.0243 130.504C46.4803 130.963 45.7389 131.192 44.8003 131.192ZM52.5369 131C51.8115 131 51.2409 130.824 50.8249 130.472C50.4089 130.12 50.2009 129.485 50.2009 128.568V124.2H48.8249V123.064H50.2009L50.3769 121.16H51.5449V123.064H53.8809V124.2H51.5449V128.568C51.5449 129.069 51.6462 129.411 51.8489 129.592C52.0515 129.763 52.4089 129.848 52.9209 129.848H53.7529V131H52.5369ZM58.9376 131.192C58.1803 131.192 57.5083 131.021 56.9216 130.68C56.335 130.328 55.871 129.843 55.5296 129.224C55.199 128.605 55.0336 127.875 55.0336 127.032C55.0336 126.2 55.199 125.475 55.5296 124.856C55.8603 124.227 56.319 123.741 56.9056 123.4C57.503 123.048 58.191 122.872 58.9696 122.872C59.7376 122.872 60.399 123.048 60.9536 123.4C61.519 123.741 61.951 124.195 62.2496 124.76C62.5483 125.325 62.6976 125.933 62.6976 126.584C62.6976 126.701 62.6923 126.819 62.6816 126.936C62.6816 127.053 62.6816 127.187 62.6816 127.336H56.3616C56.3936 127.944 56.5323 128.451 56.7776 128.856C57.0336 129.251 57.3483 129.549 57.7216 129.752C58.1056 129.955 58.511 130.056 58.9376 130.056C59.4923 130.056 59.9563 129.928 60.3296 129.672C60.703 129.416 60.975 129.069 61.1456 128.632H62.4736C62.2603 129.368 61.8496 129.981 61.2416 130.472C60.6443 130.952 59.8763 131.192 58.9376 131.192ZM58.9376 124.008C58.2976 124.008 57.727 124.205 57.2256 124.6C56.735 124.984 56.4523 125.549 56.3776 126.296H61.3696C61.3376 125.581 61.0923 125.021 60.6336 124.616C60.175 124.211 59.6096 124.008 58.9376 124.008ZM64.479 131V123.064H65.695L65.807 124.584C66.0523 124.061 66.4257 123.645 66.927 123.336C67.4283 123.027 68.047 122.872 68.783 122.872V124.28H68.415C67.9457 124.28 67.5137 124.365 67.119 124.536C66.7243 124.696 66.4097 124.973 66.175 125.368C65.9403 125.763 65.823 126.307 65.823 127V131H64.479ZM74.6059 131V119.8H76.1739L80.2059 127.608L84.2059 119.8H85.7899V131H84.4459V122.2L80.7019 129.4H79.6939L75.9499 122.216V131H74.6059ZM90.7768 131V120.904H87.4328V119.8H95.4648V120.904H92.1208V131H90.7768ZM99.7299 131V120.904H96.3859V119.8H104.418V120.904H101.074V131H99.7299ZM106.059 131V119.8H109.675C110.55 119.8 111.264 119.944 111.819 120.232C112.374 120.52 112.784 120.915 113.051 121.416C113.318 121.917 113.451 122.472 113.451 123.08C113.451 123.784 113.259 124.419 112.875 124.984C112.502 125.549 111.915 125.949 111.115 126.184L113.563 131H111.979L109.707 126.376H109.611H107.403V131H106.059ZM107.403 125.32H109.579C110.443 125.32 111.072 125.112 111.467 124.696C111.862 124.28 112.059 123.747 112.059 123.096C112.059 122.435 111.862 121.912 111.467 121.528C111.083 121.133 110.448 120.936 109.563 120.936H107.403V125.32ZM121.298 131L118.978 123.064H120.322L122.002 129.288L123.858 123.064H125.378L127.25 129.288L128.914 123.064H130.274L127.954 131H126.578L124.626 124.456L122.674 131H121.298ZM132.576 121.304C132.31 121.304 132.086 121.219 131.904 121.048C131.734 120.867 131.648 120.643 131.648 120.376C131.648 120.12 131.734 119.907 131.904 119.736C132.086 119.565 132.31 119.48 132.576 119.48C132.832 119.48 133.051 119.565 133.232 119.736C133.414 119.907 133.504 120.12 133.504 120.376C133.504 120.643 133.414 120.867 133.232 121.048C133.051 121.219 132.832 121.304 132.576 121.304ZM131.904 131V123.064H133.248V131H131.904ZM138.724 131C137.999 131 137.428 130.824 137.012 130.472C136.596 130.12 136.388 129.485 136.388 128.568V124.2H135.012V123.064H136.388L136.564 121.16H137.732V123.064H140.068V124.2H137.732V128.568C137.732 129.069 137.834 129.411 138.036 129.592C138.239 129.763 138.596 129.848 139.108 129.848H139.94V131H138.724ZM141.776 131V119.48H143.12V124.424C143.387 123.933 143.765 123.555 144.256 123.288C144.747 123.011 145.28 122.872 145.856 122.872C146.773 122.872 147.509 123.16 148.064 123.736C148.619 124.301 148.896 125.176 148.896 126.36V131H147.568V126.504C147.568 124.851 146.901 124.024 145.568 124.024C144.875 124.024 144.293 124.275 143.824 124.776C143.355 125.267 143.12 125.971 143.12 126.888V131H141.776ZM151.012 131V119.8H152.356L158.324 128.776V119.8H159.668V131H158.324L152.356 122.024V131H151.012ZM165.579 131.192C164.833 131.192 164.161 131.021 163.563 130.68C162.966 130.339 162.491 129.859 162.139 129.24C161.798 128.611 161.627 127.875 161.627 127.032C161.627 126.189 161.803 125.459 162.155 124.84C162.507 124.211 162.982 123.725 163.579 123.384C164.187 123.043 164.865 122.872 165.611 122.872C166.358 122.872 167.03 123.043 167.627 123.384C168.225 123.725 168.694 124.211 169.035 124.84C169.387 125.459 169.563 126.189 169.563 127.032C169.563 127.875 169.387 128.611 169.035 129.24C168.683 129.859 168.203 130.339 167.595 130.68C166.998 131.021 166.326 131.192 165.579 131.192ZM165.579 130.04C166.038 130.04 166.465 129.928 166.859 129.704C167.254 129.48 167.574 129.144 167.819 128.696C168.065 128.248 168.187 127.693 168.187 127.032C168.187 126.371 168.065 125.816 167.819 125.368C167.585 124.92 167.27 124.584 166.875 124.36C166.481 124.136 166.059 124.024 165.611 124.024C165.153 124.024 164.726 124.136 164.331 124.36C163.937 124.584 163.617 124.92 163.371 125.368C163.126 125.816 163.003 126.371 163.003 127.032C163.003 127.693 163.126 128.248 163.371 128.696C163.617 129.144 163.931 129.48 164.315 129.704C164.71 129.928 165.131 130.04 165.579 130.04ZM175.747 131V119.8H179.187C181.16 119.8 182.611 120.301 183.539 121.304C184.477 122.307 184.947 123.683 184.947 125.432C184.947 127.149 184.477 128.509 183.539 129.512C182.611 130.504 181.16 131 179.187 131H175.747ZM177.091 129.88H179.155C180.243 129.88 181.107 129.704 181.747 129.352C182.397 128.989 182.861 128.477 183.139 127.816C183.416 127.144 183.555 126.349 183.555 125.432C183.555 124.493 183.416 123.688 183.139 123.016C182.861 122.344 182.397 121.827 181.747 121.464C181.107 121.101 180.243 120.92 179.155 120.92H177.091V129.88ZM190.375 131.192C189.618 131.192 188.946 131.021 188.359 130.68C187.772 130.328 187.308 129.843 186.967 129.224C186.636 128.605 186.471 127.875 186.471 127.032C186.471 126.2 186.636 125.475 186.967 124.856C187.298 124.227 187.756 123.741 188.343 123.4C188.94 123.048 189.628 122.872 190.407 122.872C191.175 122.872 191.836 123.048 192.391 123.4C192.956 123.741 193.388 124.195 193.687 124.76C193.986 125.325 194.135 125.933 194.135 126.584C194.135 126.701 194.13 126.819 194.119 126.936C194.119 127.053 194.119 127.187 194.119 127.336H187.799C187.831 127.944 187.97 128.451 188.215 128.856C188.471 129.251 188.786 129.549 189.159 129.752C189.543 129.955 189.948 130.056 190.375 130.056C190.93 130.056 191.394 129.928 191.767 129.672C192.14 129.416 192.412 129.069 192.583 128.632H193.911C193.698 129.368 193.287 129.981 192.679 130.472C192.082 130.952 191.314 131.192 190.375 131.192ZM190.375 124.008C189.735 124.008 189.164 124.205 188.663 124.6C188.172 124.984 187.89 125.549 187.815 126.296H192.807C192.775 125.581 192.53 125.021 192.071 124.616C191.612 124.211 191.047 124.008 190.375 124.008ZM195.917 131V119.48H197.261V131H195.917ZM202.103 131.192C201.442 131.192 200.893 131.08 200.455 130.856C200.018 130.632 199.693 130.333 199.479 129.96C199.266 129.587 199.159 129.181 199.159 128.744C199.159 127.933 199.469 127.309 200.087 126.872C200.706 126.435 201.549 126.216 202.615 126.216H204.759V126.12C204.759 125.427 204.578 124.904 204.215 124.552C203.853 124.189 203.367 124.008 202.759 124.008C202.237 124.008 201.783 124.141 201.399 124.408C201.026 124.664 200.791 125.043 200.695 125.544H199.319C199.373 124.968 199.565 124.483 199.895 124.088C200.237 123.693 200.658 123.395 201.159 123.192C201.661 122.979 202.194 122.872 202.759 122.872C203.869 122.872 204.701 123.171 205.255 123.768C205.821 124.355 206.103 125.139 206.103 126.12V131H204.903L204.823 129.576C204.599 130.024 204.269 130.408 203.831 130.728C203.405 131.037 202.829 131.192 202.103 131.192ZM202.311 130.056C202.823 130.056 203.261 129.923 203.623 129.656C203.997 129.389 204.279 129.043 204.471 128.616C204.663 128.189 204.759 127.741 204.759 127.272V127.256H202.727C201.938 127.256 201.378 127.395 201.047 127.672C200.727 127.939 200.567 128.275 200.567 128.68C200.567 129.096 200.717 129.432 201.015 129.688C201.325 129.933 201.757 130.056 202.311 130.056ZM208.749 134.52L210.717 130.232H210.253L207.101 123.064H208.557L211.181 129.24L213.965 123.064H215.357L210.157 134.52H208.749ZM219.594 131.192C218.837 131.192 218.165 131.021 217.578 130.68C216.991 130.328 216.527 129.843 216.186 129.224C215.855 128.605 215.69 127.875 215.69 127.032C215.69 126.2 215.855 125.475 216.186 124.856C216.517 124.227 216.975 123.741 217.562 123.4C218.159 123.048 218.847 122.872 219.626 122.872C220.394 122.872 221.055 123.048 221.61 123.4C222.175 123.741 222.607 124.195 222.906 124.76C223.205 125.325 223.354 125.933 223.354 126.584C223.354 126.701 223.349 126.819 223.338 126.936C223.338 127.053 223.338 127.187 223.338 127.336H217.018C217.05 127.944 217.189 128.451 217.434 128.856C217.69 129.251 218.005 129.549 218.378 129.752C218.762 129.955 219.167 130.056 219.594 130.056C220.149 130.056 220.613 129.928 220.986 129.672C221.359 129.416 221.631 129.069 221.802 128.632H223.13C222.917 129.368 222.506 129.981 221.898 130.472C221.301 130.952 220.533 131.192 219.594 131.192ZM219.594 124.008C218.954 124.008 218.383 124.205 217.882 124.6C217.391 124.984 217.109 125.549 217.034 126.296H222.026C221.994 125.581 221.749 125.021 221.29 124.616C220.831 124.211 220.266 124.008 219.594 124.008ZM228.735 131.192C227.946 131.192 227.253 131.011 226.655 130.648C226.069 130.285 225.61 129.789 225.279 129.16C224.959 128.531 224.799 127.816 224.799 127.016C224.799 126.216 224.965 125.507 225.295 124.888C225.626 124.259 226.085 123.768 226.671 123.416C227.258 123.053 227.951 122.872 228.751 122.872C229.402 122.872 229.978 123.005 230.479 123.272C230.981 123.539 231.37 123.912 231.647 124.392V119.48H232.991V131H231.775L231.647 129.688C231.391 130.072 231.023 130.419 230.543 130.728C230.063 131.037 229.461 131.192 228.735 131.192ZM228.879 130.024C229.413 130.024 229.882 129.901 230.287 129.656C230.703 129.4 231.023 129.048 231.247 128.6C231.482 128.152 231.599 127.629 231.599 127.032C231.599 126.435 231.482 125.912 231.247 125.464C231.023 125.016 230.703 124.669 230.287 124.424C229.882 124.168 229.413 124.04 228.879 124.04C228.357 124.04 227.887 124.168 227.471 124.424C227.066 124.669 226.746 125.016 226.511 125.464C226.287 125.912 226.175 126.435 226.175 127.032C226.175 127.629 226.287 128.152 226.511 128.6C226.746 129.048 227.066 129.4 227.471 129.656C227.887 129.901 228.357 130.024 228.879 130.024ZM25.184 155V143.8H28.624C30.5973 143.8 32.048 144.301 32.976 145.304C33.9147 146.307 34.384 147.683 34.384 149.432C34.384 151.149 33.9147 152.509 32.976 153.512C32.048 154.504 30.5973 155 28.624 155H25.184ZM26.528 153.88H28.592C29.68 153.88 30.544 153.704 31.184 153.352C31.8347 152.989 32.2987 152.477 32.576 151.816C32.8533 151.144 32.992 150.349 32.992 149.432C32.992 148.493 32.8533 147.688 32.576 147.016C32.2987 146.344 31.8347 145.827 31.184 145.464C30.544 145.101 29.68 144.92 28.592 144.92H26.528V153.88ZM39.8126 155.192C39.0553 155.192 38.3833 155.021 37.7966 154.68C37.21 154.328 36.746 153.843 36.4046 153.224C36.074 152.605 35.9086 151.875 35.9086 151.032C35.9086 150.2 36.074 149.475 36.4046 148.856C36.7353 148.227 37.194 147.741 37.7806 147.4C38.378 147.048 39.066 146.872 39.8446 146.872C40.6126 146.872 41.274 147.048 41.8286 147.4C42.394 147.741 42.826 148.195 43.1246 148.76C43.4233 149.325 43.5726 149.933 43.5726 150.584C43.5726 150.701 43.5673 150.819 43.5566 150.936C43.5566 151.053 43.5566 151.187 43.5566 151.336H37.2366C37.2686 151.944 37.4073 152.451 37.6526 152.856C37.9086 153.251 38.2233 153.549 38.5966 153.752C38.9806 153.955 39.386 154.056 39.8126 154.056C40.3673 154.056 40.8313 153.928 41.2046 153.672C41.578 153.416 41.85 153.069 42.0206 152.632H43.3486C43.1353 153.368 42.7246 153.981 42.1166 154.472C41.5193 154.952 40.7513 155.192 39.8126 155.192ZM39.8126 148.008C39.1726 148.008 38.602 148.205 38.1006 148.6C37.61 148.984 37.3273 149.549 37.2526 150.296H42.2446C42.2126 149.581 41.9673 149.021 41.5086 148.616C41.05 148.211 40.4846 148.008 39.8126 148.008ZM48.2244 155C47.499 155 46.9284 154.824 46.5124 154.472C46.0964 154.12 45.8884 153.485 45.8884 152.568V148.2H44.5124V147.064H45.8884L46.0644 145.16H47.2324V147.064H49.5684V148.2H47.2324V152.568C47.2324 153.069 47.3337 153.411 47.5364 153.592C47.739 153.763 48.0964 153.848 48.6084 153.848H49.4404V155H48.2244ZM54.6251 155.192C53.8678 155.192 53.1958 155.021 52.6091 154.68C52.0225 154.328 51.5585 153.843 51.2171 153.224C50.8865 152.605 50.7211 151.875 50.7211 151.032C50.7211 150.2 50.8865 149.475 51.2171 148.856C51.5478 148.227 52.0065 147.741 52.5931 147.4C53.1905 147.048 53.8785 146.872 54.6571 146.872C55.4251 146.872 56.0865 147.048 56.6411 147.4C57.2065 147.741 57.6385 148.195 57.9371 148.76C58.2358 149.325 58.3851 149.933 58.3851 150.584C58.3851 150.701 58.3798 150.819 58.3691 150.936C58.3691 151.053 58.3691 151.187 58.3691 151.336H52.0491C52.0811 151.944 52.2198 152.451 52.4651 152.856C52.7211 153.251 53.0358 153.549 53.4091 153.752C53.7931 153.955 54.1985 154.056 54.6251 154.056C55.1798 154.056 55.6438 153.928 56.0171 153.672C56.3905 153.416 56.6625 153.069 56.8331 152.632H58.1611C57.9478 153.368 57.5371 153.981 56.9291 154.472C56.3318 154.952 55.5638 155.192 54.6251 155.192ZM54.6251 148.008C53.9851 148.008 53.4145 148.205 52.9131 148.6C52.4225 148.984 52.1398 149.549 52.0651 150.296H57.0571C57.0251 149.581 56.7798 149.021 56.3211 148.616C55.8625 148.211 55.2971 148.008 54.6251 148.008ZM63.8145 155.192C63.0572 155.192 62.3745 155.021 61.7665 154.68C61.1692 154.328 60.6945 153.843 60.3425 153.224C60.0012 152.595 59.8305 151.864 59.8305 151.032C59.8305 150.2 60.0012 149.475 60.3425 148.856C60.6945 148.227 61.1692 147.741 61.7665 147.4C62.3745 147.048 63.0572 146.872 63.8145 146.872C64.7532 146.872 65.5425 147.117 66.1825 147.608C66.8332 148.099 67.2438 148.755 67.4145 149.576H66.0385C65.9318 149.085 65.6705 148.707 65.2545 148.44C64.8385 148.163 64.3532 148.024 63.7985 148.024C63.3505 148.024 62.9292 148.136 62.5345 148.36C62.1398 148.584 61.8198 148.92 61.5745 149.368C61.3292 149.816 61.2065 150.371 61.2065 151.032C61.2065 151.693 61.3292 152.248 61.5745 152.696C61.8198 153.144 62.1398 153.485 62.5345 153.72C62.9292 153.944 63.3505 154.056 63.7985 154.056C64.3532 154.056 64.8385 153.923 65.2545 153.656C65.6705 153.379 65.9318 152.989 66.0385 152.488H67.4145C67.2545 153.288 66.8492 153.939 66.1985 154.44C65.5478 154.941 64.7532 155.192 63.8145 155.192ZM72.2088 155C71.4834 155 70.9128 154.824 70.4968 154.472C70.0808 154.12 69.8728 153.485 69.8728 152.568V148.2H68.4967V147.064H69.8728L70.0488 145.16H71.2168V147.064H73.5528V148.2H71.2168V152.568C71.2168 153.069 71.3181 153.411 71.5208 153.592C71.7234 153.763 72.0808 153.848 72.5928 153.848H73.4248V155H72.2088ZM76.0763 145.304C75.8096 145.304 75.5856 145.219 75.4043 145.048C75.2336 144.867 75.1483 144.643 75.1483 144.376C75.1483 144.12 75.2336 143.907 75.4043 143.736C75.5856 143.565 75.8096 143.48 76.0763 143.48C76.3323 143.48 76.5509 143.565 76.7323 143.736C76.9136 143.907 77.0043 144.12 77.0043 144.376C77.0043 144.643 76.9136 144.867 76.7323 145.048C76.5509 145.219 76.3323 145.304 76.0763 145.304ZM75.4043 155V147.064H76.7483V155H75.4043ZM82.7044 155.192C81.9577 155.192 81.2857 155.021 80.6884 154.68C80.091 154.339 79.6164 153.859 79.2644 153.24C78.923 152.611 78.7524 151.875 78.7524 151.032C78.7524 150.189 78.9284 149.459 79.2804 148.84C79.6324 148.211 80.107 147.725 80.7044 147.384C81.3124 147.043 81.9897 146.872 82.7364 146.872C83.483 146.872 84.155 147.043 84.7524 147.384C85.3497 147.725 85.819 148.211 86.1604 148.84C86.5124 149.459 86.6884 150.189 86.6884 151.032C86.6884 151.875 86.5124 152.611 86.1604 153.24C85.8084 153.859 85.3284 154.339 84.7204 154.68C84.123 155.021 83.451 155.192 82.7044 155.192ZM82.7044 154.04C83.163 154.04 83.5897 153.928 83.9844 153.704C84.379 153.48 84.699 153.144 84.9444 152.696C85.1897 152.248 85.3124 151.693 85.3124 151.032C85.3124 150.371 85.1897 149.816 84.9444 149.368C84.7097 148.92 84.395 148.584 84.0004 148.36C83.6057 148.136 83.1844 148.024 82.7364 148.024C82.2777 148.024 81.851 148.136 81.4564 148.36C81.0617 148.584 80.7417 148.92 80.4964 149.368C80.251 149.816 80.1284 150.371 80.1284 151.032C80.1284 151.693 80.251 152.248 80.4964 152.696C80.7417 153.144 81.0564 153.48 81.4404 153.704C81.835 153.928 82.2564 154.04 82.7044 154.04ZM88.5571 155V147.064H89.7731L89.8531 148.488C90.1091 147.987 90.4771 147.592 90.9571 147.304C91.4371 147.016 91.9811 146.872 92.5891 146.872C93.5278 146.872 94.2745 147.16 94.8291 147.736C95.3945 148.301 95.6771 149.176 95.6771 150.36V155H94.3331V150.504C94.3331 148.851 93.6505 148.024 92.2851 148.024C91.6025 148.024 91.0318 148.275 90.5731 148.776C90.1251 149.267 89.9011 149.971 89.9011 150.888V155H88.5571ZM100.753 155.192C99.804 155.192 99.0147 154.952 98.3854 154.472C97.756 153.992 97.388 153.341 97.2814 152.52H98.6574C98.7427 152.936 98.9614 153.299 99.3134 153.608C99.676 153.907 100.161 154.056 100.769 154.056C101.335 154.056 101.751 153.939 102.017 153.704C102.284 153.459 102.417 153.171 102.417 152.84C102.417 152.36 102.241 152.04 101.889 151.88C101.548 151.72 101.063 151.576 100.433 151.448C100.007 151.363 99.58 151.24 99.1534 151.08C98.7267 150.92 98.3694 150.696 98.0814 150.408C97.7934 150.109 97.6494 149.72 97.6494 149.24C97.6494 148.547 97.9054 147.981 98.4174 147.544C98.94 147.096 99.644 146.872 100.529 146.872C101.372 146.872 102.06 147.085 102.593 147.512C103.137 147.928 103.452 148.525 103.537 149.304H102.209C102.156 148.899 101.98 148.584 101.681 148.36C101.393 148.125 101.004 148.008 100.513 148.008C100.033 148.008 99.66 148.109 99.3934 148.312C99.1374 148.515 99.0094 148.781 99.0094 149.112C99.0094 149.432 99.1747 149.683 99.5054 149.864C99.8467 150.045 100.305 150.2 100.881 150.328C101.372 150.435 101.836 150.568 102.273 150.728C102.721 150.877 103.084 151.107 103.361 151.416C103.649 151.715 103.793 152.152 103.793 152.728C103.804 153.443 103.532 154.035 102.977 154.504C102.433 154.963 101.692 155.192 100.753 155.192Z" fill="#474E60"/>
<g clip-path="url(#clip1_329_20425)">
<path d="M392.402 186.054L392.34 184.055L390.341 184.116L56.3471 194.369C46.4107 194.674 38.6029 202.976 38.9079 212.913L43.2852 355.508L43.3465 357.507L45.3456 357.446L395.332 346.702L397.331 346.641L397.27 344.642L392.402 186.054Z" fill="white"/>
<path d="M392.402 186.054L392.34 184.055L390.341 184.116L56.3471 194.369C46.4107 194.674 38.6029 202.976 38.9079 212.913L43.2852 355.508L43.3465 357.507L45.3456 357.446L395.332 346.702L397.331 346.641L397.27 344.642L392.402 186.054Z" stroke="#0B0E18" stroke-width="4"/>
<path d="M69.7549 254.386C64.3175 254.553 60.6622 251.503 59.8482 245.846L64.2062 245.712C64.7601 249.417 66.7695 250.996 69.7681 250.904C74.166 250.769 75.8984 247.234 75.6566 239.358C74.2048 241.603 71.5266 243.006 68.4081 243.102C63.0506 243.266 59.217 239.622 59.0537 234.305C58.8831 228.747 62.8895 224.983 68.9267 224.797C76.0033 224.58 80.0362 229.499 80.3283 239.014C80.6228 248.61 76.7916 254.17 69.7549 254.386ZM69.5432 239.665C72.9815 239.56 75.2379 237.45 75.1335 234.051C75.0268 230.573 72.5918 228.166 69.0734 228.274C65.715 228.378 63.626 230.723 63.7328 234.201C63.8359 237.56 65.9449 239.776 69.5432 239.665ZM90.9886 253.334L90.2731 230.025C88.769 231.872 85.9007 233.601 82.8381 234.215L82.7129 230.137C86.2153 229.509 89.7424 227.08 90.9445 224.522L94.223 224.421L95.1066 253.207L90.9886 253.334ZM105.368 238.446C101.93 238.551 98.8189 236.286 98.6642 231.248C98.5108 226.25 101.437 223.799 104.915 223.693C108.474 223.583 111.505 225.851 111.658 230.849C111.813 235.887 108.807 238.34 105.368 238.446ZM101.213 253.02L121.68 223.578L125.398 223.464L104.972 252.905L101.213 253.02ZM105.288 235.847C107.248 235.787 108.675 234.062 108.578 230.904C108.485 227.865 106.994 226.23 104.995 226.291C102.956 226.354 101.647 228.035 101.742 231.113C101.839 234.272 103.249 235.909 105.288 235.847ZM121.416 252.8C118.018 252.904 114.867 250.64 114.712 245.602C114.559 240.605 117.485 238.154 120.963 238.047C124.562 237.936 127.593 240.205 127.746 245.202C127.901 250.24 124.855 252.694 121.416 252.8ZM121.336 250.201C123.335 250.14 124.762 248.375 124.666 245.257C124.573 242.218 123.082 240.583 121.043 240.646C119.004 240.708 117.735 242.388 117.83 245.467C117.926 248.625 119.297 250.264 121.336 250.201Z" fill="#0B0E18"/>
<path d="M60.3227 285.29L59.9791 274.095L63.4175 273.989C65.3899 273.929 66.8552 274.386 67.8136 275.359C68.7825 276.333 69.2939 277.694 69.3476 279.442C69.4002 281.159 68.9729 282.532 68.0654 283.563C67.1683 284.583 65.7335 285.124 63.7611 285.184L60.3227 285.29ZM61.6317 284.129L63.6948 284.066C64.7822 284.032 65.6404 283.83 66.2693 283.458C66.9086 283.076 67.3566 282.55 67.6136 281.88C67.8701 281.2 67.9844 280.402 67.9562 279.485C67.9274 278.547 67.7641 277.746 67.4663 277.083C67.1685 276.42 66.6888 275.917 66.0273 275.574C65.3765 275.231 64.5073 275.077 63.4198 275.11L61.3568 275.173L61.6317 284.129ZM74.9504 285.033C74.1934 285.056 73.5165 284.906 72.9196 284.583C72.3224 284.249 71.8437 283.778 71.4836 283.17C71.1341 282.562 70.9464 281.837 70.9206 280.995C70.895 280.163 71.038 279.433 71.3496 278.804C71.6608 278.165 72.1043 277.666 72.6802 277.307C73.2665 276.937 73.9488 276.74 74.7271 276.716C75.4947 276.692 76.1611 276.848 76.7263 277.183C77.3019 277.506 77.7476 277.946 78.0634 278.502C78.3793 279.058 78.5472 279.661 78.5672 280.312C78.5708 280.429 78.5691 280.546 78.562 280.664C78.5656 280.781 78.5697 280.915 78.5743 281.064L72.2573 281.258C72.3079 281.864 72.462 282.367 72.7197 282.764C72.9877 283.151 73.3114 283.44 73.6907 283.631C74.0808 283.822 74.489 283.91 74.9155 283.897C75.4699 283.88 75.9298 283.738 76.2951 283.471C76.6604 283.204 76.9216 282.849 77.0788 282.406L78.4061 282.366C78.2155 283.108 77.8238 283.733 77.2312 284.242C76.6489 284.741 75.8886 285.004 74.9504 285.033ZM74.7299 277.852C74.0902 277.872 73.5259 278.087 73.0369 278.496C72.5582 278.895 72.2931 279.469 72.2413 280.218L77.231 280.065C77.1771 279.351 76.9147 278.799 76.4438 278.408C75.9729 278.017 75.4016 277.832 74.7299 277.852ZM84.1354 284.751C83.3784 284.774 82.6908 284.624 82.0727 284.302C81.4648 283.968 80.9755 283.498 80.6047 282.89C80.2442 282.272 80.0512 281.547 80.0256 280.715C80.0001 279.883 80.1484 279.153 80.4706 278.524C80.8032 277.885 81.2627 277.385 81.8493 277.025C82.4462 276.655 83.1231 276.458 83.8801 276.435C84.8183 276.406 85.6148 276.627 86.2696 277.098C86.935 277.568 87.3656 278.211 87.5614 279.027L86.186 279.069C86.0644 278.582 85.7915 278.212 85.3676 277.958C84.9432 277.693 84.4539 277.57 83.8995 277.587C83.4517 277.6 83.034 277.725 82.6464 277.961C82.2588 278.197 81.9492 278.543 81.7178 278.998C81.4863 279.454 81.3807 280.012 81.401 280.673C81.4213 281.334 81.5609 281.885 81.8199 282.325C82.0788 282.765 82.4092 283.096 82.8108 283.319C83.2122 283.531 83.6368 283.63 84.0846 283.616C84.639 283.599 85.12 283.451 85.5276 283.171C85.9349 282.881 86.1842 282.484 86.2754 281.98L87.6507 281.938C87.5154 282.742 87.1302 283.405 86.4952 283.926C85.8602 284.447 85.0736 284.722 84.1354 284.751ZM89.6039 284.391L89.3604 276.459L90.5759 276.421L90.7344 277.937C90.9636 277.407 91.324 276.98 91.8156 276.655C92.3072 276.331 92.9209 276.157 93.6565 276.135L93.6997 277.542L93.3319 277.553C92.8628 277.568 92.4336 277.666 92.0444 277.849C91.6548 278.021 91.3488 278.308 91.1263 278.71C90.9039 279.111 90.8033 279.659 90.8246 280.352L90.9473 284.35L89.6039 284.391ZM98.6892 284.304C97.9322 284.327 97.2553 284.177 96.6584 283.854C96.0612 283.52 95.5825 283.05 95.2224 282.442C94.8729 281.833 94.6852 281.108 94.6594 280.266C94.6338 279.434 94.7768 278.704 95.0884 278.076C95.3996 277.436 95.8431 276.937 96.419 276.578C97.0053 276.208 97.6876 276.011 98.4659 275.987C99.2335 275.963 99.8999 276.119 100.465 276.454C101.041 276.778 101.486 277.218 101.802 277.774C102.118 278.329 102.286 278.933 102.306 279.583C102.31 279.7 102.308 279.818 102.301 279.935C102.304 280.053 102.309 280.186 102.313 280.335L95.9961 280.529C96.0467 281.136 96.2009 281.638 96.4585 282.035C96.7265 282.422 97.0502 282.711 97.4296 282.902C97.8196 283.093 98.2279 283.182 98.6543 283.169C99.2087 283.152 99.6686 283.009 100.034 282.742C100.399 282.475 100.66 282.12 100.818 281.678L102.145 281.637C101.954 282.379 101.563 283.005 100.97 283.514C100.388 284.012 99.6274 284.275 98.6892 284.304ZM98.4687 277.124C97.829 277.143 97.2647 277.358 96.7757 277.768C96.2971 278.167 96.0319 278.74 95.9802 279.489L100.97 279.336C100.916 278.622 100.653 278.07 100.183 277.679C99.7117 277.288 99.1404 277.103 98.4687 277.124ZM106.867 284.053C106.206 284.073 105.653 283.978 105.209 283.768C104.765 283.557 104.431 283.269 104.206 282.902C103.981 282.536 103.862 282.134 103.849 281.697C103.824 280.886 104.114 280.253 104.719 279.797C105.324 279.341 106.16 279.096 107.226 279.064L109.369 278.998L109.366 278.902C109.345 278.209 109.147 277.692 108.774 277.351C108.4 277 107.91 276.834 107.302 276.852C106.78 276.868 106.331 277.016 105.955 277.294C105.59 277.561 105.367 277.947 105.286 278.451L103.911 278.493C103.946 277.916 104.123 277.425 104.442 277.02C104.771 276.615 105.183 276.304 105.678 276.086C106.172 275.857 106.702 275.734 107.267 275.717C108.376 275.683 109.217 275.956 109.789 276.536C110.372 277.105 110.679 277.88 110.709 278.861L110.859 283.738L109.659 283.775L109.536 282.354C109.326 282.809 109.007 283.203 108.58 283.536C108.163 283.859 107.592 284.031 106.867 284.053ZM107.04 282.911C107.552 282.896 107.985 282.749 108.339 282.471C108.704 282.193 108.976 281.838 109.155 281.406C109.333 280.973 109.416 280.523 109.401 280.053L109.401 280.037L107.37 280.1C106.581 280.124 106.025 280.28 105.703 280.567C105.392 280.844 105.242 281.184 105.254 281.589C105.267 282.005 105.427 282.336 105.733 282.583C106.05 282.819 106.485 282.928 107.04 282.911ZM115.919 283.775C114.97 283.804 114.173 283.589 113.53 283.128C112.886 282.668 112.498 282.029 112.366 281.211L113.742 281.169C113.84 281.582 114.069 281.938 114.431 282.236C114.802 282.524 115.292 282.658 115.9 282.639C116.465 282.622 116.877 282.492 117.136 282.249C117.395 281.996 117.52 281.704 117.51 281.373C117.495 280.894 117.309 280.579 116.953 280.43C116.606 280.28 116.117 280.151 115.484 280.043C115.055 279.971 114.625 279.861 114.193 279.714C113.762 279.567 113.398 279.354 113.101 279.075C112.804 278.786 112.648 278.401 112.634 277.921C112.612 277.228 112.851 276.655 113.349 276.203C113.858 275.739 114.555 275.493 115.44 275.466C116.282 275.44 116.976 275.632 117.522 276.042C118.079 276.441 118.412 277.029 118.521 277.805L117.193 277.845C117.128 277.442 116.942 277.133 116.637 276.918C116.342 276.692 115.949 276.587 115.458 276.602C114.979 276.617 114.609 276.729 114.348 276.94C114.099 277.151 113.979 277.421 113.989 277.752C113.999 278.071 114.172 278.317 114.508 278.488C114.855 278.659 115.318 278.799 115.897 278.91C116.391 279.001 116.859 279.12 117.301 279.267C117.753 279.402 118.123 279.62 118.41 279.921C118.707 280.211 118.864 280.643 118.882 281.219C118.914 281.933 118.661 282.533 118.121 283.019C117.591 283.494 116.857 283.746 115.919 283.775ZM124.443 283.514C123.686 283.537 123.009 283.387 122.412 283.064C121.815 282.73 121.336 282.259 120.976 281.651C120.626 281.043 120.439 280.318 120.413 279.475C120.387 278.644 120.53 277.914 120.842 277.285C121.153 276.646 121.597 276.147 122.173 275.788C122.759 275.417 123.441 275.22 124.219 275.196C124.987 275.173 125.653 275.329 126.219 275.663C126.794 275.987 127.24 276.427 127.556 276.983C127.872 277.539 128.04 278.142 128.06 278.792C128.063 278.91 128.061 279.027 128.054 279.145C128.058 279.262 128.062 279.395 128.067 279.545L121.75 279.738C121.8 280.345 121.954 280.847 122.212 281.245C122.48 281.632 122.804 281.92 123.183 282.112C123.573 282.302 123.981 282.391 124.408 282.378C124.962 282.361 125.422 282.219 125.787 281.952C126.153 281.684 126.414 281.329 126.571 280.887L127.898 280.846C127.708 281.588 127.316 282.214 126.723 282.723C126.141 283.221 125.381 283.485 124.443 283.514ZM124.222 276.333C123.583 276.353 123.018 276.567 122.529 276.977C122.051 277.376 121.785 277.95 121.734 278.698L126.723 278.545C126.669 277.832 126.407 277.28 125.936 276.889C125.465 276.498 124.894 276.312 124.222 276.333ZM134.288 283.019L133.944 271.825L137.559 271.714C138.433 271.687 139.152 271.809 139.715 272.08C140.278 272.35 140.701 272.732 140.983 273.225C141.264 273.718 141.415 274.268 141.433 274.876C141.455 275.58 141.283 276.22 140.916 276.797C140.56 277.373 139.986 277.791 139.194 278.05L141.788 282.789L140.205 282.838L137.792 278.285L137.696 278.288L135.489 278.356L135.631 282.978L134.288 283.019ZM135.457 277.301L137.632 277.234C138.496 277.207 139.118 276.98 139.5 276.552C139.882 276.124 140.063 275.585 140.043 274.935C140.022 274.274 139.809 273.757 139.403 273.386C139.007 273.003 138.366 272.825 137.481 272.852L135.322 272.919L135.457 277.301ZM144.206 273.014C143.939 273.022 143.713 272.944 143.526 272.779C143.35 272.603 143.258 272.382 143.25 272.115C143.242 271.859 143.321 271.643 143.486 271.468C143.662 271.291 143.883 271.199 144.15 271.191C144.406 271.183 144.627 271.262 144.814 271.427C145 271.592 145.097 271.802 145.105 272.058C145.113 272.325 145.029 272.551 144.854 272.738C144.678 272.914 144.462 273.006 144.206 273.014ZM143.832 282.726L143.588 274.794L144.932 274.753L145.175 282.685L143.832 282.726ZM150.559 282.712C149.61 282.741 148.813 282.525 148.17 282.065C147.526 281.604 147.138 280.965 147.006 280.148L148.382 280.105C148.48 280.519 148.709 280.874 149.071 281.173C149.442 281.46 149.932 281.595 150.54 281.576C151.105 281.559 151.517 281.429 151.776 281.186C152.035 280.932 152.16 280.64 152.15 280.31C152.135 279.83 151.949 279.516 151.592 279.367C151.246 279.217 150.757 279.088 150.124 278.979C149.695 278.907 149.265 278.798 148.833 278.651C148.402 278.504 148.038 278.291 147.741 278.012C147.444 277.722 147.288 277.338 147.273 276.858C147.252 276.165 147.491 275.592 147.989 275.139C148.498 274.675 149.195 274.43 150.079 274.403C150.922 274.377 151.616 274.569 152.162 274.979C152.719 275.378 153.051 275.966 153.161 276.741L151.833 276.782C151.768 276.378 151.582 276.069 151.277 275.855C150.981 275.629 150.589 275.524 150.098 275.539C149.619 275.553 149.248 275.666 148.988 275.877C148.738 276.087 148.619 276.358 148.629 276.688C148.639 277.008 148.812 277.254 149.148 277.425C149.494 277.595 149.958 277.736 150.537 277.846C151.031 277.938 151.499 278.057 151.941 278.203C152.393 278.339 152.763 278.557 153.05 278.858C153.347 279.147 153.504 279.58 153.522 280.156C153.554 280.87 153.3 281.47 152.76 281.956C152.231 282.431 151.497 282.683 150.559 282.712ZM155.51 282.368L155.157 270.853L156.5 270.812L156.713 277.737L159.857 274.295L161.504 274.244L158.096 277.934L162.195 282.163L160.484 282.215L156.728 278.216L156.854 282.327L155.51 282.368Z" fill="#474E60"/>
<g clip-path="url(#clip2_329_20425)">
<rect x="59.5381" y="298.32" width="214.152" height="20" rx="10" transform="rotate(-1.75827 59.5381 298.32)" fill="url(#paint0_linear_329_20425)"/>
<rect x="224.138" y="261.252" width="48.4918" height="84" transform="rotate(-1.75827 224.138 261.252)" fill="white"/>
<rect x="224.138" y="261.252" width="48.4918" height="84" transform="rotate(-1.75827 224.138 261.252)" fill="url(#paint1_linear_329_20425)"/>
</g>
</g>
</g>
<defs>
<filter id="filter0_d_329_20425" x="176" y="3" width="116" height="100" filterUnits="userSpaceOnUse" color-interpolation-filters="sRGB">
<feFlood flood-opacity="0" result="BackgroundImageFix"/>
<feColorMatrix in="SourceAlpha" type="matrix" values="0 0 0 0 0 0 0 0 0 0 0 0 0 0 0 0 0 0 127 0" result="hardAlpha"/>
<feOffset dy="9"/>
<feGaussianBlur stdDeviation="15"/>
<feComposite in2="hardAlpha" operator="out"/>
<feColorMatrix type="matrix" values="0 0 0 0 0.25893 0 0 0 0 0.545833 0 0 0 0 0.0841493 0 0 0 0.35 0"/>
<feBlend mode="normal" in2="BackgroundImageFix" result="effect1_dropShadow_329_20425"/>
<feBlend mode="normal" in="SourceGraphic" in2="effect1_dropShadow_329_20425" result="shape"/>
</filter>
<linearGradient id="paint0_linear_329_20425" x1="281.018" y1="290.344" x2="200.514" y2="426.43" gradientUnits="userSpaceOnUse">
<stop stop-color="#C2FF9D"/>
<stop offset="1" stop-color="#ACFF79" stop-opacity="0"/>
</linearGradient>
<linearGradient id="paint1_linear_329_20425" x1="248.384" y1="261.252" x2="248.384" y2="354.428" gradientUnits="userSpaceOnUse">
<stop stop-color="#EBFAF8"/>
<stop offset="1" stop-color="#EBFAF8" stop-opacity="0"/>
</linearGradient>
<clipPath id="clip0_329_20425">
<rect width="286" height="337" rx="16" fill="white"/>
</clipPath>
<clipPath id="clip1_329_20425">
<rect width="262" height="151" fill="white" transform="translate(24 186)"/>
</clipPath>
<clipPath id="clip2_329_20425">
<rect x="59.5381" y="298.32" width="214.152" height="20" rx="10" transform="rotate(-1.75827 59.5381 298.32)" fill="white"/>
</clipPath>
</defs>
</svg>
