<svg width="26" height="32" viewBox="0 0 26 32" fill="none" xmlns="http://www.w3.org/2000/svg">
<path d="M21.2461 17.1269C21.2106 13.177 24.4803 11.2554 24.6298 11.1659C22.778 8.46603 19.9078 8.09715 18.8992 8.06773C16.4885 7.81405 14.1502 9.5102 12.9222 9.5102C11.6697 9.5102 9.77871 8.09224 7.74064 8.13391C5.11798 8.17436 2.66444 9.6928 1.3188 12.0507C-1.45828 16.8585 0.612888 23.9238 3.27354 27.81C4.60448 29.7132 6.15969 31.8383 8.19531 31.7636C10.1868 31.6815 10.9307 30.4939 13.334 30.4939C15.7152 30.4939 16.4138 31.7636 18.4899 31.7158C20.6272 31.6815 21.9728 29.8039 23.2572 27.8835C24.7953 25.702 25.4129 23.5537 25.4375 23.4434C25.3872 23.4262 21.2865 21.8612 21.2461 17.1269Z" fill="#0B0E18"/>
<path d="M17.3241 5.51124C18.3953 4.17172 19.1281 2.34934 18.9247 0.5C17.3744 0.56863 15.4356 1.57235 14.3191 2.88245C13.3313 4.03691 12.4489 5.92915 12.6769 7.70863C14.4184 7.83854 16.2065 6.82992 17.3241 5.51124Z" fill="#0B0E18"/>
</svg>
