<svg width="23" height="27" viewBox="0 0 23 27" fill="none" xmlns="http://www.w3.org/2000/svg">
<path d="M0.465809 1.21864C0.142429 1.60711 -0.0207942 2.10441 0.00941349 2.60918V24.5798C-0.0207942 25.0846 0.142429 25.5819 0.465809 25.9704L0.53526 26.0399L12.8281 13.7435V13.4554L0.53526 1.14911L0.465809 1.21864Z" fill="url(#paint0_linear_707_1332)"/>
<path d="M16.896 17.8455L12.8281 13.7434V13.4554L16.896 9.34332L16.9853 9.39299L21.8568 12.1641C23.2458 12.9488 23.2458 14.24 21.8568 15.0346L17.0051 17.7959L16.896 17.8455Z" fill="url(#paint1_linear_707_1332)"/>
<path d="M17.016 17.786L12.8291 13.5945L0.466797 25.9703C0.749922 26.2195 1.1111 26.3618 1.48791 26.3727C1.86472 26.3836 2.23349 26.2623 2.53049 26.0299L17.026 17.786" fill="url(#paint2_linear_707_1332)"/>
<path d="M17.0162 9.40294L2.52073 1.15899C2.22372 0.926582 1.85496 0.805344 1.47814 0.816225C1.10133 0.827107 0.740157 0.969425 0.457031 1.21858L12.8293 13.5944L17.0162 9.40294Z" fill="url(#paint3_linear_707_1332)"/>
<path opacity="0.2" d="M16.897 17.6965L2.52057 25.8908C2.23412 26.1052 1.88607 26.2211 1.52841 26.2211C1.17075 26.2211 0.822695 26.1052 0.536248 25.8908L0.466797 25.9604L0.536248 26.0299C0.822045 26.2458 1.17035 26.3626 1.52841 26.3626C1.88647 26.3626 2.23477 26.2458 2.52057 26.0299L17.016 17.7859L16.897 17.6965Z" fill="#A8FF73"/>
<path opacity="0.12" d="M0.465809 25.8313C0.142429 25.4428 -0.0207942 24.9455 0.00941349 24.4407V24.5897C-0.0207942 25.0945 0.142429 25.5918 0.465809 25.9803L0.53526 25.9108L0.465809 25.8313ZM21.8568 14.8857L16.896 17.6966L16.9853 17.786L21.8568 15.0248C22.1332 14.8948 22.3705 14.6941 22.5447 14.443C22.7189 14.1919 22.8238 13.8992 22.849 13.5945C22.7932 13.8713 22.6747 14.1316 22.5027 14.3555C22.3307 14.5793 22.1098 14.7607 21.8568 14.8857Z" fill="#A8FF73"/>
<path opacity="0.25" d="M2.52009 1.29771L21.8573 12.3029C22.1103 12.4279 22.3312 12.6093 22.5032 12.8331C22.6752 13.0569 22.7937 13.3173 22.8495 13.5941C22.8244 13.2894 22.7194 12.9967 22.5452 12.7456C22.371 12.4945 22.1337 12.2938 21.8573 12.1638L2.52009 1.15865C1.13106 0.373986 0 1.02953 0 2.61873V2.76771C0.0297648 1.16858 1.14099 0.513042 2.52009 1.29771Z" fill="#0B0E18"/>
<defs>
<linearGradient id="paint0_linear_707_1332" x1="11.7368" y1="2.38074" x2="-4.92992" y2="19.0292" gradientUnits="userSpaceOnUse">
<stop stop-color="#00A0FF"/>
<stop offset="0.01" stop-color="#00A1FF"/>
<stop offset="0.26" stop-color="#00BEFF"/>
<stop offset="0.51" stop-color="#00D2FF"/>
<stop offset="0.76" stop-color="#00DFFF"/>
<stop offset="1" stop-color="#00E3FF"/>
</linearGradient>
<linearGradient id="paint1_linear_707_1332" x1="23.6724" y1="13.5944" x2="-0.327929" y2="13.5944" gradientUnits="userSpaceOnUse">
<stop stop-color="#FFE000"/>
<stop offset="0.41" stop-color="#FFBD00"/>
<stop offset="0.78" stop-color="#FFA500"/>
<stop offset="1" stop-color="#FF9C00"/>
</linearGradient>
<linearGradient id="paint2_linear_707_1332" x1="14.744" y1="15.879" x2="-7.86229" y2="38.4506" gradientUnits="userSpaceOnUse">
<stop stop-color="#FF3A44"/>
<stop offset="1" stop-color="#C31162"/>
</linearGradient>
<linearGradient id="paint3_linear_707_1332" x1="-2.64843" y1="-6.09172" x2="7.44295" y2="3.98863" gradientUnits="userSpaceOnUse">
<stop stop-color="#32A071"/>
<stop offset="0.07" stop-color="#2DA771"/>
<stop offset="0.48" stop-color="#15CF74"/>
<stop offset="0.8" stop-color="#06E775"/>
<stop offset="1" stop-color="#00F076"/>
</linearGradient>
</defs>
</svg>
