<svg width="32" height="33" viewBox="0 0 32 33" fill="none" xmlns="http://www.w3.org/2000/svg">
<path d="M15.9998 29.8333C23.3636 29.8333 29.3332 23.8638 29.3332 16.5C29.3332 9.13619 23.3636 3.16666 15.9998 3.16666C8.63604 3.16666 2.6665 9.13619 2.6665 16.5C2.6665 23.8638 8.63604 29.8333 15.9998 29.8333Z" fill="#DCFFC7"/>
<path d="M15.9998 17.8333C16.7362 17.8333 17.3332 17.2364 17.3332 16.5C17.3332 15.7636 16.7362 15.1667 15.9998 15.1667C15.2635 15.1667 14.6665 15.7636 14.6665 16.5C14.6665 17.2364 15.2635 17.8333 15.9998 17.8333Z" fill="#DCFFC7"/>
<path d="M6.6665 16.5C6.6665 11.3453 10.8452 7.16666 15.9998 7.16666M21.9997 10.5L15.9997 16.5M29.3332 16.5C29.3332 23.8638 23.3636 29.8333 15.9998 29.8333C8.63604 29.8333 2.6665 23.8638 2.6665 16.5C2.6665 9.13619 8.63604 3.16666 15.9998 3.16666C23.3636 3.16666 29.3332 9.13619 29.3332 16.5ZM17.3332 16.5C17.3332 17.2364 16.7362 17.8333 15.9998 17.8333C15.2635 17.8333 14.6665 17.2364 14.6665 16.5C14.6665 15.7636 15.2635 15.1667 15.9998 15.1667C16.7362 15.1667 17.3332 15.7636 17.3332 16.5Z" stroke="#90E25F" stroke-width="2" stroke-linecap="round" stroke-linejoin="round"/>
</svg>
