<svg width="32" height="33" viewBox="0 0 32 33" fill="none" xmlns="http://www.w3.org/2000/svg">
<path d="M25.0665 5.83334H6.93317C5.4397 5.83334 4.69296 5.83334 4.12253 6.12399C3.62076 6.37966 3.21282 6.7876 2.95715 7.28937C2.6665 7.8598 2.6665 8.60654 2.6665 10.1V11.8333C5.24383 11.8333 7.33317 13.9227 7.33317 16.5C7.33317 19.0773 5.24383 21.1667 2.6665 21.1667V22.9C2.6665 24.3935 2.6665 25.1402 2.95715 25.7107C3.21282 26.2124 3.62076 26.6204 4.12253 26.876C4.69296 27.1667 5.4397 27.1667 6.93317 27.1667H25.0665C26.56 27.1667 27.3067 27.1667 27.8771 26.876C28.3789 26.6204 28.7869 26.2124 29.0425 25.7107C29.3332 25.1402 29.3332 24.3935 29.3332 22.9V21.1667C26.7558 21.1667 24.6665 19.0773 24.6665 16.5C24.6665 13.9227 26.7558 11.8333 29.3332 11.8333V10.1C29.3332 8.60654 29.3332 7.8598 29.0425 7.28937C28.7869 6.7876 28.3789 6.37966 27.8771 6.12399C27.3067 5.83334 26.56 5.83334 25.0665 5.83334Z" fill="#DCFFC7"/>
<path d="M13.3332 11.1667V9.83334M13.3332 17.1667V15.8333M13.3332 23.1667V21.8333M6.93317 5.83334H25.0665C26.56 5.83334 27.3067 5.83334 27.8771 6.12399C28.3789 6.37966 28.7869 6.7876 29.0425 7.28937C29.3332 7.8598 29.3332 8.60654 29.3332 10.1V11.8333C26.7558 11.8333 24.6665 13.9227 24.6665 16.5C24.6665 19.0773 26.7558 21.1667 29.3332 21.1667V22.9C29.3332 24.3935 29.3332 25.1402 29.0425 25.7107C28.7869 26.2124 28.3789 26.6204 27.8771 26.876C27.3067 27.1667 26.56 27.1667 25.0665 27.1667H6.93317C5.4397 27.1667 4.69296 27.1667 4.12253 26.876C3.62076 26.6204 3.21282 26.2124 2.95715 25.7107C2.6665 25.1402 2.6665 24.3935 2.6665 22.9V21.1667C5.24383 21.1667 7.33317 19.0773 7.33317 16.5C7.33317 13.9227 5.24383 11.8333 2.6665 11.8333V10.1C2.6665 8.60654 2.6665 7.8598 2.95715 7.28937C3.21282 6.7876 3.62076 6.37966 4.12253 6.12399C4.69296 5.83334 5.4397 5.83334 6.93317 5.83334Z" stroke="#7AC54C" stroke-width="2" stroke-linecap="round" stroke-linejoin="round"/>
</svg>
