<svg width="32" height="33" viewBox="0 0 32 33" fill="none" xmlns="http://www.w3.org/2000/svg">
<path d="M4 13.8334H28V12.2334C28 9.99314 28 8.87304 27.564 8.01739C27.1805 7.26474 26.5686 6.65282 25.816 6.26933C24.9603 5.83335 23.8402 5.83335 21.6 5.83335H21.3333H10.6667H10.4H10.4C8.15979 5.83335 7.03968 5.83335 6.18404 6.26933C5.43139 6.65282 4.81947 7.26474 4.43597 8.01739C4 8.87304 4 9.99314 4 12.2334V13.8334Z" fill="#DCFFC7"/>
<path d="M28 13.8334H4M28 17.1667V12.2334C28 9.99314 28 8.87304 27.564 8.01739C27.1805 7.26474 26.5686 6.65282 25.816 6.26933C24.9603 5.83335 23.8402 5.83335 21.6 5.83335H10.4C8.15979 5.83335 7.03969 5.83335 6.18404 6.26933C5.43139 6.65282 4.81947 7.26474 4.43597 8.01739C4 8.87304 4 9.99314 4 12.2334V23.4334C4 25.6736 4 26.7937 4.43597 27.6493C4.81947 28.402 5.43139 29.0139 6.18404 29.3974C7.03969 29.8334 8.15979 29.8334 10.4 29.8334H16M21.3333 3.16669V8.50002M10.6667 3.16669V8.50002M19.3333 25.8334L22 28.5L28 22.5" stroke="#7AC54C" stroke-width="2" stroke-linecap="round" stroke-linejoin="round"/>
</svg>
