<svg width="96" height="30" viewBox="0 0 96 30" fill="none" xmlns="http://www.w3.org/2000/svg">
<path d="M0.433612 24L3.38218 6.23923H15.1417L14.6214 9.33523H6.61693L5.92315 13.5673H13.1471L12.6268 16.6633H5.40281L4.1887 24H0.433612ZM19.7077 24.2602C18.3433 24.2602 17.213 23.9827 16.3168 23.4276C15.4207 22.8668 14.7905 22.0748 14.4263 21.0514C14.0678 20.0223 14.0071 18.8053 14.2442 17.4004C14.4754 16.0302 14.9408 14.8277 15.6404 13.7928C16.3457 12.7579 17.2303 11.9514 18.2941 11.3732C19.3579 10.7951 20.5431 10.506 21.8497 10.506C22.7285 10.506 23.5235 10.6476 24.2346 10.9309C24.9515 11.2084 25.547 11.6305 26.0211 12.1971C26.4952 12.7579 26.8189 13.4603 26.9924 14.3044C27.1716 15.1485 27.1687 16.1372 26.9837 17.2703L26.8189 18.285H15.5797L15.9353 15.9955H23.7056C23.7923 15.4636 23.7576 14.9924 23.6015 14.5819C23.4454 14.1715 23.1853 13.8506 22.821 13.6193C22.4568 13.3823 22.0087 13.2638 21.4768 13.2638C20.9334 13.2638 20.4246 13.3967 19.9505 13.6627C19.4764 13.9286 19.0775 14.2784 18.7537 14.712C18.4358 15.1399 18.2305 15.6053 18.138 16.1083L17.7304 18.3804C17.6148 19.0799 17.6379 19.661 17.7998 20.1235C17.9675 20.586 18.2565 20.9329 18.667 21.1642C19.0775 21.3897 19.5978 21.5024 20.228 21.5024C20.6385 21.5024 21.023 21.4446 21.3814 21.3289C21.7457 21.2133 22.0694 21.0428 22.3527 20.8173C22.636 20.586 22.8673 20.2998 23.0465 19.9587L26.42 20.1842C26.1078 21.0052 25.6337 21.7221 24.9978 22.3349C24.3618 22.942 23.5957 23.4161 22.6996 23.7572C21.8093 24.0925 20.812 24.2602 19.7077 24.2602ZM28.291 24L30.5111 10.6794H34.0928L33.7025 13.0036H33.8413C34.2229 12.1768 34.7345 11.5524 35.3763 11.1304C36.0238 10.7026 36.7205 10.4886 37.4663 10.4886C37.6513 10.4886 37.845 10.5002 38.0473 10.5233C38.2555 10.5407 38.4405 10.5696 38.6023 10.61L38.0473 13.8968C37.8854 13.839 37.6542 13.7928 37.3535 13.7581C37.0587 13.7176 36.7783 13.6974 36.5123 13.6974C35.9747 13.6974 35.4746 13.8159 35.012 14.0529C34.5495 14.2842 34.1593 14.608 33.8413 15.0242C33.5291 15.4405 33.3238 15.9204 33.2256 16.4638L31.9854 24H28.291ZM43.2789 16.299L41.9954 24H38.3097L40.5298 10.6794H44.042L43.6604 13.0296H43.8079C44.2299 12.2491 44.8254 11.6334 45.5943 11.1824C46.3691 10.7315 47.2507 10.506 48.2394 10.506C49.1644 10.506 49.9363 10.7083 50.5549 11.113C51.1793 11.5177 51.6187 12.093 51.8731 12.8388C52.1332 13.5846 52.1766 14.4779 52.0031 15.5185L50.5809 24H46.8865L48.196 16.1776C48.329 15.3624 48.2249 14.7265 47.8838 14.2697C47.5485 13.8072 47.0079 13.576 46.2621 13.576C45.7649 13.576 45.3082 13.6829 44.8919 13.8968C44.4756 14.1107 44.1258 14.4229 43.8426 14.8334C43.565 15.2381 43.3771 15.7267 43.2789 16.299ZM53.4753 24L55.6953 10.6794H59.3897L57.1696 24H53.4753ZM57.9241 8.94497C57.3749 8.94497 56.921 8.76286 56.5626 8.39862C56.2099 8.02861 56.0654 7.58921 56.129 7.08044C56.1926 6.56011 56.4412 6.12071 56.8748 5.76226C57.3084 5.39803 57.7998 5.21591 58.3491 5.21591C58.8983 5.21591 59.3464 5.39803 59.6933 5.76226C60.0401 6.12071 60.1847 6.56011 60.1269 7.08044C60.0691 7.58921 59.8233 8.02861 59.3897 8.39862C58.9619 8.76286 58.4734 8.94497 57.9241 8.94497ZM60.0857 24L60.4412 21.7972L68.2896 13.7234L68.3243 13.628H62.0283L62.5226 10.6794H73.2762L72.8946 13.0816L65.4625 20.956L65.4278 21.0514H71.7759L71.2989 24H60.0857Z" fill="white"/>
<rect x="80.1055" y="7.36816" width="15.2632" height="15.2632" rx="7.63158" fill="#A8FF73"/>
<path d="M90.2721 10.7598L87.2931 15.1102C87.1613 15.3028 87.0953 15.3991 87.0982 15.4793C87.1007 15.5492 87.1328 15.6144 87.1859 15.6571C87.2468 15.7062 87.3603 15.7062 87.5871 15.7062H89.8205L89.3689 19.2393L92.3479 14.8888C92.4797 14.6963 92.5456 14.6 92.5428 14.5197C92.5403 14.4498 92.5082 14.3847 92.4551 14.342C92.3941 14.2929 92.2807 14.2929 92.0539 14.2929H89.8205L90.2721 10.7598Z" fill="#D5FFBC"/>
<path d="M86.6593 17.5905H84.1755M85.5303 14.9995H83.498M86.6593 12.4086H84.4013M90.2721 10.7598L87.2931 15.1102C87.1613 15.3028 87.0953 15.3991 87.0982 15.4793C87.1007 15.5492 87.1328 15.6144 87.1859 15.6571C87.2468 15.7062 87.3603 15.7062 87.5871 15.7062H89.8205L89.3689 19.2393L92.3479 14.8888C92.4797 14.6963 92.5456 14.6 92.5428 14.5197C92.5403 14.4498 92.5082 14.3847 92.4551 14.342C92.3941 14.2929 92.2807 14.2929 92.0539 14.2929H89.8205L90.2721 10.7598Z" stroke="#0B0E18" stroke-width="0.763158" stroke-linecap="round" stroke-linejoin="round"/>
</svg>
